M48
;DRILL file {Pcbnew (2012-nov-02)-testing} date Mon 24 Dec 2012 03:27:57 AM MST
;FORMAT={-:-/ absolute / inch / decimal}
FMAT,2
INCH,TZ
T1C0.025
T2C0.032
T3C0.040
%
G90
G05
M72
T1
X7.81Y-1.83
X7.85Y-1.98
X7.88Y-1.715
X8.37Y-2.065
X8.505Y-2.065
X9.225Y-1.74
X9.255Y-1.52
X9.5Y-1.85
T2
X7.64Y-1.17
X7.64Y-1.27
X7.64Y-1.37
X7.64Y-1.47
X7.64Y-1.57
X7.64Y-1.67
X7.64Y-1.77
X7.64Y-1.87
X7.64Y-1.97
X7.64Y-2.07
X7.74Y-1.17
X7.74Y-1.27
X7.74Y-1.37
X7.74Y-1.47
X7.74Y-1.57
X7.74Y-1.67
X7.74Y-1.77
X7.74Y-1.87
X7.74Y-1.97
X7.74Y-2.07
X7.94Y-1.27
X7.94Y-1.37
X7.94Y-1.47
X7.94Y-1.57
X7.94Y-1.67
X7.94Y-1.77
X7.94Y-1.87
X7.94Y-1.97
X8.015Y-2.145
X8.115Y-2.145
X8.215Y-2.145
X8.315Y-2.145
X8.44Y-1.27
X8.44Y-1.37
X8.44Y-1.47
X8.44Y-1.57
X8.44Y-1.67
X8.44Y-1.77
X8.44Y-1.87
X8.44Y-1.97
X8.64Y-1.27
X8.64Y-1.37
X8.64Y-1.47
X8.64Y-1.57
X8.64Y-1.67
X8.64Y-1.77
X8.64Y-1.87
X8.64Y-1.97
X8.765Y-2.145
X8.865Y-2.145
X8.965Y-2.145
X9.065Y-2.145
X9.14Y-1.27
X9.14Y-1.37
X9.14Y-1.47
X9.14Y-1.57
X9.14Y-1.67
X9.14Y-1.77
X9.14Y-1.87
X9.14Y-1.97
X9.34Y-1.195
X9.34Y-1.295
X9.34Y-1.395
X9.34Y-1.495
X9.34Y-1.595
X9.34Y-1.695
X9.34Y-1.795
X9.34Y-1.895
X9.34Y-1.995
X9.34Y-2.095
X9.44Y-1.195
X9.44Y-1.295
X9.44Y-1.395
X9.44Y-1.495
X9.44Y-1.595
X9.44Y-1.695
X9.44Y-1.795
X9.44Y-1.895
X9.44Y-1.995
X9.44Y-2.095
X9.79Y-1.02
X9.79Y-1.32
X9.79Y-1.445
X9.79Y-1.745
X9.79Y-1.895
X9.79Y-2.195
X9.915Y-1.02
X9.915Y-1.12
X9.915Y-1.22
X9.915Y-1.32
X9.915Y-1.445
X9.915Y-1.545
X9.915Y-1.645
X9.915Y-1.745
X9.915Y-1.895
X9.915Y-1.995
X9.915Y-2.095
X9.915Y-2.195
T3
X8.09Y-1.295
X8.29Y-1.295
X8.465Y-0.97
X8.465Y-1.07
X8.565Y-0.97
X8.565Y-1.07
X8.665Y-0.97
X8.665Y-1.07
X8.79Y-1.295
X8.99Y-1.295
X9.665Y-1.07
X9.665Y-1.17
X9.665Y-1.27
X9.665Y-1.495
X9.665Y-1.595
X9.665Y-1.695
X9.665Y-1.945
X9.665Y-2.045
X9.665Y-2.145
T0
M30
