G04 (created by PCBNEW (2012-nov-02)-testing) date Mon 24 Dec 2012 03:27:36 AM MST*
%MOIN*%
G04 Gerber Fmt 3.4, Leading zero omitted, Abs format*
%FSLAX34Y34*%
G01*
G70*
G90*
G04 APERTURE LIST*
%ADD10C,0.006*%
%ADD11R,0.055X0.055*%
%ADD12C,0.055*%
%ADD13R,0.06X0.06*%
%ADD14C,0.06*%
%ADD15R,0.07X0.07*%
%ADD16C,0.07*%
G04 APERTURE END LIST*
G54D10*
G54D11*
X99150Y-10200D03*
G54D12*
X99150Y-11200D03*
X99150Y-12200D03*
X99150Y-13200D03*
G54D11*
X99150Y-14450D03*
G54D12*
X99150Y-15450D03*
X99150Y-16450D03*
X99150Y-17450D03*
G54D11*
X87650Y-21450D03*
G54D12*
X88650Y-21450D03*
X89650Y-21450D03*
X90650Y-21450D03*
G54D11*
X80150Y-21450D03*
G54D12*
X81150Y-21450D03*
X82150Y-21450D03*
X83150Y-21450D03*
G54D11*
X99150Y-18950D03*
G54D12*
X99150Y-19950D03*
X99150Y-20950D03*
X99150Y-21950D03*
G54D11*
X76400Y-20700D03*
G54D12*
X76400Y-19700D03*
X76400Y-18700D03*
X76400Y-17700D03*
X76400Y-16700D03*
X76400Y-15700D03*
X76400Y-14700D03*
X76400Y-13700D03*
X76400Y-12700D03*
X76400Y-11700D03*
G54D11*
X93400Y-20950D03*
G54D12*
X93400Y-19950D03*
X93400Y-18950D03*
X93400Y-17950D03*
X93400Y-16950D03*
X93400Y-15950D03*
X93400Y-14950D03*
X93400Y-13950D03*
X93400Y-12950D03*
X93400Y-11950D03*
G54D11*
X77400Y-20700D03*
G54D12*
X77400Y-19700D03*
X77400Y-18700D03*
X77400Y-17700D03*
X77400Y-16700D03*
X77400Y-15700D03*
X77400Y-14700D03*
X77400Y-13700D03*
X77400Y-12700D03*
X77400Y-11700D03*
G54D11*
X94400Y-20950D03*
G54D12*
X94400Y-19950D03*
X94400Y-18950D03*
X94400Y-17950D03*
X94400Y-16950D03*
X94400Y-15950D03*
X94400Y-14950D03*
X94400Y-13950D03*
X94400Y-12950D03*
X94400Y-11950D03*
X97900Y-18950D03*
X97900Y-21950D03*
X97900Y-14450D03*
X97900Y-17450D03*
X97900Y-10200D03*
X97900Y-13200D03*
G54D13*
X84650Y-10700D03*
G54D14*
X84650Y-9700D03*
X85650Y-10700D03*
X85650Y-9700D03*
X86650Y-10700D03*
X86650Y-9700D03*
G54D15*
X80900Y-12950D03*
G54D16*
X82900Y-12950D03*
G54D15*
X87900Y-12950D03*
G54D16*
X89900Y-12950D03*
G54D13*
X91400Y-19700D03*
G54D14*
X91400Y-18700D03*
X91400Y-17700D03*
X91400Y-16700D03*
X91400Y-15700D03*
X91400Y-14700D03*
G54D13*
X91400Y-13700D03*
G54D14*
X91400Y-12700D03*
X86400Y-12700D03*
X86400Y-13700D03*
X86400Y-14700D03*
X86400Y-15700D03*
X86400Y-16700D03*
X86400Y-17700D03*
X86400Y-18700D03*
X86400Y-19700D03*
G54D13*
X84400Y-19700D03*
G54D14*
X84400Y-18700D03*
X84400Y-17700D03*
X84400Y-16700D03*
X84400Y-15700D03*
X84400Y-14700D03*
G54D13*
X84400Y-13700D03*
G54D14*
X84400Y-12700D03*
X79400Y-12700D03*
X79400Y-13700D03*
X79400Y-14700D03*
X79400Y-15700D03*
X79400Y-16700D03*
X79400Y-17700D03*
X79400Y-18700D03*
X79400Y-19700D03*
G54D16*
X96650Y-19450D03*
X96650Y-20450D03*
G54D15*
X96650Y-21450D03*
G54D16*
X96650Y-14950D03*
X96650Y-15950D03*
G54D15*
X96650Y-16950D03*
G54D16*
X96650Y-10700D03*
X96650Y-11700D03*
G54D15*
X96650Y-12700D03*
M02*
