G04 (created by PCBNEW (2012-nov-02)-testing) date Mon 24 Dec 2012 03:27:36 AM MST*
%MOIN*%
G04 Gerber Fmt 3.4, Leading zero omitted, Abs format*
%FSLAX34Y34*%
G01*
G70*
G90*
G04 APERTURE LIST*
%ADD10C,0.006*%
%ADD11R,0.055X0.055*%
%ADD12C,0.055*%
%ADD13R,0.06X0.06*%
%ADD14C,0.06*%
%ADD15R,0.07X0.07*%
%ADD16C,0.07*%
%ADD17C,0.035*%
%ADD18C,0.008*%
%ADD19C,0.05*%
%ADD20C,0.04*%
%ADD21C,0.01*%
G04 APERTURE END LIST*
G54D10*
G54D11*
X99150Y-10200D03*
G54D12*
X99150Y-11200D03*
X99150Y-12200D03*
X99150Y-13200D03*
G54D11*
X99150Y-14450D03*
G54D12*
X99150Y-15450D03*
X99150Y-16450D03*
X99150Y-17450D03*
G54D11*
X87650Y-21450D03*
G54D12*
X88650Y-21450D03*
X89650Y-21450D03*
X90650Y-21450D03*
G54D11*
X80150Y-21450D03*
G54D12*
X81150Y-21450D03*
X82150Y-21450D03*
X83150Y-21450D03*
G54D11*
X99150Y-18950D03*
G54D12*
X99150Y-19950D03*
X99150Y-20950D03*
X99150Y-21950D03*
G54D11*
X76400Y-20700D03*
G54D12*
X76400Y-19700D03*
X76400Y-18700D03*
X76400Y-17700D03*
X76400Y-16700D03*
X76400Y-15700D03*
X76400Y-14700D03*
X76400Y-13700D03*
X76400Y-12700D03*
X76400Y-11700D03*
G54D11*
X93400Y-20950D03*
G54D12*
X93400Y-19950D03*
X93400Y-18950D03*
X93400Y-17950D03*
X93400Y-16950D03*
X93400Y-15950D03*
X93400Y-14950D03*
X93400Y-13950D03*
X93400Y-12950D03*
X93400Y-11950D03*
G54D11*
X77400Y-20700D03*
G54D12*
X77400Y-19700D03*
X77400Y-18700D03*
X77400Y-17700D03*
X77400Y-16700D03*
X77400Y-15700D03*
X77400Y-14700D03*
X77400Y-13700D03*
X77400Y-12700D03*
X77400Y-11700D03*
G54D11*
X94400Y-20950D03*
G54D12*
X94400Y-19950D03*
X94400Y-18950D03*
X94400Y-17950D03*
X94400Y-16950D03*
X94400Y-15950D03*
X94400Y-14950D03*
X94400Y-13950D03*
X94400Y-12950D03*
X94400Y-11950D03*
X97900Y-18950D03*
X97900Y-21950D03*
X97900Y-14450D03*
X97900Y-17450D03*
X97900Y-10200D03*
X97900Y-13200D03*
G54D13*
X84650Y-10700D03*
G54D14*
X84650Y-9700D03*
X85650Y-10700D03*
X85650Y-9700D03*
X86650Y-10700D03*
X86650Y-9700D03*
G54D15*
X80900Y-12950D03*
G54D16*
X82900Y-12950D03*
G54D15*
X87900Y-12950D03*
G54D16*
X89900Y-12950D03*
G54D13*
X91400Y-19700D03*
G54D14*
X91400Y-18700D03*
X91400Y-17700D03*
X91400Y-16700D03*
X91400Y-15700D03*
X91400Y-14700D03*
G54D13*
X91400Y-13700D03*
G54D14*
X91400Y-12700D03*
X86400Y-12700D03*
X86400Y-13700D03*
X86400Y-14700D03*
X86400Y-15700D03*
X86400Y-16700D03*
X86400Y-17700D03*
X86400Y-18700D03*
X86400Y-19700D03*
G54D13*
X84400Y-19700D03*
G54D14*
X84400Y-18700D03*
X84400Y-17700D03*
X84400Y-16700D03*
X84400Y-15700D03*
X84400Y-14700D03*
G54D13*
X84400Y-13700D03*
G54D14*
X84400Y-12700D03*
X79400Y-12700D03*
X79400Y-13700D03*
X79400Y-14700D03*
X79400Y-15700D03*
X79400Y-16700D03*
X79400Y-17700D03*
X79400Y-18700D03*
X79400Y-19700D03*
G54D16*
X96650Y-19450D03*
X96650Y-20450D03*
G54D15*
X96650Y-21450D03*
G54D16*
X96650Y-14950D03*
X96650Y-15950D03*
G54D15*
X96650Y-16950D03*
G54D16*
X96650Y-10700D03*
X96650Y-11700D03*
G54D15*
X96650Y-12700D03*
G54D17*
X95000Y-18500D03*
X78100Y-18300D03*
X78800Y-17150D03*
X78500Y-19800D03*
X83700Y-20650D03*
X85050Y-20650D03*
X92250Y-17400D03*
X92550Y-15200D03*
G54D18*
X93900Y-14450D02*
X93400Y-13950D01*
X94900Y-14450D02*
X93900Y-14450D01*
X95000Y-14550D02*
X94900Y-14450D01*
X95000Y-18500D02*
X95000Y-14550D01*
X79400Y-19700D02*
X79050Y-19700D01*
X78100Y-18750D02*
X78100Y-18300D01*
X79050Y-19700D02*
X78100Y-18750D01*
X93400Y-18950D02*
X92150Y-18950D01*
X79900Y-19200D02*
X79400Y-18700D01*
X91900Y-19200D02*
X79900Y-19200D01*
X92150Y-18950D02*
X91900Y-19200D01*
X86400Y-19700D02*
X86400Y-20450D01*
X78300Y-16650D02*
X78300Y-15600D01*
X78800Y-17150D02*
X78300Y-16650D01*
X78500Y-20300D02*
X78500Y-19800D01*
X78850Y-20650D02*
X78500Y-20300D01*
X78300Y-15600D02*
X77400Y-14700D01*
X83700Y-20650D02*
X78850Y-20650D01*
X86200Y-20650D02*
X85050Y-20650D01*
X86400Y-20450D02*
X86200Y-20650D01*
X94400Y-11950D02*
X94600Y-11950D01*
X87900Y-14200D02*
X86400Y-12700D01*
X92100Y-14200D02*
X87900Y-14200D01*
X92850Y-13450D02*
X92100Y-14200D01*
X94750Y-13450D02*
X92850Y-13450D01*
X95050Y-13150D02*
X94750Y-13450D01*
X95050Y-12400D02*
X95050Y-13150D01*
X94600Y-11950D02*
X95050Y-12400D01*
X93400Y-17950D02*
X92150Y-17950D01*
X86900Y-18200D02*
X86400Y-18700D01*
X91900Y-18200D02*
X86900Y-18200D01*
X92150Y-17950D02*
X91900Y-18200D01*
X79400Y-15700D02*
X83400Y-15700D01*
X85900Y-16200D02*
X86400Y-15700D01*
X83900Y-16200D02*
X85900Y-16200D01*
X83400Y-15700D02*
X83900Y-16200D01*
X86400Y-14700D02*
X86900Y-14700D01*
X92250Y-16650D02*
X92250Y-17400D01*
X91800Y-16200D02*
X92250Y-16650D01*
X88400Y-16200D02*
X91800Y-16200D01*
X86900Y-14700D02*
X88400Y-16200D01*
X86400Y-14700D02*
X85900Y-14700D01*
X79900Y-15200D02*
X79400Y-14700D01*
X85400Y-15200D02*
X79900Y-15200D01*
X85900Y-14700D02*
X85400Y-15200D01*
X87250Y-14550D02*
X86400Y-13700D01*
X88050Y-14550D02*
X87250Y-14550D01*
X88700Y-15200D02*
X88050Y-14550D01*
X92550Y-15200D02*
X88700Y-15200D01*
X86400Y-13700D02*
X85650Y-13700D01*
X79900Y-14200D02*
X79400Y-13700D01*
X85150Y-14200D02*
X79900Y-14200D01*
X85650Y-13700D02*
X85150Y-14200D01*
X94400Y-20950D02*
X94400Y-21500D01*
X93500Y-21800D02*
X91400Y-19700D01*
X94100Y-21800D02*
X93500Y-21800D01*
X94400Y-21500D02*
X94100Y-21800D01*
X94400Y-20950D02*
X95250Y-20950D01*
X95250Y-20950D02*
X95650Y-20550D01*
G54D19*
X96650Y-16950D02*
X97400Y-16950D01*
X97400Y-16950D02*
X97900Y-17450D01*
X95650Y-16950D02*
X96650Y-16950D01*
X96650Y-21450D02*
X97400Y-21450D01*
X97400Y-21450D02*
X97900Y-21950D01*
X95650Y-12200D02*
X95650Y-16950D01*
X95650Y-16950D02*
X95650Y-20550D01*
X95650Y-20550D02*
X95650Y-21450D01*
X95650Y-21450D02*
X96650Y-21450D01*
X96650Y-12700D02*
X97400Y-12700D01*
X97400Y-12700D02*
X97900Y-13200D01*
X96650Y-12700D02*
X95900Y-12700D01*
X94400Y-9700D02*
X86650Y-9700D01*
X95650Y-10950D02*
X94400Y-9700D01*
X95650Y-12450D02*
X95650Y-12200D01*
X95650Y-12200D02*
X95650Y-10950D01*
X95900Y-12700D02*
X95650Y-12450D01*
X91400Y-13700D02*
X90650Y-13700D01*
X90650Y-13700D02*
X89900Y-12950D01*
X86650Y-9700D02*
X89900Y-12950D01*
X82900Y-12950D02*
X82900Y-10200D01*
X83400Y-9700D02*
X84650Y-9700D01*
X82900Y-10200D02*
X83400Y-9700D01*
X84400Y-13700D02*
X83650Y-13700D01*
X83650Y-13700D02*
X82900Y-12950D01*
G54D18*
X79400Y-16700D02*
X79400Y-17700D01*
G54D20*
X96650Y-15950D02*
X98650Y-15950D01*
X98650Y-15950D02*
X99150Y-16450D01*
X99150Y-16450D02*
X99150Y-17450D01*
X96650Y-11700D02*
X98650Y-11700D01*
X98650Y-11700D02*
X99150Y-12200D01*
X99150Y-12200D02*
X99150Y-13200D01*
X99150Y-20950D02*
X99150Y-21950D01*
X96650Y-20450D02*
X98100Y-20450D01*
X98600Y-20950D02*
X99150Y-20950D01*
X98100Y-20450D02*
X98600Y-20950D01*
G54D18*
X86400Y-16700D02*
X86400Y-17700D01*
G54D10*
G36*
X99850Y-22400D02*
X99435Y-22400D01*
X99447Y-22395D01*
X99594Y-22247D01*
X99674Y-22054D01*
X99675Y-21846D01*
X99600Y-21664D01*
X99600Y-21235D01*
X99674Y-21054D01*
X99675Y-20846D01*
X99595Y-20653D01*
X99447Y-20505D01*
X99314Y-20449D01*
X99447Y-20395D01*
X99594Y-20247D01*
X99674Y-20054D01*
X99675Y-19846D01*
X99675Y-17346D01*
X99600Y-17164D01*
X99600Y-16735D01*
X99674Y-16554D01*
X99675Y-16346D01*
X99595Y-16153D01*
X99447Y-16005D01*
X99314Y-15949D01*
X99447Y-15895D01*
X99594Y-15747D01*
X99674Y-15554D01*
X99675Y-15346D01*
X99675Y-13096D01*
X99600Y-12914D01*
X99600Y-12485D01*
X99674Y-12304D01*
X99675Y-12096D01*
X99595Y-11903D01*
X99447Y-11755D01*
X99314Y-11699D01*
X99447Y-11645D01*
X99594Y-11497D01*
X99674Y-11304D01*
X99675Y-11096D01*
X99595Y-10903D01*
X99447Y-10755D01*
X99375Y-10725D01*
X99474Y-10725D01*
X99566Y-10687D01*
X99636Y-10616D01*
X99674Y-10524D01*
X99675Y-10425D01*
X99675Y-9875D01*
X99637Y-9783D01*
X99566Y-9713D01*
X99474Y-9675D01*
X99375Y-9674D01*
X98825Y-9674D01*
X98733Y-9712D01*
X98663Y-9783D01*
X98625Y-9875D01*
X98624Y-9974D01*
X98624Y-10524D01*
X98662Y-10616D01*
X98733Y-10686D01*
X98825Y-10724D01*
X98924Y-10725D01*
X98924Y-10725D01*
X98853Y-10754D01*
X98705Y-10902D01*
X98625Y-11095D01*
X98624Y-11250D01*
X98425Y-11250D01*
X98425Y-10096D01*
X98345Y-9903D01*
X98197Y-9755D01*
X98004Y-9675D01*
X97796Y-9674D01*
X97603Y-9754D01*
X97455Y-9902D01*
X97375Y-10095D01*
X97374Y-10303D01*
X97454Y-10497D01*
X97602Y-10644D01*
X97795Y-10724D01*
X98003Y-10725D01*
X98197Y-10645D01*
X98344Y-10497D01*
X98424Y-10304D01*
X98425Y-10096D01*
X98425Y-11250D01*
X97048Y-11250D01*
X96998Y-11199D01*
X97158Y-11040D01*
X97249Y-10819D01*
X97250Y-10581D01*
X97158Y-10360D01*
X96990Y-10191D01*
X96769Y-10100D01*
X96531Y-10099D01*
X96310Y-10191D01*
X96141Y-10359D01*
X96050Y-10580D01*
X96049Y-10818D01*
X96141Y-11039D01*
X96301Y-11200D01*
X96141Y-11359D01*
X96050Y-11580D01*
X96049Y-11818D01*
X96141Y-12039D01*
X96215Y-12114D01*
X96158Y-12137D01*
X96088Y-12208D01*
X96050Y-12300D01*
X96049Y-12399D01*
X96049Y-13099D01*
X96087Y-13191D01*
X96158Y-13261D01*
X96250Y-13299D01*
X96349Y-13300D01*
X97049Y-13300D01*
X97141Y-13262D01*
X97211Y-13191D01*
X97249Y-13099D01*
X97250Y-13000D01*
X97250Y-12300D01*
X97212Y-12208D01*
X97153Y-12150D01*
X98463Y-12150D01*
X98630Y-12316D01*
X98700Y-12485D01*
X98700Y-12914D01*
X98625Y-13095D01*
X98624Y-13303D01*
X98704Y-13497D01*
X98852Y-13644D01*
X99045Y-13724D01*
X99253Y-13725D01*
X99447Y-13645D01*
X99594Y-13497D01*
X99674Y-13304D01*
X99675Y-13096D01*
X99675Y-15346D01*
X99595Y-15153D01*
X99447Y-15005D01*
X99375Y-14975D01*
X99474Y-14975D01*
X99566Y-14937D01*
X99636Y-14866D01*
X99674Y-14774D01*
X99675Y-14675D01*
X99675Y-14125D01*
X99637Y-14033D01*
X99566Y-13963D01*
X99474Y-13925D01*
X99375Y-13924D01*
X98825Y-13924D01*
X98733Y-13962D01*
X98663Y-14033D01*
X98625Y-14125D01*
X98624Y-14224D01*
X98624Y-14774D01*
X98662Y-14866D01*
X98733Y-14936D01*
X98825Y-14974D01*
X98924Y-14975D01*
X98924Y-14975D01*
X98853Y-15004D01*
X98705Y-15152D01*
X98625Y-15345D01*
X98624Y-15500D01*
X98425Y-15500D01*
X98425Y-14346D01*
X98345Y-14153D01*
X98197Y-14005D01*
X98004Y-13925D01*
X97796Y-13924D01*
X97603Y-14004D01*
X97455Y-14152D01*
X97375Y-14345D01*
X97374Y-14553D01*
X97454Y-14747D01*
X97602Y-14894D01*
X97795Y-14974D01*
X98003Y-14975D01*
X98197Y-14895D01*
X98344Y-14747D01*
X98424Y-14554D01*
X98425Y-14346D01*
X98425Y-15500D01*
X97048Y-15500D01*
X96998Y-15449D01*
X97158Y-15290D01*
X97249Y-15069D01*
X97250Y-14831D01*
X97158Y-14610D01*
X96990Y-14441D01*
X96769Y-14350D01*
X96531Y-14349D01*
X96310Y-14441D01*
X96141Y-14609D01*
X96050Y-14830D01*
X96049Y-15068D01*
X96141Y-15289D01*
X96301Y-15450D01*
X96141Y-15609D01*
X96050Y-15830D01*
X96049Y-16068D01*
X96141Y-16289D01*
X96215Y-16364D01*
X96158Y-16387D01*
X96088Y-16458D01*
X96050Y-16550D01*
X96049Y-16649D01*
X96049Y-17349D01*
X96087Y-17441D01*
X96158Y-17511D01*
X96250Y-17549D01*
X96349Y-17550D01*
X97049Y-17550D01*
X97141Y-17512D01*
X97211Y-17441D01*
X97249Y-17349D01*
X97250Y-17250D01*
X97250Y-16550D01*
X97212Y-16458D01*
X97153Y-16400D01*
X98463Y-16400D01*
X98630Y-16566D01*
X98700Y-16735D01*
X98700Y-17164D01*
X98625Y-17345D01*
X98624Y-17553D01*
X98704Y-17747D01*
X98852Y-17894D01*
X99045Y-17974D01*
X99253Y-17975D01*
X99447Y-17895D01*
X99594Y-17747D01*
X99674Y-17554D01*
X99675Y-17346D01*
X99675Y-19846D01*
X99595Y-19653D01*
X99447Y-19505D01*
X99375Y-19475D01*
X99474Y-19475D01*
X99566Y-19437D01*
X99636Y-19366D01*
X99674Y-19274D01*
X99675Y-19175D01*
X99675Y-18625D01*
X99637Y-18533D01*
X99566Y-18463D01*
X99474Y-18425D01*
X99375Y-18424D01*
X98825Y-18424D01*
X98733Y-18462D01*
X98663Y-18533D01*
X98625Y-18625D01*
X98624Y-18724D01*
X98624Y-19274D01*
X98662Y-19366D01*
X98733Y-19436D01*
X98825Y-19474D01*
X98924Y-19475D01*
X98924Y-19475D01*
X98853Y-19504D01*
X98705Y-19652D01*
X98625Y-19845D01*
X98624Y-20053D01*
X98704Y-20247D01*
X98852Y-20394D01*
X98985Y-20450D01*
X98864Y-20500D01*
X98786Y-20500D01*
X98425Y-20138D01*
X98425Y-18846D01*
X98345Y-18653D01*
X98197Y-18505D01*
X98004Y-18425D01*
X97796Y-18424D01*
X97603Y-18504D01*
X97455Y-18652D01*
X97375Y-18845D01*
X97374Y-19053D01*
X97454Y-19247D01*
X97602Y-19394D01*
X97795Y-19474D01*
X98003Y-19475D01*
X98197Y-19395D01*
X98344Y-19247D01*
X98424Y-19054D01*
X98425Y-18846D01*
X98425Y-20138D01*
X98418Y-20131D01*
X98272Y-20034D01*
X98100Y-20000D01*
X97048Y-20000D01*
X96998Y-19949D01*
X97158Y-19790D01*
X97249Y-19569D01*
X97250Y-19331D01*
X97158Y-19110D01*
X96990Y-18941D01*
X96769Y-18850D01*
X96531Y-18849D01*
X96310Y-18941D01*
X96141Y-19109D01*
X96050Y-19330D01*
X96049Y-19568D01*
X96141Y-19789D01*
X96301Y-19950D01*
X96141Y-20109D01*
X96050Y-20330D01*
X96049Y-20568D01*
X96141Y-20789D01*
X96215Y-20864D01*
X96158Y-20887D01*
X96088Y-20958D01*
X96050Y-21050D01*
X96049Y-21149D01*
X96049Y-21849D01*
X96087Y-21941D01*
X96158Y-22011D01*
X96250Y-22049D01*
X96349Y-22050D01*
X97049Y-22050D01*
X97141Y-22012D01*
X97211Y-21941D01*
X97249Y-21849D01*
X97250Y-21750D01*
X97250Y-21050D01*
X97212Y-20958D01*
X97153Y-20900D01*
X97913Y-20900D01*
X98281Y-21268D01*
X98427Y-21365D01*
X98600Y-21400D01*
X98700Y-21400D01*
X98700Y-21664D01*
X98625Y-21845D01*
X98624Y-22053D01*
X98704Y-22247D01*
X98852Y-22394D01*
X98864Y-22400D01*
X91175Y-22400D01*
X91175Y-21346D01*
X91095Y-21153D01*
X90947Y-21005D01*
X90754Y-20925D01*
X90546Y-20924D01*
X90353Y-21004D01*
X90205Y-21152D01*
X90149Y-21285D01*
X90095Y-21153D01*
X89947Y-21005D01*
X89754Y-20925D01*
X89546Y-20924D01*
X89353Y-21004D01*
X89205Y-21152D01*
X89149Y-21285D01*
X89095Y-21153D01*
X88947Y-21005D01*
X88754Y-20925D01*
X88546Y-20924D01*
X88353Y-21004D01*
X88205Y-21152D01*
X88175Y-21224D01*
X88175Y-21125D01*
X88137Y-21033D01*
X88066Y-20963D01*
X87974Y-20925D01*
X87875Y-20924D01*
X87325Y-20924D01*
X87233Y-20962D01*
X87163Y-21033D01*
X87125Y-21125D01*
X87124Y-21224D01*
X87124Y-21774D01*
X87162Y-21866D01*
X87233Y-21936D01*
X87325Y-21974D01*
X87424Y-21975D01*
X87974Y-21975D01*
X88066Y-21937D01*
X88136Y-21866D01*
X88174Y-21774D01*
X88175Y-21675D01*
X88175Y-21675D01*
X88204Y-21747D01*
X88352Y-21894D01*
X88545Y-21974D01*
X88753Y-21975D01*
X88947Y-21895D01*
X89094Y-21747D01*
X89150Y-21614D01*
X89204Y-21747D01*
X89352Y-21894D01*
X89545Y-21974D01*
X89753Y-21975D01*
X89947Y-21895D01*
X90094Y-21747D01*
X90150Y-21614D01*
X90204Y-21747D01*
X90352Y-21894D01*
X90545Y-21974D01*
X90753Y-21975D01*
X90947Y-21895D01*
X91094Y-21747D01*
X91174Y-21554D01*
X91175Y-21346D01*
X91175Y-22400D01*
X76950Y-22400D01*
X76950Y-21153D01*
X76983Y-21186D01*
X77075Y-21224D01*
X77174Y-21225D01*
X77724Y-21225D01*
X77816Y-21187D01*
X77886Y-21116D01*
X77924Y-21024D01*
X77925Y-20925D01*
X77925Y-20375D01*
X77887Y-20283D01*
X77816Y-20213D01*
X77724Y-20175D01*
X77625Y-20174D01*
X77075Y-20174D01*
X76983Y-20212D01*
X76950Y-20246D01*
X76950Y-18985D01*
X76954Y-18997D01*
X77102Y-19144D01*
X77295Y-19224D01*
X77503Y-19225D01*
X77697Y-19145D01*
X77844Y-18997D01*
X77874Y-18925D01*
X77894Y-18955D01*
X78344Y-19404D01*
X78259Y-19439D01*
X78139Y-19558D01*
X78075Y-19715D01*
X78074Y-19884D01*
X78139Y-20040D01*
X78210Y-20111D01*
X78210Y-20300D01*
X78232Y-20410D01*
X78294Y-20505D01*
X78644Y-20855D01*
X78644Y-20855D01*
X78739Y-20917D01*
X78849Y-20940D01*
X78849Y-20939D01*
X78850Y-20940D01*
X79789Y-20940D01*
X79733Y-20962D01*
X79663Y-21033D01*
X79625Y-21125D01*
X79624Y-21224D01*
X79624Y-21774D01*
X79662Y-21866D01*
X79733Y-21936D01*
X79825Y-21974D01*
X79924Y-21975D01*
X80474Y-21975D01*
X80566Y-21937D01*
X80636Y-21866D01*
X80674Y-21774D01*
X80675Y-21675D01*
X80675Y-21675D01*
X80704Y-21747D01*
X80852Y-21894D01*
X81045Y-21974D01*
X81253Y-21975D01*
X81447Y-21895D01*
X81594Y-21747D01*
X81650Y-21614D01*
X81704Y-21747D01*
X81852Y-21894D01*
X82045Y-21974D01*
X82253Y-21975D01*
X82447Y-21895D01*
X82594Y-21747D01*
X82650Y-21614D01*
X82704Y-21747D01*
X82852Y-21894D01*
X83045Y-21974D01*
X83253Y-21975D01*
X83447Y-21895D01*
X83594Y-21747D01*
X83674Y-21554D01*
X83675Y-21346D01*
X83595Y-21153D01*
X83447Y-21005D01*
X83290Y-20940D01*
X83388Y-20940D01*
X83458Y-21010D01*
X83615Y-21074D01*
X83784Y-21075D01*
X83940Y-21010D01*
X84060Y-20891D01*
X84124Y-20734D01*
X84125Y-20565D01*
X84060Y-20409D01*
X83941Y-20289D01*
X83784Y-20225D01*
X83615Y-20224D01*
X83459Y-20289D01*
X83388Y-20360D01*
X78970Y-20360D01*
X78790Y-20179D01*
X78790Y-20111D01*
X78860Y-20041D01*
X78901Y-19942D01*
X78906Y-19946D01*
X78933Y-20011D01*
X79088Y-20165D01*
X79290Y-20249D01*
X79508Y-20250D01*
X79711Y-20166D01*
X79865Y-20011D01*
X79949Y-19809D01*
X79950Y-19591D01*
X79908Y-19490D01*
X85891Y-19490D01*
X85850Y-19590D01*
X85849Y-19808D01*
X85933Y-20011D01*
X86088Y-20165D01*
X86110Y-20175D01*
X86110Y-20329D01*
X86079Y-20360D01*
X85361Y-20360D01*
X85291Y-20289D01*
X85134Y-20225D01*
X84965Y-20224D01*
X84809Y-20289D01*
X84689Y-20408D01*
X84625Y-20565D01*
X84624Y-20734D01*
X84689Y-20890D01*
X84808Y-21010D01*
X84965Y-21074D01*
X85134Y-21075D01*
X85290Y-21010D01*
X85361Y-20940D01*
X86200Y-20940D01*
X86310Y-20917D01*
X86405Y-20855D01*
X86605Y-20655D01*
X86667Y-20560D01*
X86690Y-20450D01*
X86690Y-20175D01*
X86711Y-20166D01*
X86865Y-20011D01*
X86949Y-19809D01*
X86950Y-19591D01*
X86908Y-19490D01*
X91900Y-19490D01*
X92010Y-19467D01*
X92105Y-19405D01*
X92270Y-19240D01*
X92951Y-19240D01*
X92954Y-19247D01*
X93102Y-19394D01*
X93235Y-19450D01*
X93103Y-19504D01*
X92955Y-19652D01*
X92875Y-19845D01*
X92874Y-20053D01*
X92954Y-20247D01*
X93102Y-20394D01*
X93174Y-20424D01*
X93075Y-20424D01*
X92983Y-20462D01*
X92913Y-20533D01*
X92875Y-20625D01*
X92874Y-20724D01*
X92874Y-21274D01*
X92912Y-21366D01*
X92983Y-21436D01*
X93075Y-21474D01*
X93174Y-21475D01*
X93724Y-21475D01*
X93816Y-21437D01*
X93886Y-21366D01*
X93924Y-21274D01*
X93925Y-21175D01*
X93925Y-20625D01*
X93887Y-20533D01*
X93816Y-20463D01*
X93724Y-20425D01*
X93625Y-20424D01*
X93625Y-20424D01*
X93697Y-20395D01*
X93844Y-20247D01*
X93900Y-20114D01*
X93954Y-20247D01*
X94102Y-20394D01*
X94295Y-20474D01*
X94503Y-20475D01*
X94697Y-20395D01*
X94844Y-20247D01*
X94924Y-20054D01*
X94925Y-19846D01*
X94845Y-19653D01*
X94697Y-19505D01*
X94564Y-19449D01*
X94697Y-19395D01*
X94844Y-19247D01*
X94924Y-19054D01*
X94925Y-18924D01*
X95084Y-18925D01*
X95240Y-18860D01*
X95360Y-18741D01*
X95424Y-18584D01*
X95425Y-18415D01*
X95360Y-18259D01*
X95290Y-18188D01*
X95290Y-14550D01*
X95267Y-14439D01*
X95205Y-14344D01*
X95105Y-14244D01*
X95010Y-14182D01*
X94900Y-14160D01*
X94881Y-14160D01*
X94924Y-14054D01*
X94925Y-13846D01*
X94869Y-13712D01*
X94955Y-13655D01*
X95255Y-13355D01*
X95255Y-13355D01*
X95255Y-13355D01*
X95317Y-13260D01*
X95340Y-13150D01*
X95339Y-13150D01*
X95340Y-13150D01*
X95340Y-12400D01*
X95317Y-12289D01*
X95255Y-12194D01*
X94925Y-11864D01*
X94925Y-11846D01*
X94845Y-11653D01*
X94697Y-11505D01*
X94504Y-11425D01*
X94296Y-11424D01*
X94103Y-11504D01*
X93955Y-11652D01*
X93899Y-11785D01*
X93845Y-11653D01*
X93697Y-11505D01*
X93504Y-11425D01*
X93296Y-11424D01*
X93103Y-11504D01*
X92955Y-11652D01*
X92875Y-11845D01*
X92874Y-12053D01*
X92954Y-12247D01*
X93102Y-12394D01*
X93235Y-12450D01*
X93103Y-12504D01*
X92955Y-12652D01*
X92875Y-12845D01*
X92874Y-13053D01*
X92918Y-13160D01*
X92850Y-13160D01*
X92849Y-13160D01*
X92739Y-13182D01*
X92644Y-13244D01*
X92644Y-13244D01*
X91979Y-13910D01*
X91950Y-13910D01*
X91950Y-12591D01*
X91866Y-12388D01*
X91711Y-12234D01*
X91509Y-12150D01*
X91291Y-12149D01*
X91088Y-12233D01*
X90934Y-12388D01*
X90850Y-12590D01*
X90849Y-12808D01*
X90933Y-13011D01*
X91088Y-13165D01*
X91290Y-13249D01*
X91508Y-13250D01*
X91711Y-13166D01*
X91865Y-13011D01*
X91949Y-12809D01*
X91950Y-12591D01*
X91950Y-13910D01*
X88020Y-13910D01*
X87660Y-13550D01*
X88299Y-13550D01*
X88391Y-13512D01*
X88461Y-13441D01*
X88499Y-13349D01*
X88500Y-13250D01*
X88500Y-12550D01*
X88462Y-12458D01*
X88391Y-12388D01*
X88299Y-12350D01*
X88200Y-12349D01*
X87500Y-12349D01*
X87408Y-12387D01*
X87338Y-12458D01*
X87300Y-12550D01*
X87299Y-12649D01*
X87299Y-13189D01*
X87200Y-13089D01*
X87200Y-10591D01*
X87116Y-10388D01*
X86961Y-10234D01*
X86759Y-10150D01*
X86541Y-10149D01*
X86338Y-10233D01*
X86184Y-10388D01*
X86150Y-10469D01*
X86116Y-10388D01*
X85961Y-10234D01*
X85759Y-10150D01*
X85541Y-10149D01*
X85338Y-10233D01*
X85200Y-10372D01*
X85200Y-10350D01*
X85162Y-10258D01*
X85091Y-10188D01*
X84999Y-10150D01*
X84900Y-10149D01*
X84300Y-10149D01*
X84208Y-10187D01*
X84138Y-10258D01*
X84100Y-10350D01*
X84099Y-10449D01*
X84099Y-11049D01*
X84137Y-11141D01*
X84208Y-11211D01*
X84300Y-11249D01*
X84399Y-11250D01*
X84999Y-11250D01*
X85091Y-11212D01*
X85161Y-11141D01*
X85199Y-11049D01*
X85199Y-11027D01*
X85338Y-11165D01*
X85540Y-11249D01*
X85758Y-11250D01*
X85961Y-11166D01*
X86115Y-11011D01*
X86149Y-10930D01*
X86183Y-11011D01*
X86338Y-11165D01*
X86540Y-11249D01*
X86758Y-11250D01*
X86961Y-11166D01*
X87115Y-11011D01*
X87199Y-10809D01*
X87200Y-10591D01*
X87200Y-13089D01*
X86941Y-12831D01*
X86949Y-12809D01*
X86950Y-12591D01*
X86866Y-12388D01*
X86711Y-12234D01*
X86509Y-12150D01*
X86291Y-12149D01*
X86088Y-12233D01*
X85934Y-12388D01*
X85850Y-12590D01*
X85849Y-12808D01*
X85933Y-13011D01*
X86088Y-13165D01*
X86169Y-13199D01*
X86088Y-13233D01*
X85934Y-13388D01*
X85924Y-13410D01*
X85650Y-13410D01*
X85539Y-13432D01*
X85444Y-13494D01*
X85029Y-13910D01*
X84950Y-13910D01*
X84950Y-12591D01*
X84866Y-12388D01*
X84711Y-12234D01*
X84509Y-12150D01*
X84291Y-12149D01*
X84088Y-12233D01*
X83934Y-12388D01*
X83850Y-12590D01*
X83849Y-12808D01*
X83933Y-13011D01*
X84088Y-13165D01*
X84290Y-13249D01*
X84508Y-13250D01*
X84711Y-13166D01*
X84865Y-13011D01*
X84949Y-12809D01*
X84950Y-12591D01*
X84950Y-13910D01*
X81500Y-13910D01*
X81500Y-13250D01*
X81500Y-12550D01*
X81462Y-12458D01*
X81391Y-12388D01*
X81299Y-12350D01*
X81200Y-12349D01*
X80500Y-12349D01*
X80408Y-12387D01*
X80338Y-12458D01*
X80300Y-12550D01*
X80299Y-12649D01*
X80299Y-13349D01*
X80337Y-13441D01*
X80408Y-13511D01*
X80500Y-13549D01*
X80599Y-13550D01*
X81299Y-13550D01*
X81391Y-13512D01*
X81461Y-13441D01*
X81499Y-13349D01*
X81500Y-13250D01*
X81500Y-13910D01*
X80020Y-13910D01*
X79941Y-13831D01*
X79949Y-13809D01*
X79950Y-13591D01*
X79866Y-13388D01*
X79711Y-13234D01*
X79630Y-13200D01*
X79711Y-13166D01*
X79865Y-13011D01*
X79949Y-12809D01*
X79950Y-12591D01*
X79866Y-12388D01*
X79711Y-12234D01*
X79509Y-12150D01*
X79291Y-12149D01*
X79088Y-12233D01*
X78934Y-12388D01*
X78850Y-12590D01*
X78849Y-12808D01*
X78933Y-13011D01*
X79088Y-13165D01*
X79169Y-13199D01*
X79088Y-13233D01*
X78934Y-13388D01*
X78850Y-13590D01*
X78849Y-13808D01*
X78933Y-14011D01*
X79088Y-14165D01*
X79169Y-14199D01*
X79088Y-14233D01*
X78934Y-14388D01*
X78850Y-14590D01*
X78849Y-14808D01*
X78933Y-15011D01*
X79088Y-15165D01*
X79169Y-15199D01*
X79088Y-15233D01*
X78934Y-15388D01*
X78850Y-15590D01*
X78849Y-15808D01*
X78933Y-16011D01*
X79088Y-16165D01*
X79169Y-16199D01*
X79088Y-16233D01*
X78934Y-16388D01*
X78850Y-16590D01*
X78849Y-16725D01*
X78785Y-16724D01*
X78590Y-16529D01*
X78590Y-15600D01*
X78567Y-15489D01*
X78505Y-15394D01*
X77922Y-14811D01*
X77924Y-14804D01*
X77925Y-14596D01*
X77845Y-14403D01*
X77697Y-14255D01*
X77564Y-14199D01*
X77697Y-14145D01*
X77844Y-13997D01*
X77924Y-13804D01*
X77925Y-13596D01*
X77845Y-13403D01*
X77697Y-13255D01*
X77564Y-13199D01*
X77697Y-13145D01*
X77844Y-12997D01*
X77924Y-12804D01*
X77925Y-12596D01*
X77845Y-12403D01*
X77697Y-12255D01*
X77564Y-12199D01*
X77697Y-12145D01*
X77844Y-11997D01*
X77924Y-11804D01*
X77925Y-11596D01*
X77845Y-11403D01*
X77697Y-11255D01*
X77504Y-11175D01*
X77296Y-11174D01*
X77103Y-11254D01*
X76955Y-11402D01*
X76950Y-11414D01*
X76950Y-9000D01*
X99850Y-9000D01*
X99850Y-22400D01*
X99850Y-22400D01*
G37*
G54D21*
X99850Y-22400D02*
X99435Y-22400D01*
X99447Y-22395D01*
X99594Y-22247D01*
X99674Y-22054D01*
X99675Y-21846D01*
X99600Y-21664D01*
X99600Y-21235D01*
X99674Y-21054D01*
X99675Y-20846D01*
X99595Y-20653D01*
X99447Y-20505D01*
X99314Y-20449D01*
X99447Y-20395D01*
X99594Y-20247D01*
X99674Y-20054D01*
X99675Y-19846D01*
X99675Y-17346D01*
X99600Y-17164D01*
X99600Y-16735D01*
X99674Y-16554D01*
X99675Y-16346D01*
X99595Y-16153D01*
X99447Y-16005D01*
X99314Y-15949D01*
X99447Y-15895D01*
X99594Y-15747D01*
X99674Y-15554D01*
X99675Y-15346D01*
X99675Y-13096D01*
X99600Y-12914D01*
X99600Y-12485D01*
X99674Y-12304D01*
X99675Y-12096D01*
X99595Y-11903D01*
X99447Y-11755D01*
X99314Y-11699D01*
X99447Y-11645D01*
X99594Y-11497D01*
X99674Y-11304D01*
X99675Y-11096D01*
X99595Y-10903D01*
X99447Y-10755D01*
X99375Y-10725D01*
X99474Y-10725D01*
X99566Y-10687D01*
X99636Y-10616D01*
X99674Y-10524D01*
X99675Y-10425D01*
X99675Y-9875D01*
X99637Y-9783D01*
X99566Y-9713D01*
X99474Y-9675D01*
X99375Y-9674D01*
X98825Y-9674D01*
X98733Y-9712D01*
X98663Y-9783D01*
X98625Y-9875D01*
X98624Y-9974D01*
X98624Y-10524D01*
X98662Y-10616D01*
X98733Y-10686D01*
X98825Y-10724D01*
X98924Y-10725D01*
X98924Y-10725D01*
X98853Y-10754D01*
X98705Y-10902D01*
X98625Y-11095D01*
X98624Y-11250D01*
X98425Y-11250D01*
X98425Y-10096D01*
X98345Y-9903D01*
X98197Y-9755D01*
X98004Y-9675D01*
X97796Y-9674D01*
X97603Y-9754D01*
X97455Y-9902D01*
X97375Y-10095D01*
X97374Y-10303D01*
X97454Y-10497D01*
X97602Y-10644D01*
X97795Y-10724D01*
X98003Y-10725D01*
X98197Y-10645D01*
X98344Y-10497D01*
X98424Y-10304D01*
X98425Y-10096D01*
X98425Y-11250D01*
X97048Y-11250D01*
X96998Y-11199D01*
X97158Y-11040D01*
X97249Y-10819D01*
X97250Y-10581D01*
X97158Y-10360D01*
X96990Y-10191D01*
X96769Y-10100D01*
X96531Y-10099D01*
X96310Y-10191D01*
X96141Y-10359D01*
X96050Y-10580D01*
X96049Y-10818D01*
X96141Y-11039D01*
X96301Y-11200D01*
X96141Y-11359D01*
X96050Y-11580D01*
X96049Y-11818D01*
X96141Y-12039D01*
X96215Y-12114D01*
X96158Y-12137D01*
X96088Y-12208D01*
X96050Y-12300D01*
X96049Y-12399D01*
X96049Y-13099D01*
X96087Y-13191D01*
X96158Y-13261D01*
X96250Y-13299D01*
X96349Y-13300D01*
X97049Y-13300D01*
X97141Y-13262D01*
X97211Y-13191D01*
X97249Y-13099D01*
X97250Y-13000D01*
X97250Y-12300D01*
X97212Y-12208D01*
X97153Y-12150D01*
X98463Y-12150D01*
X98630Y-12316D01*
X98700Y-12485D01*
X98700Y-12914D01*
X98625Y-13095D01*
X98624Y-13303D01*
X98704Y-13497D01*
X98852Y-13644D01*
X99045Y-13724D01*
X99253Y-13725D01*
X99447Y-13645D01*
X99594Y-13497D01*
X99674Y-13304D01*
X99675Y-13096D01*
X99675Y-15346D01*
X99595Y-15153D01*
X99447Y-15005D01*
X99375Y-14975D01*
X99474Y-14975D01*
X99566Y-14937D01*
X99636Y-14866D01*
X99674Y-14774D01*
X99675Y-14675D01*
X99675Y-14125D01*
X99637Y-14033D01*
X99566Y-13963D01*
X99474Y-13925D01*
X99375Y-13924D01*
X98825Y-13924D01*
X98733Y-13962D01*
X98663Y-14033D01*
X98625Y-14125D01*
X98624Y-14224D01*
X98624Y-14774D01*
X98662Y-14866D01*
X98733Y-14936D01*
X98825Y-14974D01*
X98924Y-14975D01*
X98924Y-14975D01*
X98853Y-15004D01*
X98705Y-15152D01*
X98625Y-15345D01*
X98624Y-15500D01*
X98425Y-15500D01*
X98425Y-14346D01*
X98345Y-14153D01*
X98197Y-14005D01*
X98004Y-13925D01*
X97796Y-13924D01*
X97603Y-14004D01*
X97455Y-14152D01*
X97375Y-14345D01*
X97374Y-14553D01*
X97454Y-14747D01*
X97602Y-14894D01*
X97795Y-14974D01*
X98003Y-14975D01*
X98197Y-14895D01*
X98344Y-14747D01*
X98424Y-14554D01*
X98425Y-14346D01*
X98425Y-15500D01*
X97048Y-15500D01*
X96998Y-15449D01*
X97158Y-15290D01*
X97249Y-15069D01*
X97250Y-14831D01*
X97158Y-14610D01*
X96990Y-14441D01*
X96769Y-14350D01*
X96531Y-14349D01*
X96310Y-14441D01*
X96141Y-14609D01*
X96050Y-14830D01*
X96049Y-15068D01*
X96141Y-15289D01*
X96301Y-15450D01*
X96141Y-15609D01*
X96050Y-15830D01*
X96049Y-16068D01*
X96141Y-16289D01*
X96215Y-16364D01*
X96158Y-16387D01*
X96088Y-16458D01*
X96050Y-16550D01*
X96049Y-16649D01*
X96049Y-17349D01*
X96087Y-17441D01*
X96158Y-17511D01*
X96250Y-17549D01*
X96349Y-17550D01*
X97049Y-17550D01*
X97141Y-17512D01*
X97211Y-17441D01*
X97249Y-17349D01*
X97250Y-17250D01*
X97250Y-16550D01*
X97212Y-16458D01*
X97153Y-16400D01*
X98463Y-16400D01*
X98630Y-16566D01*
X98700Y-16735D01*
X98700Y-17164D01*
X98625Y-17345D01*
X98624Y-17553D01*
X98704Y-17747D01*
X98852Y-17894D01*
X99045Y-17974D01*
X99253Y-17975D01*
X99447Y-17895D01*
X99594Y-17747D01*
X99674Y-17554D01*
X99675Y-17346D01*
X99675Y-19846D01*
X99595Y-19653D01*
X99447Y-19505D01*
X99375Y-19475D01*
X99474Y-19475D01*
X99566Y-19437D01*
X99636Y-19366D01*
X99674Y-19274D01*
X99675Y-19175D01*
X99675Y-18625D01*
X99637Y-18533D01*
X99566Y-18463D01*
X99474Y-18425D01*
X99375Y-18424D01*
X98825Y-18424D01*
X98733Y-18462D01*
X98663Y-18533D01*
X98625Y-18625D01*
X98624Y-18724D01*
X98624Y-19274D01*
X98662Y-19366D01*
X98733Y-19436D01*
X98825Y-19474D01*
X98924Y-19475D01*
X98924Y-19475D01*
X98853Y-19504D01*
X98705Y-19652D01*
X98625Y-19845D01*
X98624Y-20053D01*
X98704Y-20247D01*
X98852Y-20394D01*
X98985Y-20450D01*
X98864Y-20500D01*
X98786Y-20500D01*
X98425Y-20138D01*
X98425Y-18846D01*
X98345Y-18653D01*
X98197Y-18505D01*
X98004Y-18425D01*
X97796Y-18424D01*
X97603Y-18504D01*
X97455Y-18652D01*
X97375Y-18845D01*
X97374Y-19053D01*
X97454Y-19247D01*
X97602Y-19394D01*
X97795Y-19474D01*
X98003Y-19475D01*
X98197Y-19395D01*
X98344Y-19247D01*
X98424Y-19054D01*
X98425Y-18846D01*
X98425Y-20138D01*
X98418Y-20131D01*
X98272Y-20034D01*
X98100Y-20000D01*
X97048Y-20000D01*
X96998Y-19949D01*
X97158Y-19790D01*
X97249Y-19569D01*
X97250Y-19331D01*
X97158Y-19110D01*
X96990Y-18941D01*
X96769Y-18850D01*
X96531Y-18849D01*
X96310Y-18941D01*
X96141Y-19109D01*
X96050Y-19330D01*
X96049Y-19568D01*
X96141Y-19789D01*
X96301Y-19950D01*
X96141Y-20109D01*
X96050Y-20330D01*
X96049Y-20568D01*
X96141Y-20789D01*
X96215Y-20864D01*
X96158Y-20887D01*
X96088Y-20958D01*
X96050Y-21050D01*
X96049Y-21149D01*
X96049Y-21849D01*
X96087Y-21941D01*
X96158Y-22011D01*
X96250Y-22049D01*
X96349Y-22050D01*
X97049Y-22050D01*
X97141Y-22012D01*
X97211Y-21941D01*
X97249Y-21849D01*
X97250Y-21750D01*
X97250Y-21050D01*
X97212Y-20958D01*
X97153Y-20900D01*
X97913Y-20900D01*
X98281Y-21268D01*
X98427Y-21365D01*
X98600Y-21400D01*
X98700Y-21400D01*
X98700Y-21664D01*
X98625Y-21845D01*
X98624Y-22053D01*
X98704Y-22247D01*
X98852Y-22394D01*
X98864Y-22400D01*
X91175Y-22400D01*
X91175Y-21346D01*
X91095Y-21153D01*
X90947Y-21005D01*
X90754Y-20925D01*
X90546Y-20924D01*
X90353Y-21004D01*
X90205Y-21152D01*
X90149Y-21285D01*
X90095Y-21153D01*
X89947Y-21005D01*
X89754Y-20925D01*
X89546Y-20924D01*
X89353Y-21004D01*
X89205Y-21152D01*
X89149Y-21285D01*
X89095Y-21153D01*
X88947Y-21005D01*
X88754Y-20925D01*
X88546Y-20924D01*
X88353Y-21004D01*
X88205Y-21152D01*
X88175Y-21224D01*
X88175Y-21125D01*
X88137Y-21033D01*
X88066Y-20963D01*
X87974Y-20925D01*
X87875Y-20924D01*
X87325Y-20924D01*
X87233Y-20962D01*
X87163Y-21033D01*
X87125Y-21125D01*
X87124Y-21224D01*
X87124Y-21774D01*
X87162Y-21866D01*
X87233Y-21936D01*
X87325Y-21974D01*
X87424Y-21975D01*
X87974Y-21975D01*
X88066Y-21937D01*
X88136Y-21866D01*
X88174Y-21774D01*
X88175Y-21675D01*
X88175Y-21675D01*
X88204Y-21747D01*
X88352Y-21894D01*
X88545Y-21974D01*
X88753Y-21975D01*
X88947Y-21895D01*
X89094Y-21747D01*
X89150Y-21614D01*
X89204Y-21747D01*
X89352Y-21894D01*
X89545Y-21974D01*
X89753Y-21975D01*
X89947Y-21895D01*
X90094Y-21747D01*
X90150Y-21614D01*
X90204Y-21747D01*
X90352Y-21894D01*
X90545Y-21974D01*
X90753Y-21975D01*
X90947Y-21895D01*
X91094Y-21747D01*
X91174Y-21554D01*
X91175Y-21346D01*
X91175Y-22400D01*
X76950Y-22400D01*
X76950Y-21153D01*
X76983Y-21186D01*
X77075Y-21224D01*
X77174Y-21225D01*
X77724Y-21225D01*
X77816Y-21187D01*
X77886Y-21116D01*
X77924Y-21024D01*
X77925Y-20925D01*
X77925Y-20375D01*
X77887Y-20283D01*
X77816Y-20213D01*
X77724Y-20175D01*
X77625Y-20174D01*
X77075Y-20174D01*
X76983Y-20212D01*
X76950Y-20246D01*
X76950Y-18985D01*
X76954Y-18997D01*
X77102Y-19144D01*
X77295Y-19224D01*
X77503Y-19225D01*
X77697Y-19145D01*
X77844Y-18997D01*
X77874Y-18925D01*
X77894Y-18955D01*
X78344Y-19404D01*
X78259Y-19439D01*
X78139Y-19558D01*
X78075Y-19715D01*
X78074Y-19884D01*
X78139Y-20040D01*
X78210Y-20111D01*
X78210Y-20300D01*
X78232Y-20410D01*
X78294Y-20505D01*
X78644Y-20855D01*
X78644Y-20855D01*
X78739Y-20917D01*
X78849Y-20940D01*
X78849Y-20939D01*
X78850Y-20940D01*
X79789Y-20940D01*
X79733Y-20962D01*
X79663Y-21033D01*
X79625Y-21125D01*
X79624Y-21224D01*
X79624Y-21774D01*
X79662Y-21866D01*
X79733Y-21936D01*
X79825Y-21974D01*
X79924Y-21975D01*
X80474Y-21975D01*
X80566Y-21937D01*
X80636Y-21866D01*
X80674Y-21774D01*
X80675Y-21675D01*
X80675Y-21675D01*
X80704Y-21747D01*
X80852Y-21894D01*
X81045Y-21974D01*
X81253Y-21975D01*
X81447Y-21895D01*
X81594Y-21747D01*
X81650Y-21614D01*
X81704Y-21747D01*
X81852Y-21894D01*
X82045Y-21974D01*
X82253Y-21975D01*
X82447Y-21895D01*
X82594Y-21747D01*
X82650Y-21614D01*
X82704Y-21747D01*
X82852Y-21894D01*
X83045Y-21974D01*
X83253Y-21975D01*
X83447Y-21895D01*
X83594Y-21747D01*
X83674Y-21554D01*
X83675Y-21346D01*
X83595Y-21153D01*
X83447Y-21005D01*
X83290Y-20940D01*
X83388Y-20940D01*
X83458Y-21010D01*
X83615Y-21074D01*
X83784Y-21075D01*
X83940Y-21010D01*
X84060Y-20891D01*
X84124Y-20734D01*
X84125Y-20565D01*
X84060Y-20409D01*
X83941Y-20289D01*
X83784Y-20225D01*
X83615Y-20224D01*
X83459Y-20289D01*
X83388Y-20360D01*
X78970Y-20360D01*
X78790Y-20179D01*
X78790Y-20111D01*
X78860Y-20041D01*
X78901Y-19942D01*
X78906Y-19946D01*
X78933Y-20011D01*
X79088Y-20165D01*
X79290Y-20249D01*
X79508Y-20250D01*
X79711Y-20166D01*
X79865Y-20011D01*
X79949Y-19809D01*
X79950Y-19591D01*
X79908Y-19490D01*
X85891Y-19490D01*
X85850Y-19590D01*
X85849Y-19808D01*
X85933Y-20011D01*
X86088Y-20165D01*
X86110Y-20175D01*
X86110Y-20329D01*
X86079Y-20360D01*
X85361Y-20360D01*
X85291Y-20289D01*
X85134Y-20225D01*
X84965Y-20224D01*
X84809Y-20289D01*
X84689Y-20408D01*
X84625Y-20565D01*
X84624Y-20734D01*
X84689Y-20890D01*
X84808Y-21010D01*
X84965Y-21074D01*
X85134Y-21075D01*
X85290Y-21010D01*
X85361Y-20940D01*
X86200Y-20940D01*
X86310Y-20917D01*
X86405Y-20855D01*
X86605Y-20655D01*
X86667Y-20560D01*
X86690Y-20450D01*
X86690Y-20175D01*
X86711Y-20166D01*
X86865Y-20011D01*
X86949Y-19809D01*
X86950Y-19591D01*
X86908Y-19490D01*
X91900Y-19490D01*
X92010Y-19467D01*
X92105Y-19405D01*
X92270Y-19240D01*
X92951Y-19240D01*
X92954Y-19247D01*
X93102Y-19394D01*
X93235Y-19450D01*
X93103Y-19504D01*
X92955Y-19652D01*
X92875Y-19845D01*
X92874Y-20053D01*
X92954Y-20247D01*
X93102Y-20394D01*
X93174Y-20424D01*
X93075Y-20424D01*
X92983Y-20462D01*
X92913Y-20533D01*
X92875Y-20625D01*
X92874Y-20724D01*
X92874Y-21274D01*
X92912Y-21366D01*
X92983Y-21436D01*
X93075Y-21474D01*
X93174Y-21475D01*
X93724Y-21475D01*
X93816Y-21437D01*
X93886Y-21366D01*
X93924Y-21274D01*
X93925Y-21175D01*
X93925Y-20625D01*
X93887Y-20533D01*
X93816Y-20463D01*
X93724Y-20425D01*
X93625Y-20424D01*
X93625Y-20424D01*
X93697Y-20395D01*
X93844Y-20247D01*
X93900Y-20114D01*
X93954Y-20247D01*
X94102Y-20394D01*
X94295Y-20474D01*
X94503Y-20475D01*
X94697Y-20395D01*
X94844Y-20247D01*
X94924Y-20054D01*
X94925Y-19846D01*
X94845Y-19653D01*
X94697Y-19505D01*
X94564Y-19449D01*
X94697Y-19395D01*
X94844Y-19247D01*
X94924Y-19054D01*
X94925Y-18924D01*
X95084Y-18925D01*
X95240Y-18860D01*
X95360Y-18741D01*
X95424Y-18584D01*
X95425Y-18415D01*
X95360Y-18259D01*
X95290Y-18188D01*
X95290Y-14550D01*
X95267Y-14439D01*
X95205Y-14344D01*
X95105Y-14244D01*
X95010Y-14182D01*
X94900Y-14160D01*
X94881Y-14160D01*
X94924Y-14054D01*
X94925Y-13846D01*
X94869Y-13712D01*
X94955Y-13655D01*
X95255Y-13355D01*
X95255Y-13355D01*
X95255Y-13355D01*
X95317Y-13260D01*
X95340Y-13150D01*
X95339Y-13150D01*
X95340Y-13150D01*
X95340Y-12400D01*
X95317Y-12289D01*
X95255Y-12194D01*
X94925Y-11864D01*
X94925Y-11846D01*
X94845Y-11653D01*
X94697Y-11505D01*
X94504Y-11425D01*
X94296Y-11424D01*
X94103Y-11504D01*
X93955Y-11652D01*
X93899Y-11785D01*
X93845Y-11653D01*
X93697Y-11505D01*
X93504Y-11425D01*
X93296Y-11424D01*
X93103Y-11504D01*
X92955Y-11652D01*
X92875Y-11845D01*
X92874Y-12053D01*
X92954Y-12247D01*
X93102Y-12394D01*
X93235Y-12450D01*
X93103Y-12504D01*
X92955Y-12652D01*
X92875Y-12845D01*
X92874Y-13053D01*
X92918Y-13160D01*
X92850Y-13160D01*
X92849Y-13160D01*
X92739Y-13182D01*
X92644Y-13244D01*
X92644Y-13244D01*
X91979Y-13910D01*
X91950Y-13910D01*
X91950Y-12591D01*
X91866Y-12388D01*
X91711Y-12234D01*
X91509Y-12150D01*
X91291Y-12149D01*
X91088Y-12233D01*
X90934Y-12388D01*
X90850Y-12590D01*
X90849Y-12808D01*
X90933Y-13011D01*
X91088Y-13165D01*
X91290Y-13249D01*
X91508Y-13250D01*
X91711Y-13166D01*
X91865Y-13011D01*
X91949Y-12809D01*
X91950Y-12591D01*
X91950Y-13910D01*
X88020Y-13910D01*
X87660Y-13550D01*
X88299Y-13550D01*
X88391Y-13512D01*
X88461Y-13441D01*
X88499Y-13349D01*
X88500Y-13250D01*
X88500Y-12550D01*
X88462Y-12458D01*
X88391Y-12388D01*
X88299Y-12350D01*
X88200Y-12349D01*
X87500Y-12349D01*
X87408Y-12387D01*
X87338Y-12458D01*
X87300Y-12550D01*
X87299Y-12649D01*
X87299Y-13189D01*
X87200Y-13089D01*
X87200Y-10591D01*
X87116Y-10388D01*
X86961Y-10234D01*
X86759Y-10150D01*
X86541Y-10149D01*
X86338Y-10233D01*
X86184Y-10388D01*
X86150Y-10469D01*
X86116Y-10388D01*
X85961Y-10234D01*
X85759Y-10150D01*
X85541Y-10149D01*
X85338Y-10233D01*
X85200Y-10372D01*
X85200Y-10350D01*
X85162Y-10258D01*
X85091Y-10188D01*
X84999Y-10150D01*
X84900Y-10149D01*
X84300Y-10149D01*
X84208Y-10187D01*
X84138Y-10258D01*
X84100Y-10350D01*
X84099Y-10449D01*
X84099Y-11049D01*
X84137Y-11141D01*
X84208Y-11211D01*
X84300Y-11249D01*
X84399Y-11250D01*
X84999Y-11250D01*
X85091Y-11212D01*
X85161Y-11141D01*
X85199Y-11049D01*
X85199Y-11027D01*
X85338Y-11165D01*
X85540Y-11249D01*
X85758Y-11250D01*
X85961Y-11166D01*
X86115Y-11011D01*
X86149Y-10930D01*
X86183Y-11011D01*
X86338Y-11165D01*
X86540Y-11249D01*
X86758Y-11250D01*
X86961Y-11166D01*
X87115Y-11011D01*
X87199Y-10809D01*
X87200Y-10591D01*
X87200Y-13089D01*
X86941Y-12831D01*
X86949Y-12809D01*
X86950Y-12591D01*
X86866Y-12388D01*
X86711Y-12234D01*
X86509Y-12150D01*
X86291Y-12149D01*
X86088Y-12233D01*
X85934Y-12388D01*
X85850Y-12590D01*
X85849Y-12808D01*
X85933Y-13011D01*
X86088Y-13165D01*
X86169Y-13199D01*
X86088Y-13233D01*
X85934Y-13388D01*
X85924Y-13410D01*
X85650Y-13410D01*
X85539Y-13432D01*
X85444Y-13494D01*
X85029Y-13910D01*
X84950Y-13910D01*
X84950Y-12591D01*
X84866Y-12388D01*
X84711Y-12234D01*
X84509Y-12150D01*
X84291Y-12149D01*
X84088Y-12233D01*
X83934Y-12388D01*
X83850Y-12590D01*
X83849Y-12808D01*
X83933Y-13011D01*
X84088Y-13165D01*
X84290Y-13249D01*
X84508Y-13250D01*
X84711Y-13166D01*
X84865Y-13011D01*
X84949Y-12809D01*
X84950Y-12591D01*
X84950Y-13910D01*
X81500Y-13910D01*
X81500Y-13250D01*
X81500Y-12550D01*
X81462Y-12458D01*
X81391Y-12388D01*
X81299Y-12350D01*
X81200Y-12349D01*
X80500Y-12349D01*
X80408Y-12387D01*
X80338Y-12458D01*
X80300Y-12550D01*
X80299Y-12649D01*
X80299Y-13349D01*
X80337Y-13441D01*
X80408Y-13511D01*
X80500Y-13549D01*
X80599Y-13550D01*
X81299Y-13550D01*
X81391Y-13512D01*
X81461Y-13441D01*
X81499Y-13349D01*
X81500Y-13250D01*
X81500Y-13910D01*
X80020Y-13910D01*
X79941Y-13831D01*
X79949Y-13809D01*
X79950Y-13591D01*
X79866Y-13388D01*
X79711Y-13234D01*
X79630Y-13200D01*
X79711Y-13166D01*
X79865Y-13011D01*
X79949Y-12809D01*
X79950Y-12591D01*
X79866Y-12388D01*
X79711Y-12234D01*
X79509Y-12150D01*
X79291Y-12149D01*
X79088Y-12233D01*
X78934Y-12388D01*
X78850Y-12590D01*
X78849Y-12808D01*
X78933Y-13011D01*
X79088Y-13165D01*
X79169Y-13199D01*
X79088Y-13233D01*
X78934Y-13388D01*
X78850Y-13590D01*
X78849Y-13808D01*
X78933Y-14011D01*
X79088Y-14165D01*
X79169Y-14199D01*
X79088Y-14233D01*
X78934Y-14388D01*
X78850Y-14590D01*
X78849Y-14808D01*
X78933Y-15011D01*
X79088Y-15165D01*
X79169Y-15199D01*
X79088Y-15233D01*
X78934Y-15388D01*
X78850Y-15590D01*
X78849Y-15808D01*
X78933Y-16011D01*
X79088Y-16165D01*
X79169Y-16199D01*
X79088Y-16233D01*
X78934Y-16388D01*
X78850Y-16590D01*
X78849Y-16725D01*
X78785Y-16724D01*
X78590Y-16529D01*
X78590Y-15600D01*
X78567Y-15489D01*
X78505Y-15394D01*
X77922Y-14811D01*
X77924Y-14804D01*
X77925Y-14596D01*
X77845Y-14403D01*
X77697Y-14255D01*
X77564Y-14199D01*
X77697Y-14145D01*
X77844Y-13997D01*
X77924Y-13804D01*
X77925Y-13596D01*
X77845Y-13403D01*
X77697Y-13255D01*
X77564Y-13199D01*
X77697Y-13145D01*
X77844Y-12997D01*
X77924Y-12804D01*
X77925Y-12596D01*
X77845Y-12403D01*
X77697Y-12255D01*
X77564Y-12199D01*
X77697Y-12145D01*
X77844Y-11997D01*
X77924Y-11804D01*
X77925Y-11596D01*
X77845Y-11403D01*
X77697Y-11255D01*
X77504Y-11175D01*
X77296Y-11174D01*
X77103Y-11254D01*
X76955Y-11402D01*
X76950Y-11414D01*
X76950Y-9000D01*
X99850Y-9000D01*
X99850Y-22400D01*
M02*
