G04 (created by PCBNEW (2012-nov-02)-testing) date Mon 24 Dec 2012 01:36:53 PM MST*
%MOIN*%
G04 Gerber Fmt 3.4, Leading zero omitted, Abs format*
%FSLAX34Y34*%
G01*
G70*
G90*
G04 APERTURE LIST*
%ADD10C,0.006*%
%ADD11R,0.06X0.06*%
%ADD12C,0.06*%
%ADD13R,0.055X0.055*%
%ADD14C,0.055*%
%ADD15R,0.07X0.07*%
%ADD16C,0.07*%
%ADD17C,0.035*%
%ADD18C,0.05*%
%ADD19C,0.008*%
%ADD20C,0.012*%
%ADD21C,0.07*%
%ADD22C,0.04*%
%ADD23C,0.01*%
%ADD24C,0.02*%
G04 APERTURE END LIST*
G54D10*
G54D11*
X13500Y-9000D03*
G54D12*
X12500Y-9000D03*
X11500Y-9000D03*
X10500Y-9000D03*
X9500Y-9000D03*
X8500Y-9000D03*
G54D11*
X7500Y-9000D03*
G54D12*
X6500Y-9000D03*
X6500Y-14000D03*
X7500Y-14000D03*
X8500Y-14000D03*
X9500Y-14000D03*
X10500Y-14000D03*
X11500Y-14000D03*
X12500Y-14000D03*
X13500Y-14000D03*
G54D11*
X22000Y-9000D03*
G54D12*
X21000Y-9000D03*
X20000Y-9000D03*
X19000Y-9000D03*
X18000Y-9000D03*
X17000Y-9000D03*
G54D11*
X16000Y-9000D03*
G54D12*
X15000Y-9000D03*
X15000Y-14000D03*
X16000Y-14000D03*
X17000Y-14000D03*
X18000Y-14000D03*
X19000Y-14000D03*
X20000Y-14000D03*
X21000Y-14000D03*
X22000Y-14000D03*
G54D11*
X31000Y-9000D03*
G54D12*
X30000Y-9000D03*
X29000Y-9000D03*
X28000Y-9000D03*
X27000Y-9000D03*
X26000Y-9000D03*
G54D11*
X25000Y-9000D03*
G54D12*
X24000Y-9000D03*
X24000Y-14000D03*
X25000Y-14000D03*
X26000Y-14000D03*
X27000Y-14000D03*
X28000Y-14000D03*
X29000Y-14000D03*
X30000Y-14000D03*
X31000Y-14000D03*
G54D13*
X8500Y-6000D03*
G54D14*
X9500Y-6000D03*
X10500Y-6000D03*
X11500Y-6000D03*
G54D13*
X26000Y-6000D03*
G54D14*
X27000Y-6000D03*
X28000Y-6000D03*
X29000Y-6000D03*
G54D13*
X17000Y-6000D03*
G54D14*
X18000Y-6000D03*
X19000Y-6000D03*
X20000Y-6000D03*
G54D15*
X30500Y-12500D03*
G54D16*
X30500Y-10500D03*
G54D15*
X21000Y-12500D03*
G54D16*
X21000Y-10500D03*
G54D15*
X12500Y-12500D03*
G54D16*
X12500Y-10500D03*
G54D13*
X6500Y-25250D03*
G54D14*
X6500Y-26250D03*
X6500Y-27250D03*
G54D13*
X6500Y-21500D03*
G54D14*
X6500Y-22500D03*
X6500Y-23500D03*
G54D13*
X6500Y-17750D03*
G54D14*
X6500Y-18750D03*
X6500Y-19750D03*
G54D13*
X27250Y-26750D03*
G54D14*
X27250Y-25750D03*
X27250Y-24750D03*
X27250Y-23750D03*
X27250Y-22750D03*
X27250Y-21750D03*
X27250Y-20750D03*
X27250Y-19750D03*
X27250Y-18750D03*
X27250Y-17750D03*
G54D13*
X28250Y-26750D03*
G54D14*
X28250Y-25750D03*
X28250Y-24750D03*
X28250Y-23750D03*
X28250Y-22750D03*
X28250Y-21750D03*
X28250Y-20750D03*
X28250Y-19750D03*
X28250Y-18750D03*
X28250Y-17750D03*
G54D13*
X10250Y-26750D03*
G54D14*
X10250Y-25750D03*
X10250Y-24750D03*
X10250Y-23750D03*
X10250Y-22750D03*
X10250Y-21750D03*
X10250Y-20750D03*
X10250Y-19750D03*
X10250Y-18750D03*
X10250Y-17750D03*
G54D11*
X20250Y-16250D03*
G54D12*
X20250Y-17250D03*
X19250Y-16250D03*
X19250Y-17250D03*
X18250Y-16250D03*
X18250Y-17250D03*
G54D13*
X32750Y-13250D03*
G54D14*
X32750Y-12250D03*
X32750Y-11250D03*
X32750Y-10250D03*
G54D13*
X13500Y-24500D03*
G54D14*
X12500Y-24500D03*
G54D13*
X13500Y-26000D03*
G54D14*
X12500Y-26000D03*
G54D13*
X13500Y-27500D03*
G54D14*
X12500Y-27500D03*
X12250Y-23250D03*
X15250Y-23250D03*
X16250Y-23250D03*
X19250Y-23250D03*
X20750Y-23250D03*
X23750Y-23250D03*
G54D15*
X14750Y-20250D03*
G54D16*
X12750Y-20250D03*
G54D15*
X18750Y-20250D03*
G54D16*
X16750Y-20250D03*
G54D15*
X23250Y-20250D03*
G54D16*
X21250Y-20250D03*
G54D13*
X11250Y-26750D03*
G54D14*
X11250Y-25750D03*
X11250Y-24750D03*
X11250Y-23750D03*
X11250Y-22750D03*
X11250Y-21750D03*
X11250Y-20750D03*
X11250Y-19750D03*
X11250Y-18750D03*
X11250Y-17750D03*
G54D13*
X8750Y-26750D03*
G54D14*
X8750Y-25750D03*
X8750Y-24750D03*
G54D13*
X33150Y-31200D03*
G54D14*
X33150Y-32200D03*
X33150Y-33200D03*
X33150Y-34200D03*
G54D13*
X33150Y-35450D03*
G54D14*
X33150Y-36450D03*
X33150Y-37450D03*
X33150Y-38450D03*
G54D13*
X21650Y-42450D03*
G54D14*
X22650Y-42450D03*
X23650Y-42450D03*
X24650Y-42450D03*
G54D13*
X14150Y-42450D03*
G54D14*
X15150Y-42450D03*
X16150Y-42450D03*
X17150Y-42450D03*
G54D13*
X33150Y-39950D03*
G54D14*
X33150Y-40950D03*
X33150Y-41950D03*
X33150Y-42950D03*
G54D13*
X10400Y-41700D03*
G54D14*
X10400Y-40700D03*
X10400Y-39700D03*
X10400Y-38700D03*
X10400Y-37700D03*
X10400Y-36700D03*
X10400Y-35700D03*
X10400Y-34700D03*
X10400Y-33700D03*
X10400Y-32700D03*
G54D13*
X27400Y-41950D03*
G54D14*
X27400Y-40950D03*
X27400Y-39950D03*
X27400Y-38950D03*
X27400Y-37950D03*
X27400Y-36950D03*
X27400Y-35950D03*
X27400Y-34950D03*
X27400Y-33950D03*
X27400Y-32950D03*
G54D13*
X11400Y-41700D03*
G54D14*
X11400Y-40700D03*
X11400Y-39700D03*
X11400Y-38700D03*
X11400Y-37700D03*
X11400Y-36700D03*
X11400Y-35700D03*
X11400Y-34700D03*
X11400Y-33700D03*
X11400Y-32700D03*
G54D13*
X28400Y-41950D03*
G54D14*
X28400Y-40950D03*
X28400Y-39950D03*
X28400Y-38950D03*
X28400Y-37950D03*
X28400Y-36950D03*
X28400Y-35950D03*
X28400Y-34950D03*
X28400Y-33950D03*
X28400Y-32950D03*
X31900Y-39950D03*
X31900Y-42950D03*
X31900Y-35450D03*
X31900Y-38450D03*
X31900Y-31200D03*
X31900Y-34200D03*
G54D11*
X18650Y-31700D03*
G54D12*
X18650Y-30700D03*
X19650Y-31700D03*
X19650Y-30700D03*
X20650Y-31700D03*
X20650Y-30700D03*
G54D15*
X14900Y-33950D03*
G54D16*
X16900Y-33950D03*
G54D15*
X21900Y-33950D03*
G54D16*
X23900Y-33950D03*
G54D11*
X25400Y-40700D03*
G54D12*
X25400Y-39700D03*
X25400Y-38700D03*
X25400Y-37700D03*
X25400Y-36700D03*
X25400Y-35700D03*
G54D11*
X25400Y-34700D03*
G54D12*
X25400Y-33700D03*
X20400Y-33700D03*
X20400Y-34700D03*
X20400Y-35700D03*
X20400Y-36700D03*
X20400Y-37700D03*
X20400Y-38700D03*
X20400Y-39700D03*
X20400Y-40700D03*
G54D11*
X18400Y-40700D03*
G54D12*
X18400Y-39700D03*
X18400Y-38700D03*
X18400Y-37700D03*
X18400Y-36700D03*
X18400Y-35700D03*
G54D11*
X18400Y-34700D03*
G54D12*
X18400Y-33700D03*
X13400Y-33700D03*
X13400Y-34700D03*
X13400Y-35700D03*
X13400Y-36700D03*
X13400Y-37700D03*
X13400Y-38700D03*
X13400Y-39700D03*
X13400Y-40700D03*
G54D16*
X30650Y-40450D03*
X30650Y-41450D03*
G54D15*
X30650Y-42450D03*
G54D16*
X30650Y-35950D03*
X30650Y-36950D03*
G54D15*
X30650Y-37950D03*
G54D16*
X30650Y-31700D03*
X30650Y-32700D03*
G54D15*
X30650Y-33700D03*
G54D17*
X29000Y-39500D03*
X31500Y-17000D03*
X12100Y-39300D03*
X12800Y-38150D03*
X12500Y-40800D03*
X17700Y-41650D03*
X19050Y-41650D03*
X26250Y-38400D03*
X26550Y-36200D03*
X18250Y-13250D03*
X15500Y-13250D03*
X18500Y-11750D03*
X17000Y-11750D03*
X24750Y-11750D03*
X23000Y-11250D03*
X15750Y-21750D03*
X22000Y-17250D03*
X21000Y-19250D03*
X25500Y-16500D03*
X18750Y-15000D03*
X13750Y-15000D03*
X14750Y-25250D03*
X5250Y-9250D03*
G54D18*
X20650Y-31700D02*
X28650Y-31700D01*
X32400Y-30450D02*
X33150Y-31200D01*
X29900Y-30450D02*
X32400Y-30450D01*
X28650Y-31700D02*
X29900Y-30450D01*
X33150Y-31200D02*
X33150Y-32200D01*
X25400Y-33700D02*
X25150Y-33700D01*
X24400Y-32950D02*
X21900Y-32950D01*
X25150Y-33700D02*
X24400Y-32950D01*
X14900Y-33950D02*
X14900Y-32700D01*
X15900Y-31700D02*
X18650Y-31700D01*
X14900Y-32700D02*
X15900Y-31700D01*
X20650Y-31700D02*
X20900Y-31700D01*
X21900Y-32700D02*
X21900Y-32950D01*
X21900Y-32950D02*
X21900Y-33950D01*
X20900Y-31700D02*
X21900Y-32700D01*
X18400Y-33700D02*
X18400Y-31950D01*
X18400Y-31950D02*
X18650Y-31700D01*
G54D19*
X30650Y-40450D02*
X31400Y-40450D01*
X31400Y-40450D02*
X31900Y-39950D01*
X30650Y-40450D02*
X29950Y-40450D01*
X29950Y-40450D02*
X29000Y-39500D01*
G54D20*
X27250Y-17750D02*
X27250Y-17250D01*
X27500Y-17000D02*
X31500Y-17000D01*
X27250Y-17250D02*
X27500Y-17000D01*
G54D19*
X12150Y-37450D02*
X11400Y-36700D01*
X12150Y-39250D02*
X12150Y-37450D01*
X12100Y-39300D02*
X12150Y-39250D01*
X13400Y-33700D02*
X13400Y-33800D01*
X27950Y-34400D02*
X28400Y-33950D01*
X26850Y-34400D02*
X27950Y-34400D01*
X26100Y-35150D02*
X26850Y-34400D01*
X14750Y-35150D02*
X26100Y-35150D01*
X13400Y-33800D02*
X14750Y-35150D01*
X30650Y-35950D02*
X31400Y-35950D01*
X31400Y-35950D02*
X31900Y-35450D01*
X28400Y-38950D02*
X28500Y-38950D01*
X29850Y-36750D02*
X30650Y-35950D01*
X29850Y-37600D02*
X29850Y-36750D01*
X28500Y-38950D02*
X29850Y-37600D01*
G54D20*
X15250Y-23250D02*
X15250Y-20750D01*
X15250Y-20750D02*
X14750Y-20250D01*
X27250Y-24750D02*
X16750Y-24750D01*
X16750Y-24750D02*
X15250Y-23250D01*
G54D19*
X12800Y-40500D02*
X12800Y-38150D01*
X12500Y-40800D02*
X12800Y-40500D01*
X19050Y-41650D02*
X17700Y-41650D01*
X30650Y-31700D02*
X31400Y-31700D01*
X31400Y-31700D02*
X31900Y-31200D01*
X28400Y-36950D02*
X28800Y-36950D01*
X29750Y-32600D02*
X30650Y-31700D01*
X29750Y-36000D02*
X29750Y-32600D01*
X28800Y-36950D02*
X29750Y-36000D01*
G54D20*
X19250Y-23250D02*
X19250Y-23750D01*
X19250Y-23750D02*
X27250Y-23750D01*
X18750Y-20250D02*
X18750Y-22750D01*
X18750Y-22750D02*
X19250Y-23250D01*
G54D19*
X10400Y-40700D02*
X10400Y-40600D01*
X12500Y-37600D02*
X13400Y-36700D01*
X12500Y-39650D02*
X12500Y-37600D01*
X11950Y-40200D02*
X12500Y-39650D01*
X10800Y-40200D02*
X11950Y-40200D01*
X10400Y-40600D02*
X10800Y-40200D01*
X27950Y-40500D02*
X28400Y-40950D01*
X27000Y-40500D02*
X27950Y-40500D01*
X26300Y-39800D02*
X27000Y-40500D01*
X26300Y-38450D02*
X26300Y-39800D01*
X26250Y-38400D02*
X26300Y-38450D01*
X28400Y-39950D02*
X28400Y-39900D01*
X26550Y-39000D02*
X26550Y-36200D01*
X26950Y-39400D02*
X26550Y-39000D01*
X27900Y-39400D02*
X26950Y-39400D01*
X28400Y-39900D02*
X27900Y-39400D01*
G54D20*
X9500Y-14000D02*
X9500Y-20000D01*
X9500Y-20000D02*
X10250Y-20750D01*
X15500Y-13250D02*
X18250Y-13250D01*
X8500Y-14000D02*
X8500Y-20000D01*
X8500Y-20000D02*
X10250Y-21750D01*
X17000Y-11750D02*
X18500Y-11750D01*
X26000Y-14000D02*
X26000Y-13000D01*
X26000Y-13000D02*
X24750Y-11750D01*
X7500Y-14000D02*
X7500Y-20000D01*
X7500Y-20000D02*
X10250Y-22750D01*
X25000Y-13250D02*
X25000Y-14000D01*
X23000Y-11250D02*
X25000Y-13250D01*
X12500Y-14000D02*
X12500Y-18250D01*
X13500Y-20500D02*
X11250Y-22750D01*
X13500Y-19250D02*
X13500Y-20500D01*
X12500Y-18250D02*
X13500Y-19250D01*
X15750Y-19500D02*
X15750Y-21750D01*
X16500Y-18750D02*
X15750Y-19500D01*
X20250Y-18750D02*
X16500Y-18750D01*
X22000Y-18750D02*
X20250Y-18750D01*
X22000Y-17250D02*
X22000Y-18750D01*
X22750Y-19250D02*
X21000Y-19250D01*
X25500Y-16500D02*
X22750Y-19250D01*
X24000Y-14000D02*
X24000Y-14500D01*
X23500Y-15000D02*
X18750Y-15000D01*
X24000Y-14500D02*
X23500Y-15000D01*
X14750Y-14000D02*
X15000Y-14000D01*
X13750Y-15000D02*
X14750Y-14000D01*
G54D21*
X11500Y-6000D02*
X11500Y-9000D01*
X17000Y-9000D02*
X17000Y-6000D01*
X18000Y-6000D02*
X18000Y-9000D01*
X20000Y-6000D02*
X20000Y-9000D01*
G54D22*
X25400Y-35700D02*
X24400Y-35700D01*
X24400Y-35700D02*
X21650Y-38450D01*
X21650Y-38450D02*
X21650Y-42450D01*
X14150Y-42450D02*
X14150Y-39200D01*
X14150Y-39200D02*
X17650Y-35700D01*
X17650Y-35700D02*
X18400Y-35700D01*
X18400Y-36700D02*
X17900Y-36700D01*
X17900Y-36700D02*
X15150Y-39450D01*
X15150Y-39450D02*
X15150Y-42450D01*
G54D21*
X8500Y-9000D02*
X8500Y-6000D01*
G54D20*
X23250Y-20250D02*
X23250Y-22750D01*
X23250Y-22750D02*
X23750Y-23250D01*
G54D22*
X16150Y-42450D02*
X16150Y-39450D01*
X16150Y-39450D02*
X17900Y-37700D01*
X17900Y-37700D02*
X18400Y-37700D01*
X18400Y-38700D02*
X18150Y-38700D01*
X18150Y-38700D02*
X17150Y-39700D01*
X17150Y-39700D02*
X17150Y-42450D01*
G54D21*
X27000Y-9000D02*
X27000Y-6000D01*
X26000Y-6000D02*
X26000Y-9000D01*
X28000Y-6000D02*
X28000Y-9000D01*
X29000Y-9000D02*
X29000Y-6000D01*
X9500Y-6000D02*
X9500Y-9000D01*
G54D22*
X25400Y-36700D02*
X24400Y-36700D01*
X24400Y-36700D02*
X22650Y-38450D01*
X22650Y-38450D02*
X22650Y-42450D01*
G54D21*
X10500Y-9000D02*
X10500Y-6000D01*
G54D22*
X25400Y-38700D02*
X25150Y-38700D01*
X25150Y-38700D02*
X24650Y-39200D01*
X24650Y-39200D02*
X24650Y-42450D01*
X25400Y-37700D02*
X24650Y-37700D01*
X24650Y-37700D02*
X23650Y-38700D01*
X23650Y-38700D02*
X23650Y-42450D01*
G54D21*
X19000Y-9000D02*
X19000Y-6000D01*
G54D23*
X14750Y-25250D02*
X14750Y-26150D01*
X11000Y-27500D02*
X10250Y-26750D01*
X11750Y-27500D02*
X11000Y-27500D01*
X12450Y-26800D02*
X11750Y-27500D01*
X14100Y-26800D02*
X12450Y-26800D01*
X14750Y-26150D02*
X14100Y-26800D01*
G54D20*
X5750Y-21500D02*
X6500Y-21500D01*
G54D24*
X6500Y-25250D02*
X6250Y-25250D01*
X6250Y-25250D02*
X5750Y-24750D01*
X5750Y-24750D02*
X5750Y-18500D01*
X5750Y-18500D02*
X6500Y-17750D01*
X8750Y-26750D02*
X10250Y-26750D01*
X8750Y-26750D02*
X7250Y-25250D01*
X7250Y-25250D02*
X6500Y-25250D01*
X5750Y-17750D02*
X6500Y-17750D01*
X5250Y-17250D02*
X5750Y-17750D01*
X5250Y-9250D02*
X5250Y-17250D01*
G54D20*
X7250Y-25250D02*
X6500Y-25250D01*
X6250Y-25250D02*
X5750Y-24750D01*
X5750Y-24750D02*
X5750Y-21500D01*
X5750Y-18500D02*
X6500Y-17750D01*
X5750Y-21500D02*
X5750Y-18500D01*
X18400Y-39700D02*
X18650Y-39700D01*
X19400Y-40450D02*
X19400Y-43200D01*
X18650Y-39700D02*
X19400Y-40450D01*
X10400Y-41700D02*
X10400Y-42700D01*
X26400Y-40700D02*
X25400Y-39700D01*
X26400Y-42200D02*
X26400Y-40700D01*
X25400Y-43200D02*
X26400Y-42200D01*
X10900Y-43200D02*
X19400Y-43200D01*
X19400Y-43200D02*
X25400Y-43200D01*
X10400Y-42700D02*
X10900Y-43200D01*
G54D10*
G36*
X33700Y-16200D02*
X33275Y-16200D01*
X33275Y-11146D01*
X33195Y-10953D01*
X33047Y-10805D01*
X32914Y-10749D01*
X33047Y-10695D01*
X33194Y-10547D01*
X33274Y-10354D01*
X33275Y-10146D01*
X33195Y-9953D01*
X33047Y-9805D01*
X32854Y-9725D01*
X32646Y-9724D01*
X32453Y-9804D01*
X32305Y-9952D01*
X32225Y-10145D01*
X32224Y-10353D01*
X32304Y-10547D01*
X32452Y-10694D01*
X32585Y-10750D01*
X32453Y-10804D01*
X32305Y-10952D01*
X32225Y-11145D01*
X32224Y-11353D01*
X32304Y-11547D01*
X32452Y-11694D01*
X32645Y-11774D01*
X32853Y-11775D01*
X33047Y-11695D01*
X33194Y-11547D01*
X33274Y-11354D01*
X33275Y-11146D01*
X33275Y-16200D01*
X31550Y-16200D01*
X31550Y-13891D01*
X31466Y-13688D01*
X31311Y-13534D01*
X31109Y-13450D01*
X31100Y-13450D01*
X31100Y-10381D01*
X31008Y-10160D01*
X30840Y-9991D01*
X30619Y-9900D01*
X30381Y-9899D01*
X30160Y-9991D01*
X29991Y-10159D01*
X29900Y-10380D01*
X29899Y-10618D01*
X29991Y-10839D01*
X30159Y-11008D01*
X30380Y-11099D01*
X30618Y-11100D01*
X30839Y-11008D01*
X31008Y-10840D01*
X31099Y-10619D01*
X31100Y-10381D01*
X31100Y-13450D01*
X30891Y-13449D01*
X30688Y-13533D01*
X30534Y-13688D01*
X30500Y-13769D01*
X30466Y-13688D01*
X30311Y-13534D01*
X30109Y-13450D01*
X29891Y-13449D01*
X29688Y-13533D01*
X29534Y-13688D01*
X29500Y-13769D01*
X29466Y-13688D01*
X29311Y-13534D01*
X29109Y-13450D01*
X28891Y-13449D01*
X28688Y-13533D01*
X28534Y-13688D01*
X28500Y-13769D01*
X28466Y-13688D01*
X28311Y-13534D01*
X28109Y-13450D01*
X27891Y-13449D01*
X27688Y-13533D01*
X27534Y-13688D01*
X27500Y-13769D01*
X27466Y-13688D01*
X27311Y-13534D01*
X27109Y-13450D01*
X26891Y-13449D01*
X26688Y-13533D01*
X26534Y-13688D01*
X26500Y-13769D01*
X26466Y-13688D01*
X26311Y-13534D01*
X26310Y-13533D01*
X26310Y-13000D01*
X26286Y-12881D01*
X26219Y-12780D01*
X25175Y-11736D01*
X25175Y-11665D01*
X25110Y-11509D01*
X24991Y-11389D01*
X24834Y-11325D01*
X24665Y-11324D01*
X24509Y-11389D01*
X24389Y-11508D01*
X24325Y-11665D01*
X24324Y-11834D01*
X24389Y-11990D01*
X24508Y-12110D01*
X24665Y-12174D01*
X24736Y-12174D01*
X25690Y-13128D01*
X25690Y-13532D01*
X25688Y-13533D01*
X25534Y-13688D01*
X25500Y-13769D01*
X25466Y-13688D01*
X25311Y-13534D01*
X25310Y-13533D01*
X25310Y-13250D01*
X25309Y-13249D01*
X25310Y-13249D01*
X25305Y-13226D01*
X25286Y-13131D01*
X25286Y-13131D01*
X25219Y-13030D01*
X25219Y-13030D01*
X23425Y-11236D01*
X23425Y-11165D01*
X23360Y-11009D01*
X23241Y-10889D01*
X23084Y-10825D01*
X22915Y-10824D01*
X22759Y-10889D01*
X22639Y-11008D01*
X22575Y-11165D01*
X22574Y-11334D01*
X22639Y-11490D01*
X22758Y-11610D01*
X22915Y-11674D01*
X22986Y-11674D01*
X24690Y-13378D01*
X24690Y-13532D01*
X24688Y-13533D01*
X24534Y-13688D01*
X24500Y-13769D01*
X24466Y-13688D01*
X24311Y-13534D01*
X24109Y-13450D01*
X23891Y-13449D01*
X23688Y-13533D01*
X23534Y-13688D01*
X23450Y-13890D01*
X23449Y-14108D01*
X23533Y-14311D01*
X23641Y-14419D01*
X23371Y-14690D01*
X22550Y-14690D01*
X22550Y-13891D01*
X22466Y-13688D01*
X22311Y-13534D01*
X22109Y-13450D01*
X21891Y-13449D01*
X21688Y-13533D01*
X21600Y-13622D01*
X21600Y-10381D01*
X21508Y-10160D01*
X21340Y-9991D01*
X21119Y-9900D01*
X20881Y-9899D01*
X20660Y-9991D01*
X20491Y-10159D01*
X20400Y-10380D01*
X20399Y-10618D01*
X20491Y-10839D01*
X20659Y-11008D01*
X20880Y-11099D01*
X21118Y-11100D01*
X21339Y-11008D01*
X21508Y-10840D01*
X21599Y-10619D01*
X21600Y-10381D01*
X21600Y-13622D01*
X21534Y-13688D01*
X21500Y-13769D01*
X21466Y-13688D01*
X21311Y-13534D01*
X21109Y-13450D01*
X20891Y-13449D01*
X20688Y-13533D01*
X20534Y-13688D01*
X20500Y-13769D01*
X20466Y-13688D01*
X20311Y-13534D01*
X20109Y-13450D01*
X19891Y-13449D01*
X19688Y-13533D01*
X19534Y-13688D01*
X19500Y-13769D01*
X19466Y-13688D01*
X19311Y-13534D01*
X19109Y-13450D01*
X18925Y-13449D01*
X18925Y-11665D01*
X18860Y-11509D01*
X18741Y-11389D01*
X18584Y-11325D01*
X18415Y-11324D01*
X18259Y-11389D01*
X18208Y-11440D01*
X17291Y-11440D01*
X17241Y-11389D01*
X17084Y-11325D01*
X16915Y-11324D01*
X16759Y-11389D01*
X16639Y-11508D01*
X16575Y-11665D01*
X16574Y-11834D01*
X16639Y-11990D01*
X16758Y-12110D01*
X16915Y-12174D01*
X17084Y-12175D01*
X17240Y-12110D01*
X17291Y-12060D01*
X18208Y-12060D01*
X18258Y-12110D01*
X18415Y-12174D01*
X18584Y-12175D01*
X18740Y-12110D01*
X18860Y-11991D01*
X18924Y-11834D01*
X18925Y-11665D01*
X18925Y-13449D01*
X18891Y-13449D01*
X18688Y-13533D01*
X18534Y-13688D01*
X18500Y-13769D01*
X18466Y-13688D01*
X18418Y-13640D01*
X18490Y-13610D01*
X18610Y-13491D01*
X18674Y-13334D01*
X18675Y-13165D01*
X18610Y-13009D01*
X18491Y-12889D01*
X18334Y-12825D01*
X18165Y-12824D01*
X18009Y-12889D01*
X17958Y-12940D01*
X15791Y-12940D01*
X15741Y-12889D01*
X15584Y-12825D01*
X15415Y-12824D01*
X15259Y-12889D01*
X15139Y-13008D01*
X15075Y-13165D01*
X15074Y-13334D01*
X15125Y-13456D01*
X15109Y-13450D01*
X14891Y-13449D01*
X14688Y-13533D01*
X14534Y-13688D01*
X14470Y-13841D01*
X13736Y-14574D01*
X13665Y-14574D01*
X13509Y-14639D01*
X13389Y-14758D01*
X13325Y-14915D01*
X13324Y-15084D01*
X13389Y-15240D01*
X13508Y-15360D01*
X13665Y-15424D01*
X13834Y-15425D01*
X13990Y-15360D01*
X14110Y-15241D01*
X14174Y-15084D01*
X14174Y-15013D01*
X14712Y-14476D01*
X14890Y-14549D01*
X15108Y-14550D01*
X15311Y-14466D01*
X15465Y-14311D01*
X15499Y-14230D01*
X15533Y-14311D01*
X15688Y-14465D01*
X15890Y-14549D01*
X16108Y-14550D01*
X16311Y-14466D01*
X16465Y-14311D01*
X16499Y-14230D01*
X16533Y-14311D01*
X16688Y-14465D01*
X16890Y-14549D01*
X17108Y-14550D01*
X17311Y-14466D01*
X17465Y-14311D01*
X17499Y-14230D01*
X17533Y-14311D01*
X17688Y-14465D01*
X17890Y-14549D01*
X18108Y-14550D01*
X18311Y-14466D01*
X18465Y-14311D01*
X18499Y-14230D01*
X18533Y-14311D01*
X18688Y-14465D01*
X18890Y-14549D01*
X19108Y-14550D01*
X19311Y-14466D01*
X19465Y-14311D01*
X19499Y-14230D01*
X19533Y-14311D01*
X19688Y-14465D01*
X19890Y-14549D01*
X20108Y-14550D01*
X20311Y-14466D01*
X20465Y-14311D01*
X20499Y-14230D01*
X20533Y-14311D01*
X20688Y-14465D01*
X20890Y-14549D01*
X21108Y-14550D01*
X21311Y-14466D01*
X21465Y-14311D01*
X21499Y-14230D01*
X21533Y-14311D01*
X21688Y-14465D01*
X21890Y-14549D01*
X22108Y-14550D01*
X22311Y-14466D01*
X22465Y-14311D01*
X22549Y-14109D01*
X22550Y-13891D01*
X22550Y-14690D01*
X19041Y-14690D01*
X18991Y-14639D01*
X18834Y-14575D01*
X18665Y-14574D01*
X18509Y-14639D01*
X18389Y-14758D01*
X18325Y-14915D01*
X18324Y-15084D01*
X18389Y-15240D01*
X18508Y-15360D01*
X18665Y-15424D01*
X18834Y-15425D01*
X18990Y-15360D01*
X19041Y-15310D01*
X23500Y-15310D01*
X23618Y-15286D01*
X23719Y-15219D01*
X24219Y-14719D01*
X24286Y-14618D01*
X24310Y-14500D01*
X24310Y-14467D01*
X24311Y-14466D01*
X24465Y-14311D01*
X24499Y-14230D01*
X24533Y-14311D01*
X24688Y-14465D01*
X24890Y-14549D01*
X25108Y-14550D01*
X25311Y-14466D01*
X25465Y-14311D01*
X25499Y-14230D01*
X25533Y-14311D01*
X25688Y-14465D01*
X25890Y-14549D01*
X26108Y-14550D01*
X26311Y-14466D01*
X26465Y-14311D01*
X26499Y-14230D01*
X26533Y-14311D01*
X26688Y-14465D01*
X26890Y-14549D01*
X27108Y-14550D01*
X27311Y-14466D01*
X27465Y-14311D01*
X27499Y-14230D01*
X27533Y-14311D01*
X27688Y-14465D01*
X27890Y-14549D01*
X28108Y-14550D01*
X28311Y-14466D01*
X28465Y-14311D01*
X28499Y-14230D01*
X28533Y-14311D01*
X28688Y-14465D01*
X28890Y-14549D01*
X29108Y-14550D01*
X29311Y-14466D01*
X29465Y-14311D01*
X29499Y-14230D01*
X29533Y-14311D01*
X29688Y-14465D01*
X29890Y-14549D01*
X30108Y-14550D01*
X30311Y-14466D01*
X30465Y-14311D01*
X30499Y-14230D01*
X30533Y-14311D01*
X30688Y-14465D01*
X30890Y-14549D01*
X31108Y-14550D01*
X31311Y-14466D01*
X31465Y-14311D01*
X31549Y-14109D01*
X31550Y-13891D01*
X31550Y-16200D01*
X25801Y-16200D01*
X25741Y-16139D01*
X25584Y-16075D01*
X25415Y-16074D01*
X25259Y-16139D01*
X25198Y-16200D01*
X24700Y-16200D01*
X24700Y-16700D01*
X20249Y-16700D01*
X20141Y-16699D01*
X20140Y-16700D01*
X19249Y-16700D01*
X19141Y-16699D01*
X19140Y-16700D01*
X18249Y-16700D01*
X18141Y-16699D01*
X18140Y-16700D01*
X12810Y-16700D01*
X12810Y-14467D01*
X12811Y-14466D01*
X12965Y-14311D01*
X12999Y-14230D01*
X13033Y-14311D01*
X13188Y-14465D01*
X13390Y-14549D01*
X13608Y-14550D01*
X13811Y-14466D01*
X13965Y-14311D01*
X14049Y-14109D01*
X14050Y-13891D01*
X13966Y-13688D01*
X13811Y-13534D01*
X13609Y-13450D01*
X13391Y-13449D01*
X13188Y-13533D01*
X13100Y-13622D01*
X13100Y-10381D01*
X13008Y-10160D01*
X12840Y-9991D01*
X12619Y-9900D01*
X12381Y-9899D01*
X12160Y-9991D01*
X11991Y-10159D01*
X11900Y-10380D01*
X11899Y-10618D01*
X11991Y-10839D01*
X12159Y-11008D01*
X12380Y-11099D01*
X12618Y-11100D01*
X12839Y-11008D01*
X13008Y-10840D01*
X13099Y-10619D01*
X13100Y-10381D01*
X13100Y-13622D01*
X13034Y-13688D01*
X13000Y-13769D01*
X12966Y-13688D01*
X12811Y-13534D01*
X12609Y-13450D01*
X12391Y-13449D01*
X12188Y-13533D01*
X12034Y-13688D01*
X12000Y-13769D01*
X11966Y-13688D01*
X11811Y-13534D01*
X11609Y-13450D01*
X11391Y-13449D01*
X11188Y-13533D01*
X11034Y-13688D01*
X11000Y-13769D01*
X10966Y-13688D01*
X10811Y-13534D01*
X10609Y-13450D01*
X10391Y-13449D01*
X10188Y-13533D01*
X10034Y-13688D01*
X10000Y-13769D01*
X9966Y-13688D01*
X9811Y-13534D01*
X9609Y-13450D01*
X9391Y-13449D01*
X9188Y-13533D01*
X9034Y-13688D01*
X9000Y-13769D01*
X8966Y-13688D01*
X8811Y-13534D01*
X8609Y-13450D01*
X8391Y-13449D01*
X8188Y-13533D01*
X8034Y-13688D01*
X8000Y-13769D01*
X7966Y-13688D01*
X7811Y-13534D01*
X7609Y-13450D01*
X7391Y-13449D01*
X7188Y-13533D01*
X7034Y-13688D01*
X7000Y-13769D01*
X6966Y-13688D01*
X6811Y-13534D01*
X6609Y-13450D01*
X6391Y-13449D01*
X6188Y-13533D01*
X6034Y-13688D01*
X5950Y-13890D01*
X5949Y-14108D01*
X6033Y-14311D01*
X6188Y-14465D01*
X6390Y-14549D01*
X6608Y-14550D01*
X6811Y-14466D01*
X6965Y-14311D01*
X6999Y-14230D01*
X7033Y-14311D01*
X7188Y-14465D01*
X7190Y-14466D01*
X7190Y-16700D01*
X5800Y-16700D01*
X5800Y-7300D01*
X7900Y-7300D01*
X7900Y-8470D01*
X7849Y-8450D01*
X7750Y-8449D01*
X7150Y-8449D01*
X7058Y-8487D01*
X6988Y-8558D01*
X6950Y-8650D01*
X6949Y-8749D01*
X6949Y-9349D01*
X6987Y-9441D01*
X7058Y-9511D01*
X7150Y-9549D01*
X7249Y-9550D01*
X7849Y-9550D01*
X7941Y-9512D01*
X8011Y-9441D01*
X8040Y-9371D01*
X8075Y-9424D01*
X8270Y-9554D01*
X8500Y-9600D01*
X8729Y-9554D01*
X8924Y-9424D01*
X9000Y-9310D01*
X9075Y-9424D01*
X9270Y-9554D01*
X9500Y-9600D01*
X9729Y-9554D01*
X9924Y-9424D01*
X10000Y-9310D01*
X10075Y-9424D01*
X10270Y-9554D01*
X10500Y-9600D01*
X10729Y-9554D01*
X10924Y-9424D01*
X11000Y-9310D01*
X11075Y-9424D01*
X11270Y-9554D01*
X11500Y-9600D01*
X11729Y-9554D01*
X11924Y-9424D01*
X12020Y-9280D01*
X12033Y-9311D01*
X12188Y-9465D01*
X12390Y-9549D01*
X12608Y-9550D01*
X12811Y-9466D01*
X12949Y-9327D01*
X12949Y-9349D01*
X12987Y-9441D01*
X13058Y-9511D01*
X13150Y-9549D01*
X13249Y-9550D01*
X13849Y-9550D01*
X13941Y-9512D01*
X14011Y-9441D01*
X14049Y-9349D01*
X14050Y-9250D01*
X14050Y-8650D01*
X14012Y-8558D01*
X13941Y-8488D01*
X13849Y-8450D01*
X13750Y-8449D01*
X13150Y-8449D01*
X13058Y-8487D01*
X12988Y-8558D01*
X12950Y-8650D01*
X12950Y-8672D01*
X12811Y-8534D01*
X12609Y-8450D01*
X12391Y-8449D01*
X12188Y-8533D01*
X12100Y-8622D01*
X12100Y-7300D01*
X16400Y-7300D01*
X16400Y-8470D01*
X16349Y-8450D01*
X16250Y-8449D01*
X15650Y-8449D01*
X15558Y-8487D01*
X15488Y-8558D01*
X15450Y-8650D01*
X15449Y-8749D01*
X15449Y-9349D01*
X15487Y-9441D01*
X15558Y-9511D01*
X15650Y-9549D01*
X15749Y-9550D01*
X16349Y-9550D01*
X16441Y-9512D01*
X16511Y-9441D01*
X16540Y-9371D01*
X16575Y-9424D01*
X16770Y-9554D01*
X17000Y-9600D01*
X17229Y-9554D01*
X17424Y-9424D01*
X17500Y-9310D01*
X17575Y-9424D01*
X17770Y-9554D01*
X18000Y-9600D01*
X18229Y-9554D01*
X18424Y-9424D01*
X18500Y-9310D01*
X18575Y-9424D01*
X18770Y-9554D01*
X19000Y-9600D01*
X19229Y-9554D01*
X19424Y-9424D01*
X19500Y-9310D01*
X19575Y-9424D01*
X19770Y-9554D01*
X20000Y-9600D01*
X20229Y-9554D01*
X20424Y-9424D01*
X20520Y-9280D01*
X20533Y-9311D01*
X20688Y-9465D01*
X20890Y-9549D01*
X21108Y-9550D01*
X21311Y-9466D01*
X21449Y-9327D01*
X21449Y-9349D01*
X21487Y-9441D01*
X21558Y-9511D01*
X21650Y-9549D01*
X21749Y-9550D01*
X22349Y-9550D01*
X22441Y-9512D01*
X22511Y-9441D01*
X22549Y-9349D01*
X22550Y-9250D01*
X22550Y-8650D01*
X22512Y-8558D01*
X22441Y-8488D01*
X22349Y-8450D01*
X22250Y-8449D01*
X21650Y-8449D01*
X21558Y-8487D01*
X21488Y-8558D01*
X21450Y-8650D01*
X21450Y-8672D01*
X21311Y-8534D01*
X21109Y-8450D01*
X20891Y-8449D01*
X20688Y-8533D01*
X20600Y-8622D01*
X20600Y-7300D01*
X25400Y-7300D01*
X25400Y-8470D01*
X25349Y-8450D01*
X25250Y-8449D01*
X24650Y-8449D01*
X24558Y-8487D01*
X24488Y-8558D01*
X24450Y-8650D01*
X24449Y-8749D01*
X24449Y-9349D01*
X24487Y-9441D01*
X24558Y-9511D01*
X24650Y-9549D01*
X24749Y-9550D01*
X25349Y-9550D01*
X25441Y-9512D01*
X25511Y-9441D01*
X25540Y-9371D01*
X25575Y-9424D01*
X25770Y-9554D01*
X26000Y-9600D01*
X26229Y-9554D01*
X26424Y-9424D01*
X26500Y-9310D01*
X26575Y-9424D01*
X26770Y-9554D01*
X27000Y-9600D01*
X27229Y-9554D01*
X27424Y-9424D01*
X27500Y-9310D01*
X27575Y-9424D01*
X27770Y-9554D01*
X28000Y-9600D01*
X28229Y-9554D01*
X28424Y-9424D01*
X28500Y-9310D01*
X28575Y-9424D01*
X28770Y-9554D01*
X29000Y-9600D01*
X29229Y-9554D01*
X29424Y-9424D01*
X29520Y-9280D01*
X29533Y-9311D01*
X29688Y-9465D01*
X29890Y-9549D01*
X30108Y-9550D01*
X30311Y-9466D01*
X30449Y-9327D01*
X30449Y-9349D01*
X30487Y-9441D01*
X30558Y-9511D01*
X30650Y-9549D01*
X30749Y-9550D01*
X31349Y-9550D01*
X31441Y-9512D01*
X31511Y-9441D01*
X31549Y-9349D01*
X31550Y-9250D01*
X31550Y-8650D01*
X31512Y-8558D01*
X31441Y-8488D01*
X31349Y-8450D01*
X31250Y-8449D01*
X30650Y-8449D01*
X30558Y-8487D01*
X30488Y-8558D01*
X30450Y-8650D01*
X30450Y-8672D01*
X30311Y-8534D01*
X30109Y-8450D01*
X29891Y-8449D01*
X29688Y-8533D01*
X29600Y-8622D01*
X29600Y-7300D01*
X33700Y-7300D01*
X33700Y-12250D01*
X33700Y-15750D01*
X33700Y-16200D01*
X33700Y-16200D01*
G37*
G54D23*
X33700Y-16200D02*
X33275Y-16200D01*
X33275Y-11146D01*
X33195Y-10953D01*
X33047Y-10805D01*
X32914Y-10749D01*
X33047Y-10695D01*
X33194Y-10547D01*
X33274Y-10354D01*
X33275Y-10146D01*
X33195Y-9953D01*
X33047Y-9805D01*
X32854Y-9725D01*
X32646Y-9724D01*
X32453Y-9804D01*
X32305Y-9952D01*
X32225Y-10145D01*
X32224Y-10353D01*
X32304Y-10547D01*
X32452Y-10694D01*
X32585Y-10750D01*
X32453Y-10804D01*
X32305Y-10952D01*
X32225Y-11145D01*
X32224Y-11353D01*
X32304Y-11547D01*
X32452Y-11694D01*
X32645Y-11774D01*
X32853Y-11775D01*
X33047Y-11695D01*
X33194Y-11547D01*
X33274Y-11354D01*
X33275Y-11146D01*
X33275Y-16200D01*
X31550Y-16200D01*
X31550Y-13891D01*
X31466Y-13688D01*
X31311Y-13534D01*
X31109Y-13450D01*
X31100Y-13450D01*
X31100Y-10381D01*
X31008Y-10160D01*
X30840Y-9991D01*
X30619Y-9900D01*
X30381Y-9899D01*
X30160Y-9991D01*
X29991Y-10159D01*
X29900Y-10380D01*
X29899Y-10618D01*
X29991Y-10839D01*
X30159Y-11008D01*
X30380Y-11099D01*
X30618Y-11100D01*
X30839Y-11008D01*
X31008Y-10840D01*
X31099Y-10619D01*
X31100Y-10381D01*
X31100Y-13450D01*
X30891Y-13449D01*
X30688Y-13533D01*
X30534Y-13688D01*
X30500Y-13769D01*
X30466Y-13688D01*
X30311Y-13534D01*
X30109Y-13450D01*
X29891Y-13449D01*
X29688Y-13533D01*
X29534Y-13688D01*
X29500Y-13769D01*
X29466Y-13688D01*
X29311Y-13534D01*
X29109Y-13450D01*
X28891Y-13449D01*
X28688Y-13533D01*
X28534Y-13688D01*
X28500Y-13769D01*
X28466Y-13688D01*
X28311Y-13534D01*
X28109Y-13450D01*
X27891Y-13449D01*
X27688Y-13533D01*
X27534Y-13688D01*
X27500Y-13769D01*
X27466Y-13688D01*
X27311Y-13534D01*
X27109Y-13450D01*
X26891Y-13449D01*
X26688Y-13533D01*
X26534Y-13688D01*
X26500Y-13769D01*
X26466Y-13688D01*
X26311Y-13534D01*
X26310Y-13533D01*
X26310Y-13000D01*
X26286Y-12881D01*
X26219Y-12780D01*
X25175Y-11736D01*
X25175Y-11665D01*
X25110Y-11509D01*
X24991Y-11389D01*
X24834Y-11325D01*
X24665Y-11324D01*
X24509Y-11389D01*
X24389Y-11508D01*
X24325Y-11665D01*
X24324Y-11834D01*
X24389Y-11990D01*
X24508Y-12110D01*
X24665Y-12174D01*
X24736Y-12174D01*
X25690Y-13128D01*
X25690Y-13532D01*
X25688Y-13533D01*
X25534Y-13688D01*
X25500Y-13769D01*
X25466Y-13688D01*
X25311Y-13534D01*
X25310Y-13533D01*
X25310Y-13250D01*
X25309Y-13249D01*
X25310Y-13249D01*
X25305Y-13226D01*
X25286Y-13131D01*
X25286Y-13131D01*
X25219Y-13030D01*
X25219Y-13030D01*
X23425Y-11236D01*
X23425Y-11165D01*
X23360Y-11009D01*
X23241Y-10889D01*
X23084Y-10825D01*
X22915Y-10824D01*
X22759Y-10889D01*
X22639Y-11008D01*
X22575Y-11165D01*
X22574Y-11334D01*
X22639Y-11490D01*
X22758Y-11610D01*
X22915Y-11674D01*
X22986Y-11674D01*
X24690Y-13378D01*
X24690Y-13532D01*
X24688Y-13533D01*
X24534Y-13688D01*
X24500Y-13769D01*
X24466Y-13688D01*
X24311Y-13534D01*
X24109Y-13450D01*
X23891Y-13449D01*
X23688Y-13533D01*
X23534Y-13688D01*
X23450Y-13890D01*
X23449Y-14108D01*
X23533Y-14311D01*
X23641Y-14419D01*
X23371Y-14690D01*
X22550Y-14690D01*
X22550Y-13891D01*
X22466Y-13688D01*
X22311Y-13534D01*
X22109Y-13450D01*
X21891Y-13449D01*
X21688Y-13533D01*
X21600Y-13622D01*
X21600Y-10381D01*
X21508Y-10160D01*
X21340Y-9991D01*
X21119Y-9900D01*
X20881Y-9899D01*
X20660Y-9991D01*
X20491Y-10159D01*
X20400Y-10380D01*
X20399Y-10618D01*
X20491Y-10839D01*
X20659Y-11008D01*
X20880Y-11099D01*
X21118Y-11100D01*
X21339Y-11008D01*
X21508Y-10840D01*
X21599Y-10619D01*
X21600Y-10381D01*
X21600Y-13622D01*
X21534Y-13688D01*
X21500Y-13769D01*
X21466Y-13688D01*
X21311Y-13534D01*
X21109Y-13450D01*
X20891Y-13449D01*
X20688Y-13533D01*
X20534Y-13688D01*
X20500Y-13769D01*
X20466Y-13688D01*
X20311Y-13534D01*
X20109Y-13450D01*
X19891Y-13449D01*
X19688Y-13533D01*
X19534Y-13688D01*
X19500Y-13769D01*
X19466Y-13688D01*
X19311Y-13534D01*
X19109Y-13450D01*
X18925Y-13449D01*
X18925Y-11665D01*
X18860Y-11509D01*
X18741Y-11389D01*
X18584Y-11325D01*
X18415Y-11324D01*
X18259Y-11389D01*
X18208Y-11440D01*
X17291Y-11440D01*
X17241Y-11389D01*
X17084Y-11325D01*
X16915Y-11324D01*
X16759Y-11389D01*
X16639Y-11508D01*
X16575Y-11665D01*
X16574Y-11834D01*
X16639Y-11990D01*
X16758Y-12110D01*
X16915Y-12174D01*
X17084Y-12175D01*
X17240Y-12110D01*
X17291Y-12060D01*
X18208Y-12060D01*
X18258Y-12110D01*
X18415Y-12174D01*
X18584Y-12175D01*
X18740Y-12110D01*
X18860Y-11991D01*
X18924Y-11834D01*
X18925Y-11665D01*
X18925Y-13449D01*
X18891Y-13449D01*
X18688Y-13533D01*
X18534Y-13688D01*
X18500Y-13769D01*
X18466Y-13688D01*
X18418Y-13640D01*
X18490Y-13610D01*
X18610Y-13491D01*
X18674Y-13334D01*
X18675Y-13165D01*
X18610Y-13009D01*
X18491Y-12889D01*
X18334Y-12825D01*
X18165Y-12824D01*
X18009Y-12889D01*
X17958Y-12940D01*
X15791Y-12940D01*
X15741Y-12889D01*
X15584Y-12825D01*
X15415Y-12824D01*
X15259Y-12889D01*
X15139Y-13008D01*
X15075Y-13165D01*
X15074Y-13334D01*
X15125Y-13456D01*
X15109Y-13450D01*
X14891Y-13449D01*
X14688Y-13533D01*
X14534Y-13688D01*
X14470Y-13841D01*
X13736Y-14574D01*
X13665Y-14574D01*
X13509Y-14639D01*
X13389Y-14758D01*
X13325Y-14915D01*
X13324Y-15084D01*
X13389Y-15240D01*
X13508Y-15360D01*
X13665Y-15424D01*
X13834Y-15425D01*
X13990Y-15360D01*
X14110Y-15241D01*
X14174Y-15084D01*
X14174Y-15013D01*
X14712Y-14476D01*
X14890Y-14549D01*
X15108Y-14550D01*
X15311Y-14466D01*
X15465Y-14311D01*
X15499Y-14230D01*
X15533Y-14311D01*
X15688Y-14465D01*
X15890Y-14549D01*
X16108Y-14550D01*
X16311Y-14466D01*
X16465Y-14311D01*
X16499Y-14230D01*
X16533Y-14311D01*
X16688Y-14465D01*
X16890Y-14549D01*
X17108Y-14550D01*
X17311Y-14466D01*
X17465Y-14311D01*
X17499Y-14230D01*
X17533Y-14311D01*
X17688Y-14465D01*
X17890Y-14549D01*
X18108Y-14550D01*
X18311Y-14466D01*
X18465Y-14311D01*
X18499Y-14230D01*
X18533Y-14311D01*
X18688Y-14465D01*
X18890Y-14549D01*
X19108Y-14550D01*
X19311Y-14466D01*
X19465Y-14311D01*
X19499Y-14230D01*
X19533Y-14311D01*
X19688Y-14465D01*
X19890Y-14549D01*
X20108Y-14550D01*
X20311Y-14466D01*
X20465Y-14311D01*
X20499Y-14230D01*
X20533Y-14311D01*
X20688Y-14465D01*
X20890Y-14549D01*
X21108Y-14550D01*
X21311Y-14466D01*
X21465Y-14311D01*
X21499Y-14230D01*
X21533Y-14311D01*
X21688Y-14465D01*
X21890Y-14549D01*
X22108Y-14550D01*
X22311Y-14466D01*
X22465Y-14311D01*
X22549Y-14109D01*
X22550Y-13891D01*
X22550Y-14690D01*
X19041Y-14690D01*
X18991Y-14639D01*
X18834Y-14575D01*
X18665Y-14574D01*
X18509Y-14639D01*
X18389Y-14758D01*
X18325Y-14915D01*
X18324Y-15084D01*
X18389Y-15240D01*
X18508Y-15360D01*
X18665Y-15424D01*
X18834Y-15425D01*
X18990Y-15360D01*
X19041Y-15310D01*
X23500Y-15310D01*
X23618Y-15286D01*
X23719Y-15219D01*
X24219Y-14719D01*
X24286Y-14618D01*
X24310Y-14500D01*
X24310Y-14467D01*
X24311Y-14466D01*
X24465Y-14311D01*
X24499Y-14230D01*
X24533Y-14311D01*
X24688Y-14465D01*
X24890Y-14549D01*
X25108Y-14550D01*
X25311Y-14466D01*
X25465Y-14311D01*
X25499Y-14230D01*
X25533Y-14311D01*
X25688Y-14465D01*
X25890Y-14549D01*
X26108Y-14550D01*
X26311Y-14466D01*
X26465Y-14311D01*
X26499Y-14230D01*
X26533Y-14311D01*
X26688Y-14465D01*
X26890Y-14549D01*
X27108Y-14550D01*
X27311Y-14466D01*
X27465Y-14311D01*
X27499Y-14230D01*
X27533Y-14311D01*
X27688Y-14465D01*
X27890Y-14549D01*
X28108Y-14550D01*
X28311Y-14466D01*
X28465Y-14311D01*
X28499Y-14230D01*
X28533Y-14311D01*
X28688Y-14465D01*
X28890Y-14549D01*
X29108Y-14550D01*
X29311Y-14466D01*
X29465Y-14311D01*
X29499Y-14230D01*
X29533Y-14311D01*
X29688Y-14465D01*
X29890Y-14549D01*
X30108Y-14550D01*
X30311Y-14466D01*
X30465Y-14311D01*
X30499Y-14230D01*
X30533Y-14311D01*
X30688Y-14465D01*
X30890Y-14549D01*
X31108Y-14550D01*
X31311Y-14466D01*
X31465Y-14311D01*
X31549Y-14109D01*
X31550Y-13891D01*
X31550Y-16200D01*
X25801Y-16200D01*
X25741Y-16139D01*
X25584Y-16075D01*
X25415Y-16074D01*
X25259Y-16139D01*
X25198Y-16200D01*
X24700Y-16200D01*
X24700Y-16700D01*
X20249Y-16700D01*
X20141Y-16699D01*
X20140Y-16700D01*
X19249Y-16700D01*
X19141Y-16699D01*
X19140Y-16700D01*
X18249Y-16700D01*
X18141Y-16699D01*
X18140Y-16700D01*
X12810Y-16700D01*
X12810Y-14467D01*
X12811Y-14466D01*
X12965Y-14311D01*
X12999Y-14230D01*
X13033Y-14311D01*
X13188Y-14465D01*
X13390Y-14549D01*
X13608Y-14550D01*
X13811Y-14466D01*
X13965Y-14311D01*
X14049Y-14109D01*
X14050Y-13891D01*
X13966Y-13688D01*
X13811Y-13534D01*
X13609Y-13450D01*
X13391Y-13449D01*
X13188Y-13533D01*
X13100Y-13622D01*
X13100Y-10381D01*
X13008Y-10160D01*
X12840Y-9991D01*
X12619Y-9900D01*
X12381Y-9899D01*
X12160Y-9991D01*
X11991Y-10159D01*
X11900Y-10380D01*
X11899Y-10618D01*
X11991Y-10839D01*
X12159Y-11008D01*
X12380Y-11099D01*
X12618Y-11100D01*
X12839Y-11008D01*
X13008Y-10840D01*
X13099Y-10619D01*
X13100Y-10381D01*
X13100Y-13622D01*
X13034Y-13688D01*
X13000Y-13769D01*
X12966Y-13688D01*
X12811Y-13534D01*
X12609Y-13450D01*
X12391Y-13449D01*
X12188Y-13533D01*
X12034Y-13688D01*
X12000Y-13769D01*
X11966Y-13688D01*
X11811Y-13534D01*
X11609Y-13450D01*
X11391Y-13449D01*
X11188Y-13533D01*
X11034Y-13688D01*
X11000Y-13769D01*
X10966Y-13688D01*
X10811Y-13534D01*
X10609Y-13450D01*
X10391Y-13449D01*
X10188Y-13533D01*
X10034Y-13688D01*
X10000Y-13769D01*
X9966Y-13688D01*
X9811Y-13534D01*
X9609Y-13450D01*
X9391Y-13449D01*
X9188Y-13533D01*
X9034Y-13688D01*
X9000Y-13769D01*
X8966Y-13688D01*
X8811Y-13534D01*
X8609Y-13450D01*
X8391Y-13449D01*
X8188Y-13533D01*
X8034Y-13688D01*
X8000Y-13769D01*
X7966Y-13688D01*
X7811Y-13534D01*
X7609Y-13450D01*
X7391Y-13449D01*
X7188Y-13533D01*
X7034Y-13688D01*
X7000Y-13769D01*
X6966Y-13688D01*
X6811Y-13534D01*
X6609Y-13450D01*
X6391Y-13449D01*
X6188Y-13533D01*
X6034Y-13688D01*
X5950Y-13890D01*
X5949Y-14108D01*
X6033Y-14311D01*
X6188Y-14465D01*
X6390Y-14549D01*
X6608Y-14550D01*
X6811Y-14466D01*
X6965Y-14311D01*
X6999Y-14230D01*
X7033Y-14311D01*
X7188Y-14465D01*
X7190Y-14466D01*
X7190Y-16700D01*
X5800Y-16700D01*
X5800Y-7300D01*
X7900Y-7300D01*
X7900Y-8470D01*
X7849Y-8450D01*
X7750Y-8449D01*
X7150Y-8449D01*
X7058Y-8487D01*
X6988Y-8558D01*
X6950Y-8650D01*
X6949Y-8749D01*
X6949Y-9349D01*
X6987Y-9441D01*
X7058Y-9511D01*
X7150Y-9549D01*
X7249Y-9550D01*
X7849Y-9550D01*
X7941Y-9512D01*
X8011Y-9441D01*
X8040Y-9371D01*
X8075Y-9424D01*
X8270Y-9554D01*
X8500Y-9600D01*
X8729Y-9554D01*
X8924Y-9424D01*
X9000Y-9310D01*
X9075Y-9424D01*
X9270Y-9554D01*
X9500Y-9600D01*
X9729Y-9554D01*
X9924Y-9424D01*
X10000Y-9310D01*
X10075Y-9424D01*
X10270Y-9554D01*
X10500Y-9600D01*
X10729Y-9554D01*
X10924Y-9424D01*
X11000Y-9310D01*
X11075Y-9424D01*
X11270Y-9554D01*
X11500Y-9600D01*
X11729Y-9554D01*
X11924Y-9424D01*
X12020Y-9280D01*
X12033Y-9311D01*
X12188Y-9465D01*
X12390Y-9549D01*
X12608Y-9550D01*
X12811Y-9466D01*
X12949Y-9327D01*
X12949Y-9349D01*
X12987Y-9441D01*
X13058Y-9511D01*
X13150Y-9549D01*
X13249Y-9550D01*
X13849Y-9550D01*
X13941Y-9512D01*
X14011Y-9441D01*
X14049Y-9349D01*
X14050Y-9250D01*
X14050Y-8650D01*
X14012Y-8558D01*
X13941Y-8488D01*
X13849Y-8450D01*
X13750Y-8449D01*
X13150Y-8449D01*
X13058Y-8487D01*
X12988Y-8558D01*
X12950Y-8650D01*
X12950Y-8672D01*
X12811Y-8534D01*
X12609Y-8450D01*
X12391Y-8449D01*
X12188Y-8533D01*
X12100Y-8622D01*
X12100Y-7300D01*
X16400Y-7300D01*
X16400Y-8470D01*
X16349Y-8450D01*
X16250Y-8449D01*
X15650Y-8449D01*
X15558Y-8487D01*
X15488Y-8558D01*
X15450Y-8650D01*
X15449Y-8749D01*
X15449Y-9349D01*
X15487Y-9441D01*
X15558Y-9511D01*
X15650Y-9549D01*
X15749Y-9550D01*
X16349Y-9550D01*
X16441Y-9512D01*
X16511Y-9441D01*
X16540Y-9371D01*
X16575Y-9424D01*
X16770Y-9554D01*
X17000Y-9600D01*
X17229Y-9554D01*
X17424Y-9424D01*
X17500Y-9310D01*
X17575Y-9424D01*
X17770Y-9554D01*
X18000Y-9600D01*
X18229Y-9554D01*
X18424Y-9424D01*
X18500Y-9310D01*
X18575Y-9424D01*
X18770Y-9554D01*
X19000Y-9600D01*
X19229Y-9554D01*
X19424Y-9424D01*
X19500Y-9310D01*
X19575Y-9424D01*
X19770Y-9554D01*
X20000Y-9600D01*
X20229Y-9554D01*
X20424Y-9424D01*
X20520Y-9280D01*
X20533Y-9311D01*
X20688Y-9465D01*
X20890Y-9549D01*
X21108Y-9550D01*
X21311Y-9466D01*
X21449Y-9327D01*
X21449Y-9349D01*
X21487Y-9441D01*
X21558Y-9511D01*
X21650Y-9549D01*
X21749Y-9550D01*
X22349Y-9550D01*
X22441Y-9512D01*
X22511Y-9441D01*
X22549Y-9349D01*
X22550Y-9250D01*
X22550Y-8650D01*
X22512Y-8558D01*
X22441Y-8488D01*
X22349Y-8450D01*
X22250Y-8449D01*
X21650Y-8449D01*
X21558Y-8487D01*
X21488Y-8558D01*
X21450Y-8650D01*
X21450Y-8672D01*
X21311Y-8534D01*
X21109Y-8450D01*
X20891Y-8449D01*
X20688Y-8533D01*
X20600Y-8622D01*
X20600Y-7300D01*
X25400Y-7300D01*
X25400Y-8470D01*
X25349Y-8450D01*
X25250Y-8449D01*
X24650Y-8449D01*
X24558Y-8487D01*
X24488Y-8558D01*
X24450Y-8650D01*
X24449Y-8749D01*
X24449Y-9349D01*
X24487Y-9441D01*
X24558Y-9511D01*
X24650Y-9549D01*
X24749Y-9550D01*
X25349Y-9550D01*
X25441Y-9512D01*
X25511Y-9441D01*
X25540Y-9371D01*
X25575Y-9424D01*
X25770Y-9554D01*
X26000Y-9600D01*
X26229Y-9554D01*
X26424Y-9424D01*
X26500Y-9310D01*
X26575Y-9424D01*
X26770Y-9554D01*
X27000Y-9600D01*
X27229Y-9554D01*
X27424Y-9424D01*
X27500Y-9310D01*
X27575Y-9424D01*
X27770Y-9554D01*
X28000Y-9600D01*
X28229Y-9554D01*
X28424Y-9424D01*
X28500Y-9310D01*
X28575Y-9424D01*
X28770Y-9554D01*
X29000Y-9600D01*
X29229Y-9554D01*
X29424Y-9424D01*
X29520Y-9280D01*
X29533Y-9311D01*
X29688Y-9465D01*
X29890Y-9549D01*
X30108Y-9550D01*
X30311Y-9466D01*
X30449Y-9327D01*
X30449Y-9349D01*
X30487Y-9441D01*
X30558Y-9511D01*
X30650Y-9549D01*
X30749Y-9550D01*
X31349Y-9550D01*
X31441Y-9512D01*
X31511Y-9441D01*
X31549Y-9349D01*
X31550Y-9250D01*
X31550Y-8650D01*
X31512Y-8558D01*
X31441Y-8488D01*
X31349Y-8450D01*
X31250Y-8449D01*
X30650Y-8449D01*
X30558Y-8487D01*
X30488Y-8558D01*
X30450Y-8650D01*
X30450Y-8672D01*
X30311Y-8534D01*
X30109Y-8450D01*
X29891Y-8449D01*
X29688Y-8533D01*
X29600Y-8622D01*
X29600Y-7300D01*
X33700Y-7300D01*
X33700Y-12250D01*
X33700Y-15750D01*
X33700Y-16200D01*
G54D10*
G36*
X10085Y-25250D02*
X9953Y-25304D01*
X9805Y-25452D01*
X9725Y-25645D01*
X9724Y-25853D01*
X9804Y-26047D01*
X9952Y-26194D01*
X10024Y-26224D01*
X9925Y-26224D01*
X9833Y-26262D01*
X9763Y-26333D01*
X9735Y-26400D01*
X9279Y-26400D01*
X9279Y-25825D01*
X9279Y-24825D01*
X9268Y-24617D01*
X9210Y-24477D01*
X9117Y-24452D01*
X9047Y-24523D01*
X9047Y-24382D01*
X9022Y-24289D01*
X8825Y-24220D01*
X8617Y-24231D01*
X8477Y-24289D01*
X8452Y-24382D01*
X8750Y-24679D01*
X9047Y-24382D01*
X9047Y-24523D01*
X8820Y-24750D01*
X9117Y-25047D01*
X9210Y-25022D01*
X9279Y-24825D01*
X9279Y-25825D01*
X9268Y-25617D01*
X9210Y-25477D01*
X9117Y-25452D01*
X9047Y-25523D01*
X9047Y-25382D01*
X9022Y-25289D01*
X8919Y-25253D01*
X9022Y-25210D01*
X9047Y-25117D01*
X8750Y-24820D01*
X8679Y-24891D01*
X8679Y-24750D01*
X8382Y-24452D01*
X8289Y-24477D01*
X8220Y-24674D01*
X8231Y-24882D01*
X8289Y-25022D01*
X8382Y-25047D01*
X8679Y-24750D01*
X8679Y-24891D01*
X8452Y-25117D01*
X8477Y-25210D01*
X8580Y-25246D01*
X8477Y-25289D01*
X8452Y-25382D01*
X8750Y-25679D01*
X9047Y-25382D01*
X9047Y-25523D01*
X8820Y-25750D01*
X9117Y-26047D01*
X9210Y-26022D01*
X9279Y-25825D01*
X9279Y-26400D01*
X9264Y-26400D01*
X9237Y-26333D01*
X9166Y-26263D01*
X9074Y-26225D01*
X8987Y-26224D01*
X9022Y-26210D01*
X9047Y-26117D01*
X8785Y-25856D01*
X8750Y-25820D01*
X8679Y-25750D01*
X8643Y-25714D01*
X8382Y-25452D01*
X8289Y-25477D01*
X8220Y-25674D01*
X8223Y-25728D01*
X7497Y-25002D01*
X7383Y-24926D01*
X7250Y-24900D01*
X7029Y-24900D01*
X7029Y-23575D01*
X7029Y-19825D01*
X7018Y-19617D01*
X6960Y-19477D01*
X6867Y-19452D01*
X6570Y-19750D01*
X6867Y-20047D01*
X6960Y-20022D01*
X7029Y-19825D01*
X7029Y-23575D01*
X7018Y-23367D01*
X6960Y-23227D01*
X6867Y-23202D01*
X6570Y-23500D01*
X6867Y-23797D01*
X6960Y-23772D01*
X7029Y-23575D01*
X7029Y-24900D01*
X7014Y-24900D01*
X6987Y-24833D01*
X6916Y-24763D01*
X6824Y-24725D01*
X6797Y-24725D01*
X6797Y-23867D01*
X6500Y-23570D01*
X6202Y-23867D01*
X6227Y-23960D01*
X6424Y-24029D01*
X6632Y-24018D01*
X6772Y-23960D01*
X6797Y-23867D01*
X6797Y-24725D01*
X6725Y-24724D01*
X6219Y-24724D01*
X6100Y-24605D01*
X6100Y-23788D01*
X6132Y-23797D01*
X6429Y-23500D01*
X6132Y-23202D01*
X6100Y-23211D01*
X6100Y-22842D01*
X6202Y-22944D01*
X6328Y-22997D01*
X6227Y-23039D01*
X6202Y-23132D01*
X6500Y-23429D01*
X6797Y-23132D01*
X6772Y-23039D01*
X6662Y-23000D01*
X6797Y-22945D01*
X6944Y-22797D01*
X7024Y-22604D01*
X7025Y-22396D01*
X6945Y-22203D01*
X6797Y-22055D01*
X6725Y-22025D01*
X6824Y-22025D01*
X6916Y-21987D01*
X6986Y-21916D01*
X7024Y-21824D01*
X7025Y-21725D01*
X7025Y-21175D01*
X6987Y-21083D01*
X6916Y-21013D01*
X6824Y-20975D01*
X6797Y-20975D01*
X6797Y-20117D01*
X6500Y-19820D01*
X6202Y-20117D01*
X6227Y-20210D01*
X6424Y-20279D01*
X6632Y-20268D01*
X6772Y-20210D01*
X6797Y-20117D01*
X6797Y-20975D01*
X6725Y-20974D01*
X6175Y-20974D01*
X6100Y-21006D01*
X6100Y-20038D01*
X6132Y-20047D01*
X6429Y-19750D01*
X6132Y-19452D01*
X6100Y-19461D01*
X6100Y-19092D01*
X6202Y-19194D01*
X6328Y-19247D01*
X6227Y-19289D01*
X6202Y-19382D01*
X6500Y-19679D01*
X6797Y-19382D01*
X6772Y-19289D01*
X6662Y-19250D01*
X6797Y-19195D01*
X6944Y-19047D01*
X7024Y-18854D01*
X7025Y-18646D01*
X6945Y-18453D01*
X6797Y-18305D01*
X6725Y-18275D01*
X6824Y-18275D01*
X6916Y-18237D01*
X6986Y-18166D01*
X7024Y-18074D01*
X7025Y-17975D01*
X7025Y-17425D01*
X6987Y-17333D01*
X6916Y-17263D01*
X6824Y-17225D01*
X6725Y-17224D01*
X6175Y-17224D01*
X6083Y-17262D01*
X6013Y-17333D01*
X5985Y-17400D01*
X5894Y-17400D01*
X5600Y-17105D01*
X5600Y-17050D01*
X7190Y-17050D01*
X7190Y-20000D01*
X7213Y-20118D01*
X7280Y-20219D01*
X9725Y-22663D01*
X9724Y-22853D01*
X9804Y-23047D01*
X9952Y-23194D01*
X10085Y-23250D01*
X9953Y-23304D01*
X9805Y-23452D01*
X9725Y-23645D01*
X9724Y-23853D01*
X9804Y-24047D01*
X9952Y-24194D01*
X10085Y-24250D01*
X9953Y-24304D01*
X9805Y-24452D01*
X9725Y-24645D01*
X9724Y-24853D01*
X9804Y-25047D01*
X9952Y-25194D01*
X10085Y-25250D01*
X10085Y-25250D01*
G37*
G54D23*
X10085Y-25250D02*
X9953Y-25304D01*
X9805Y-25452D01*
X9725Y-25645D01*
X9724Y-25853D01*
X9804Y-26047D01*
X9952Y-26194D01*
X10024Y-26224D01*
X9925Y-26224D01*
X9833Y-26262D01*
X9763Y-26333D01*
X9735Y-26400D01*
X9279Y-26400D01*
X9279Y-25825D01*
X9279Y-24825D01*
X9268Y-24617D01*
X9210Y-24477D01*
X9117Y-24452D01*
X9047Y-24523D01*
X9047Y-24382D01*
X9022Y-24289D01*
X8825Y-24220D01*
X8617Y-24231D01*
X8477Y-24289D01*
X8452Y-24382D01*
X8750Y-24679D01*
X9047Y-24382D01*
X9047Y-24523D01*
X8820Y-24750D01*
X9117Y-25047D01*
X9210Y-25022D01*
X9279Y-24825D01*
X9279Y-25825D01*
X9268Y-25617D01*
X9210Y-25477D01*
X9117Y-25452D01*
X9047Y-25523D01*
X9047Y-25382D01*
X9022Y-25289D01*
X8919Y-25253D01*
X9022Y-25210D01*
X9047Y-25117D01*
X8750Y-24820D01*
X8679Y-24891D01*
X8679Y-24750D01*
X8382Y-24452D01*
X8289Y-24477D01*
X8220Y-24674D01*
X8231Y-24882D01*
X8289Y-25022D01*
X8382Y-25047D01*
X8679Y-24750D01*
X8679Y-24891D01*
X8452Y-25117D01*
X8477Y-25210D01*
X8580Y-25246D01*
X8477Y-25289D01*
X8452Y-25382D01*
X8750Y-25679D01*
X9047Y-25382D01*
X9047Y-25523D01*
X8820Y-25750D01*
X9117Y-26047D01*
X9210Y-26022D01*
X9279Y-25825D01*
X9279Y-26400D01*
X9264Y-26400D01*
X9237Y-26333D01*
X9166Y-26263D01*
X9074Y-26225D01*
X8987Y-26224D01*
X9022Y-26210D01*
X9047Y-26117D01*
X8785Y-25856D01*
X8750Y-25820D01*
X8679Y-25750D01*
X8643Y-25714D01*
X8382Y-25452D01*
X8289Y-25477D01*
X8220Y-25674D01*
X8223Y-25728D01*
X7497Y-25002D01*
X7383Y-24926D01*
X7250Y-24900D01*
X7029Y-24900D01*
X7029Y-23575D01*
X7029Y-19825D01*
X7018Y-19617D01*
X6960Y-19477D01*
X6867Y-19452D01*
X6570Y-19750D01*
X6867Y-20047D01*
X6960Y-20022D01*
X7029Y-19825D01*
X7029Y-23575D01*
X7018Y-23367D01*
X6960Y-23227D01*
X6867Y-23202D01*
X6570Y-23500D01*
X6867Y-23797D01*
X6960Y-23772D01*
X7029Y-23575D01*
X7029Y-24900D01*
X7014Y-24900D01*
X6987Y-24833D01*
X6916Y-24763D01*
X6824Y-24725D01*
X6797Y-24725D01*
X6797Y-23867D01*
X6500Y-23570D01*
X6202Y-23867D01*
X6227Y-23960D01*
X6424Y-24029D01*
X6632Y-24018D01*
X6772Y-23960D01*
X6797Y-23867D01*
X6797Y-24725D01*
X6725Y-24724D01*
X6219Y-24724D01*
X6100Y-24605D01*
X6100Y-23788D01*
X6132Y-23797D01*
X6429Y-23500D01*
X6132Y-23202D01*
X6100Y-23211D01*
X6100Y-22842D01*
X6202Y-22944D01*
X6328Y-22997D01*
X6227Y-23039D01*
X6202Y-23132D01*
X6500Y-23429D01*
X6797Y-23132D01*
X6772Y-23039D01*
X6662Y-23000D01*
X6797Y-22945D01*
X6944Y-22797D01*
X7024Y-22604D01*
X7025Y-22396D01*
X6945Y-22203D01*
X6797Y-22055D01*
X6725Y-22025D01*
X6824Y-22025D01*
X6916Y-21987D01*
X6986Y-21916D01*
X7024Y-21824D01*
X7025Y-21725D01*
X7025Y-21175D01*
X6987Y-21083D01*
X6916Y-21013D01*
X6824Y-20975D01*
X6797Y-20975D01*
X6797Y-20117D01*
X6500Y-19820D01*
X6202Y-20117D01*
X6227Y-20210D01*
X6424Y-20279D01*
X6632Y-20268D01*
X6772Y-20210D01*
X6797Y-20117D01*
X6797Y-20975D01*
X6725Y-20974D01*
X6175Y-20974D01*
X6100Y-21006D01*
X6100Y-20038D01*
X6132Y-20047D01*
X6429Y-19750D01*
X6132Y-19452D01*
X6100Y-19461D01*
X6100Y-19092D01*
X6202Y-19194D01*
X6328Y-19247D01*
X6227Y-19289D01*
X6202Y-19382D01*
X6500Y-19679D01*
X6797Y-19382D01*
X6772Y-19289D01*
X6662Y-19250D01*
X6797Y-19195D01*
X6944Y-19047D01*
X7024Y-18854D01*
X7025Y-18646D01*
X6945Y-18453D01*
X6797Y-18305D01*
X6725Y-18275D01*
X6824Y-18275D01*
X6916Y-18237D01*
X6986Y-18166D01*
X7024Y-18074D01*
X7025Y-17975D01*
X7025Y-17425D01*
X6987Y-17333D01*
X6916Y-17263D01*
X6824Y-17225D01*
X6725Y-17224D01*
X6175Y-17224D01*
X6083Y-17262D01*
X6013Y-17333D01*
X5985Y-17400D01*
X5894Y-17400D01*
X5600Y-17105D01*
X5600Y-17050D01*
X7190Y-17050D01*
X7190Y-20000D01*
X7213Y-20118D01*
X7280Y-20219D01*
X9725Y-22663D01*
X9724Y-22853D01*
X9804Y-23047D01*
X9952Y-23194D01*
X10085Y-23250D01*
X9953Y-23304D01*
X9805Y-23452D01*
X9725Y-23645D01*
X9724Y-23853D01*
X9804Y-24047D01*
X9952Y-24194D01*
X10085Y-24250D01*
X9953Y-24304D01*
X9805Y-24452D01*
X9725Y-24645D01*
X9724Y-24853D01*
X9804Y-25047D01*
X9952Y-25194D01*
X10085Y-25250D01*
G54D10*
G36*
X13190Y-19904D02*
X13172Y-19898D01*
X13101Y-19969D01*
X13101Y-19827D01*
X13067Y-19727D01*
X12843Y-19645D01*
X12605Y-19655D01*
X12432Y-19727D01*
X12398Y-19827D01*
X12750Y-20179D01*
X13101Y-19827D01*
X13101Y-19969D01*
X12856Y-20214D01*
X12820Y-20250D01*
X12750Y-20320D01*
X12714Y-20356D01*
X12679Y-20391D01*
X12679Y-20250D01*
X12327Y-19898D01*
X12227Y-19932D01*
X12145Y-20156D01*
X12155Y-20394D01*
X12227Y-20567D01*
X12327Y-20601D01*
X12679Y-20250D01*
X12679Y-20391D01*
X12398Y-20672D01*
X12432Y-20772D01*
X12656Y-20854D01*
X12709Y-20852D01*
X11774Y-21786D01*
X11775Y-21646D01*
X11695Y-21453D01*
X11547Y-21305D01*
X11414Y-21249D01*
X11547Y-21195D01*
X11694Y-21047D01*
X11774Y-20854D01*
X11775Y-20646D01*
X11695Y-20453D01*
X11547Y-20305D01*
X11414Y-20249D01*
X11547Y-20195D01*
X11694Y-20047D01*
X11774Y-19854D01*
X11775Y-19646D01*
X11695Y-19453D01*
X11547Y-19305D01*
X11414Y-19249D01*
X11547Y-19195D01*
X11694Y-19047D01*
X11774Y-18854D01*
X11775Y-18646D01*
X11695Y-18453D01*
X11547Y-18305D01*
X11414Y-18249D01*
X11547Y-18195D01*
X11694Y-18047D01*
X11774Y-17854D01*
X11775Y-17646D01*
X11695Y-17453D01*
X11547Y-17305D01*
X11354Y-17225D01*
X11146Y-17224D01*
X10953Y-17304D01*
X10805Y-17452D01*
X10749Y-17585D01*
X10695Y-17453D01*
X10547Y-17305D01*
X10354Y-17225D01*
X10146Y-17224D01*
X9953Y-17304D01*
X9810Y-17447D01*
X9810Y-17050D01*
X12190Y-17050D01*
X12190Y-18250D01*
X12213Y-18368D01*
X12280Y-18469D01*
X13190Y-19378D01*
X13190Y-19904D01*
X13190Y-19904D01*
G37*
G54D23*
X13190Y-19904D02*
X13172Y-19898D01*
X13101Y-19969D01*
X13101Y-19827D01*
X13067Y-19727D01*
X12843Y-19645D01*
X12605Y-19655D01*
X12432Y-19727D01*
X12398Y-19827D01*
X12750Y-20179D01*
X13101Y-19827D01*
X13101Y-19969D01*
X12856Y-20214D01*
X12820Y-20250D01*
X12750Y-20320D01*
X12714Y-20356D01*
X12679Y-20391D01*
X12679Y-20250D01*
X12327Y-19898D01*
X12227Y-19932D01*
X12145Y-20156D01*
X12155Y-20394D01*
X12227Y-20567D01*
X12327Y-20601D01*
X12679Y-20250D01*
X12679Y-20391D01*
X12398Y-20672D01*
X12432Y-20772D01*
X12656Y-20854D01*
X12709Y-20852D01*
X11774Y-21786D01*
X11775Y-21646D01*
X11695Y-21453D01*
X11547Y-21305D01*
X11414Y-21249D01*
X11547Y-21195D01*
X11694Y-21047D01*
X11774Y-20854D01*
X11775Y-20646D01*
X11695Y-20453D01*
X11547Y-20305D01*
X11414Y-20249D01*
X11547Y-20195D01*
X11694Y-20047D01*
X11774Y-19854D01*
X11775Y-19646D01*
X11695Y-19453D01*
X11547Y-19305D01*
X11414Y-19249D01*
X11547Y-19195D01*
X11694Y-19047D01*
X11774Y-18854D01*
X11775Y-18646D01*
X11695Y-18453D01*
X11547Y-18305D01*
X11414Y-18249D01*
X11547Y-18195D01*
X11694Y-18047D01*
X11774Y-17854D01*
X11775Y-17646D01*
X11695Y-17453D01*
X11547Y-17305D01*
X11354Y-17225D01*
X11146Y-17224D01*
X10953Y-17304D01*
X10805Y-17452D01*
X10749Y-17585D01*
X10695Y-17453D01*
X10547Y-17305D01*
X10354Y-17225D01*
X10146Y-17224D01*
X9953Y-17304D01*
X9810Y-17447D01*
X9810Y-17050D01*
X12190Y-17050D01*
X12190Y-18250D01*
X12213Y-18368D01*
X12280Y-18469D01*
X13190Y-19378D01*
X13190Y-19904D01*
G54D10*
G36*
X27085Y-24250D02*
X26953Y-24304D01*
X26817Y-24440D01*
X17354Y-24440D01*
X17354Y-20343D01*
X17344Y-20105D01*
X17272Y-19932D01*
X17172Y-19898D01*
X17101Y-19969D01*
X17101Y-19827D01*
X17067Y-19727D01*
X16843Y-19645D01*
X16605Y-19655D01*
X16432Y-19727D01*
X16398Y-19827D01*
X16750Y-20179D01*
X17101Y-19827D01*
X17101Y-19969D01*
X16820Y-20250D01*
X17172Y-20601D01*
X17272Y-20567D01*
X17354Y-20343D01*
X17354Y-24440D01*
X17101Y-24440D01*
X17101Y-20672D01*
X16750Y-20320D01*
X16679Y-20391D01*
X16679Y-20250D01*
X16327Y-19898D01*
X16227Y-19932D01*
X16145Y-20156D01*
X16155Y-20394D01*
X16227Y-20567D01*
X16327Y-20601D01*
X16679Y-20250D01*
X16679Y-20391D01*
X16398Y-20672D01*
X16432Y-20772D01*
X16656Y-20854D01*
X16894Y-20844D01*
X17067Y-20772D01*
X17101Y-20672D01*
X17101Y-24440D01*
X16878Y-24440D01*
X16213Y-23774D01*
X16353Y-23775D01*
X16547Y-23695D01*
X16694Y-23547D01*
X16774Y-23354D01*
X16775Y-23146D01*
X16695Y-22953D01*
X16547Y-22805D01*
X16354Y-22725D01*
X16146Y-22724D01*
X15953Y-22804D01*
X15805Y-22952D01*
X15749Y-23085D01*
X15695Y-22953D01*
X15560Y-22817D01*
X15560Y-22131D01*
X15665Y-22174D01*
X15834Y-22175D01*
X15990Y-22110D01*
X16110Y-21991D01*
X16174Y-21834D01*
X16175Y-21665D01*
X16110Y-21509D01*
X16060Y-21458D01*
X16060Y-19628D01*
X16628Y-19060D01*
X20250Y-19060D01*
X20618Y-19060D01*
X20575Y-19165D01*
X20574Y-19334D01*
X20639Y-19490D01*
X20758Y-19610D01*
X20915Y-19674D01*
X21058Y-19675D01*
X20932Y-19727D01*
X20898Y-19827D01*
X21250Y-20179D01*
X21601Y-19827D01*
X21567Y-19727D01*
X21343Y-19645D01*
X21134Y-19654D01*
X21240Y-19610D01*
X21291Y-19560D01*
X22750Y-19560D01*
X22868Y-19536D01*
X22969Y-19469D01*
X25388Y-17050D01*
X27017Y-17050D01*
X26963Y-17131D01*
X26940Y-17250D01*
X26940Y-17317D01*
X26805Y-17452D01*
X26725Y-17645D01*
X26724Y-17853D01*
X26804Y-18047D01*
X26952Y-18194D01*
X27085Y-18250D01*
X26953Y-18304D01*
X26805Y-18452D01*
X26725Y-18645D01*
X26724Y-18853D01*
X26804Y-19047D01*
X26952Y-19194D01*
X27085Y-19250D01*
X26953Y-19304D01*
X26805Y-19452D01*
X26725Y-19645D01*
X26724Y-19853D01*
X26804Y-20047D01*
X26952Y-20194D01*
X27085Y-20250D01*
X26953Y-20304D01*
X26805Y-20452D01*
X26725Y-20645D01*
X26724Y-20853D01*
X26804Y-21047D01*
X26952Y-21194D01*
X27085Y-21250D01*
X26953Y-21304D01*
X26805Y-21452D01*
X26725Y-21645D01*
X26724Y-21853D01*
X26804Y-22047D01*
X26952Y-22194D01*
X27085Y-22250D01*
X26953Y-22304D01*
X26805Y-22452D01*
X26725Y-22645D01*
X26724Y-22853D01*
X26804Y-23047D01*
X26952Y-23194D01*
X27085Y-23250D01*
X26953Y-23304D01*
X26817Y-23440D01*
X24239Y-23440D01*
X24274Y-23354D01*
X24275Y-23146D01*
X24195Y-22953D01*
X24047Y-22805D01*
X23854Y-22725D01*
X23663Y-22724D01*
X23560Y-22621D01*
X23560Y-20850D01*
X23649Y-20850D01*
X23741Y-20812D01*
X23811Y-20741D01*
X23849Y-20649D01*
X23850Y-20550D01*
X23850Y-19850D01*
X23812Y-19758D01*
X23741Y-19688D01*
X23649Y-19650D01*
X23550Y-19649D01*
X22850Y-19649D01*
X22758Y-19687D01*
X22688Y-19758D01*
X22650Y-19850D01*
X22649Y-19949D01*
X22649Y-20649D01*
X22687Y-20741D01*
X22758Y-20811D01*
X22850Y-20849D01*
X22940Y-20850D01*
X22940Y-22750D01*
X22963Y-22868D01*
X23030Y-22969D01*
X23225Y-23163D01*
X23224Y-23353D01*
X23260Y-23440D01*
X21854Y-23440D01*
X21854Y-20343D01*
X21844Y-20105D01*
X21772Y-19932D01*
X21672Y-19898D01*
X21320Y-20250D01*
X21672Y-20601D01*
X21772Y-20567D01*
X21854Y-20343D01*
X21854Y-23440D01*
X21601Y-23440D01*
X21601Y-20672D01*
X21250Y-20320D01*
X21179Y-20391D01*
X21179Y-20250D01*
X20827Y-19898D01*
X20727Y-19932D01*
X20645Y-20156D01*
X20655Y-20394D01*
X20727Y-20567D01*
X20827Y-20601D01*
X21179Y-20250D01*
X21179Y-20391D01*
X20898Y-20672D01*
X20932Y-20772D01*
X21156Y-20854D01*
X21394Y-20844D01*
X21567Y-20772D01*
X21601Y-20672D01*
X21601Y-23440D01*
X21239Y-23440D01*
X21274Y-23354D01*
X21275Y-23146D01*
X21195Y-22953D01*
X21047Y-22805D01*
X20854Y-22725D01*
X20646Y-22724D01*
X20453Y-22804D01*
X20305Y-22952D01*
X20225Y-23145D01*
X20224Y-23353D01*
X20260Y-23440D01*
X19739Y-23440D01*
X19774Y-23354D01*
X19775Y-23146D01*
X19695Y-22953D01*
X19547Y-22805D01*
X19354Y-22725D01*
X19163Y-22724D01*
X19060Y-22621D01*
X19060Y-20850D01*
X19149Y-20850D01*
X19241Y-20812D01*
X19311Y-20741D01*
X19349Y-20649D01*
X19350Y-20550D01*
X19350Y-19850D01*
X19312Y-19758D01*
X19241Y-19688D01*
X19149Y-19650D01*
X19050Y-19649D01*
X18350Y-19649D01*
X18258Y-19687D01*
X18188Y-19758D01*
X18150Y-19850D01*
X18149Y-19949D01*
X18149Y-20649D01*
X18187Y-20741D01*
X18258Y-20811D01*
X18350Y-20849D01*
X18440Y-20850D01*
X18440Y-22750D01*
X18463Y-22868D01*
X18530Y-22969D01*
X18725Y-23163D01*
X18724Y-23353D01*
X18804Y-23547D01*
X18940Y-23682D01*
X18940Y-23750D01*
X18963Y-23868D01*
X19030Y-23969D01*
X19131Y-24036D01*
X19250Y-24060D01*
X26817Y-24060D01*
X26952Y-24194D01*
X27085Y-24250D01*
X27085Y-24250D01*
G37*
G54D23*
X27085Y-24250D02*
X26953Y-24304D01*
X26817Y-24440D01*
X17354Y-24440D01*
X17354Y-20343D01*
X17344Y-20105D01*
X17272Y-19932D01*
X17172Y-19898D01*
X17101Y-19969D01*
X17101Y-19827D01*
X17067Y-19727D01*
X16843Y-19645D01*
X16605Y-19655D01*
X16432Y-19727D01*
X16398Y-19827D01*
X16750Y-20179D01*
X17101Y-19827D01*
X17101Y-19969D01*
X16820Y-20250D01*
X17172Y-20601D01*
X17272Y-20567D01*
X17354Y-20343D01*
X17354Y-24440D01*
X17101Y-24440D01*
X17101Y-20672D01*
X16750Y-20320D01*
X16679Y-20391D01*
X16679Y-20250D01*
X16327Y-19898D01*
X16227Y-19932D01*
X16145Y-20156D01*
X16155Y-20394D01*
X16227Y-20567D01*
X16327Y-20601D01*
X16679Y-20250D01*
X16679Y-20391D01*
X16398Y-20672D01*
X16432Y-20772D01*
X16656Y-20854D01*
X16894Y-20844D01*
X17067Y-20772D01*
X17101Y-20672D01*
X17101Y-24440D01*
X16878Y-24440D01*
X16213Y-23774D01*
X16353Y-23775D01*
X16547Y-23695D01*
X16694Y-23547D01*
X16774Y-23354D01*
X16775Y-23146D01*
X16695Y-22953D01*
X16547Y-22805D01*
X16354Y-22725D01*
X16146Y-22724D01*
X15953Y-22804D01*
X15805Y-22952D01*
X15749Y-23085D01*
X15695Y-22953D01*
X15560Y-22817D01*
X15560Y-22131D01*
X15665Y-22174D01*
X15834Y-22175D01*
X15990Y-22110D01*
X16110Y-21991D01*
X16174Y-21834D01*
X16175Y-21665D01*
X16110Y-21509D01*
X16060Y-21458D01*
X16060Y-19628D01*
X16628Y-19060D01*
X20250Y-19060D01*
X20618Y-19060D01*
X20575Y-19165D01*
X20574Y-19334D01*
X20639Y-19490D01*
X20758Y-19610D01*
X20915Y-19674D01*
X21058Y-19675D01*
X20932Y-19727D01*
X20898Y-19827D01*
X21250Y-20179D01*
X21601Y-19827D01*
X21567Y-19727D01*
X21343Y-19645D01*
X21134Y-19654D01*
X21240Y-19610D01*
X21291Y-19560D01*
X22750Y-19560D01*
X22868Y-19536D01*
X22969Y-19469D01*
X25388Y-17050D01*
X27017Y-17050D01*
X26963Y-17131D01*
X26940Y-17250D01*
X26940Y-17317D01*
X26805Y-17452D01*
X26725Y-17645D01*
X26724Y-17853D01*
X26804Y-18047D01*
X26952Y-18194D01*
X27085Y-18250D01*
X26953Y-18304D01*
X26805Y-18452D01*
X26725Y-18645D01*
X26724Y-18853D01*
X26804Y-19047D01*
X26952Y-19194D01*
X27085Y-19250D01*
X26953Y-19304D01*
X26805Y-19452D01*
X26725Y-19645D01*
X26724Y-19853D01*
X26804Y-20047D01*
X26952Y-20194D01*
X27085Y-20250D01*
X26953Y-20304D01*
X26805Y-20452D01*
X26725Y-20645D01*
X26724Y-20853D01*
X26804Y-21047D01*
X26952Y-21194D01*
X27085Y-21250D01*
X26953Y-21304D01*
X26805Y-21452D01*
X26725Y-21645D01*
X26724Y-21853D01*
X26804Y-22047D01*
X26952Y-22194D01*
X27085Y-22250D01*
X26953Y-22304D01*
X26805Y-22452D01*
X26725Y-22645D01*
X26724Y-22853D01*
X26804Y-23047D01*
X26952Y-23194D01*
X27085Y-23250D01*
X26953Y-23304D01*
X26817Y-23440D01*
X24239Y-23440D01*
X24274Y-23354D01*
X24275Y-23146D01*
X24195Y-22953D01*
X24047Y-22805D01*
X23854Y-22725D01*
X23663Y-22724D01*
X23560Y-22621D01*
X23560Y-20850D01*
X23649Y-20850D01*
X23741Y-20812D01*
X23811Y-20741D01*
X23849Y-20649D01*
X23850Y-20550D01*
X23850Y-19850D01*
X23812Y-19758D01*
X23741Y-19688D01*
X23649Y-19650D01*
X23550Y-19649D01*
X22850Y-19649D01*
X22758Y-19687D01*
X22688Y-19758D01*
X22650Y-19850D01*
X22649Y-19949D01*
X22649Y-20649D01*
X22687Y-20741D01*
X22758Y-20811D01*
X22850Y-20849D01*
X22940Y-20850D01*
X22940Y-22750D01*
X22963Y-22868D01*
X23030Y-22969D01*
X23225Y-23163D01*
X23224Y-23353D01*
X23260Y-23440D01*
X21854Y-23440D01*
X21854Y-20343D01*
X21844Y-20105D01*
X21772Y-19932D01*
X21672Y-19898D01*
X21320Y-20250D01*
X21672Y-20601D01*
X21772Y-20567D01*
X21854Y-20343D01*
X21854Y-23440D01*
X21601Y-23440D01*
X21601Y-20672D01*
X21250Y-20320D01*
X21179Y-20391D01*
X21179Y-20250D01*
X20827Y-19898D01*
X20727Y-19932D01*
X20645Y-20156D01*
X20655Y-20394D01*
X20727Y-20567D01*
X20827Y-20601D01*
X21179Y-20250D01*
X21179Y-20391D01*
X20898Y-20672D01*
X20932Y-20772D01*
X21156Y-20854D01*
X21394Y-20844D01*
X21567Y-20772D01*
X21601Y-20672D01*
X21601Y-23440D01*
X21239Y-23440D01*
X21274Y-23354D01*
X21275Y-23146D01*
X21195Y-22953D01*
X21047Y-22805D01*
X20854Y-22725D01*
X20646Y-22724D01*
X20453Y-22804D01*
X20305Y-22952D01*
X20225Y-23145D01*
X20224Y-23353D01*
X20260Y-23440D01*
X19739Y-23440D01*
X19774Y-23354D01*
X19775Y-23146D01*
X19695Y-22953D01*
X19547Y-22805D01*
X19354Y-22725D01*
X19163Y-22724D01*
X19060Y-22621D01*
X19060Y-20850D01*
X19149Y-20850D01*
X19241Y-20812D01*
X19311Y-20741D01*
X19349Y-20649D01*
X19350Y-20550D01*
X19350Y-19850D01*
X19312Y-19758D01*
X19241Y-19688D01*
X19149Y-19650D01*
X19050Y-19649D01*
X18350Y-19649D01*
X18258Y-19687D01*
X18188Y-19758D01*
X18150Y-19850D01*
X18149Y-19949D01*
X18149Y-20649D01*
X18187Y-20741D01*
X18258Y-20811D01*
X18350Y-20849D01*
X18440Y-20850D01*
X18440Y-22750D01*
X18463Y-22868D01*
X18530Y-22969D01*
X18725Y-23163D01*
X18724Y-23353D01*
X18804Y-23547D01*
X18940Y-23682D01*
X18940Y-23750D01*
X18963Y-23868D01*
X19030Y-23969D01*
X19131Y-24036D01*
X19250Y-24060D01*
X26817Y-24060D01*
X26952Y-24194D01*
X27085Y-24250D01*
G54D10*
G36*
X28950Y-28450D02*
X28775Y-28450D01*
X28775Y-27074D01*
X28775Y-26862D01*
X28712Y-26800D01*
X28300Y-26800D01*
X28300Y-27212D01*
X28362Y-27275D01*
X28475Y-27275D01*
X28574Y-27274D01*
X28666Y-27236D01*
X28737Y-27166D01*
X28775Y-27074D01*
X28775Y-28450D01*
X12797Y-28450D01*
X12797Y-27867D01*
X12500Y-27570D01*
X12202Y-27867D01*
X12227Y-27960D01*
X12424Y-28029D01*
X12632Y-28018D01*
X12772Y-27960D01*
X12797Y-27867D01*
X12797Y-28450D01*
X7029Y-28450D01*
X7029Y-27325D01*
X7018Y-27117D01*
X6960Y-26977D01*
X6867Y-26952D01*
X6570Y-27250D01*
X6867Y-27547D01*
X6960Y-27522D01*
X7029Y-27325D01*
X7029Y-28450D01*
X6797Y-28450D01*
X6797Y-27617D01*
X6500Y-27320D01*
X6429Y-27391D01*
X6429Y-27250D01*
X6132Y-26952D01*
X6039Y-26977D01*
X5970Y-27174D01*
X5981Y-27382D01*
X6039Y-27522D01*
X6132Y-27547D01*
X6429Y-27250D01*
X6429Y-27391D01*
X6202Y-27617D01*
X6227Y-27710D01*
X6424Y-27779D01*
X6632Y-27768D01*
X6772Y-27710D01*
X6797Y-27617D01*
X6797Y-28450D01*
X5050Y-28450D01*
X5050Y-17544D01*
X5502Y-17997D01*
X5616Y-18073D01*
X5616Y-18073D01*
X5670Y-18084D01*
X5502Y-18252D01*
X5426Y-18366D01*
X5400Y-18500D01*
X5400Y-24750D01*
X5426Y-24883D01*
X5502Y-24997D01*
X5974Y-25469D01*
X5974Y-25574D01*
X6012Y-25666D01*
X6083Y-25736D01*
X6175Y-25774D01*
X6274Y-25775D01*
X6274Y-25775D01*
X6203Y-25804D01*
X6055Y-25952D01*
X5975Y-26145D01*
X5974Y-26353D01*
X6054Y-26547D01*
X6202Y-26694D01*
X6328Y-26747D01*
X6227Y-26789D01*
X6202Y-26882D01*
X6500Y-27179D01*
X6797Y-26882D01*
X6772Y-26789D01*
X6662Y-26750D01*
X6797Y-26695D01*
X6944Y-26547D01*
X7024Y-26354D01*
X7025Y-26146D01*
X6945Y-25953D01*
X6797Y-25805D01*
X6725Y-25775D01*
X6824Y-25775D01*
X6916Y-25737D01*
X6986Y-25666D01*
X7014Y-25600D01*
X7105Y-25600D01*
X8224Y-26719D01*
X8224Y-27074D01*
X8262Y-27166D01*
X8333Y-27236D01*
X8425Y-27274D01*
X8524Y-27275D01*
X9074Y-27275D01*
X9166Y-27237D01*
X9236Y-27166D01*
X9264Y-27100D01*
X9735Y-27100D01*
X9762Y-27166D01*
X9833Y-27236D01*
X9925Y-27274D01*
X10024Y-27275D01*
X10350Y-27275D01*
X10787Y-27712D01*
X10787Y-27712D01*
X10885Y-27777D01*
X10999Y-27799D01*
X11000Y-27800D01*
X11750Y-27800D01*
X11750Y-27799D01*
X11864Y-27777D01*
X11864Y-27777D01*
X11962Y-27712D01*
X11999Y-27675D01*
X12039Y-27772D01*
X12132Y-27797D01*
X12393Y-27535D01*
X12429Y-27500D01*
X12500Y-27429D01*
X12535Y-27393D01*
X12797Y-27132D01*
X12788Y-27100D01*
X13006Y-27100D01*
X12975Y-27175D01*
X12974Y-27262D01*
X12960Y-27227D01*
X12867Y-27202D01*
X12570Y-27500D01*
X12867Y-27797D01*
X12960Y-27772D01*
X12974Y-27731D01*
X12974Y-27824D01*
X13012Y-27916D01*
X13083Y-27986D01*
X13175Y-28024D01*
X13274Y-28025D01*
X13824Y-28025D01*
X13916Y-27987D01*
X13986Y-27916D01*
X14024Y-27824D01*
X14025Y-27725D01*
X14025Y-27175D01*
X13993Y-27100D01*
X14100Y-27100D01*
X14100Y-27099D01*
X14214Y-27077D01*
X14214Y-27077D01*
X14312Y-27012D01*
X14962Y-26362D01*
X14962Y-26362D01*
X15027Y-26264D01*
X15049Y-26150D01*
X15050Y-26150D01*
X15050Y-25551D01*
X15110Y-25491D01*
X15174Y-25334D01*
X15175Y-25165D01*
X15110Y-25009D01*
X14991Y-24889D01*
X14834Y-24825D01*
X14665Y-24824D01*
X14509Y-24889D01*
X14389Y-25008D01*
X14325Y-25165D01*
X14324Y-25334D01*
X14389Y-25490D01*
X14450Y-25551D01*
X14450Y-26025D01*
X13975Y-26500D01*
X13885Y-26500D01*
X13916Y-26487D01*
X13986Y-26416D01*
X14024Y-26324D01*
X14025Y-26225D01*
X14025Y-25675D01*
X14025Y-24725D01*
X14025Y-24175D01*
X13987Y-24083D01*
X13916Y-24013D01*
X13824Y-23975D01*
X13725Y-23974D01*
X13175Y-23974D01*
X13083Y-24012D01*
X13013Y-24083D01*
X12975Y-24175D01*
X12974Y-24262D01*
X12960Y-24227D01*
X12867Y-24202D01*
X12797Y-24273D01*
X12797Y-24132D01*
X12775Y-24048D01*
X12775Y-23146D01*
X12695Y-22953D01*
X12547Y-22805D01*
X12354Y-22725D01*
X12146Y-22724D01*
X11953Y-22804D01*
X11805Y-22952D01*
X11725Y-23145D01*
X11724Y-23353D01*
X11804Y-23547D01*
X11952Y-23694D01*
X12145Y-23774D01*
X12353Y-23775D01*
X12547Y-23695D01*
X12694Y-23547D01*
X12774Y-23354D01*
X12775Y-23146D01*
X12775Y-24048D01*
X12772Y-24039D01*
X12575Y-23970D01*
X12367Y-23981D01*
X12227Y-24039D01*
X12202Y-24132D01*
X12500Y-24429D01*
X12797Y-24132D01*
X12797Y-24273D01*
X12570Y-24500D01*
X12867Y-24797D01*
X12960Y-24772D01*
X12974Y-24731D01*
X12974Y-24824D01*
X13012Y-24916D01*
X13083Y-24986D01*
X13175Y-25024D01*
X13274Y-25025D01*
X13824Y-25025D01*
X13916Y-24987D01*
X13986Y-24916D01*
X14024Y-24824D01*
X14025Y-24725D01*
X14025Y-25675D01*
X13987Y-25583D01*
X13916Y-25513D01*
X13824Y-25475D01*
X13725Y-25474D01*
X13175Y-25474D01*
X13083Y-25512D01*
X13013Y-25583D01*
X12975Y-25675D01*
X12974Y-25762D01*
X12960Y-25727D01*
X12867Y-25702D01*
X12797Y-25773D01*
X12797Y-25632D01*
X12797Y-24867D01*
X12500Y-24570D01*
X12429Y-24641D01*
X12429Y-24500D01*
X12132Y-24202D01*
X12039Y-24227D01*
X11970Y-24424D01*
X11981Y-24632D01*
X12039Y-24772D01*
X12132Y-24797D01*
X12429Y-24500D01*
X12429Y-24641D01*
X12202Y-24867D01*
X12227Y-24960D01*
X12424Y-25029D01*
X12632Y-25018D01*
X12772Y-24960D01*
X12797Y-24867D01*
X12797Y-25632D01*
X12772Y-25539D01*
X12575Y-25470D01*
X12367Y-25481D01*
X12227Y-25539D01*
X12202Y-25632D01*
X12500Y-25929D01*
X12797Y-25632D01*
X12797Y-25773D01*
X12570Y-26000D01*
X12867Y-26297D01*
X12960Y-26272D01*
X12974Y-26231D01*
X12974Y-26324D01*
X13012Y-26416D01*
X13083Y-26486D01*
X13114Y-26500D01*
X12677Y-26500D01*
X12772Y-26460D01*
X12797Y-26367D01*
X12500Y-26070D01*
X12429Y-26141D01*
X12429Y-26000D01*
X12132Y-25702D01*
X12039Y-25727D01*
X11970Y-25924D01*
X11981Y-26132D01*
X12039Y-26272D01*
X12132Y-26297D01*
X12429Y-26000D01*
X12429Y-26141D01*
X12202Y-26367D01*
X12227Y-26460D01*
X12379Y-26514D01*
X12335Y-26522D01*
X12237Y-26587D01*
X11774Y-27050D01*
X11775Y-26975D01*
X11775Y-26425D01*
X11737Y-26333D01*
X11666Y-26263D01*
X11574Y-26225D01*
X11475Y-26224D01*
X11475Y-26224D01*
X11547Y-26195D01*
X11694Y-26047D01*
X11774Y-25854D01*
X11775Y-25646D01*
X11695Y-25453D01*
X11547Y-25305D01*
X11414Y-25249D01*
X11547Y-25195D01*
X11694Y-25047D01*
X11774Y-24854D01*
X11775Y-24646D01*
X11695Y-24453D01*
X11547Y-24305D01*
X11414Y-24249D01*
X11547Y-24195D01*
X11694Y-24047D01*
X11774Y-23854D01*
X11775Y-23646D01*
X11695Y-23453D01*
X11547Y-23305D01*
X11414Y-23249D01*
X11547Y-23195D01*
X11694Y-23047D01*
X11774Y-22854D01*
X11775Y-22663D01*
X13719Y-20719D01*
X13786Y-20618D01*
X13810Y-20500D01*
X13810Y-19250D01*
X13786Y-19131D01*
X13719Y-19030D01*
X12810Y-18121D01*
X12810Y-17050D01*
X17737Y-17050D01*
X17695Y-17168D01*
X17706Y-17386D01*
X17768Y-17537D01*
X17864Y-17565D01*
X18143Y-17285D01*
X18179Y-17250D01*
X18250Y-17179D01*
X18320Y-17250D01*
X18356Y-17285D01*
X18635Y-17565D01*
X18731Y-17537D01*
X18748Y-17489D01*
X18768Y-17537D01*
X18864Y-17565D01*
X19143Y-17285D01*
X19179Y-17250D01*
X19250Y-17179D01*
X19320Y-17250D01*
X19356Y-17285D01*
X19635Y-17565D01*
X19731Y-17537D01*
X19748Y-17489D01*
X19768Y-17537D01*
X19864Y-17565D01*
X20143Y-17285D01*
X20179Y-17250D01*
X20250Y-17179D01*
X20320Y-17250D01*
X20356Y-17285D01*
X20635Y-17565D01*
X20731Y-17537D01*
X20804Y-17331D01*
X20793Y-17113D01*
X20767Y-17050D01*
X21622Y-17050D01*
X21575Y-17165D01*
X21574Y-17334D01*
X21639Y-17490D01*
X21690Y-17541D01*
X21690Y-18440D01*
X20565Y-18440D01*
X20565Y-17635D01*
X20250Y-17320D01*
X19934Y-17635D01*
X19962Y-17731D01*
X20168Y-17804D01*
X20386Y-17793D01*
X20537Y-17731D01*
X20565Y-17635D01*
X20565Y-18440D01*
X20250Y-18440D01*
X19565Y-18440D01*
X19565Y-17635D01*
X19250Y-17320D01*
X18934Y-17635D01*
X18962Y-17731D01*
X19168Y-17804D01*
X19386Y-17793D01*
X19537Y-17731D01*
X19565Y-17635D01*
X19565Y-18440D01*
X18565Y-18440D01*
X18565Y-17635D01*
X18250Y-17320D01*
X17934Y-17635D01*
X17962Y-17731D01*
X18168Y-17804D01*
X18386Y-17793D01*
X18537Y-17731D01*
X18565Y-17635D01*
X18565Y-18440D01*
X16500Y-18440D01*
X16499Y-18440D01*
X16476Y-18444D01*
X16381Y-18463D01*
X16280Y-18530D01*
X16280Y-18530D01*
X15530Y-19280D01*
X15463Y-19381D01*
X15440Y-19500D01*
X15440Y-20501D01*
X15350Y-20411D01*
X15350Y-19850D01*
X15312Y-19758D01*
X15241Y-19688D01*
X15149Y-19650D01*
X15050Y-19649D01*
X14350Y-19649D01*
X14258Y-19687D01*
X14188Y-19758D01*
X14150Y-19850D01*
X14149Y-19949D01*
X14149Y-20649D01*
X14187Y-20741D01*
X14258Y-20811D01*
X14350Y-20849D01*
X14449Y-20850D01*
X14911Y-20850D01*
X14940Y-20878D01*
X14940Y-22817D01*
X14805Y-22952D01*
X14725Y-23145D01*
X14724Y-23353D01*
X14804Y-23547D01*
X14952Y-23694D01*
X15145Y-23774D01*
X15336Y-23775D01*
X16530Y-24969D01*
X16530Y-24969D01*
X16631Y-25036D01*
X16631Y-25036D01*
X16750Y-25060D01*
X26817Y-25060D01*
X26952Y-25194D01*
X27078Y-25247D01*
X26977Y-25289D01*
X26952Y-25382D01*
X27250Y-25679D01*
X27547Y-25382D01*
X27522Y-25289D01*
X27412Y-25250D01*
X27547Y-25195D01*
X27694Y-25047D01*
X27750Y-24914D01*
X27804Y-25047D01*
X27952Y-25194D01*
X28085Y-25250D01*
X27953Y-25304D01*
X27805Y-25452D01*
X27752Y-25578D01*
X27710Y-25477D01*
X27617Y-25452D01*
X27320Y-25750D01*
X27617Y-26047D01*
X27710Y-26022D01*
X27749Y-25912D01*
X27804Y-26047D01*
X27952Y-26194D01*
X28024Y-26224D01*
X28024Y-26224D01*
X27925Y-26225D01*
X27833Y-26263D01*
X27762Y-26333D01*
X27750Y-26364D01*
X27737Y-26333D01*
X27666Y-26263D01*
X27574Y-26225D01*
X27487Y-26224D01*
X27522Y-26210D01*
X27547Y-26117D01*
X27250Y-25820D01*
X27179Y-25891D01*
X27179Y-25750D01*
X26882Y-25452D01*
X26789Y-25477D01*
X26720Y-25674D01*
X26731Y-25882D01*
X26789Y-26022D01*
X26882Y-26047D01*
X27179Y-25750D01*
X27179Y-25891D01*
X26952Y-26117D01*
X26977Y-26210D01*
X27018Y-26224D01*
X26925Y-26224D01*
X26833Y-26262D01*
X26763Y-26333D01*
X26725Y-26425D01*
X26724Y-26524D01*
X26724Y-27074D01*
X26762Y-27166D01*
X26833Y-27236D01*
X26925Y-27274D01*
X27024Y-27275D01*
X27574Y-27275D01*
X27666Y-27237D01*
X27736Y-27166D01*
X27749Y-27135D01*
X27762Y-27166D01*
X27833Y-27236D01*
X27925Y-27274D01*
X28024Y-27275D01*
X28137Y-27275D01*
X28200Y-27212D01*
X28200Y-26850D01*
X28200Y-26800D01*
X28200Y-26700D01*
X28300Y-26700D01*
X28350Y-26700D01*
X28712Y-26700D01*
X28775Y-26637D01*
X28775Y-26425D01*
X28737Y-26333D01*
X28666Y-26263D01*
X28574Y-26225D01*
X28475Y-26224D01*
X28475Y-26224D01*
X28547Y-26195D01*
X28694Y-26047D01*
X28774Y-25854D01*
X28775Y-25646D01*
X28695Y-25453D01*
X28547Y-25305D01*
X28414Y-25249D01*
X28547Y-25195D01*
X28694Y-25047D01*
X28774Y-24854D01*
X28775Y-24646D01*
X28695Y-24453D01*
X28547Y-24305D01*
X28414Y-24249D01*
X28547Y-24195D01*
X28694Y-24047D01*
X28774Y-23854D01*
X28775Y-23646D01*
X28695Y-23453D01*
X28547Y-23305D01*
X28414Y-23249D01*
X28547Y-23195D01*
X28694Y-23047D01*
X28774Y-22854D01*
X28775Y-22646D01*
X28695Y-22453D01*
X28547Y-22305D01*
X28414Y-22249D01*
X28547Y-22195D01*
X28694Y-22047D01*
X28774Y-21854D01*
X28775Y-21646D01*
X28695Y-21453D01*
X28547Y-21305D01*
X28414Y-21249D01*
X28547Y-21195D01*
X28694Y-21047D01*
X28774Y-20854D01*
X28775Y-20646D01*
X28695Y-20453D01*
X28547Y-20305D01*
X28414Y-20249D01*
X28547Y-20195D01*
X28694Y-20047D01*
X28774Y-19854D01*
X28775Y-19646D01*
X28695Y-19453D01*
X28547Y-19305D01*
X28414Y-19249D01*
X28547Y-19195D01*
X28694Y-19047D01*
X28774Y-18854D01*
X28775Y-18646D01*
X28695Y-18453D01*
X28547Y-18305D01*
X28414Y-18249D01*
X28547Y-18195D01*
X28694Y-18047D01*
X28774Y-17854D01*
X28775Y-17646D01*
X28695Y-17453D01*
X28552Y-17310D01*
X28950Y-17310D01*
X28950Y-28450D01*
X28950Y-28450D01*
G37*
G54D23*
X28950Y-28450D02*
X28775Y-28450D01*
X28775Y-27074D01*
X28775Y-26862D01*
X28712Y-26800D01*
X28300Y-26800D01*
X28300Y-27212D01*
X28362Y-27275D01*
X28475Y-27275D01*
X28574Y-27274D01*
X28666Y-27236D01*
X28737Y-27166D01*
X28775Y-27074D01*
X28775Y-28450D01*
X12797Y-28450D01*
X12797Y-27867D01*
X12500Y-27570D01*
X12202Y-27867D01*
X12227Y-27960D01*
X12424Y-28029D01*
X12632Y-28018D01*
X12772Y-27960D01*
X12797Y-27867D01*
X12797Y-28450D01*
X7029Y-28450D01*
X7029Y-27325D01*
X7018Y-27117D01*
X6960Y-26977D01*
X6867Y-26952D01*
X6570Y-27250D01*
X6867Y-27547D01*
X6960Y-27522D01*
X7029Y-27325D01*
X7029Y-28450D01*
X6797Y-28450D01*
X6797Y-27617D01*
X6500Y-27320D01*
X6429Y-27391D01*
X6429Y-27250D01*
X6132Y-26952D01*
X6039Y-26977D01*
X5970Y-27174D01*
X5981Y-27382D01*
X6039Y-27522D01*
X6132Y-27547D01*
X6429Y-27250D01*
X6429Y-27391D01*
X6202Y-27617D01*
X6227Y-27710D01*
X6424Y-27779D01*
X6632Y-27768D01*
X6772Y-27710D01*
X6797Y-27617D01*
X6797Y-28450D01*
X5050Y-28450D01*
X5050Y-17544D01*
X5502Y-17997D01*
X5616Y-18073D01*
X5616Y-18073D01*
X5670Y-18084D01*
X5502Y-18252D01*
X5426Y-18366D01*
X5400Y-18500D01*
X5400Y-24750D01*
X5426Y-24883D01*
X5502Y-24997D01*
X5974Y-25469D01*
X5974Y-25574D01*
X6012Y-25666D01*
X6083Y-25736D01*
X6175Y-25774D01*
X6274Y-25775D01*
X6274Y-25775D01*
X6203Y-25804D01*
X6055Y-25952D01*
X5975Y-26145D01*
X5974Y-26353D01*
X6054Y-26547D01*
X6202Y-26694D01*
X6328Y-26747D01*
X6227Y-26789D01*
X6202Y-26882D01*
X6500Y-27179D01*
X6797Y-26882D01*
X6772Y-26789D01*
X6662Y-26750D01*
X6797Y-26695D01*
X6944Y-26547D01*
X7024Y-26354D01*
X7025Y-26146D01*
X6945Y-25953D01*
X6797Y-25805D01*
X6725Y-25775D01*
X6824Y-25775D01*
X6916Y-25737D01*
X6986Y-25666D01*
X7014Y-25600D01*
X7105Y-25600D01*
X8224Y-26719D01*
X8224Y-27074D01*
X8262Y-27166D01*
X8333Y-27236D01*
X8425Y-27274D01*
X8524Y-27275D01*
X9074Y-27275D01*
X9166Y-27237D01*
X9236Y-27166D01*
X9264Y-27100D01*
X9735Y-27100D01*
X9762Y-27166D01*
X9833Y-27236D01*
X9925Y-27274D01*
X10024Y-27275D01*
X10350Y-27275D01*
X10787Y-27712D01*
X10787Y-27712D01*
X10885Y-27777D01*
X10999Y-27799D01*
X11000Y-27800D01*
X11750Y-27800D01*
X11750Y-27799D01*
X11864Y-27777D01*
X11864Y-27777D01*
X11962Y-27712D01*
X11999Y-27675D01*
X12039Y-27772D01*
X12132Y-27797D01*
X12393Y-27535D01*
X12429Y-27500D01*
X12500Y-27429D01*
X12535Y-27393D01*
X12797Y-27132D01*
X12788Y-27100D01*
X13006Y-27100D01*
X12975Y-27175D01*
X12974Y-27262D01*
X12960Y-27227D01*
X12867Y-27202D01*
X12570Y-27500D01*
X12867Y-27797D01*
X12960Y-27772D01*
X12974Y-27731D01*
X12974Y-27824D01*
X13012Y-27916D01*
X13083Y-27986D01*
X13175Y-28024D01*
X13274Y-28025D01*
X13824Y-28025D01*
X13916Y-27987D01*
X13986Y-27916D01*
X14024Y-27824D01*
X14025Y-27725D01*
X14025Y-27175D01*
X13993Y-27100D01*
X14100Y-27100D01*
X14100Y-27099D01*
X14214Y-27077D01*
X14214Y-27077D01*
X14312Y-27012D01*
X14962Y-26362D01*
X14962Y-26362D01*
X15027Y-26264D01*
X15049Y-26150D01*
X15050Y-26150D01*
X15050Y-25551D01*
X15110Y-25491D01*
X15174Y-25334D01*
X15175Y-25165D01*
X15110Y-25009D01*
X14991Y-24889D01*
X14834Y-24825D01*
X14665Y-24824D01*
X14509Y-24889D01*
X14389Y-25008D01*
X14325Y-25165D01*
X14324Y-25334D01*
X14389Y-25490D01*
X14450Y-25551D01*
X14450Y-26025D01*
X13975Y-26500D01*
X13885Y-26500D01*
X13916Y-26487D01*
X13986Y-26416D01*
X14024Y-26324D01*
X14025Y-26225D01*
X14025Y-25675D01*
X14025Y-24725D01*
X14025Y-24175D01*
X13987Y-24083D01*
X13916Y-24013D01*
X13824Y-23975D01*
X13725Y-23974D01*
X13175Y-23974D01*
X13083Y-24012D01*
X13013Y-24083D01*
X12975Y-24175D01*
X12974Y-24262D01*
X12960Y-24227D01*
X12867Y-24202D01*
X12797Y-24273D01*
X12797Y-24132D01*
X12775Y-24048D01*
X12775Y-23146D01*
X12695Y-22953D01*
X12547Y-22805D01*
X12354Y-22725D01*
X12146Y-22724D01*
X11953Y-22804D01*
X11805Y-22952D01*
X11725Y-23145D01*
X11724Y-23353D01*
X11804Y-23547D01*
X11952Y-23694D01*
X12145Y-23774D01*
X12353Y-23775D01*
X12547Y-23695D01*
X12694Y-23547D01*
X12774Y-23354D01*
X12775Y-23146D01*
X12775Y-24048D01*
X12772Y-24039D01*
X12575Y-23970D01*
X12367Y-23981D01*
X12227Y-24039D01*
X12202Y-24132D01*
X12500Y-24429D01*
X12797Y-24132D01*
X12797Y-24273D01*
X12570Y-24500D01*
X12867Y-24797D01*
X12960Y-24772D01*
X12974Y-24731D01*
X12974Y-24824D01*
X13012Y-24916D01*
X13083Y-24986D01*
X13175Y-25024D01*
X13274Y-25025D01*
X13824Y-25025D01*
X13916Y-24987D01*
X13986Y-24916D01*
X14024Y-24824D01*
X14025Y-24725D01*
X14025Y-25675D01*
X13987Y-25583D01*
X13916Y-25513D01*
X13824Y-25475D01*
X13725Y-25474D01*
X13175Y-25474D01*
X13083Y-25512D01*
X13013Y-25583D01*
X12975Y-25675D01*
X12974Y-25762D01*
X12960Y-25727D01*
X12867Y-25702D01*
X12797Y-25773D01*
X12797Y-25632D01*
X12797Y-24867D01*
X12500Y-24570D01*
X12429Y-24641D01*
X12429Y-24500D01*
X12132Y-24202D01*
X12039Y-24227D01*
X11970Y-24424D01*
X11981Y-24632D01*
X12039Y-24772D01*
X12132Y-24797D01*
X12429Y-24500D01*
X12429Y-24641D01*
X12202Y-24867D01*
X12227Y-24960D01*
X12424Y-25029D01*
X12632Y-25018D01*
X12772Y-24960D01*
X12797Y-24867D01*
X12797Y-25632D01*
X12772Y-25539D01*
X12575Y-25470D01*
X12367Y-25481D01*
X12227Y-25539D01*
X12202Y-25632D01*
X12500Y-25929D01*
X12797Y-25632D01*
X12797Y-25773D01*
X12570Y-26000D01*
X12867Y-26297D01*
X12960Y-26272D01*
X12974Y-26231D01*
X12974Y-26324D01*
X13012Y-26416D01*
X13083Y-26486D01*
X13114Y-26500D01*
X12677Y-26500D01*
X12772Y-26460D01*
X12797Y-26367D01*
X12500Y-26070D01*
X12429Y-26141D01*
X12429Y-26000D01*
X12132Y-25702D01*
X12039Y-25727D01*
X11970Y-25924D01*
X11981Y-26132D01*
X12039Y-26272D01*
X12132Y-26297D01*
X12429Y-26000D01*
X12429Y-26141D01*
X12202Y-26367D01*
X12227Y-26460D01*
X12379Y-26514D01*
X12335Y-26522D01*
X12237Y-26587D01*
X11774Y-27050D01*
X11775Y-26975D01*
X11775Y-26425D01*
X11737Y-26333D01*
X11666Y-26263D01*
X11574Y-26225D01*
X11475Y-26224D01*
X11475Y-26224D01*
X11547Y-26195D01*
X11694Y-26047D01*
X11774Y-25854D01*
X11775Y-25646D01*
X11695Y-25453D01*
X11547Y-25305D01*
X11414Y-25249D01*
X11547Y-25195D01*
X11694Y-25047D01*
X11774Y-24854D01*
X11775Y-24646D01*
X11695Y-24453D01*
X11547Y-24305D01*
X11414Y-24249D01*
X11547Y-24195D01*
X11694Y-24047D01*
X11774Y-23854D01*
X11775Y-23646D01*
X11695Y-23453D01*
X11547Y-23305D01*
X11414Y-23249D01*
X11547Y-23195D01*
X11694Y-23047D01*
X11774Y-22854D01*
X11775Y-22663D01*
X13719Y-20719D01*
X13786Y-20618D01*
X13810Y-20500D01*
X13810Y-19250D01*
X13786Y-19131D01*
X13719Y-19030D01*
X12810Y-18121D01*
X12810Y-17050D01*
X17737Y-17050D01*
X17695Y-17168D01*
X17706Y-17386D01*
X17768Y-17537D01*
X17864Y-17565D01*
X18143Y-17285D01*
X18179Y-17250D01*
X18250Y-17179D01*
X18320Y-17250D01*
X18356Y-17285D01*
X18635Y-17565D01*
X18731Y-17537D01*
X18748Y-17489D01*
X18768Y-17537D01*
X18864Y-17565D01*
X19143Y-17285D01*
X19179Y-17250D01*
X19250Y-17179D01*
X19320Y-17250D01*
X19356Y-17285D01*
X19635Y-17565D01*
X19731Y-17537D01*
X19748Y-17489D01*
X19768Y-17537D01*
X19864Y-17565D01*
X20143Y-17285D01*
X20179Y-17250D01*
X20250Y-17179D01*
X20320Y-17250D01*
X20356Y-17285D01*
X20635Y-17565D01*
X20731Y-17537D01*
X20804Y-17331D01*
X20793Y-17113D01*
X20767Y-17050D01*
X21622Y-17050D01*
X21575Y-17165D01*
X21574Y-17334D01*
X21639Y-17490D01*
X21690Y-17541D01*
X21690Y-18440D01*
X20565Y-18440D01*
X20565Y-17635D01*
X20250Y-17320D01*
X19934Y-17635D01*
X19962Y-17731D01*
X20168Y-17804D01*
X20386Y-17793D01*
X20537Y-17731D01*
X20565Y-17635D01*
X20565Y-18440D01*
X20250Y-18440D01*
X19565Y-18440D01*
X19565Y-17635D01*
X19250Y-17320D01*
X18934Y-17635D01*
X18962Y-17731D01*
X19168Y-17804D01*
X19386Y-17793D01*
X19537Y-17731D01*
X19565Y-17635D01*
X19565Y-18440D01*
X18565Y-18440D01*
X18565Y-17635D01*
X18250Y-17320D01*
X17934Y-17635D01*
X17962Y-17731D01*
X18168Y-17804D01*
X18386Y-17793D01*
X18537Y-17731D01*
X18565Y-17635D01*
X18565Y-18440D01*
X16500Y-18440D01*
X16499Y-18440D01*
X16476Y-18444D01*
X16381Y-18463D01*
X16280Y-18530D01*
X16280Y-18530D01*
X15530Y-19280D01*
X15463Y-19381D01*
X15440Y-19500D01*
X15440Y-20501D01*
X15350Y-20411D01*
X15350Y-19850D01*
X15312Y-19758D01*
X15241Y-19688D01*
X15149Y-19650D01*
X15050Y-19649D01*
X14350Y-19649D01*
X14258Y-19687D01*
X14188Y-19758D01*
X14150Y-19850D01*
X14149Y-19949D01*
X14149Y-20649D01*
X14187Y-20741D01*
X14258Y-20811D01*
X14350Y-20849D01*
X14449Y-20850D01*
X14911Y-20850D01*
X14940Y-20878D01*
X14940Y-22817D01*
X14805Y-22952D01*
X14725Y-23145D01*
X14724Y-23353D01*
X14804Y-23547D01*
X14952Y-23694D01*
X15145Y-23774D01*
X15336Y-23775D01*
X16530Y-24969D01*
X16530Y-24969D01*
X16631Y-25036D01*
X16631Y-25036D01*
X16750Y-25060D01*
X26817Y-25060D01*
X26952Y-25194D01*
X27078Y-25247D01*
X26977Y-25289D01*
X26952Y-25382D01*
X27250Y-25679D01*
X27547Y-25382D01*
X27522Y-25289D01*
X27412Y-25250D01*
X27547Y-25195D01*
X27694Y-25047D01*
X27750Y-24914D01*
X27804Y-25047D01*
X27952Y-25194D01*
X28085Y-25250D01*
X27953Y-25304D01*
X27805Y-25452D01*
X27752Y-25578D01*
X27710Y-25477D01*
X27617Y-25452D01*
X27320Y-25750D01*
X27617Y-26047D01*
X27710Y-26022D01*
X27749Y-25912D01*
X27804Y-26047D01*
X27952Y-26194D01*
X28024Y-26224D01*
X28024Y-26224D01*
X27925Y-26225D01*
X27833Y-26263D01*
X27762Y-26333D01*
X27750Y-26364D01*
X27737Y-26333D01*
X27666Y-26263D01*
X27574Y-26225D01*
X27487Y-26224D01*
X27522Y-26210D01*
X27547Y-26117D01*
X27250Y-25820D01*
X27179Y-25891D01*
X27179Y-25750D01*
X26882Y-25452D01*
X26789Y-25477D01*
X26720Y-25674D01*
X26731Y-25882D01*
X26789Y-26022D01*
X26882Y-26047D01*
X27179Y-25750D01*
X27179Y-25891D01*
X26952Y-26117D01*
X26977Y-26210D01*
X27018Y-26224D01*
X26925Y-26224D01*
X26833Y-26262D01*
X26763Y-26333D01*
X26725Y-26425D01*
X26724Y-26524D01*
X26724Y-27074D01*
X26762Y-27166D01*
X26833Y-27236D01*
X26925Y-27274D01*
X27024Y-27275D01*
X27574Y-27275D01*
X27666Y-27237D01*
X27736Y-27166D01*
X27749Y-27135D01*
X27762Y-27166D01*
X27833Y-27236D01*
X27925Y-27274D01*
X28024Y-27275D01*
X28137Y-27275D01*
X28200Y-27212D01*
X28200Y-26850D01*
X28200Y-26800D01*
X28200Y-26700D01*
X28300Y-26700D01*
X28350Y-26700D01*
X28712Y-26700D01*
X28775Y-26637D01*
X28775Y-26425D01*
X28737Y-26333D01*
X28666Y-26263D01*
X28574Y-26225D01*
X28475Y-26224D01*
X28475Y-26224D01*
X28547Y-26195D01*
X28694Y-26047D01*
X28774Y-25854D01*
X28775Y-25646D01*
X28695Y-25453D01*
X28547Y-25305D01*
X28414Y-25249D01*
X28547Y-25195D01*
X28694Y-25047D01*
X28774Y-24854D01*
X28775Y-24646D01*
X28695Y-24453D01*
X28547Y-24305D01*
X28414Y-24249D01*
X28547Y-24195D01*
X28694Y-24047D01*
X28774Y-23854D01*
X28775Y-23646D01*
X28695Y-23453D01*
X28547Y-23305D01*
X28414Y-23249D01*
X28547Y-23195D01*
X28694Y-23047D01*
X28774Y-22854D01*
X28775Y-22646D01*
X28695Y-22453D01*
X28547Y-22305D01*
X28414Y-22249D01*
X28547Y-22195D01*
X28694Y-22047D01*
X28774Y-21854D01*
X28775Y-21646D01*
X28695Y-21453D01*
X28547Y-21305D01*
X28414Y-21249D01*
X28547Y-21195D01*
X28694Y-21047D01*
X28774Y-20854D01*
X28775Y-20646D01*
X28695Y-20453D01*
X28547Y-20305D01*
X28414Y-20249D01*
X28547Y-20195D01*
X28694Y-20047D01*
X28774Y-19854D01*
X28775Y-19646D01*
X28695Y-19453D01*
X28547Y-19305D01*
X28414Y-19249D01*
X28547Y-19195D01*
X28694Y-19047D01*
X28774Y-18854D01*
X28775Y-18646D01*
X28695Y-18453D01*
X28547Y-18305D01*
X28414Y-18249D01*
X28547Y-18195D01*
X28694Y-18047D01*
X28774Y-17854D01*
X28775Y-17646D01*
X28695Y-17453D01*
X28552Y-17310D01*
X28950Y-17310D01*
X28950Y-28450D01*
G54D10*
G36*
X34500Y-43300D02*
X33537Y-43304D01*
X33594Y-43247D01*
X33674Y-43054D01*
X33675Y-42846D01*
X33595Y-42653D01*
X33447Y-42505D01*
X33314Y-42449D01*
X33447Y-42395D01*
X33594Y-42247D01*
X33674Y-42054D01*
X33675Y-41846D01*
X33675Y-38346D01*
X33595Y-38153D01*
X33447Y-38005D01*
X33314Y-37949D01*
X33447Y-37895D01*
X33594Y-37747D01*
X33674Y-37554D01*
X33675Y-37346D01*
X33675Y-34096D01*
X33595Y-33903D01*
X33447Y-33755D01*
X33314Y-33699D01*
X33447Y-33645D01*
X33594Y-33497D01*
X33674Y-33304D01*
X33675Y-33096D01*
X33595Y-32903D01*
X33447Y-32755D01*
X33254Y-32675D01*
X33046Y-32674D01*
X32853Y-32754D01*
X32705Y-32902D01*
X32625Y-33095D01*
X32624Y-33303D01*
X32704Y-33497D01*
X32852Y-33644D01*
X32985Y-33700D01*
X32853Y-33754D01*
X32705Y-33902D01*
X32625Y-34095D01*
X32624Y-34303D01*
X32704Y-34497D01*
X32852Y-34644D01*
X33045Y-34724D01*
X33253Y-34725D01*
X33447Y-34645D01*
X33594Y-34497D01*
X33674Y-34304D01*
X33675Y-34096D01*
X33675Y-37346D01*
X33595Y-37153D01*
X33447Y-37005D01*
X33254Y-36925D01*
X33046Y-36924D01*
X32853Y-37004D01*
X32705Y-37152D01*
X32625Y-37345D01*
X32624Y-37553D01*
X32704Y-37747D01*
X32852Y-37894D01*
X32985Y-37950D01*
X32853Y-38004D01*
X32705Y-38152D01*
X32625Y-38345D01*
X32624Y-38553D01*
X32704Y-38747D01*
X32852Y-38894D01*
X33045Y-38974D01*
X33253Y-38975D01*
X33447Y-38895D01*
X33594Y-38747D01*
X33674Y-38554D01*
X33675Y-38346D01*
X33675Y-41846D01*
X33595Y-41653D01*
X33447Y-41505D01*
X33254Y-41425D01*
X33046Y-41424D01*
X32853Y-41504D01*
X32705Y-41652D01*
X32625Y-41845D01*
X32624Y-42053D01*
X32704Y-42247D01*
X32852Y-42394D01*
X32985Y-42450D01*
X32853Y-42504D01*
X32705Y-42652D01*
X32625Y-42845D01*
X32624Y-43053D01*
X32704Y-43247D01*
X32765Y-43308D01*
X32282Y-43310D01*
X32344Y-43247D01*
X32424Y-43054D01*
X32425Y-42846D01*
X32345Y-42653D01*
X32197Y-42505D01*
X32004Y-42425D01*
X31796Y-42424D01*
X31603Y-42504D01*
X31455Y-42652D01*
X31375Y-42845D01*
X31374Y-43053D01*
X31454Y-43247D01*
X31521Y-43313D01*
X25698Y-43339D01*
X26619Y-42419D01*
X26686Y-42318D01*
X26710Y-42200D01*
X26710Y-40700D01*
X26690Y-40600D01*
X26794Y-40705D01*
X26794Y-40705D01*
X26889Y-40767D01*
X26905Y-40771D01*
X26905Y-40771D01*
X26875Y-40845D01*
X26874Y-41053D01*
X26954Y-41247D01*
X27102Y-41394D01*
X27174Y-41424D01*
X27075Y-41424D01*
X26983Y-41462D01*
X26913Y-41533D01*
X26875Y-41625D01*
X26874Y-41724D01*
X26874Y-42274D01*
X26912Y-42366D01*
X26983Y-42436D01*
X27075Y-42474D01*
X27174Y-42475D01*
X27724Y-42475D01*
X27816Y-42437D01*
X27886Y-42366D01*
X27899Y-42335D01*
X27912Y-42366D01*
X27983Y-42436D01*
X28075Y-42474D01*
X28174Y-42475D01*
X28724Y-42475D01*
X28816Y-42437D01*
X28886Y-42366D01*
X28924Y-42274D01*
X28925Y-42175D01*
X28925Y-41625D01*
X28887Y-41533D01*
X28816Y-41463D01*
X28724Y-41425D01*
X28625Y-41424D01*
X28625Y-41424D01*
X28697Y-41395D01*
X28844Y-41247D01*
X28924Y-41054D01*
X28925Y-40846D01*
X28845Y-40653D01*
X28697Y-40505D01*
X28564Y-40449D01*
X28697Y-40395D01*
X28844Y-40247D01*
X28924Y-40054D01*
X28925Y-39924D01*
X29014Y-39925D01*
X29744Y-40655D01*
X29839Y-40717D01*
X29950Y-40740D01*
X30120Y-40740D01*
X30141Y-40789D01*
X30301Y-40950D01*
X30141Y-41109D01*
X30050Y-41330D01*
X30049Y-41568D01*
X30141Y-41789D01*
X30215Y-41864D01*
X30158Y-41887D01*
X30088Y-41958D01*
X30050Y-42050D01*
X30049Y-42149D01*
X30049Y-42849D01*
X30087Y-42941D01*
X30158Y-43011D01*
X30250Y-43049D01*
X30349Y-43050D01*
X31049Y-43050D01*
X31141Y-43012D01*
X31211Y-42941D01*
X31249Y-42849D01*
X31250Y-42750D01*
X31250Y-42050D01*
X31212Y-41958D01*
X31141Y-41888D01*
X31084Y-41864D01*
X31158Y-41790D01*
X31249Y-41569D01*
X31250Y-41331D01*
X31158Y-41110D01*
X30998Y-40949D01*
X31158Y-40790D01*
X31179Y-40740D01*
X31400Y-40740D01*
X31510Y-40717D01*
X31605Y-40655D01*
X31788Y-40472D01*
X31795Y-40474D01*
X32003Y-40475D01*
X32197Y-40395D01*
X32344Y-40247D01*
X32424Y-40054D01*
X32425Y-39846D01*
X32425Y-38346D01*
X32345Y-38153D01*
X32197Y-38005D01*
X32004Y-37925D01*
X31796Y-37924D01*
X31603Y-38004D01*
X31455Y-38152D01*
X31375Y-38345D01*
X31374Y-38553D01*
X31454Y-38747D01*
X31602Y-38894D01*
X31795Y-38974D01*
X32003Y-38975D01*
X32197Y-38895D01*
X32344Y-38747D01*
X32424Y-38554D01*
X32425Y-38346D01*
X32425Y-39846D01*
X32345Y-39653D01*
X32197Y-39505D01*
X32004Y-39425D01*
X31796Y-39424D01*
X31603Y-39504D01*
X31455Y-39652D01*
X31375Y-39845D01*
X31374Y-40053D01*
X31378Y-40061D01*
X31279Y-40160D01*
X31179Y-40160D01*
X31158Y-40110D01*
X30990Y-39941D01*
X30769Y-39850D01*
X30531Y-39849D01*
X30310Y-39941D01*
X30141Y-40109D01*
X30120Y-40160D01*
X30070Y-40160D01*
X29424Y-39514D01*
X29425Y-39415D01*
X29360Y-39259D01*
X29241Y-39139D01*
X29084Y-39075D01*
X28916Y-39074D01*
X28924Y-39054D01*
X28925Y-38935D01*
X30049Y-37810D01*
X30049Y-38349D01*
X30087Y-38441D01*
X30158Y-38511D01*
X30250Y-38549D01*
X30349Y-38550D01*
X31049Y-38550D01*
X31141Y-38512D01*
X31211Y-38441D01*
X31249Y-38349D01*
X31250Y-38250D01*
X31250Y-37550D01*
X31212Y-37458D01*
X31141Y-37388D01*
X31084Y-37364D01*
X31158Y-37290D01*
X31249Y-37069D01*
X31250Y-36831D01*
X31158Y-36610D01*
X30998Y-36449D01*
X31158Y-36290D01*
X31179Y-36240D01*
X31400Y-36240D01*
X31510Y-36217D01*
X31605Y-36155D01*
X31788Y-35972D01*
X31795Y-35974D01*
X32003Y-35975D01*
X32197Y-35895D01*
X32344Y-35747D01*
X32424Y-35554D01*
X32425Y-35346D01*
X32425Y-34096D01*
X32345Y-33903D01*
X32197Y-33755D01*
X32004Y-33675D01*
X31796Y-33674D01*
X31603Y-33754D01*
X31455Y-33902D01*
X31375Y-34095D01*
X31374Y-34303D01*
X31454Y-34497D01*
X31602Y-34644D01*
X31795Y-34724D01*
X32003Y-34725D01*
X32197Y-34645D01*
X32344Y-34497D01*
X32424Y-34304D01*
X32425Y-34096D01*
X32425Y-35346D01*
X32345Y-35153D01*
X32197Y-35005D01*
X32004Y-34925D01*
X31796Y-34924D01*
X31603Y-35004D01*
X31455Y-35152D01*
X31375Y-35345D01*
X31374Y-35553D01*
X31378Y-35561D01*
X31279Y-35660D01*
X31179Y-35660D01*
X31158Y-35610D01*
X30990Y-35441D01*
X30769Y-35350D01*
X30531Y-35349D01*
X30310Y-35441D01*
X30141Y-35609D01*
X30050Y-35830D01*
X30049Y-36068D01*
X30070Y-36119D01*
X29644Y-36544D01*
X29582Y-36639D01*
X29560Y-36750D01*
X29560Y-37479D01*
X28882Y-38157D01*
X28924Y-38054D01*
X28925Y-37846D01*
X28845Y-37653D01*
X28697Y-37505D01*
X28564Y-37449D01*
X28697Y-37395D01*
X28844Y-37247D01*
X28852Y-37229D01*
X28910Y-37217D01*
X29005Y-37155D01*
X29955Y-36205D01*
X30017Y-36110D01*
X30040Y-36000D01*
X30040Y-32720D01*
X30049Y-32710D01*
X30049Y-32818D01*
X30141Y-33039D01*
X30215Y-33114D01*
X30158Y-33137D01*
X30088Y-33208D01*
X30050Y-33300D01*
X30049Y-33399D01*
X30049Y-34099D01*
X30087Y-34191D01*
X30158Y-34261D01*
X30250Y-34299D01*
X30349Y-34300D01*
X31049Y-34300D01*
X31141Y-34262D01*
X31211Y-34191D01*
X31249Y-34099D01*
X31250Y-34000D01*
X31250Y-33300D01*
X31212Y-33208D01*
X31141Y-33138D01*
X31084Y-33114D01*
X31158Y-33040D01*
X31249Y-32819D01*
X31250Y-32581D01*
X31158Y-32360D01*
X30998Y-32199D01*
X31158Y-32040D01*
X31179Y-31990D01*
X31400Y-31990D01*
X31510Y-31967D01*
X31605Y-31905D01*
X31788Y-31722D01*
X31795Y-31724D01*
X32003Y-31725D01*
X32197Y-31645D01*
X32344Y-31497D01*
X32424Y-31304D01*
X32425Y-31096D01*
X32345Y-30903D01*
X32197Y-30755D01*
X32004Y-30675D01*
X31796Y-30674D01*
X31603Y-30754D01*
X31455Y-30902D01*
X31375Y-31095D01*
X31374Y-31303D01*
X31378Y-31311D01*
X31279Y-31410D01*
X31179Y-31410D01*
X31158Y-31360D01*
X30990Y-31191D01*
X30769Y-31100D01*
X30531Y-31099D01*
X30310Y-31191D01*
X30141Y-31359D01*
X30050Y-31580D01*
X30049Y-31818D01*
X30070Y-31869D01*
X29544Y-32394D01*
X29482Y-32489D01*
X29460Y-32600D01*
X29460Y-35879D01*
X28766Y-36573D01*
X28697Y-36505D01*
X28564Y-36449D01*
X28697Y-36395D01*
X28844Y-36247D01*
X28924Y-36054D01*
X28925Y-35846D01*
X28845Y-35653D01*
X28697Y-35505D01*
X28564Y-35449D01*
X28697Y-35395D01*
X28844Y-35247D01*
X28924Y-35054D01*
X28925Y-34846D01*
X28845Y-34653D01*
X28697Y-34505D01*
X28564Y-34449D01*
X28697Y-34395D01*
X28844Y-34247D01*
X28924Y-34054D01*
X28925Y-33846D01*
X28845Y-33653D01*
X28697Y-33505D01*
X28564Y-33449D01*
X28697Y-33395D01*
X28844Y-33247D01*
X28924Y-33054D01*
X28925Y-32846D01*
X28845Y-32653D01*
X28697Y-32505D01*
X28504Y-32425D01*
X28296Y-32424D01*
X28103Y-32504D01*
X27955Y-32652D01*
X27899Y-32785D01*
X27845Y-32653D01*
X27697Y-32505D01*
X27504Y-32425D01*
X27296Y-32424D01*
X27103Y-32504D01*
X26955Y-32652D01*
X26875Y-32845D01*
X26874Y-33053D01*
X26954Y-33247D01*
X27102Y-33394D01*
X27235Y-33450D01*
X27103Y-33504D01*
X26955Y-33652D01*
X26875Y-33845D01*
X26874Y-34053D01*
X26898Y-34110D01*
X26850Y-34110D01*
X26849Y-34110D01*
X26739Y-34132D01*
X26644Y-34194D01*
X26644Y-34194D01*
X25979Y-34860D01*
X25950Y-34860D01*
X25950Y-34350D01*
X25912Y-34258D01*
X25841Y-34188D01*
X25749Y-34150D01*
X25650Y-34149D01*
X25050Y-34149D01*
X24958Y-34187D01*
X24888Y-34258D01*
X24850Y-34350D01*
X24849Y-34449D01*
X24849Y-34860D01*
X24500Y-34860D01*
X24500Y-33831D01*
X24408Y-33610D01*
X24240Y-33441D01*
X24019Y-33350D01*
X23781Y-33349D01*
X23560Y-33441D01*
X23391Y-33609D01*
X23300Y-33830D01*
X23299Y-34068D01*
X23391Y-34289D01*
X23559Y-34458D01*
X23780Y-34549D01*
X24018Y-34550D01*
X24239Y-34458D01*
X24408Y-34290D01*
X24499Y-34069D01*
X24500Y-33831D01*
X24500Y-34860D01*
X21200Y-34860D01*
X21200Y-30591D01*
X21116Y-30388D01*
X20961Y-30234D01*
X20759Y-30150D01*
X20541Y-30149D01*
X20338Y-30233D01*
X20184Y-30388D01*
X20150Y-30469D01*
X20116Y-30388D01*
X19961Y-30234D01*
X19759Y-30150D01*
X19541Y-30149D01*
X19338Y-30233D01*
X19184Y-30388D01*
X19150Y-30469D01*
X19116Y-30388D01*
X18961Y-30234D01*
X18759Y-30150D01*
X18541Y-30149D01*
X18338Y-30233D01*
X18184Y-30388D01*
X18100Y-30590D01*
X18099Y-30808D01*
X18183Y-31011D01*
X18338Y-31165D01*
X18540Y-31249D01*
X18758Y-31250D01*
X18961Y-31166D01*
X19115Y-31011D01*
X19149Y-30930D01*
X19183Y-31011D01*
X19338Y-31165D01*
X19540Y-31249D01*
X19758Y-31250D01*
X19961Y-31166D01*
X20115Y-31011D01*
X20149Y-30930D01*
X20183Y-31011D01*
X20338Y-31165D01*
X20540Y-31249D01*
X20758Y-31250D01*
X20961Y-31166D01*
X21115Y-31011D01*
X21199Y-30809D01*
X21200Y-30591D01*
X21200Y-34860D01*
X20929Y-34860D01*
X20949Y-34809D01*
X20950Y-34591D01*
X20866Y-34388D01*
X20711Y-34234D01*
X20630Y-34200D01*
X20711Y-34166D01*
X20865Y-34011D01*
X20949Y-33809D01*
X20950Y-33591D01*
X20866Y-33388D01*
X20711Y-33234D01*
X20509Y-33150D01*
X20291Y-33149D01*
X20088Y-33233D01*
X19934Y-33388D01*
X19850Y-33590D01*
X19849Y-33808D01*
X19933Y-34011D01*
X20088Y-34165D01*
X20169Y-34199D01*
X20088Y-34233D01*
X19934Y-34388D01*
X19850Y-34590D01*
X19849Y-34808D01*
X19871Y-34860D01*
X18950Y-34860D01*
X18950Y-34350D01*
X18912Y-34258D01*
X18841Y-34188D01*
X18749Y-34150D01*
X18650Y-34149D01*
X18050Y-34149D01*
X17958Y-34187D01*
X17888Y-34258D01*
X17850Y-34350D01*
X17849Y-34449D01*
X17849Y-34860D01*
X17500Y-34860D01*
X17500Y-33831D01*
X17408Y-33610D01*
X17240Y-33441D01*
X17019Y-33350D01*
X16781Y-33349D01*
X16560Y-33441D01*
X16391Y-33609D01*
X16300Y-33830D01*
X16299Y-34068D01*
X16391Y-34289D01*
X16559Y-34458D01*
X16780Y-34549D01*
X17018Y-34550D01*
X17239Y-34458D01*
X17408Y-34290D01*
X17499Y-34069D01*
X17500Y-33831D01*
X17500Y-34860D01*
X14870Y-34860D01*
X13911Y-33901D01*
X13949Y-33809D01*
X13950Y-33591D01*
X13866Y-33388D01*
X13711Y-33234D01*
X13509Y-33150D01*
X13291Y-33149D01*
X13088Y-33233D01*
X12934Y-33388D01*
X12850Y-33590D01*
X12849Y-33808D01*
X12933Y-34011D01*
X13088Y-34165D01*
X13169Y-34199D01*
X13088Y-34233D01*
X12934Y-34388D01*
X12850Y-34590D01*
X12849Y-34808D01*
X12933Y-35011D01*
X13088Y-35165D01*
X13169Y-35199D01*
X13088Y-35233D01*
X12934Y-35388D01*
X12850Y-35590D01*
X12849Y-35808D01*
X12933Y-36011D01*
X13088Y-36165D01*
X13169Y-36199D01*
X13088Y-36233D01*
X12934Y-36388D01*
X12850Y-36590D01*
X12849Y-36808D01*
X12858Y-36830D01*
X12450Y-37239D01*
X12450Y-29999D01*
X34500Y-29900D01*
X34500Y-43300D01*
X34500Y-43300D01*
G37*
G54D23*
X34500Y-43300D02*
X33537Y-43304D01*
X33594Y-43247D01*
X33674Y-43054D01*
X33675Y-42846D01*
X33595Y-42653D01*
X33447Y-42505D01*
X33314Y-42449D01*
X33447Y-42395D01*
X33594Y-42247D01*
X33674Y-42054D01*
X33675Y-41846D01*
X33675Y-38346D01*
X33595Y-38153D01*
X33447Y-38005D01*
X33314Y-37949D01*
X33447Y-37895D01*
X33594Y-37747D01*
X33674Y-37554D01*
X33675Y-37346D01*
X33675Y-34096D01*
X33595Y-33903D01*
X33447Y-33755D01*
X33314Y-33699D01*
X33447Y-33645D01*
X33594Y-33497D01*
X33674Y-33304D01*
X33675Y-33096D01*
X33595Y-32903D01*
X33447Y-32755D01*
X33254Y-32675D01*
X33046Y-32674D01*
X32853Y-32754D01*
X32705Y-32902D01*
X32625Y-33095D01*
X32624Y-33303D01*
X32704Y-33497D01*
X32852Y-33644D01*
X32985Y-33700D01*
X32853Y-33754D01*
X32705Y-33902D01*
X32625Y-34095D01*
X32624Y-34303D01*
X32704Y-34497D01*
X32852Y-34644D01*
X33045Y-34724D01*
X33253Y-34725D01*
X33447Y-34645D01*
X33594Y-34497D01*
X33674Y-34304D01*
X33675Y-34096D01*
X33675Y-37346D01*
X33595Y-37153D01*
X33447Y-37005D01*
X33254Y-36925D01*
X33046Y-36924D01*
X32853Y-37004D01*
X32705Y-37152D01*
X32625Y-37345D01*
X32624Y-37553D01*
X32704Y-37747D01*
X32852Y-37894D01*
X32985Y-37950D01*
X32853Y-38004D01*
X32705Y-38152D01*
X32625Y-38345D01*
X32624Y-38553D01*
X32704Y-38747D01*
X32852Y-38894D01*
X33045Y-38974D01*
X33253Y-38975D01*
X33447Y-38895D01*
X33594Y-38747D01*
X33674Y-38554D01*
X33675Y-38346D01*
X33675Y-41846D01*
X33595Y-41653D01*
X33447Y-41505D01*
X33254Y-41425D01*
X33046Y-41424D01*
X32853Y-41504D01*
X32705Y-41652D01*
X32625Y-41845D01*
X32624Y-42053D01*
X32704Y-42247D01*
X32852Y-42394D01*
X32985Y-42450D01*
X32853Y-42504D01*
X32705Y-42652D01*
X32625Y-42845D01*
X32624Y-43053D01*
X32704Y-43247D01*
X32765Y-43308D01*
X32282Y-43310D01*
X32344Y-43247D01*
X32424Y-43054D01*
X32425Y-42846D01*
X32345Y-42653D01*
X32197Y-42505D01*
X32004Y-42425D01*
X31796Y-42424D01*
X31603Y-42504D01*
X31455Y-42652D01*
X31375Y-42845D01*
X31374Y-43053D01*
X31454Y-43247D01*
X31521Y-43313D01*
X25698Y-43339D01*
X26619Y-42419D01*
X26686Y-42318D01*
X26710Y-42200D01*
X26710Y-40700D01*
X26690Y-40600D01*
X26794Y-40705D01*
X26794Y-40705D01*
X26889Y-40767D01*
X26905Y-40771D01*
X26905Y-40771D01*
X26875Y-40845D01*
X26874Y-41053D01*
X26954Y-41247D01*
X27102Y-41394D01*
X27174Y-41424D01*
X27075Y-41424D01*
X26983Y-41462D01*
X26913Y-41533D01*
X26875Y-41625D01*
X26874Y-41724D01*
X26874Y-42274D01*
X26912Y-42366D01*
X26983Y-42436D01*
X27075Y-42474D01*
X27174Y-42475D01*
X27724Y-42475D01*
X27816Y-42437D01*
X27886Y-42366D01*
X27899Y-42335D01*
X27912Y-42366D01*
X27983Y-42436D01*
X28075Y-42474D01*
X28174Y-42475D01*
X28724Y-42475D01*
X28816Y-42437D01*
X28886Y-42366D01*
X28924Y-42274D01*
X28925Y-42175D01*
X28925Y-41625D01*
X28887Y-41533D01*
X28816Y-41463D01*
X28724Y-41425D01*
X28625Y-41424D01*
X28625Y-41424D01*
X28697Y-41395D01*
X28844Y-41247D01*
X28924Y-41054D01*
X28925Y-40846D01*
X28845Y-40653D01*
X28697Y-40505D01*
X28564Y-40449D01*
X28697Y-40395D01*
X28844Y-40247D01*
X28924Y-40054D01*
X28925Y-39924D01*
X29014Y-39925D01*
X29744Y-40655D01*
X29839Y-40717D01*
X29950Y-40740D01*
X30120Y-40740D01*
X30141Y-40789D01*
X30301Y-40950D01*
X30141Y-41109D01*
X30050Y-41330D01*
X30049Y-41568D01*
X30141Y-41789D01*
X30215Y-41864D01*
X30158Y-41887D01*
X30088Y-41958D01*
X30050Y-42050D01*
X30049Y-42149D01*
X30049Y-42849D01*
X30087Y-42941D01*
X30158Y-43011D01*
X30250Y-43049D01*
X30349Y-43050D01*
X31049Y-43050D01*
X31141Y-43012D01*
X31211Y-42941D01*
X31249Y-42849D01*
X31250Y-42750D01*
X31250Y-42050D01*
X31212Y-41958D01*
X31141Y-41888D01*
X31084Y-41864D01*
X31158Y-41790D01*
X31249Y-41569D01*
X31250Y-41331D01*
X31158Y-41110D01*
X30998Y-40949D01*
X31158Y-40790D01*
X31179Y-40740D01*
X31400Y-40740D01*
X31510Y-40717D01*
X31605Y-40655D01*
X31788Y-40472D01*
X31795Y-40474D01*
X32003Y-40475D01*
X32197Y-40395D01*
X32344Y-40247D01*
X32424Y-40054D01*
X32425Y-39846D01*
X32425Y-38346D01*
X32345Y-38153D01*
X32197Y-38005D01*
X32004Y-37925D01*
X31796Y-37924D01*
X31603Y-38004D01*
X31455Y-38152D01*
X31375Y-38345D01*
X31374Y-38553D01*
X31454Y-38747D01*
X31602Y-38894D01*
X31795Y-38974D01*
X32003Y-38975D01*
X32197Y-38895D01*
X32344Y-38747D01*
X32424Y-38554D01*
X32425Y-38346D01*
X32425Y-39846D01*
X32345Y-39653D01*
X32197Y-39505D01*
X32004Y-39425D01*
X31796Y-39424D01*
X31603Y-39504D01*
X31455Y-39652D01*
X31375Y-39845D01*
X31374Y-40053D01*
X31378Y-40061D01*
X31279Y-40160D01*
X31179Y-40160D01*
X31158Y-40110D01*
X30990Y-39941D01*
X30769Y-39850D01*
X30531Y-39849D01*
X30310Y-39941D01*
X30141Y-40109D01*
X30120Y-40160D01*
X30070Y-40160D01*
X29424Y-39514D01*
X29425Y-39415D01*
X29360Y-39259D01*
X29241Y-39139D01*
X29084Y-39075D01*
X28916Y-39074D01*
X28924Y-39054D01*
X28925Y-38935D01*
X30049Y-37810D01*
X30049Y-38349D01*
X30087Y-38441D01*
X30158Y-38511D01*
X30250Y-38549D01*
X30349Y-38550D01*
X31049Y-38550D01*
X31141Y-38512D01*
X31211Y-38441D01*
X31249Y-38349D01*
X31250Y-38250D01*
X31250Y-37550D01*
X31212Y-37458D01*
X31141Y-37388D01*
X31084Y-37364D01*
X31158Y-37290D01*
X31249Y-37069D01*
X31250Y-36831D01*
X31158Y-36610D01*
X30998Y-36449D01*
X31158Y-36290D01*
X31179Y-36240D01*
X31400Y-36240D01*
X31510Y-36217D01*
X31605Y-36155D01*
X31788Y-35972D01*
X31795Y-35974D01*
X32003Y-35975D01*
X32197Y-35895D01*
X32344Y-35747D01*
X32424Y-35554D01*
X32425Y-35346D01*
X32425Y-34096D01*
X32345Y-33903D01*
X32197Y-33755D01*
X32004Y-33675D01*
X31796Y-33674D01*
X31603Y-33754D01*
X31455Y-33902D01*
X31375Y-34095D01*
X31374Y-34303D01*
X31454Y-34497D01*
X31602Y-34644D01*
X31795Y-34724D01*
X32003Y-34725D01*
X32197Y-34645D01*
X32344Y-34497D01*
X32424Y-34304D01*
X32425Y-34096D01*
X32425Y-35346D01*
X32345Y-35153D01*
X32197Y-35005D01*
X32004Y-34925D01*
X31796Y-34924D01*
X31603Y-35004D01*
X31455Y-35152D01*
X31375Y-35345D01*
X31374Y-35553D01*
X31378Y-35561D01*
X31279Y-35660D01*
X31179Y-35660D01*
X31158Y-35610D01*
X30990Y-35441D01*
X30769Y-35350D01*
X30531Y-35349D01*
X30310Y-35441D01*
X30141Y-35609D01*
X30050Y-35830D01*
X30049Y-36068D01*
X30070Y-36119D01*
X29644Y-36544D01*
X29582Y-36639D01*
X29560Y-36750D01*
X29560Y-37479D01*
X28882Y-38157D01*
X28924Y-38054D01*
X28925Y-37846D01*
X28845Y-37653D01*
X28697Y-37505D01*
X28564Y-37449D01*
X28697Y-37395D01*
X28844Y-37247D01*
X28852Y-37229D01*
X28910Y-37217D01*
X29005Y-37155D01*
X29955Y-36205D01*
X30017Y-36110D01*
X30040Y-36000D01*
X30040Y-32720D01*
X30049Y-32710D01*
X30049Y-32818D01*
X30141Y-33039D01*
X30215Y-33114D01*
X30158Y-33137D01*
X30088Y-33208D01*
X30050Y-33300D01*
X30049Y-33399D01*
X30049Y-34099D01*
X30087Y-34191D01*
X30158Y-34261D01*
X30250Y-34299D01*
X30349Y-34300D01*
X31049Y-34300D01*
X31141Y-34262D01*
X31211Y-34191D01*
X31249Y-34099D01*
X31250Y-34000D01*
X31250Y-33300D01*
X31212Y-33208D01*
X31141Y-33138D01*
X31084Y-33114D01*
X31158Y-33040D01*
X31249Y-32819D01*
X31250Y-32581D01*
X31158Y-32360D01*
X30998Y-32199D01*
X31158Y-32040D01*
X31179Y-31990D01*
X31400Y-31990D01*
X31510Y-31967D01*
X31605Y-31905D01*
X31788Y-31722D01*
X31795Y-31724D01*
X32003Y-31725D01*
X32197Y-31645D01*
X32344Y-31497D01*
X32424Y-31304D01*
X32425Y-31096D01*
X32345Y-30903D01*
X32197Y-30755D01*
X32004Y-30675D01*
X31796Y-30674D01*
X31603Y-30754D01*
X31455Y-30902D01*
X31375Y-31095D01*
X31374Y-31303D01*
X31378Y-31311D01*
X31279Y-31410D01*
X31179Y-31410D01*
X31158Y-31360D01*
X30990Y-31191D01*
X30769Y-31100D01*
X30531Y-31099D01*
X30310Y-31191D01*
X30141Y-31359D01*
X30050Y-31580D01*
X30049Y-31818D01*
X30070Y-31869D01*
X29544Y-32394D01*
X29482Y-32489D01*
X29460Y-32600D01*
X29460Y-35879D01*
X28766Y-36573D01*
X28697Y-36505D01*
X28564Y-36449D01*
X28697Y-36395D01*
X28844Y-36247D01*
X28924Y-36054D01*
X28925Y-35846D01*
X28845Y-35653D01*
X28697Y-35505D01*
X28564Y-35449D01*
X28697Y-35395D01*
X28844Y-35247D01*
X28924Y-35054D01*
X28925Y-34846D01*
X28845Y-34653D01*
X28697Y-34505D01*
X28564Y-34449D01*
X28697Y-34395D01*
X28844Y-34247D01*
X28924Y-34054D01*
X28925Y-33846D01*
X28845Y-33653D01*
X28697Y-33505D01*
X28564Y-33449D01*
X28697Y-33395D01*
X28844Y-33247D01*
X28924Y-33054D01*
X28925Y-32846D01*
X28845Y-32653D01*
X28697Y-32505D01*
X28504Y-32425D01*
X28296Y-32424D01*
X28103Y-32504D01*
X27955Y-32652D01*
X27899Y-32785D01*
X27845Y-32653D01*
X27697Y-32505D01*
X27504Y-32425D01*
X27296Y-32424D01*
X27103Y-32504D01*
X26955Y-32652D01*
X26875Y-32845D01*
X26874Y-33053D01*
X26954Y-33247D01*
X27102Y-33394D01*
X27235Y-33450D01*
X27103Y-33504D01*
X26955Y-33652D01*
X26875Y-33845D01*
X26874Y-34053D01*
X26898Y-34110D01*
X26850Y-34110D01*
X26849Y-34110D01*
X26739Y-34132D01*
X26644Y-34194D01*
X26644Y-34194D01*
X25979Y-34860D01*
X25950Y-34860D01*
X25950Y-34350D01*
X25912Y-34258D01*
X25841Y-34188D01*
X25749Y-34150D01*
X25650Y-34149D01*
X25050Y-34149D01*
X24958Y-34187D01*
X24888Y-34258D01*
X24850Y-34350D01*
X24849Y-34449D01*
X24849Y-34860D01*
X24500Y-34860D01*
X24500Y-33831D01*
X24408Y-33610D01*
X24240Y-33441D01*
X24019Y-33350D01*
X23781Y-33349D01*
X23560Y-33441D01*
X23391Y-33609D01*
X23300Y-33830D01*
X23299Y-34068D01*
X23391Y-34289D01*
X23559Y-34458D01*
X23780Y-34549D01*
X24018Y-34550D01*
X24239Y-34458D01*
X24408Y-34290D01*
X24499Y-34069D01*
X24500Y-33831D01*
X24500Y-34860D01*
X21200Y-34860D01*
X21200Y-30591D01*
X21116Y-30388D01*
X20961Y-30234D01*
X20759Y-30150D01*
X20541Y-30149D01*
X20338Y-30233D01*
X20184Y-30388D01*
X20150Y-30469D01*
X20116Y-30388D01*
X19961Y-30234D01*
X19759Y-30150D01*
X19541Y-30149D01*
X19338Y-30233D01*
X19184Y-30388D01*
X19150Y-30469D01*
X19116Y-30388D01*
X18961Y-30234D01*
X18759Y-30150D01*
X18541Y-30149D01*
X18338Y-30233D01*
X18184Y-30388D01*
X18100Y-30590D01*
X18099Y-30808D01*
X18183Y-31011D01*
X18338Y-31165D01*
X18540Y-31249D01*
X18758Y-31250D01*
X18961Y-31166D01*
X19115Y-31011D01*
X19149Y-30930D01*
X19183Y-31011D01*
X19338Y-31165D01*
X19540Y-31249D01*
X19758Y-31250D01*
X19961Y-31166D01*
X20115Y-31011D01*
X20149Y-30930D01*
X20183Y-31011D01*
X20338Y-31165D01*
X20540Y-31249D01*
X20758Y-31250D01*
X20961Y-31166D01*
X21115Y-31011D01*
X21199Y-30809D01*
X21200Y-30591D01*
X21200Y-34860D01*
X20929Y-34860D01*
X20949Y-34809D01*
X20950Y-34591D01*
X20866Y-34388D01*
X20711Y-34234D01*
X20630Y-34200D01*
X20711Y-34166D01*
X20865Y-34011D01*
X20949Y-33809D01*
X20950Y-33591D01*
X20866Y-33388D01*
X20711Y-33234D01*
X20509Y-33150D01*
X20291Y-33149D01*
X20088Y-33233D01*
X19934Y-33388D01*
X19850Y-33590D01*
X19849Y-33808D01*
X19933Y-34011D01*
X20088Y-34165D01*
X20169Y-34199D01*
X20088Y-34233D01*
X19934Y-34388D01*
X19850Y-34590D01*
X19849Y-34808D01*
X19871Y-34860D01*
X18950Y-34860D01*
X18950Y-34350D01*
X18912Y-34258D01*
X18841Y-34188D01*
X18749Y-34150D01*
X18650Y-34149D01*
X18050Y-34149D01*
X17958Y-34187D01*
X17888Y-34258D01*
X17850Y-34350D01*
X17849Y-34449D01*
X17849Y-34860D01*
X17500Y-34860D01*
X17500Y-33831D01*
X17408Y-33610D01*
X17240Y-33441D01*
X17019Y-33350D01*
X16781Y-33349D01*
X16560Y-33441D01*
X16391Y-33609D01*
X16300Y-33830D01*
X16299Y-34068D01*
X16391Y-34289D01*
X16559Y-34458D01*
X16780Y-34549D01*
X17018Y-34550D01*
X17239Y-34458D01*
X17408Y-34290D01*
X17499Y-34069D01*
X17500Y-33831D01*
X17500Y-34860D01*
X14870Y-34860D01*
X13911Y-33901D01*
X13949Y-33809D01*
X13950Y-33591D01*
X13866Y-33388D01*
X13711Y-33234D01*
X13509Y-33150D01*
X13291Y-33149D01*
X13088Y-33233D01*
X12934Y-33388D01*
X12850Y-33590D01*
X12849Y-33808D01*
X12933Y-34011D01*
X13088Y-34165D01*
X13169Y-34199D01*
X13088Y-34233D01*
X12934Y-34388D01*
X12850Y-34590D01*
X12849Y-34808D01*
X12933Y-35011D01*
X13088Y-35165D01*
X13169Y-35199D01*
X13088Y-35233D01*
X12934Y-35388D01*
X12850Y-35590D01*
X12849Y-35808D01*
X12933Y-36011D01*
X13088Y-36165D01*
X13169Y-36199D01*
X13088Y-36233D01*
X12934Y-36388D01*
X12850Y-36590D01*
X12849Y-36808D01*
X12858Y-36830D01*
X12450Y-37239D01*
X12450Y-29999D01*
X34500Y-29900D01*
X34500Y-43300D01*
M02*
