M48
;DRILL file {Pcbnew (2012-nov-02)-testing} date Mon 24 Dec 2012 01:34:58 PM MST
;FORMAT={-:-/ absolute / inch / decimal}
FMAT,2
INCH,TZ
T1C0.025
T2C0.032
T3C0.040
%
G90
G05
M72
T1
X0.525Y-0.925
X1.21Y-3.93
X1.25Y-4.08
X1.28Y-3.815
X1.375Y-1.5
X1.475Y-2.525
X1.55Y-1.325
X1.575Y-2.175
X1.7Y-1.175
X1.77Y-4.165
X1.825Y-1.325
X1.85Y-1.175
X1.875Y-1.5
X1.905Y-4.165
X2.1Y-1.925
X2.2Y-1.725
X2.3Y-1.125
X2.475Y-1.175
X2.55Y-1.65
X2.625Y-3.84
X2.655Y-3.62
X2.9Y-3.95
X3.15Y-1.7
T2
X0.65Y-0.9
X0.65Y-1.4
X0.65Y-1.775
X0.65Y-1.875
X0.65Y-1.975
X0.65Y-2.15
X0.65Y-2.25
X0.65Y-2.35
X0.65Y-2.525
X0.65Y-2.625
X0.65Y-2.725
X0.75Y-0.9
X0.75Y-1.4
X0.85Y-0.6
X0.85Y-0.9
X0.85Y-1.4
X0.875Y-2.475
X0.875Y-2.575
X0.875Y-2.675
X0.95Y-0.6
X0.95Y-0.9
X0.95Y-1.4
X1.025Y-1.775
X1.025Y-1.875
X1.025Y-1.975
X1.025Y-2.075
X1.025Y-2.175
X1.025Y-2.275
X1.025Y-2.375
X1.025Y-2.475
X1.025Y-2.575
X1.025Y-2.675
X1.04Y-3.27
X1.04Y-3.37
X1.04Y-3.47
X1.04Y-3.57
X1.04Y-3.67
X1.04Y-3.77
X1.04Y-3.87
X1.04Y-3.97
X1.04Y-4.07
X1.04Y-4.17
X1.05Y-0.6
X1.05Y-0.9
X1.05Y-1.4
X1.125Y-1.775
X1.125Y-1.875
X1.125Y-1.975
X1.125Y-2.075
X1.125Y-2.175
X1.125Y-2.275
X1.125Y-2.375
X1.125Y-2.475
X1.125Y-2.575
X1.125Y-2.675
X1.14Y-3.27
X1.14Y-3.37
X1.14Y-3.47
X1.14Y-3.57
X1.14Y-3.67
X1.14Y-3.77
X1.14Y-3.87
X1.14Y-3.97
X1.14Y-4.07
X1.14Y-4.17
X1.15Y-0.6
X1.15Y-0.9
X1.15Y-1.4
X1.225Y-2.325
X1.25Y-0.9
X1.25Y-1.4
X1.25Y-2.45
X1.25Y-2.6
X1.25Y-2.75
X1.34Y-3.37
X1.34Y-3.47
X1.34Y-3.57
X1.34Y-3.67
X1.34Y-3.77
X1.34Y-3.87
X1.34Y-3.97
X1.34Y-4.07
X1.35Y-0.9
X1.35Y-1.4
X1.35Y-2.45
X1.35Y-2.6
X1.35Y-2.75
X1.415Y-4.245
X1.5Y-0.9
X1.5Y-1.4
X1.515Y-4.245
X1.525Y-2.325
X1.6Y-0.9
X1.6Y-1.4
X1.615Y-4.245
X1.625Y-2.325
X1.7Y-0.6
X1.7Y-0.9
X1.7Y-1.4
X1.715Y-4.245
X1.8Y-0.6
X1.8Y-0.9
X1.8Y-1.4
X1.84Y-3.37
X1.84Y-3.47
X1.84Y-3.57
X1.84Y-3.67
X1.84Y-3.77
X1.84Y-3.87
X1.84Y-3.97
X1.84Y-4.07
X1.9Y-0.6
X1.9Y-0.9
X1.9Y-1.4
X1.925Y-2.325
X2.Y-0.6
X2.Y-0.9
X2.Y-1.4
X2.04Y-3.37
X2.04Y-3.47
X2.04Y-3.57
X2.04Y-3.67
X2.04Y-3.77
X2.04Y-3.87
X2.04Y-3.97
X2.04Y-4.07
X2.075Y-2.325
X2.1Y-0.9
X2.1Y-1.4
X2.165Y-4.245
X2.2Y-0.9
X2.2Y-1.4
X2.265Y-4.245
X2.365Y-4.245
X2.375Y-2.325
X2.4Y-0.9
X2.4Y-1.4
X2.465Y-4.245
X2.5Y-0.9
X2.5Y-1.4
X2.54Y-3.37
X2.54Y-3.47
X2.54Y-3.57
X2.54Y-3.67
X2.54Y-3.77
X2.54Y-3.87
X2.54Y-3.97
X2.54Y-4.07
X2.6Y-0.6
X2.6Y-0.9
X2.6Y-1.4
X2.7Y-0.6
X2.7Y-0.9
X2.7Y-1.4
X2.725Y-1.775
X2.725Y-1.875
X2.725Y-1.975
X2.725Y-2.075
X2.725Y-2.175
X2.725Y-2.275
X2.725Y-2.375
X2.725Y-2.475
X2.725Y-2.575
X2.725Y-2.675
X2.74Y-3.295
X2.74Y-3.395
X2.74Y-3.495
X2.74Y-3.595
X2.74Y-3.695
X2.74Y-3.795
X2.74Y-3.895
X2.74Y-3.995
X2.74Y-4.095
X2.74Y-4.195
X2.8Y-0.6
X2.8Y-0.9
X2.8Y-1.4
X2.825Y-1.775
X2.825Y-1.875
X2.825Y-1.975
X2.825Y-2.075
X2.825Y-2.175
X2.825Y-2.275
X2.825Y-2.375
X2.825Y-2.475
X2.825Y-2.575
X2.825Y-2.675
X2.84Y-3.295
X2.84Y-3.395
X2.84Y-3.495
X2.84Y-3.595
X2.84Y-3.695
X2.84Y-3.795
X2.84Y-3.895
X2.84Y-3.995
X2.84Y-4.095
X2.84Y-4.195
X2.9Y-0.6
X2.9Y-0.9
X2.9Y-1.4
X3.Y-0.9
X3.Y-1.4
X3.1Y-0.9
X3.1Y-1.4
X3.19Y-3.12
X3.19Y-3.42
X3.19Y-3.545
X3.19Y-3.845
X3.19Y-3.995
X3.19Y-4.295
X3.275Y-1.025
X3.275Y-1.125
X3.275Y-1.225
X3.275Y-1.325
X3.315Y-3.12
X3.315Y-3.22
X3.315Y-3.32
X3.315Y-3.42
X3.315Y-3.545
X3.315Y-3.645
X3.315Y-3.745
X3.315Y-3.845
X3.315Y-3.995
X3.315Y-4.095
X3.315Y-4.195
X3.315Y-4.295
T3
X1.25Y-1.05
X1.25Y-1.25
X1.275Y-2.025
X1.475Y-2.025
X1.49Y-3.395
X1.675Y-2.025
X1.69Y-3.395
X1.825Y-1.625
X1.825Y-1.725
X1.865Y-3.07
X1.865Y-3.17
X1.875Y-2.025
X1.925Y-1.625
X1.925Y-1.725
X1.965Y-3.07
X1.965Y-3.17
X2.025Y-1.625
X2.025Y-1.725
X2.065Y-3.07
X2.065Y-3.17
X2.1Y-1.05
X2.1Y-1.25
X2.125Y-2.025
X2.19Y-3.395
X2.325Y-2.025
X2.39Y-3.395
X3.05Y-1.05
X3.05Y-1.25
X3.065Y-3.17
X3.065Y-3.27
X3.065Y-3.37
X3.065Y-3.595
X3.065Y-3.695
X3.065Y-3.795
X3.065Y-4.045
X3.065Y-4.145
X3.065Y-4.245
T0
M30
