G04 (created by PCBNEW (2012-nov-02)-testing) date Mon 24 Dec 2012 01:36:53 PM MST*
%MOIN*%
G04 Gerber Fmt 3.4, Leading zero omitted, Abs format*
%FSLAX34Y34*%
G01*
G70*
G90*
G04 APERTURE LIST*
%ADD10C,0.006*%
%ADD11C,0.01*%
%ADD12C,0.012*%
%ADD13C,0.008*%
%ADD14C,0.015*%
%ADD15C,0.0107*%
%ADD16C,0.0106*%
G04 APERTURE END LIST*
G54D10*
G54D11*
X14000Y-14500D02*
X6000Y-14500D01*
X6000Y-14500D02*
X6000Y-8500D01*
X6000Y-8500D02*
X14000Y-8500D01*
X14000Y-8500D02*
X14000Y-14500D01*
X22500Y-14500D02*
X14500Y-14500D01*
X14500Y-14500D02*
X14500Y-8500D01*
X14500Y-8500D02*
X22500Y-8500D01*
X22500Y-8500D02*
X22500Y-14500D01*
X31500Y-14500D02*
X23500Y-14500D01*
X23500Y-14500D02*
X23500Y-8500D01*
X23500Y-8500D02*
X31500Y-8500D01*
X31500Y-8500D02*
X31500Y-14500D01*
G54D12*
X8000Y-5500D02*
X8000Y-5500D01*
X8000Y-6500D02*
X8000Y-5500D01*
X8000Y-5500D02*
X8000Y-5500D01*
X8000Y-5500D02*
X12000Y-5500D01*
X12000Y-5500D02*
X12000Y-6500D01*
X12000Y-6500D02*
X8000Y-6500D01*
X9000Y-6500D02*
X9000Y-5500D01*
X25500Y-5500D02*
X25500Y-5500D01*
X25500Y-6500D02*
X25500Y-5500D01*
X25500Y-5500D02*
X25500Y-5500D01*
X25500Y-5500D02*
X29500Y-5500D01*
X29500Y-5500D02*
X29500Y-6500D01*
X29500Y-6500D02*
X25500Y-6500D01*
X26500Y-6500D02*
X26500Y-5500D01*
X16500Y-5500D02*
X16500Y-5500D01*
X16500Y-6500D02*
X16500Y-5500D01*
X16500Y-5500D02*
X16500Y-5500D01*
X16500Y-5500D02*
X20500Y-5500D01*
X20500Y-5500D02*
X20500Y-6500D01*
X20500Y-6500D02*
X16500Y-6500D01*
X17500Y-6500D02*
X17500Y-5500D01*
X32250Y-11500D02*
G75*
G03X32250Y-11500I-1750J0D01*
G74*
G01*
X22750Y-11500D02*
G75*
G03X22750Y-11500I-1750J0D01*
G74*
G01*
X14250Y-11500D02*
G75*
G03X14250Y-11500I-1750J0D01*
G74*
G01*
X6000Y-24750D02*
X7000Y-24750D01*
X7000Y-24750D02*
X7000Y-27750D01*
X7000Y-27750D02*
X6000Y-27750D01*
X6000Y-27750D02*
X6000Y-24750D01*
X7000Y-25750D02*
X6000Y-25750D01*
X6000Y-21000D02*
X7000Y-21000D01*
X7000Y-21000D02*
X7000Y-24000D01*
X7000Y-24000D02*
X6000Y-24000D01*
X6000Y-24000D02*
X6000Y-21000D01*
X7000Y-22000D02*
X6000Y-22000D01*
X6000Y-17250D02*
X7000Y-17250D01*
X7000Y-17250D02*
X7000Y-20250D01*
X7000Y-20250D02*
X6000Y-20250D01*
X6000Y-20250D02*
X6000Y-17250D01*
X7000Y-18250D02*
X6000Y-18250D01*
X27750Y-27250D02*
X26750Y-27250D01*
X26750Y-27250D02*
X26750Y-17250D01*
X26750Y-17250D02*
X27750Y-17250D01*
X27750Y-17250D02*
X27750Y-27250D01*
X27750Y-26250D02*
X26750Y-26250D01*
X28750Y-27250D02*
X27750Y-27250D01*
X27750Y-27250D02*
X27750Y-17250D01*
X27750Y-17250D02*
X28750Y-17250D01*
X28750Y-17250D02*
X28750Y-27250D01*
X28750Y-26250D02*
X27750Y-26250D01*
X10750Y-27250D02*
X9750Y-27250D01*
X9750Y-27250D02*
X9750Y-17250D01*
X9750Y-17250D02*
X10750Y-17250D01*
X10750Y-17250D02*
X10750Y-27250D01*
X10750Y-26250D02*
X9750Y-26250D01*
G54D13*
X17750Y-15750D02*
X20750Y-15750D01*
X20750Y-17750D02*
X17750Y-17750D01*
X17750Y-17750D02*
X17750Y-15750D01*
X20750Y-15750D02*
X20750Y-17750D01*
G54D12*
X32250Y-13750D02*
X32250Y-13750D01*
X33250Y-13750D02*
X32250Y-13750D01*
X32250Y-13750D02*
X32250Y-13750D01*
X32250Y-13750D02*
X32250Y-9750D01*
X32250Y-9750D02*
X33250Y-9750D01*
X33250Y-9750D02*
X33250Y-13750D01*
X33250Y-12750D02*
X32250Y-12750D01*
X14000Y-24000D02*
X14000Y-25000D01*
X14000Y-25000D02*
X12000Y-25000D01*
X12000Y-25000D02*
X12000Y-24000D01*
X12000Y-24000D02*
X14000Y-24000D01*
X14000Y-25500D02*
X14000Y-26500D01*
X14000Y-26500D02*
X12000Y-26500D01*
X12000Y-26500D02*
X12000Y-25500D01*
X12000Y-25500D02*
X14000Y-25500D01*
X14000Y-27000D02*
X14000Y-28000D01*
X14000Y-28000D02*
X12000Y-28000D01*
X12000Y-28000D02*
X12000Y-27000D01*
X12000Y-27000D02*
X14000Y-27000D01*
G54D13*
X12250Y-23250D02*
X12450Y-23250D01*
X15250Y-23250D02*
X15050Y-23250D01*
X15050Y-23250D02*
X15050Y-22850D01*
X15050Y-22850D02*
X12450Y-22850D01*
X12450Y-22850D02*
X12450Y-23650D01*
X12450Y-23650D02*
X15050Y-23650D01*
X15050Y-23650D02*
X15050Y-23250D01*
X12450Y-23050D02*
X12650Y-22850D01*
X16250Y-23250D02*
X16450Y-23250D01*
X19250Y-23250D02*
X19050Y-23250D01*
X19050Y-23250D02*
X19050Y-22850D01*
X19050Y-22850D02*
X16450Y-22850D01*
X16450Y-22850D02*
X16450Y-23650D01*
X16450Y-23650D02*
X19050Y-23650D01*
X19050Y-23650D02*
X19050Y-23250D01*
X16450Y-23050D02*
X16650Y-22850D01*
X20750Y-23250D02*
X20950Y-23250D01*
X23750Y-23250D02*
X23550Y-23250D01*
X23550Y-23250D02*
X23550Y-22850D01*
X23550Y-22850D02*
X20950Y-22850D01*
X20950Y-22850D02*
X20950Y-23650D01*
X20950Y-23650D02*
X23550Y-23650D01*
X23550Y-23650D02*
X23550Y-23250D01*
X20950Y-23050D02*
X21150Y-22850D01*
G54D12*
X15500Y-20250D02*
G75*
G03X15500Y-20250I-1750J0D01*
G74*
G01*
X19500Y-20250D02*
G75*
G03X19500Y-20250I-1750J0D01*
G74*
G01*
X24000Y-20250D02*
G75*
G03X24000Y-20250I-1750J0D01*
G74*
G01*
X11750Y-27250D02*
X10750Y-27250D01*
X10750Y-27250D02*
X10750Y-17250D01*
X10750Y-17250D02*
X11750Y-17250D01*
X11750Y-17250D02*
X11750Y-27250D01*
X11750Y-26250D02*
X10750Y-26250D01*
X9250Y-27250D02*
X8250Y-27250D01*
X8250Y-27250D02*
X8250Y-24250D01*
X8250Y-24250D02*
X9250Y-24250D01*
X9250Y-24250D02*
X9250Y-27250D01*
X8250Y-26250D02*
X9250Y-26250D01*
X33650Y-30700D02*
X33650Y-30700D01*
X32650Y-30700D02*
X33650Y-30700D01*
X33650Y-30700D02*
X33650Y-30700D01*
X33650Y-30700D02*
X33650Y-34700D01*
X33650Y-34700D02*
X32650Y-34700D01*
X32650Y-34700D02*
X32650Y-30700D01*
X32650Y-31700D02*
X33650Y-31700D01*
X33650Y-34950D02*
X33650Y-34950D01*
X32650Y-34950D02*
X33650Y-34950D01*
X33650Y-34950D02*
X33650Y-34950D01*
X33650Y-34950D02*
X33650Y-38950D01*
X33650Y-38950D02*
X32650Y-38950D01*
X32650Y-38950D02*
X32650Y-34950D01*
X32650Y-35950D02*
X33650Y-35950D01*
X21150Y-41950D02*
X21150Y-41950D01*
X21150Y-42950D02*
X21150Y-41950D01*
X21150Y-41950D02*
X21150Y-41950D01*
X21150Y-41950D02*
X25150Y-41950D01*
X25150Y-41950D02*
X25150Y-42950D01*
X25150Y-42950D02*
X21150Y-42950D01*
X22150Y-42950D02*
X22150Y-41950D01*
X13650Y-41950D02*
X13650Y-41950D01*
X13650Y-42950D02*
X13650Y-41950D01*
X13650Y-41950D02*
X13650Y-41950D01*
X13650Y-41950D02*
X17650Y-41950D01*
X17650Y-41950D02*
X17650Y-42950D01*
X17650Y-42950D02*
X13650Y-42950D01*
X14650Y-42950D02*
X14650Y-41950D01*
X33650Y-39450D02*
X33650Y-39450D01*
X32650Y-39450D02*
X33650Y-39450D01*
X33650Y-39450D02*
X33650Y-39450D01*
X33650Y-39450D02*
X33650Y-43450D01*
X33650Y-43450D02*
X32650Y-43450D01*
X32650Y-43450D02*
X32650Y-39450D01*
X32650Y-40450D02*
X33650Y-40450D01*
X10900Y-42200D02*
X9900Y-42200D01*
X9900Y-42200D02*
X9900Y-32200D01*
X9900Y-32200D02*
X10900Y-32200D01*
X10900Y-32200D02*
X10900Y-42200D01*
X10900Y-41200D02*
X9900Y-41200D01*
X27900Y-42450D02*
X26900Y-42450D01*
X26900Y-42450D02*
X26900Y-32450D01*
X26900Y-32450D02*
X27900Y-32450D01*
X27900Y-32450D02*
X27900Y-42450D01*
X27900Y-41450D02*
X26900Y-41450D01*
X11900Y-42200D02*
X10900Y-42200D01*
X10900Y-42200D02*
X10900Y-32200D01*
X10900Y-32200D02*
X11900Y-32200D01*
X11900Y-32200D02*
X11900Y-42200D01*
X11900Y-41200D02*
X10900Y-41200D01*
X28900Y-42450D02*
X27900Y-42450D01*
X27900Y-42450D02*
X27900Y-32450D01*
X27900Y-32450D02*
X28900Y-32450D01*
X28900Y-32450D02*
X28900Y-42450D01*
X28900Y-41450D02*
X27900Y-41450D01*
G54D13*
X31900Y-39950D02*
X31900Y-40150D01*
X31900Y-42950D02*
X31900Y-42750D01*
X31900Y-42750D02*
X32300Y-42750D01*
X32300Y-42750D02*
X32300Y-40150D01*
X32300Y-40150D02*
X31500Y-40150D01*
X31500Y-40150D02*
X31500Y-42750D01*
X31500Y-42750D02*
X31900Y-42750D01*
X32100Y-40150D02*
X32300Y-40350D01*
X31900Y-35450D02*
X31900Y-35650D01*
X31900Y-38450D02*
X31900Y-38250D01*
X31900Y-38250D02*
X32300Y-38250D01*
X32300Y-38250D02*
X32300Y-35650D01*
X32300Y-35650D02*
X31500Y-35650D01*
X31500Y-35650D02*
X31500Y-38250D01*
X31500Y-38250D02*
X31900Y-38250D01*
X32100Y-35650D02*
X32300Y-35850D01*
X31900Y-31200D02*
X31900Y-31400D01*
X31900Y-34200D02*
X31900Y-34000D01*
X31900Y-34000D02*
X32300Y-34000D01*
X32300Y-34000D02*
X32300Y-31400D01*
X32300Y-31400D02*
X31500Y-31400D01*
X31500Y-31400D02*
X31500Y-34000D01*
X31500Y-34000D02*
X31900Y-34000D01*
X32100Y-31400D02*
X32300Y-31600D01*
X21150Y-32200D02*
X18150Y-32200D01*
X18150Y-30200D02*
X21150Y-30200D01*
X21150Y-30200D02*
X21150Y-32200D01*
X18150Y-32200D02*
X18150Y-30200D01*
G54D12*
X17650Y-33950D02*
G75*
G03X17650Y-33950I-1750J0D01*
G74*
G01*
X24650Y-33950D02*
G75*
G03X24650Y-33950I-1750J0D01*
G74*
G01*
G54D11*
X19900Y-41200D02*
X19900Y-33200D01*
X19900Y-33200D02*
X25900Y-33200D01*
X25900Y-33200D02*
X25900Y-41200D01*
X25900Y-41200D02*
X19900Y-41200D01*
X12900Y-41200D02*
X12900Y-33200D01*
X12900Y-33200D02*
X18900Y-33200D01*
X18900Y-33200D02*
X18900Y-41200D01*
X18900Y-41200D02*
X12900Y-41200D01*
G54D14*
X31400Y-39450D02*
X31650Y-39450D01*
X31650Y-39450D02*
X31650Y-43450D01*
X31650Y-43450D02*
X31400Y-43450D01*
X29900Y-39450D02*
X31400Y-39450D01*
X31400Y-39450D02*
X31400Y-43450D01*
X31400Y-43450D02*
X29900Y-43450D01*
X29900Y-43450D02*
X29900Y-39450D01*
X31400Y-34950D02*
X31650Y-34950D01*
X31650Y-34950D02*
X31650Y-38950D01*
X31650Y-38950D02*
X31400Y-38950D01*
X29900Y-34950D02*
X31400Y-34950D01*
X31400Y-34950D02*
X31400Y-38950D01*
X31400Y-38950D02*
X29900Y-38950D01*
X29900Y-38950D02*
X29900Y-34950D01*
X31400Y-30700D02*
X31650Y-30700D01*
X31650Y-30700D02*
X31650Y-34700D01*
X31650Y-34700D02*
X31400Y-34700D01*
X29900Y-30700D02*
X31400Y-30700D01*
X31400Y-30700D02*
X31400Y-34700D01*
X31400Y-34700D02*
X29900Y-34700D01*
X29900Y-34700D02*
X29900Y-30700D01*
G54D12*
X9542Y-10702D02*
X9542Y-11107D01*
X9571Y-11154D01*
X9600Y-11178D01*
X9657Y-11202D01*
X9771Y-11202D01*
X9828Y-11178D01*
X9857Y-11154D01*
X9885Y-11107D01*
X9885Y-10702D01*
X10114Y-10702D02*
X10485Y-10702D01*
X10285Y-10892D01*
X10371Y-10892D01*
X10428Y-10916D01*
X10457Y-10940D01*
X10485Y-10988D01*
X10485Y-11107D01*
X10457Y-11154D01*
X10428Y-11178D01*
X10371Y-11202D01*
X10200Y-11202D01*
X10142Y-11178D01*
X10114Y-11154D01*
X6785Y-12202D02*
X6785Y-11702D01*
X7014Y-11702D01*
X7071Y-11726D01*
X7100Y-11750D01*
X7128Y-11797D01*
X7128Y-11869D01*
X7100Y-11916D01*
X7071Y-11940D01*
X7014Y-11964D01*
X6785Y-11964D01*
X7500Y-11702D02*
X7614Y-11702D01*
X7671Y-11726D01*
X7728Y-11773D01*
X7757Y-11869D01*
X7757Y-12035D01*
X7728Y-12130D01*
X7671Y-12178D01*
X7614Y-12202D01*
X7500Y-12202D01*
X7442Y-12178D01*
X7385Y-12130D01*
X7357Y-12035D01*
X7357Y-11869D01*
X7385Y-11773D01*
X7442Y-11726D01*
X7500Y-11702D01*
X8299Y-12202D02*
X8014Y-12202D01*
X8014Y-11702D01*
X8614Y-11702D02*
X8728Y-11702D01*
X8785Y-11726D01*
X8842Y-11773D01*
X8871Y-11869D01*
X8871Y-12035D01*
X8842Y-12130D01*
X8785Y-12178D01*
X8728Y-12202D01*
X8614Y-12202D01*
X8557Y-12178D01*
X8499Y-12130D01*
X8471Y-12035D01*
X8471Y-11869D01*
X8499Y-11773D01*
X8557Y-11726D01*
X8614Y-11702D01*
X9414Y-12202D02*
X9128Y-12202D01*
X9128Y-11702D01*
X9614Y-11702D02*
X9614Y-12107D01*
X9642Y-12154D01*
X9671Y-12178D01*
X9728Y-12202D01*
X9842Y-12202D01*
X9899Y-12178D01*
X9928Y-12154D01*
X9957Y-12107D01*
X9957Y-11702D01*
X10099Y-12250D02*
X10557Y-12250D01*
X10671Y-12059D02*
X10957Y-12059D01*
X10614Y-12202D02*
X10814Y-11702D01*
X11014Y-12202D01*
X11471Y-11869D02*
X11471Y-12202D01*
X11328Y-11678D02*
X11185Y-12035D01*
X11557Y-12035D01*
X11814Y-12202D02*
X11928Y-12202D01*
X11985Y-12178D01*
X12014Y-12154D01*
X12071Y-12083D01*
X12099Y-11988D01*
X12099Y-11797D01*
X12071Y-11750D01*
X12042Y-11726D01*
X11985Y-11702D01*
X11871Y-11702D01*
X11814Y-11726D01*
X11785Y-11750D01*
X11757Y-11797D01*
X11757Y-11916D01*
X11785Y-11964D01*
X11814Y-11988D01*
X11871Y-12011D01*
X11985Y-12011D01*
X12042Y-11988D01*
X12071Y-11964D01*
X12099Y-11916D01*
X12442Y-11916D02*
X12385Y-11892D01*
X12357Y-11869D01*
X12328Y-11821D01*
X12328Y-11797D01*
X12357Y-11750D01*
X12385Y-11726D01*
X12442Y-11702D01*
X12557Y-11702D01*
X12614Y-11726D01*
X12642Y-11750D01*
X12671Y-11797D01*
X12671Y-11821D01*
X12642Y-11869D01*
X12614Y-11892D01*
X12557Y-11916D01*
X12442Y-11916D01*
X12385Y-11940D01*
X12357Y-11964D01*
X12328Y-12011D01*
X12328Y-12107D01*
X12357Y-12154D01*
X12385Y-12178D01*
X12442Y-12202D01*
X12557Y-12202D01*
X12614Y-12178D01*
X12642Y-12154D01*
X12671Y-12107D01*
X12671Y-12011D01*
X12642Y-11964D01*
X12614Y-11940D01*
X12557Y-11916D01*
X13014Y-11916D02*
X12957Y-11892D01*
X12928Y-11869D01*
X12900Y-11821D01*
X12900Y-11797D01*
X12928Y-11750D01*
X12957Y-11726D01*
X13014Y-11702D01*
X13128Y-11702D01*
X13185Y-11726D01*
X13214Y-11750D01*
X13242Y-11797D01*
X13242Y-11821D01*
X13214Y-11869D01*
X13185Y-11892D01*
X13128Y-11916D01*
X13014Y-11916D01*
X12957Y-11940D01*
X12928Y-11964D01*
X12900Y-12011D01*
X12900Y-12107D01*
X12928Y-12154D01*
X12957Y-12178D01*
X13014Y-12202D01*
X13128Y-12202D01*
X13185Y-12178D01*
X13214Y-12154D01*
X13242Y-12107D01*
X13242Y-12011D01*
X13214Y-11964D01*
X13185Y-11940D01*
X13128Y-11916D01*
X18042Y-10702D02*
X18042Y-11107D01*
X18071Y-11154D01*
X18100Y-11178D01*
X18157Y-11202D01*
X18271Y-11202D01*
X18328Y-11178D01*
X18357Y-11154D01*
X18385Y-11107D01*
X18385Y-10702D01*
X18642Y-10750D02*
X18671Y-10726D01*
X18728Y-10702D01*
X18871Y-10702D01*
X18928Y-10726D01*
X18957Y-10750D01*
X18985Y-10797D01*
X18985Y-10845D01*
X18957Y-10916D01*
X18614Y-11202D01*
X18985Y-11202D01*
X15285Y-12202D02*
X15285Y-11702D01*
X15514Y-11702D01*
X15571Y-11726D01*
X15600Y-11750D01*
X15628Y-11797D01*
X15628Y-11869D01*
X15600Y-11916D01*
X15571Y-11940D01*
X15514Y-11964D01*
X15285Y-11964D01*
X16000Y-11702D02*
X16114Y-11702D01*
X16171Y-11726D01*
X16228Y-11773D01*
X16257Y-11869D01*
X16257Y-12035D01*
X16228Y-12130D01*
X16171Y-12178D01*
X16114Y-12202D01*
X16000Y-12202D01*
X15942Y-12178D01*
X15885Y-12130D01*
X15857Y-12035D01*
X15857Y-11869D01*
X15885Y-11773D01*
X15942Y-11726D01*
X16000Y-11702D01*
X16799Y-12202D02*
X16514Y-12202D01*
X16514Y-11702D01*
X17114Y-11702D02*
X17228Y-11702D01*
X17285Y-11726D01*
X17342Y-11773D01*
X17371Y-11869D01*
X17371Y-12035D01*
X17342Y-12130D01*
X17285Y-12178D01*
X17228Y-12202D01*
X17114Y-12202D01*
X17057Y-12178D01*
X16999Y-12130D01*
X16971Y-12035D01*
X16971Y-11869D01*
X16999Y-11773D01*
X17057Y-11726D01*
X17114Y-11702D01*
X17914Y-12202D02*
X17628Y-12202D01*
X17628Y-11702D01*
X18114Y-11702D02*
X18114Y-12107D01*
X18142Y-12154D01*
X18171Y-12178D01*
X18228Y-12202D01*
X18342Y-12202D01*
X18399Y-12178D01*
X18428Y-12154D01*
X18457Y-12107D01*
X18457Y-11702D01*
X18599Y-12250D02*
X19057Y-12250D01*
X19171Y-12059D02*
X19457Y-12059D01*
X19114Y-12202D02*
X19314Y-11702D01*
X19514Y-12202D01*
X19971Y-11869D02*
X19971Y-12202D01*
X19828Y-11678D02*
X19685Y-12035D01*
X20057Y-12035D01*
X20314Y-12202D02*
X20428Y-12202D01*
X20485Y-12178D01*
X20514Y-12154D01*
X20571Y-12083D01*
X20599Y-11988D01*
X20599Y-11797D01*
X20571Y-11750D01*
X20542Y-11726D01*
X20485Y-11702D01*
X20371Y-11702D01*
X20314Y-11726D01*
X20285Y-11750D01*
X20257Y-11797D01*
X20257Y-11916D01*
X20285Y-11964D01*
X20314Y-11988D01*
X20371Y-12011D01*
X20485Y-12011D01*
X20542Y-11988D01*
X20571Y-11964D01*
X20599Y-11916D01*
X20942Y-11916D02*
X20885Y-11892D01*
X20857Y-11869D01*
X20828Y-11821D01*
X20828Y-11797D01*
X20857Y-11750D01*
X20885Y-11726D01*
X20942Y-11702D01*
X21057Y-11702D01*
X21114Y-11726D01*
X21142Y-11750D01*
X21171Y-11797D01*
X21171Y-11821D01*
X21142Y-11869D01*
X21114Y-11892D01*
X21057Y-11916D01*
X20942Y-11916D01*
X20885Y-11940D01*
X20857Y-11964D01*
X20828Y-12011D01*
X20828Y-12107D01*
X20857Y-12154D01*
X20885Y-12178D01*
X20942Y-12202D01*
X21057Y-12202D01*
X21114Y-12178D01*
X21142Y-12154D01*
X21171Y-12107D01*
X21171Y-12011D01*
X21142Y-11964D01*
X21114Y-11940D01*
X21057Y-11916D01*
X21514Y-11916D02*
X21457Y-11892D01*
X21428Y-11869D01*
X21400Y-11821D01*
X21400Y-11797D01*
X21428Y-11750D01*
X21457Y-11726D01*
X21514Y-11702D01*
X21628Y-11702D01*
X21685Y-11726D01*
X21714Y-11750D01*
X21742Y-11797D01*
X21742Y-11821D01*
X21714Y-11869D01*
X21685Y-11892D01*
X21628Y-11916D01*
X21514Y-11916D01*
X21457Y-11940D01*
X21428Y-11964D01*
X21400Y-12011D01*
X21400Y-12107D01*
X21428Y-12154D01*
X21457Y-12178D01*
X21514Y-12202D01*
X21628Y-12202D01*
X21685Y-12178D01*
X21714Y-12154D01*
X21742Y-12107D01*
X21742Y-12011D01*
X21714Y-11964D01*
X21685Y-11940D01*
X21628Y-11916D01*
X27042Y-10702D02*
X27042Y-11107D01*
X27071Y-11154D01*
X27100Y-11178D01*
X27157Y-11202D01*
X27271Y-11202D01*
X27328Y-11178D01*
X27357Y-11154D01*
X27385Y-11107D01*
X27385Y-10702D01*
X27985Y-11202D02*
X27642Y-11202D01*
X27814Y-11202D02*
X27814Y-10702D01*
X27757Y-10773D01*
X27700Y-10821D01*
X27642Y-10845D01*
X24285Y-12202D02*
X24285Y-11702D01*
X24514Y-11702D01*
X24571Y-11726D01*
X24600Y-11750D01*
X24628Y-11797D01*
X24628Y-11869D01*
X24600Y-11916D01*
X24571Y-11940D01*
X24514Y-11964D01*
X24285Y-11964D01*
X25000Y-11702D02*
X25114Y-11702D01*
X25171Y-11726D01*
X25228Y-11773D01*
X25257Y-11869D01*
X25257Y-12035D01*
X25228Y-12130D01*
X25171Y-12178D01*
X25114Y-12202D01*
X25000Y-12202D01*
X24942Y-12178D01*
X24885Y-12130D01*
X24857Y-12035D01*
X24857Y-11869D01*
X24885Y-11773D01*
X24942Y-11726D01*
X25000Y-11702D01*
X25799Y-12202D02*
X25514Y-12202D01*
X25514Y-11702D01*
X26114Y-11702D02*
X26228Y-11702D01*
X26285Y-11726D01*
X26342Y-11773D01*
X26371Y-11869D01*
X26371Y-12035D01*
X26342Y-12130D01*
X26285Y-12178D01*
X26228Y-12202D01*
X26114Y-12202D01*
X26057Y-12178D01*
X25999Y-12130D01*
X25971Y-12035D01*
X25971Y-11869D01*
X25999Y-11773D01*
X26057Y-11726D01*
X26114Y-11702D01*
X26914Y-12202D02*
X26628Y-12202D01*
X26628Y-11702D01*
X27114Y-11702D02*
X27114Y-12107D01*
X27142Y-12154D01*
X27171Y-12178D01*
X27228Y-12202D01*
X27342Y-12202D01*
X27399Y-12178D01*
X27428Y-12154D01*
X27457Y-12107D01*
X27457Y-11702D01*
X27599Y-12250D02*
X28057Y-12250D01*
X28171Y-12059D02*
X28457Y-12059D01*
X28114Y-12202D02*
X28314Y-11702D01*
X28514Y-12202D01*
X28971Y-11869D02*
X28971Y-12202D01*
X28828Y-11678D02*
X28685Y-12035D01*
X29057Y-12035D01*
X29314Y-12202D02*
X29428Y-12202D01*
X29485Y-12178D01*
X29514Y-12154D01*
X29571Y-12083D01*
X29599Y-11988D01*
X29599Y-11797D01*
X29571Y-11750D01*
X29542Y-11726D01*
X29485Y-11702D01*
X29371Y-11702D01*
X29314Y-11726D01*
X29285Y-11750D01*
X29257Y-11797D01*
X29257Y-11916D01*
X29285Y-11964D01*
X29314Y-11988D01*
X29371Y-12011D01*
X29485Y-12011D01*
X29542Y-11988D01*
X29571Y-11964D01*
X29599Y-11916D01*
X29942Y-11916D02*
X29885Y-11892D01*
X29857Y-11869D01*
X29828Y-11821D01*
X29828Y-11797D01*
X29857Y-11750D01*
X29885Y-11726D01*
X29942Y-11702D01*
X30057Y-11702D01*
X30114Y-11726D01*
X30142Y-11750D01*
X30171Y-11797D01*
X30171Y-11821D01*
X30142Y-11869D01*
X30114Y-11892D01*
X30057Y-11916D01*
X29942Y-11916D01*
X29885Y-11940D01*
X29857Y-11964D01*
X29828Y-12011D01*
X29828Y-12107D01*
X29857Y-12154D01*
X29885Y-12178D01*
X29942Y-12202D01*
X30057Y-12202D01*
X30114Y-12178D01*
X30142Y-12154D01*
X30171Y-12107D01*
X30171Y-12011D01*
X30142Y-11964D01*
X30114Y-11940D01*
X30057Y-11916D01*
X30514Y-11916D02*
X30457Y-11892D01*
X30428Y-11869D01*
X30400Y-11821D01*
X30400Y-11797D01*
X30428Y-11750D01*
X30457Y-11726D01*
X30514Y-11702D01*
X30628Y-11702D01*
X30685Y-11726D01*
X30714Y-11750D01*
X30742Y-11797D01*
X30742Y-11821D01*
X30714Y-11869D01*
X30685Y-11892D01*
X30628Y-11916D01*
X30514Y-11916D01*
X30457Y-11940D01*
X30428Y-11964D01*
X30400Y-12011D01*
X30400Y-12107D01*
X30428Y-12154D01*
X30457Y-12178D01*
X30514Y-12202D01*
X30628Y-12202D01*
X30685Y-12178D01*
X30714Y-12154D01*
X30742Y-12107D01*
X30742Y-12011D01*
X30714Y-11964D01*
X30685Y-11940D01*
X30628Y-11916D01*
G54D15*
X9684Y-5276D02*
X9684Y-4593D01*
X9847Y-4593D01*
X9887Y-4625D01*
X9908Y-4658D01*
X9928Y-4723D01*
X9928Y-4821D01*
X9908Y-4886D01*
X9887Y-4918D01*
X9847Y-4951D01*
X9684Y-4951D01*
X10071Y-4593D02*
X10336Y-4593D01*
X10193Y-4853D01*
X10254Y-4853D01*
X10295Y-4886D01*
X10315Y-4918D01*
X10336Y-4983D01*
X10336Y-5146D01*
X10315Y-5211D01*
X10295Y-5243D01*
X10254Y-5276D01*
X10132Y-5276D01*
X10091Y-5243D01*
X10071Y-5211D01*
G54D12*
G54D15*
X27184Y-5276D02*
X27184Y-4593D01*
X27347Y-4593D01*
X27387Y-4625D01*
X27408Y-4658D01*
X27428Y-4723D01*
X27428Y-4821D01*
X27408Y-4886D01*
X27387Y-4918D01*
X27347Y-4951D01*
X27184Y-4951D01*
X27836Y-5276D02*
X27591Y-5276D01*
X27714Y-5276D02*
X27714Y-4593D01*
X27673Y-4691D01*
X27632Y-4756D01*
X27591Y-4788D01*
G54D12*
G54D15*
X18184Y-5276D02*
X18184Y-4593D01*
X18347Y-4593D01*
X18387Y-4625D01*
X18408Y-4658D01*
X18428Y-4723D01*
X18428Y-4821D01*
X18408Y-4886D01*
X18387Y-4918D01*
X18347Y-4951D01*
X18184Y-4951D01*
X18591Y-4658D02*
X18612Y-4625D01*
X18652Y-4593D01*
X18754Y-4593D01*
X18795Y-4625D01*
X18815Y-4658D01*
X18836Y-4723D01*
X18836Y-4788D01*
X18815Y-4886D01*
X18571Y-5276D01*
X18836Y-5276D01*
G54D12*
G54D13*
X31623Y-11566D02*
X31642Y-11585D01*
X31661Y-11642D01*
X31661Y-11680D01*
X31642Y-11738D01*
X31604Y-11776D01*
X31566Y-11795D01*
X31490Y-11814D01*
X31433Y-11814D01*
X31357Y-11795D01*
X31319Y-11776D01*
X31280Y-11738D01*
X31261Y-11680D01*
X31261Y-11642D01*
X31280Y-11585D01*
X31300Y-11566D01*
X31300Y-11414D02*
X31280Y-11395D01*
X31261Y-11357D01*
X31261Y-11261D01*
X31280Y-11223D01*
X31300Y-11204D01*
X31338Y-11185D01*
X31376Y-11185D01*
X31433Y-11204D01*
X31661Y-11433D01*
X31661Y-11185D01*
X29623Y-11766D02*
X29642Y-11785D01*
X29661Y-11842D01*
X29661Y-11880D01*
X29642Y-11938D01*
X29604Y-11976D01*
X29566Y-11995D01*
X29490Y-12014D01*
X29433Y-12014D01*
X29357Y-11995D01*
X29319Y-11976D01*
X29280Y-11938D01*
X29261Y-11880D01*
X29261Y-11842D01*
X29280Y-11785D01*
X29300Y-11766D01*
X29661Y-11595D02*
X29261Y-11595D01*
X29261Y-11442D01*
X29280Y-11404D01*
X29300Y-11385D01*
X29338Y-11366D01*
X29395Y-11366D01*
X29433Y-11385D01*
X29452Y-11404D01*
X29471Y-11442D01*
X29471Y-11595D01*
X29661Y-10985D02*
X29661Y-11214D01*
X29661Y-11099D02*
X29261Y-11099D01*
X29319Y-11138D01*
X29357Y-11176D01*
X29376Y-11214D01*
X22123Y-11566D02*
X22142Y-11585D01*
X22161Y-11642D01*
X22161Y-11680D01*
X22142Y-11738D01*
X22104Y-11776D01*
X22066Y-11795D01*
X21990Y-11814D01*
X21933Y-11814D01*
X21857Y-11795D01*
X21819Y-11776D01*
X21780Y-11738D01*
X21761Y-11680D01*
X21761Y-11642D01*
X21780Y-11585D01*
X21800Y-11566D01*
X21761Y-11433D02*
X21761Y-11185D01*
X21914Y-11319D01*
X21914Y-11261D01*
X21933Y-11223D01*
X21952Y-11204D01*
X21990Y-11185D01*
X22085Y-11185D01*
X22123Y-11204D01*
X22142Y-11223D01*
X22161Y-11261D01*
X22161Y-11376D01*
X22142Y-11414D01*
X22123Y-11433D01*
X20123Y-11766D02*
X20142Y-11785D01*
X20161Y-11842D01*
X20161Y-11880D01*
X20142Y-11938D01*
X20104Y-11976D01*
X20066Y-11995D01*
X19990Y-12014D01*
X19933Y-12014D01*
X19857Y-11995D01*
X19819Y-11976D01*
X19780Y-11938D01*
X19761Y-11880D01*
X19761Y-11842D01*
X19780Y-11785D01*
X19800Y-11766D01*
X20161Y-11595D02*
X19761Y-11595D01*
X19761Y-11442D01*
X19780Y-11404D01*
X19800Y-11385D01*
X19838Y-11366D01*
X19895Y-11366D01*
X19933Y-11385D01*
X19952Y-11404D01*
X19971Y-11442D01*
X19971Y-11595D01*
X20161Y-10985D02*
X20161Y-11214D01*
X20161Y-11099D02*
X19761Y-11099D01*
X19819Y-11138D01*
X19857Y-11176D01*
X19876Y-11214D01*
X13433Y-11623D02*
X13414Y-11642D01*
X13357Y-11661D01*
X13319Y-11661D01*
X13261Y-11642D01*
X13223Y-11604D01*
X13204Y-11566D01*
X13185Y-11490D01*
X13185Y-11433D01*
X13204Y-11357D01*
X13223Y-11319D01*
X13261Y-11280D01*
X13319Y-11261D01*
X13357Y-11261D01*
X13414Y-11280D01*
X13433Y-11300D01*
X13814Y-11661D02*
X13585Y-11661D01*
X13700Y-11661D02*
X13700Y-11261D01*
X13661Y-11319D01*
X13623Y-11357D01*
X13585Y-11376D01*
X11623Y-11766D02*
X11642Y-11785D01*
X11661Y-11842D01*
X11661Y-11880D01*
X11642Y-11938D01*
X11604Y-11976D01*
X11566Y-11995D01*
X11490Y-12014D01*
X11433Y-12014D01*
X11357Y-11995D01*
X11319Y-11976D01*
X11280Y-11938D01*
X11261Y-11880D01*
X11261Y-11842D01*
X11280Y-11785D01*
X11300Y-11766D01*
X11661Y-11595D02*
X11261Y-11595D01*
X11261Y-11442D01*
X11280Y-11404D01*
X11300Y-11385D01*
X11338Y-11366D01*
X11395Y-11366D01*
X11433Y-11385D01*
X11452Y-11404D01*
X11471Y-11442D01*
X11471Y-11595D01*
X11661Y-10985D02*
X11661Y-11214D01*
X11661Y-11099D02*
X11261Y-11099D01*
X11319Y-11138D01*
X11357Y-11176D01*
X11376Y-11214D01*
G54D16*
X7785Y-26562D02*
X7080Y-26562D01*
X7785Y-26320D02*
X7382Y-26502D01*
X7080Y-26320D02*
X7483Y-26562D01*
X7785Y-25916D02*
X7785Y-26159D01*
X7785Y-26038D02*
X7080Y-26038D01*
X7181Y-26078D01*
X7248Y-26118D01*
X7281Y-26159D01*
G54D12*
G54D16*
X7785Y-22812D02*
X7080Y-22812D01*
X7785Y-22570D02*
X7382Y-22752D01*
X7080Y-22570D02*
X7483Y-22812D01*
X7147Y-22409D02*
X7113Y-22388D01*
X7080Y-22348D01*
X7080Y-22247D01*
X7113Y-22207D01*
X7147Y-22187D01*
X7214Y-22166D01*
X7281Y-22166D01*
X7382Y-22187D01*
X7785Y-22429D01*
X7785Y-22166D01*
G54D12*
G54D16*
X7785Y-19062D02*
X7080Y-19062D01*
X7785Y-18820D02*
X7382Y-19002D01*
X7080Y-18820D02*
X7483Y-19062D01*
X7080Y-18679D02*
X7080Y-18416D01*
X7348Y-18558D01*
X7348Y-18497D01*
X7382Y-18457D01*
X7416Y-18437D01*
X7483Y-18416D01*
X7651Y-18416D01*
X7718Y-18437D01*
X7751Y-18457D01*
X7785Y-18497D01*
X7785Y-18618D01*
X7751Y-18659D01*
X7718Y-18679D01*
G54D12*
G54D15*
X25844Y-24892D02*
X26331Y-24892D01*
X26428Y-24913D01*
X26493Y-24953D01*
X26525Y-25014D01*
X26525Y-25055D01*
X26071Y-24505D02*
X26525Y-24505D01*
X25812Y-24607D02*
X26298Y-24709D01*
X26298Y-24444D01*
G54D12*
G54D11*
X25892Y-22483D02*
X25892Y-22254D01*
X26492Y-22369D02*
X25892Y-22369D01*
X26492Y-22121D02*
X25892Y-22121D01*
X26550Y-22026D02*
X26550Y-21721D01*
X26178Y-21492D02*
X26207Y-21435D01*
X26235Y-21416D01*
X26292Y-21397D01*
X26378Y-21397D01*
X26435Y-21416D01*
X26464Y-21435D01*
X26492Y-21473D01*
X26492Y-21626D01*
X25892Y-21626D01*
X25892Y-21492D01*
X25921Y-21454D01*
X25950Y-21435D01*
X26007Y-21416D01*
X26064Y-21416D01*
X26121Y-21435D01*
X26150Y-21454D01*
X26178Y-21492D01*
X26178Y-21626D01*
X25892Y-21149D02*
X25892Y-21073D01*
X25921Y-21035D01*
X25978Y-20997D01*
X26092Y-20978D01*
X26292Y-20978D01*
X26407Y-20997D01*
X26464Y-21035D01*
X26492Y-21073D01*
X26492Y-21149D01*
X26464Y-21188D01*
X26407Y-21226D01*
X26292Y-21245D01*
X26092Y-21245D01*
X25978Y-21226D01*
X25921Y-21188D01*
X25892Y-21149D01*
X25892Y-20730D02*
X25892Y-20654D01*
X25921Y-20616D01*
X25978Y-20578D01*
X26092Y-20559D01*
X26292Y-20559D01*
X26407Y-20578D01*
X26464Y-20616D01*
X26492Y-20654D01*
X26492Y-20730D01*
X26464Y-20769D01*
X26407Y-20807D01*
X26292Y-20826D01*
X26092Y-20826D01*
X25978Y-20807D01*
X25921Y-20769D01*
X25892Y-20730D01*
X26464Y-20407D02*
X26492Y-20349D01*
X26492Y-20254D01*
X26464Y-20216D01*
X26435Y-20197D01*
X26378Y-20178D01*
X26321Y-20178D01*
X26264Y-20197D01*
X26235Y-20216D01*
X26207Y-20254D01*
X26178Y-20330D01*
X26150Y-20369D01*
X26121Y-20388D01*
X26064Y-20407D01*
X26007Y-20407D01*
X25950Y-20388D01*
X25921Y-20369D01*
X25892Y-20330D01*
X25892Y-20235D01*
X25921Y-20178D01*
X25892Y-20064D02*
X25892Y-19835D01*
X26492Y-19949D02*
X25892Y-19949D01*
X26178Y-19702D02*
X26178Y-19569D01*
X26492Y-19511D02*
X26492Y-19702D01*
X25892Y-19702D01*
X25892Y-19511D01*
X26492Y-19111D02*
X26207Y-19245D01*
X26492Y-19340D02*
X25892Y-19340D01*
X25892Y-19188D01*
X25921Y-19150D01*
X25950Y-19130D01*
X26007Y-19111D01*
X26092Y-19111D01*
X26150Y-19130D01*
X26178Y-19150D01*
X26207Y-19188D01*
X26207Y-19340D01*
X26550Y-19035D02*
X26550Y-18730D01*
X26092Y-18464D02*
X26492Y-18464D01*
X25864Y-18559D02*
X26292Y-18654D01*
X26292Y-18407D01*
X25892Y-18178D02*
X25892Y-18140D01*
X25921Y-18102D01*
X25950Y-18083D01*
X26007Y-18064D01*
X26121Y-18045D01*
X26264Y-18045D01*
X26378Y-18064D01*
X26435Y-18083D01*
X26464Y-18102D01*
X26492Y-18140D01*
X26492Y-18178D01*
X26464Y-18216D01*
X26435Y-18235D01*
X26378Y-18254D01*
X26264Y-18273D01*
X26121Y-18273D01*
X26007Y-18254D01*
X25950Y-18235D01*
X25921Y-18216D01*
X25892Y-18178D01*
X26550Y-17969D02*
X26550Y-17664D01*
X25892Y-17454D02*
X26321Y-17454D01*
X26407Y-17473D01*
X26464Y-17511D01*
X26492Y-17569D01*
X26492Y-17607D01*
X25892Y-17302D02*
X25892Y-17054D01*
X26121Y-17188D01*
X26121Y-17130D01*
X26150Y-17092D01*
X26178Y-17073D01*
X26235Y-17054D01*
X26378Y-17054D01*
X26435Y-17073D01*
X26464Y-17092D01*
X26492Y-17130D01*
X26492Y-17245D01*
X26464Y-17283D01*
X26435Y-17302D01*
G54D12*
G54D15*
X26844Y-24892D02*
X27331Y-24892D01*
X27428Y-24913D01*
X27493Y-24953D01*
X27525Y-25014D01*
X27525Y-25055D01*
X26844Y-24729D02*
X26844Y-24464D01*
X27104Y-24607D01*
X27104Y-24546D01*
X27136Y-24505D01*
X27168Y-24485D01*
X27233Y-24464D01*
X27395Y-24464D01*
X27460Y-24485D01*
X27493Y-24505D01*
X27525Y-24546D01*
X27525Y-24668D01*
X27493Y-24709D01*
X27460Y-24729D01*
G54D12*
G54D11*
X26892Y-22483D02*
X26892Y-22254D01*
X27492Y-22369D02*
X26892Y-22369D01*
X27492Y-22121D02*
X26892Y-22121D01*
X27550Y-22026D02*
X27550Y-21721D01*
X27178Y-21492D02*
X27207Y-21435D01*
X27235Y-21416D01*
X27292Y-21397D01*
X27378Y-21397D01*
X27435Y-21416D01*
X27464Y-21435D01*
X27492Y-21473D01*
X27492Y-21626D01*
X26892Y-21626D01*
X26892Y-21492D01*
X26921Y-21454D01*
X26950Y-21435D01*
X27007Y-21416D01*
X27064Y-21416D01*
X27121Y-21435D01*
X27150Y-21454D01*
X27178Y-21492D01*
X27178Y-21626D01*
X26892Y-21149D02*
X26892Y-21073D01*
X26921Y-21035D01*
X26978Y-20997D01*
X27092Y-20978D01*
X27292Y-20978D01*
X27407Y-20997D01*
X27464Y-21035D01*
X27492Y-21073D01*
X27492Y-21149D01*
X27464Y-21188D01*
X27407Y-21226D01*
X27292Y-21245D01*
X27092Y-21245D01*
X26978Y-21226D01*
X26921Y-21188D01*
X26892Y-21149D01*
X26892Y-20730D02*
X26892Y-20654D01*
X26921Y-20616D01*
X26978Y-20578D01*
X27092Y-20559D01*
X27292Y-20559D01*
X27407Y-20578D01*
X27464Y-20616D01*
X27492Y-20654D01*
X27492Y-20730D01*
X27464Y-20769D01*
X27407Y-20807D01*
X27292Y-20826D01*
X27092Y-20826D01*
X26978Y-20807D01*
X26921Y-20769D01*
X26892Y-20730D01*
X27464Y-20407D02*
X27492Y-20349D01*
X27492Y-20254D01*
X27464Y-20216D01*
X27435Y-20197D01*
X27378Y-20178D01*
X27321Y-20178D01*
X27264Y-20197D01*
X27235Y-20216D01*
X27207Y-20254D01*
X27178Y-20330D01*
X27150Y-20369D01*
X27121Y-20388D01*
X27064Y-20407D01*
X27007Y-20407D01*
X26950Y-20388D01*
X26921Y-20369D01*
X26892Y-20330D01*
X26892Y-20235D01*
X26921Y-20178D01*
X26892Y-20064D02*
X26892Y-19835D01*
X27492Y-19949D02*
X26892Y-19949D01*
X27178Y-19702D02*
X27178Y-19569D01*
X27492Y-19511D02*
X27492Y-19702D01*
X26892Y-19702D01*
X26892Y-19511D01*
X27492Y-19111D02*
X27207Y-19245D01*
X27492Y-19340D02*
X26892Y-19340D01*
X26892Y-19188D01*
X26921Y-19150D01*
X26950Y-19130D01*
X27007Y-19111D01*
X27092Y-19111D01*
X27150Y-19130D01*
X27178Y-19150D01*
X27207Y-19188D01*
X27207Y-19340D01*
X27550Y-19035D02*
X27550Y-18730D01*
X27092Y-18464D02*
X27492Y-18464D01*
X26864Y-18559D02*
X27292Y-18654D01*
X27292Y-18407D01*
X26892Y-18178D02*
X26892Y-18140D01*
X26921Y-18102D01*
X26950Y-18083D01*
X27007Y-18064D01*
X27121Y-18045D01*
X27264Y-18045D01*
X27378Y-18064D01*
X27435Y-18083D01*
X27464Y-18102D01*
X27492Y-18140D01*
X27492Y-18178D01*
X27464Y-18216D01*
X27435Y-18235D01*
X27378Y-18254D01*
X27264Y-18273D01*
X27121Y-18273D01*
X27007Y-18254D01*
X26950Y-18235D01*
X26921Y-18216D01*
X26892Y-18178D01*
X27550Y-17969D02*
X27550Y-17664D01*
X26892Y-17454D02*
X27321Y-17454D01*
X27407Y-17473D01*
X27464Y-17511D01*
X27492Y-17569D01*
X27492Y-17607D01*
X26950Y-17283D02*
X26921Y-17264D01*
X26892Y-17226D01*
X26892Y-17130D01*
X26921Y-17092D01*
X26950Y-17073D01*
X27007Y-17054D01*
X27064Y-17054D01*
X27150Y-17073D01*
X27492Y-17302D01*
X27492Y-17054D01*
G54D12*
G54D15*
X8844Y-24892D02*
X9331Y-24892D01*
X9428Y-24913D01*
X9493Y-24953D01*
X9525Y-25014D01*
X9525Y-25055D01*
X8909Y-24709D02*
X8877Y-24688D01*
X8844Y-24648D01*
X8844Y-24546D01*
X8877Y-24505D01*
X8909Y-24485D01*
X8974Y-24464D01*
X9039Y-24464D01*
X9136Y-24485D01*
X9525Y-24729D01*
X9525Y-24464D01*
G54D12*
G54D11*
X8892Y-22483D02*
X8892Y-22254D01*
X9492Y-22369D02*
X8892Y-22369D01*
X9492Y-22121D02*
X8892Y-22121D01*
X9550Y-22026D02*
X9550Y-21721D01*
X9178Y-21492D02*
X9207Y-21435D01*
X9235Y-21416D01*
X9292Y-21397D01*
X9378Y-21397D01*
X9435Y-21416D01*
X9464Y-21435D01*
X9492Y-21473D01*
X9492Y-21626D01*
X8892Y-21626D01*
X8892Y-21492D01*
X8921Y-21454D01*
X8950Y-21435D01*
X9007Y-21416D01*
X9064Y-21416D01*
X9121Y-21435D01*
X9150Y-21454D01*
X9178Y-21492D01*
X9178Y-21626D01*
X8892Y-21149D02*
X8892Y-21073D01*
X8921Y-21035D01*
X8978Y-20997D01*
X9092Y-20978D01*
X9292Y-20978D01*
X9407Y-20997D01*
X9464Y-21035D01*
X9492Y-21073D01*
X9492Y-21149D01*
X9464Y-21188D01*
X9407Y-21226D01*
X9292Y-21245D01*
X9092Y-21245D01*
X8978Y-21226D01*
X8921Y-21188D01*
X8892Y-21149D01*
X8892Y-20730D02*
X8892Y-20654D01*
X8921Y-20616D01*
X8978Y-20578D01*
X9092Y-20559D01*
X9292Y-20559D01*
X9407Y-20578D01*
X9464Y-20616D01*
X9492Y-20654D01*
X9492Y-20730D01*
X9464Y-20769D01*
X9407Y-20807D01*
X9292Y-20826D01*
X9092Y-20826D01*
X8978Y-20807D01*
X8921Y-20769D01*
X8892Y-20730D01*
X9464Y-20407D02*
X9492Y-20349D01*
X9492Y-20254D01*
X9464Y-20216D01*
X9435Y-20197D01*
X9378Y-20178D01*
X9321Y-20178D01*
X9264Y-20197D01*
X9235Y-20216D01*
X9207Y-20254D01*
X9178Y-20330D01*
X9150Y-20369D01*
X9121Y-20388D01*
X9064Y-20407D01*
X9007Y-20407D01*
X8950Y-20388D01*
X8921Y-20369D01*
X8892Y-20330D01*
X8892Y-20235D01*
X8921Y-20178D01*
X8892Y-20064D02*
X8892Y-19835D01*
X9492Y-19949D02*
X8892Y-19949D01*
X9178Y-19702D02*
X9178Y-19569D01*
X9492Y-19511D02*
X9492Y-19702D01*
X8892Y-19702D01*
X8892Y-19511D01*
X9492Y-19111D02*
X9207Y-19245D01*
X9492Y-19340D02*
X8892Y-19340D01*
X8892Y-19188D01*
X8921Y-19150D01*
X8950Y-19130D01*
X9007Y-19111D01*
X9092Y-19111D01*
X9150Y-19130D01*
X9178Y-19150D01*
X9207Y-19188D01*
X9207Y-19340D01*
X9550Y-19035D02*
X9550Y-18730D01*
X9092Y-18464D02*
X9492Y-18464D01*
X8864Y-18559D02*
X9292Y-18654D01*
X9292Y-18407D01*
X8892Y-18178D02*
X8892Y-18140D01*
X8921Y-18102D01*
X8950Y-18083D01*
X9007Y-18064D01*
X9121Y-18045D01*
X9264Y-18045D01*
X9378Y-18064D01*
X9435Y-18083D01*
X9464Y-18102D01*
X9492Y-18140D01*
X9492Y-18178D01*
X9464Y-18216D01*
X9435Y-18235D01*
X9378Y-18254D01*
X9264Y-18273D01*
X9121Y-18273D01*
X9007Y-18254D01*
X8950Y-18235D01*
X8921Y-18216D01*
X8892Y-18178D01*
X9550Y-17969D02*
X9550Y-17664D01*
X8892Y-17454D02*
X9321Y-17454D01*
X9407Y-17473D01*
X9464Y-17511D01*
X9492Y-17569D01*
X9492Y-17607D01*
X9492Y-17054D02*
X9492Y-17283D01*
X9492Y-17169D02*
X8892Y-17169D01*
X8978Y-17207D01*
X9035Y-17245D01*
X9064Y-17283D01*
G54D12*
G54D13*
X18954Y-18411D02*
X18954Y-18011D01*
X19107Y-18011D01*
X19145Y-18030D01*
X19164Y-18050D01*
X19183Y-18088D01*
X19183Y-18145D01*
X19164Y-18183D01*
X19145Y-18202D01*
X19107Y-18221D01*
X18954Y-18221D01*
X19526Y-18145D02*
X19526Y-18411D01*
X19430Y-17992D02*
X19335Y-18278D01*
X19583Y-18278D01*
G54D15*
X32026Y-12065D02*
X31343Y-12065D01*
X31343Y-11902D01*
X31375Y-11862D01*
X31408Y-11841D01*
X31473Y-11821D01*
X31571Y-11821D01*
X31636Y-11841D01*
X31668Y-11862D01*
X31701Y-11902D01*
X31701Y-12065D01*
X31636Y-11576D02*
X31603Y-11617D01*
X31571Y-11637D01*
X31506Y-11658D01*
X31473Y-11658D01*
X31408Y-11637D01*
X31375Y-11617D01*
X31343Y-11576D01*
X31343Y-11495D01*
X31375Y-11454D01*
X31408Y-11434D01*
X31473Y-11413D01*
X31506Y-11413D01*
X31571Y-11434D01*
X31603Y-11454D01*
X31636Y-11495D01*
X31636Y-11576D01*
X31668Y-11617D01*
X31701Y-11637D01*
X31766Y-11658D01*
X31896Y-11658D01*
X31961Y-11637D01*
X31993Y-11617D01*
X32026Y-11576D01*
X32026Y-11495D01*
X31993Y-11454D01*
X31961Y-11434D01*
X31896Y-11413D01*
X31766Y-11413D01*
X31701Y-11434D01*
X31668Y-11454D01*
X31636Y-11495D01*
G54D12*
G54D15*
X12684Y-25775D02*
X12684Y-25094D01*
X12847Y-25094D01*
X12887Y-25127D01*
X12908Y-25159D01*
X12928Y-25224D01*
X12928Y-25321D01*
X12908Y-25386D01*
X12887Y-25418D01*
X12847Y-25451D01*
X12684Y-25451D01*
X13315Y-25094D02*
X13112Y-25094D01*
X13091Y-25418D01*
X13112Y-25386D01*
X13152Y-25354D01*
X13254Y-25354D01*
X13295Y-25386D01*
X13315Y-25418D01*
X13336Y-25483D01*
X13336Y-25645D01*
X13315Y-25710D01*
X13295Y-25743D01*
X13254Y-25775D01*
X13152Y-25775D01*
X13112Y-25743D01*
X13091Y-25710D01*
G54D12*
G54D15*
X12684Y-27275D02*
X12684Y-26594D01*
X12847Y-26594D01*
X12887Y-26627D01*
X12908Y-26659D01*
X12928Y-26724D01*
X12928Y-26821D01*
X12908Y-26886D01*
X12887Y-26918D01*
X12847Y-26951D01*
X12684Y-26951D01*
X13295Y-26594D02*
X13214Y-26594D01*
X13173Y-26627D01*
X13152Y-26659D01*
X13112Y-26756D01*
X13091Y-26886D01*
X13091Y-27145D01*
X13112Y-27210D01*
X13132Y-27243D01*
X13173Y-27275D01*
X13254Y-27275D01*
X13295Y-27243D01*
X13315Y-27210D01*
X13336Y-27145D01*
X13336Y-26983D01*
X13315Y-26918D01*
X13295Y-26886D01*
X13254Y-26854D01*
X13173Y-26854D01*
X13132Y-26886D01*
X13112Y-26918D01*
X13091Y-26983D01*
G54D12*
G54D15*
X12684Y-28775D02*
X12684Y-28094D01*
X12847Y-28094D01*
X12887Y-28127D01*
X12908Y-28159D01*
X12928Y-28224D01*
X12928Y-28321D01*
X12908Y-28386D01*
X12887Y-28418D01*
X12847Y-28451D01*
X12684Y-28451D01*
X13071Y-28094D02*
X13356Y-28094D01*
X13173Y-28775D01*
G54D12*
G54D13*
X13904Y-23522D02*
X13738Y-23260D01*
X13619Y-23522D02*
X13619Y-22972D01*
X13809Y-22972D01*
X13857Y-22998D01*
X13880Y-23025D01*
X13904Y-23077D01*
X13904Y-23155D01*
X13880Y-23208D01*
X13857Y-23234D01*
X13809Y-23260D01*
X13619Y-23260D01*
X17904Y-23522D02*
X17738Y-23260D01*
X17619Y-23522D02*
X17619Y-22972D01*
X17809Y-22972D01*
X17857Y-22998D01*
X17880Y-23025D01*
X17904Y-23077D01*
X17904Y-23155D01*
X17880Y-23208D01*
X17857Y-23234D01*
X17809Y-23260D01*
X17619Y-23260D01*
X22472Y-23145D02*
X22210Y-23311D01*
X22472Y-23430D02*
X21922Y-23430D01*
X21922Y-23240D01*
X21948Y-23192D01*
X21975Y-23169D01*
X22027Y-23145D01*
X22105Y-23145D01*
X22158Y-23169D01*
X22184Y-23192D01*
X22210Y-23240D01*
X22210Y-23430D01*
X13683Y-19373D02*
X13664Y-19392D01*
X13607Y-19411D01*
X13569Y-19411D01*
X13511Y-19392D01*
X13473Y-19354D01*
X13454Y-19316D01*
X13435Y-19240D01*
X13435Y-19183D01*
X13454Y-19107D01*
X13473Y-19069D01*
X13511Y-19030D01*
X13569Y-19011D01*
X13607Y-19011D01*
X13664Y-19030D01*
X13683Y-19050D01*
X14026Y-19145D02*
X14026Y-19411D01*
X13930Y-18992D02*
X13835Y-19278D01*
X14083Y-19278D01*
X13483Y-21373D02*
X13464Y-21392D01*
X13407Y-21411D01*
X13369Y-21411D01*
X13311Y-21392D01*
X13273Y-21354D01*
X13254Y-21316D01*
X13235Y-21240D01*
X13235Y-21183D01*
X13254Y-21107D01*
X13273Y-21069D01*
X13311Y-21030D01*
X13369Y-21011D01*
X13407Y-21011D01*
X13464Y-21030D01*
X13483Y-21050D01*
X13654Y-21411D02*
X13654Y-21011D01*
X13807Y-21011D01*
X13845Y-21030D01*
X13864Y-21050D01*
X13883Y-21088D01*
X13883Y-21145D01*
X13864Y-21183D01*
X13845Y-21202D01*
X13807Y-21221D01*
X13654Y-21221D01*
X14264Y-21411D02*
X14035Y-21411D01*
X14150Y-21411D02*
X14150Y-21011D01*
X14111Y-21069D01*
X14073Y-21107D01*
X14035Y-21126D01*
X17683Y-19373D02*
X17664Y-19392D01*
X17607Y-19411D01*
X17569Y-19411D01*
X17511Y-19392D01*
X17473Y-19354D01*
X17454Y-19316D01*
X17435Y-19240D01*
X17435Y-19183D01*
X17454Y-19107D01*
X17473Y-19069D01*
X17511Y-19030D01*
X17569Y-19011D01*
X17607Y-19011D01*
X17664Y-19030D01*
X17683Y-19050D01*
X18045Y-19011D02*
X17854Y-19011D01*
X17835Y-19202D01*
X17854Y-19183D01*
X17892Y-19164D01*
X17988Y-19164D01*
X18026Y-19183D01*
X18045Y-19202D01*
X18064Y-19240D01*
X18064Y-19335D01*
X18045Y-19373D01*
X18026Y-19392D01*
X17988Y-19411D01*
X17892Y-19411D01*
X17854Y-19392D01*
X17835Y-19373D01*
X17483Y-21373D02*
X17464Y-21392D01*
X17407Y-21411D01*
X17369Y-21411D01*
X17311Y-21392D01*
X17273Y-21354D01*
X17254Y-21316D01*
X17235Y-21240D01*
X17235Y-21183D01*
X17254Y-21107D01*
X17273Y-21069D01*
X17311Y-21030D01*
X17369Y-21011D01*
X17407Y-21011D01*
X17464Y-21030D01*
X17483Y-21050D01*
X17654Y-21411D02*
X17654Y-21011D01*
X17807Y-21011D01*
X17845Y-21030D01*
X17864Y-21050D01*
X17883Y-21088D01*
X17883Y-21145D01*
X17864Y-21183D01*
X17845Y-21202D01*
X17807Y-21221D01*
X17654Y-21221D01*
X18264Y-21411D02*
X18035Y-21411D01*
X18150Y-21411D02*
X18150Y-21011D01*
X18111Y-21069D01*
X18073Y-21107D01*
X18035Y-21126D01*
X22183Y-19373D02*
X22164Y-19392D01*
X22107Y-19411D01*
X22069Y-19411D01*
X22011Y-19392D01*
X21973Y-19354D01*
X21954Y-19316D01*
X21935Y-19240D01*
X21935Y-19183D01*
X21954Y-19107D01*
X21973Y-19069D01*
X22011Y-19030D01*
X22069Y-19011D01*
X22107Y-19011D01*
X22164Y-19030D01*
X22183Y-19050D01*
X22526Y-19011D02*
X22450Y-19011D01*
X22411Y-19030D01*
X22392Y-19050D01*
X22354Y-19107D01*
X22335Y-19183D01*
X22335Y-19335D01*
X22354Y-19373D01*
X22373Y-19392D01*
X22411Y-19411D01*
X22488Y-19411D01*
X22526Y-19392D01*
X22545Y-19373D01*
X22564Y-19335D01*
X22564Y-19240D01*
X22545Y-19202D01*
X22526Y-19183D01*
X22488Y-19164D01*
X22411Y-19164D01*
X22373Y-19183D01*
X22354Y-19202D01*
X22335Y-19240D01*
X21983Y-21373D02*
X21964Y-21392D01*
X21907Y-21411D01*
X21869Y-21411D01*
X21811Y-21392D01*
X21773Y-21354D01*
X21754Y-21316D01*
X21735Y-21240D01*
X21735Y-21183D01*
X21754Y-21107D01*
X21773Y-21069D01*
X21811Y-21030D01*
X21869Y-21011D01*
X21907Y-21011D01*
X21964Y-21030D01*
X21983Y-21050D01*
X22154Y-21411D02*
X22154Y-21011D01*
X22307Y-21011D01*
X22345Y-21030D01*
X22364Y-21050D01*
X22383Y-21088D01*
X22383Y-21145D01*
X22364Y-21183D01*
X22345Y-21202D01*
X22307Y-21221D01*
X22154Y-21221D01*
X22764Y-21411D02*
X22535Y-21411D01*
X22650Y-21411D02*
X22650Y-21011D01*
X22611Y-21069D01*
X22573Y-21107D01*
X22535Y-21126D01*
G54D15*
X9844Y-24892D02*
X10331Y-24892D01*
X10428Y-24913D01*
X10493Y-24953D01*
X10525Y-25014D01*
X10525Y-25055D01*
X9844Y-24485D02*
X9844Y-24688D01*
X10168Y-24709D01*
X10136Y-24688D01*
X10104Y-24648D01*
X10104Y-24546D01*
X10136Y-24505D01*
X10168Y-24485D01*
X10233Y-24464D01*
X10395Y-24464D01*
X10460Y-24485D01*
X10493Y-24505D01*
X10525Y-24546D01*
X10525Y-24648D01*
X10493Y-24688D01*
X10460Y-24709D01*
G54D12*
G54D11*
X9892Y-22483D02*
X9892Y-22254D01*
X10492Y-22369D02*
X9892Y-22369D01*
X10492Y-22121D02*
X9892Y-22121D01*
X10550Y-22026D02*
X10550Y-21721D01*
X10178Y-21492D02*
X10207Y-21435D01*
X10235Y-21416D01*
X10292Y-21397D01*
X10378Y-21397D01*
X10435Y-21416D01*
X10464Y-21435D01*
X10492Y-21473D01*
X10492Y-21626D01*
X9892Y-21626D01*
X9892Y-21492D01*
X9921Y-21454D01*
X9950Y-21435D01*
X10007Y-21416D01*
X10064Y-21416D01*
X10121Y-21435D01*
X10150Y-21454D01*
X10178Y-21492D01*
X10178Y-21626D01*
X9892Y-21149D02*
X9892Y-21073D01*
X9921Y-21035D01*
X9978Y-20997D01*
X10092Y-20978D01*
X10292Y-20978D01*
X10407Y-20997D01*
X10464Y-21035D01*
X10492Y-21073D01*
X10492Y-21149D01*
X10464Y-21188D01*
X10407Y-21226D01*
X10292Y-21245D01*
X10092Y-21245D01*
X9978Y-21226D01*
X9921Y-21188D01*
X9892Y-21149D01*
X9892Y-20730D02*
X9892Y-20654D01*
X9921Y-20616D01*
X9978Y-20578D01*
X10092Y-20559D01*
X10292Y-20559D01*
X10407Y-20578D01*
X10464Y-20616D01*
X10492Y-20654D01*
X10492Y-20730D01*
X10464Y-20769D01*
X10407Y-20807D01*
X10292Y-20826D01*
X10092Y-20826D01*
X9978Y-20807D01*
X9921Y-20769D01*
X9892Y-20730D01*
X10464Y-20407D02*
X10492Y-20349D01*
X10492Y-20254D01*
X10464Y-20216D01*
X10435Y-20197D01*
X10378Y-20178D01*
X10321Y-20178D01*
X10264Y-20197D01*
X10235Y-20216D01*
X10207Y-20254D01*
X10178Y-20330D01*
X10150Y-20369D01*
X10121Y-20388D01*
X10064Y-20407D01*
X10007Y-20407D01*
X9950Y-20388D01*
X9921Y-20369D01*
X9892Y-20330D01*
X9892Y-20235D01*
X9921Y-20178D01*
X9892Y-20064D02*
X9892Y-19835D01*
X10492Y-19949D02*
X9892Y-19949D01*
X10178Y-19702D02*
X10178Y-19569D01*
X10492Y-19511D02*
X10492Y-19702D01*
X9892Y-19702D01*
X9892Y-19511D01*
X10492Y-19111D02*
X10207Y-19245D01*
X10492Y-19340D02*
X9892Y-19340D01*
X9892Y-19188D01*
X9921Y-19150D01*
X9950Y-19130D01*
X10007Y-19111D01*
X10092Y-19111D01*
X10150Y-19130D01*
X10178Y-19150D01*
X10207Y-19188D01*
X10207Y-19340D01*
X10550Y-19035D02*
X10550Y-18730D01*
X10092Y-18464D02*
X10492Y-18464D01*
X9864Y-18559D02*
X10292Y-18654D01*
X10292Y-18407D01*
X9892Y-18178D02*
X9892Y-18140D01*
X9921Y-18102D01*
X9950Y-18083D01*
X10007Y-18064D01*
X10121Y-18045D01*
X10264Y-18045D01*
X10378Y-18064D01*
X10435Y-18083D01*
X10464Y-18102D01*
X10492Y-18140D01*
X10492Y-18178D01*
X10464Y-18216D01*
X10435Y-18235D01*
X10378Y-18254D01*
X10264Y-18273D01*
X10121Y-18273D01*
X10007Y-18254D01*
X9950Y-18235D01*
X9921Y-18216D01*
X9892Y-18178D01*
X10550Y-17969D02*
X10550Y-17664D01*
X9892Y-17454D02*
X10321Y-17454D01*
X10407Y-17473D01*
X10464Y-17511D01*
X10492Y-17569D01*
X10492Y-17607D01*
X10092Y-17092D02*
X10492Y-17092D01*
X9864Y-17188D02*
X10292Y-17283D01*
X10292Y-17035D01*
G54D12*
G54D16*
X7330Y-25891D02*
X7833Y-25891D01*
X7934Y-25911D01*
X8001Y-25951D01*
X8035Y-26012D01*
X8035Y-26052D01*
X8035Y-25467D02*
X8035Y-25709D01*
X8035Y-25588D02*
X7330Y-25588D01*
X7431Y-25628D01*
X7498Y-25669D01*
X7531Y-25709D01*
G54D12*
G54D15*
X33834Y-32976D02*
X33834Y-32293D01*
X33997Y-32293D01*
X34037Y-32325D01*
X34058Y-32358D01*
X34078Y-32423D01*
X34078Y-32521D01*
X34058Y-32586D01*
X34037Y-32618D01*
X33997Y-32651D01*
X33834Y-32651D01*
X34445Y-32293D02*
X34364Y-32293D01*
X34323Y-32325D01*
X34302Y-32358D01*
X34262Y-32456D01*
X34241Y-32586D01*
X34241Y-32846D01*
X34262Y-32911D01*
X34282Y-32943D01*
X34323Y-32976D01*
X34404Y-32976D01*
X34445Y-32943D01*
X34465Y-32911D01*
X34486Y-32846D01*
X34486Y-32683D01*
X34465Y-32618D01*
X34445Y-32586D01*
X34404Y-32553D01*
X34323Y-32553D01*
X34282Y-32586D01*
X34262Y-32618D01*
X34241Y-32683D01*
G54D12*
G54D15*
X34426Y-37265D02*
X33743Y-37265D01*
X33743Y-37102D01*
X33775Y-37062D01*
X33808Y-37041D01*
X33873Y-37021D01*
X33971Y-37021D01*
X34036Y-37041D01*
X34068Y-37062D01*
X34101Y-37102D01*
X34101Y-37265D01*
X33743Y-36634D02*
X33743Y-36837D01*
X34068Y-36858D01*
X34036Y-36837D01*
X34003Y-36797D01*
X34003Y-36695D01*
X34036Y-36654D01*
X34068Y-36634D01*
X34133Y-36613D01*
X34296Y-36613D01*
X34361Y-36634D01*
X34393Y-36654D01*
X34426Y-36695D01*
X34426Y-36797D01*
X34393Y-36837D01*
X34361Y-36858D01*
G54D12*
G54D15*
X22834Y-41726D02*
X22834Y-41043D01*
X22997Y-41043D01*
X23037Y-41075D01*
X23058Y-41108D01*
X23078Y-41173D01*
X23078Y-41271D01*
X23058Y-41336D01*
X23037Y-41368D01*
X22997Y-41401D01*
X22834Y-41401D01*
X23221Y-41043D02*
X23486Y-41043D01*
X23343Y-41303D01*
X23404Y-41303D01*
X23445Y-41336D01*
X23465Y-41368D01*
X23486Y-41433D01*
X23486Y-41596D01*
X23465Y-41661D01*
X23445Y-41693D01*
X23404Y-41726D01*
X23282Y-41726D01*
X23241Y-41693D01*
X23221Y-41661D01*
G54D12*
G54D15*
X15334Y-41726D02*
X15334Y-41043D01*
X15497Y-41043D01*
X15537Y-41075D01*
X15558Y-41108D01*
X15578Y-41173D01*
X15578Y-41271D01*
X15558Y-41336D01*
X15537Y-41368D01*
X15497Y-41401D01*
X15334Y-41401D01*
X15741Y-41108D02*
X15762Y-41075D01*
X15802Y-41043D01*
X15904Y-41043D01*
X15945Y-41075D01*
X15965Y-41108D01*
X15986Y-41173D01*
X15986Y-41238D01*
X15965Y-41336D01*
X15721Y-41726D01*
X15986Y-41726D01*
G54D12*
G54D15*
X34426Y-41765D02*
X33743Y-41765D01*
X33743Y-41602D01*
X33775Y-41562D01*
X33808Y-41541D01*
X33873Y-41521D01*
X33971Y-41521D01*
X34036Y-41541D01*
X34068Y-41562D01*
X34101Y-41602D01*
X34101Y-41765D01*
X34426Y-41113D02*
X34426Y-41358D01*
X34426Y-41236D02*
X33743Y-41236D01*
X33841Y-41276D01*
X33906Y-41317D01*
X33938Y-41358D01*
G54D12*
G54D15*
X8994Y-39842D02*
X9481Y-39842D01*
X9578Y-39863D01*
X9643Y-39903D01*
X9675Y-39964D01*
X9675Y-40005D01*
X9059Y-39659D02*
X9027Y-39638D01*
X8994Y-39598D01*
X8994Y-39496D01*
X9027Y-39455D01*
X9059Y-39435D01*
X9124Y-39414D01*
X9189Y-39414D01*
X9286Y-39435D01*
X9675Y-39679D01*
X9675Y-39414D01*
G54D12*
G54D11*
X9042Y-37433D02*
X9042Y-37204D01*
X9642Y-37319D02*
X9042Y-37319D01*
X9642Y-37071D02*
X9042Y-37071D01*
X9700Y-36976D02*
X9700Y-36671D01*
X9328Y-36442D02*
X9357Y-36385D01*
X9385Y-36366D01*
X9442Y-36347D01*
X9528Y-36347D01*
X9585Y-36366D01*
X9614Y-36385D01*
X9642Y-36423D01*
X9642Y-36576D01*
X9042Y-36576D01*
X9042Y-36442D01*
X9071Y-36404D01*
X9100Y-36385D01*
X9157Y-36366D01*
X9214Y-36366D01*
X9271Y-36385D01*
X9300Y-36404D01*
X9328Y-36442D01*
X9328Y-36576D01*
X9042Y-36099D02*
X9042Y-36023D01*
X9071Y-35985D01*
X9128Y-35947D01*
X9242Y-35928D01*
X9442Y-35928D01*
X9557Y-35947D01*
X9614Y-35985D01*
X9642Y-36023D01*
X9642Y-36099D01*
X9614Y-36138D01*
X9557Y-36176D01*
X9442Y-36195D01*
X9242Y-36195D01*
X9128Y-36176D01*
X9071Y-36138D01*
X9042Y-36099D01*
X9042Y-35680D02*
X9042Y-35604D01*
X9071Y-35566D01*
X9128Y-35528D01*
X9242Y-35509D01*
X9442Y-35509D01*
X9557Y-35528D01*
X9614Y-35566D01*
X9642Y-35604D01*
X9642Y-35680D01*
X9614Y-35719D01*
X9557Y-35757D01*
X9442Y-35776D01*
X9242Y-35776D01*
X9128Y-35757D01*
X9071Y-35719D01*
X9042Y-35680D01*
X9614Y-35357D02*
X9642Y-35299D01*
X9642Y-35204D01*
X9614Y-35166D01*
X9585Y-35147D01*
X9528Y-35128D01*
X9471Y-35128D01*
X9414Y-35147D01*
X9385Y-35166D01*
X9357Y-35204D01*
X9328Y-35280D01*
X9300Y-35319D01*
X9271Y-35338D01*
X9214Y-35357D01*
X9157Y-35357D01*
X9100Y-35338D01*
X9071Y-35319D01*
X9042Y-35280D01*
X9042Y-35185D01*
X9071Y-35128D01*
X9042Y-35014D02*
X9042Y-34785D01*
X9642Y-34899D02*
X9042Y-34899D01*
X9328Y-34652D02*
X9328Y-34519D01*
X9642Y-34461D02*
X9642Y-34652D01*
X9042Y-34652D01*
X9042Y-34461D01*
X9642Y-34061D02*
X9357Y-34195D01*
X9642Y-34290D02*
X9042Y-34290D01*
X9042Y-34138D01*
X9071Y-34100D01*
X9100Y-34080D01*
X9157Y-34061D01*
X9242Y-34061D01*
X9300Y-34080D01*
X9328Y-34100D01*
X9357Y-34138D01*
X9357Y-34290D01*
X9700Y-33985D02*
X9700Y-33680D01*
X9242Y-33414D02*
X9642Y-33414D01*
X9014Y-33509D02*
X9442Y-33604D01*
X9442Y-33357D01*
X9042Y-33128D02*
X9042Y-33090D01*
X9071Y-33052D01*
X9100Y-33033D01*
X9157Y-33014D01*
X9271Y-32995D01*
X9414Y-32995D01*
X9528Y-33014D01*
X9585Y-33033D01*
X9614Y-33052D01*
X9642Y-33090D01*
X9642Y-33128D01*
X9614Y-33166D01*
X9585Y-33185D01*
X9528Y-33204D01*
X9414Y-33223D01*
X9271Y-33223D01*
X9157Y-33204D01*
X9100Y-33185D01*
X9071Y-33166D01*
X9042Y-33128D01*
X9700Y-32919D02*
X9700Y-32614D01*
X9042Y-32404D02*
X9471Y-32404D01*
X9557Y-32423D01*
X9614Y-32461D01*
X9642Y-32519D01*
X9642Y-32557D01*
X9642Y-32004D02*
X9642Y-32233D01*
X9642Y-32119D02*
X9042Y-32119D01*
X9128Y-32157D01*
X9185Y-32195D01*
X9214Y-32233D01*
G54D12*
G54D15*
X25994Y-40092D02*
X26481Y-40092D01*
X26578Y-40113D01*
X26643Y-40153D01*
X26675Y-40214D01*
X26675Y-40255D01*
X25994Y-39685D02*
X25994Y-39888D01*
X26318Y-39909D01*
X26286Y-39888D01*
X26254Y-39848D01*
X26254Y-39746D01*
X26286Y-39705D01*
X26318Y-39685D01*
X26383Y-39664D01*
X26545Y-39664D01*
X26610Y-39685D01*
X26643Y-39705D01*
X26675Y-39746D01*
X26675Y-39848D01*
X26643Y-39888D01*
X26610Y-39909D01*
G54D12*
G54D11*
X26042Y-37683D02*
X26042Y-37454D01*
X26642Y-37569D02*
X26042Y-37569D01*
X26642Y-37321D02*
X26042Y-37321D01*
X26700Y-37226D02*
X26700Y-36921D01*
X26328Y-36692D02*
X26357Y-36635D01*
X26385Y-36616D01*
X26442Y-36597D01*
X26528Y-36597D01*
X26585Y-36616D01*
X26614Y-36635D01*
X26642Y-36673D01*
X26642Y-36826D01*
X26042Y-36826D01*
X26042Y-36692D01*
X26071Y-36654D01*
X26100Y-36635D01*
X26157Y-36616D01*
X26214Y-36616D01*
X26271Y-36635D01*
X26300Y-36654D01*
X26328Y-36692D01*
X26328Y-36826D01*
X26042Y-36349D02*
X26042Y-36273D01*
X26071Y-36235D01*
X26128Y-36197D01*
X26242Y-36178D01*
X26442Y-36178D01*
X26557Y-36197D01*
X26614Y-36235D01*
X26642Y-36273D01*
X26642Y-36349D01*
X26614Y-36388D01*
X26557Y-36426D01*
X26442Y-36445D01*
X26242Y-36445D01*
X26128Y-36426D01*
X26071Y-36388D01*
X26042Y-36349D01*
X26042Y-35930D02*
X26042Y-35854D01*
X26071Y-35816D01*
X26128Y-35778D01*
X26242Y-35759D01*
X26442Y-35759D01*
X26557Y-35778D01*
X26614Y-35816D01*
X26642Y-35854D01*
X26642Y-35930D01*
X26614Y-35969D01*
X26557Y-36007D01*
X26442Y-36026D01*
X26242Y-36026D01*
X26128Y-36007D01*
X26071Y-35969D01*
X26042Y-35930D01*
X26614Y-35607D02*
X26642Y-35549D01*
X26642Y-35454D01*
X26614Y-35416D01*
X26585Y-35397D01*
X26528Y-35378D01*
X26471Y-35378D01*
X26414Y-35397D01*
X26385Y-35416D01*
X26357Y-35454D01*
X26328Y-35530D01*
X26300Y-35569D01*
X26271Y-35588D01*
X26214Y-35607D01*
X26157Y-35607D01*
X26100Y-35588D01*
X26071Y-35569D01*
X26042Y-35530D01*
X26042Y-35435D01*
X26071Y-35378D01*
X26042Y-35264D02*
X26042Y-35035D01*
X26642Y-35149D02*
X26042Y-35149D01*
X26328Y-34902D02*
X26328Y-34769D01*
X26642Y-34711D02*
X26642Y-34902D01*
X26042Y-34902D01*
X26042Y-34711D01*
X26642Y-34311D02*
X26357Y-34445D01*
X26642Y-34540D02*
X26042Y-34540D01*
X26042Y-34388D01*
X26071Y-34350D01*
X26100Y-34330D01*
X26157Y-34311D01*
X26242Y-34311D01*
X26300Y-34330D01*
X26328Y-34350D01*
X26357Y-34388D01*
X26357Y-34540D01*
X26700Y-34235D02*
X26700Y-33930D01*
X26242Y-33664D02*
X26642Y-33664D01*
X26014Y-33759D02*
X26442Y-33854D01*
X26442Y-33607D01*
X26042Y-33378D02*
X26042Y-33340D01*
X26071Y-33302D01*
X26100Y-33283D01*
X26157Y-33264D01*
X26271Y-33245D01*
X26414Y-33245D01*
X26528Y-33264D01*
X26585Y-33283D01*
X26614Y-33302D01*
X26642Y-33340D01*
X26642Y-33378D01*
X26614Y-33416D01*
X26585Y-33435D01*
X26528Y-33454D01*
X26414Y-33473D01*
X26271Y-33473D01*
X26157Y-33454D01*
X26100Y-33435D01*
X26071Y-33416D01*
X26042Y-33378D01*
X26700Y-33169D02*
X26700Y-32864D01*
X26042Y-32654D02*
X26471Y-32654D01*
X26557Y-32673D01*
X26614Y-32711D01*
X26642Y-32769D01*
X26642Y-32807D01*
X26242Y-32292D02*
X26642Y-32292D01*
X26014Y-32388D02*
X26442Y-32483D01*
X26442Y-32235D01*
G54D12*
G54D15*
X9994Y-39842D02*
X10481Y-39842D01*
X10578Y-39863D01*
X10643Y-39903D01*
X10675Y-39964D01*
X10675Y-40005D01*
X10221Y-39455D02*
X10675Y-39455D01*
X9962Y-39557D02*
X10448Y-39659D01*
X10448Y-39394D01*
G54D12*
G54D11*
X10042Y-37433D02*
X10042Y-37204D01*
X10642Y-37319D02*
X10042Y-37319D01*
X10642Y-37071D02*
X10042Y-37071D01*
X10700Y-36976D02*
X10700Y-36671D01*
X10328Y-36442D02*
X10357Y-36385D01*
X10385Y-36366D01*
X10442Y-36347D01*
X10528Y-36347D01*
X10585Y-36366D01*
X10614Y-36385D01*
X10642Y-36423D01*
X10642Y-36576D01*
X10042Y-36576D01*
X10042Y-36442D01*
X10071Y-36404D01*
X10100Y-36385D01*
X10157Y-36366D01*
X10214Y-36366D01*
X10271Y-36385D01*
X10300Y-36404D01*
X10328Y-36442D01*
X10328Y-36576D01*
X10042Y-36099D02*
X10042Y-36023D01*
X10071Y-35985D01*
X10128Y-35947D01*
X10242Y-35928D01*
X10442Y-35928D01*
X10557Y-35947D01*
X10614Y-35985D01*
X10642Y-36023D01*
X10642Y-36099D01*
X10614Y-36138D01*
X10557Y-36176D01*
X10442Y-36195D01*
X10242Y-36195D01*
X10128Y-36176D01*
X10071Y-36138D01*
X10042Y-36099D01*
X10042Y-35680D02*
X10042Y-35604D01*
X10071Y-35566D01*
X10128Y-35528D01*
X10242Y-35509D01*
X10442Y-35509D01*
X10557Y-35528D01*
X10614Y-35566D01*
X10642Y-35604D01*
X10642Y-35680D01*
X10614Y-35719D01*
X10557Y-35757D01*
X10442Y-35776D01*
X10242Y-35776D01*
X10128Y-35757D01*
X10071Y-35719D01*
X10042Y-35680D01*
X10614Y-35357D02*
X10642Y-35299D01*
X10642Y-35204D01*
X10614Y-35166D01*
X10585Y-35147D01*
X10528Y-35128D01*
X10471Y-35128D01*
X10414Y-35147D01*
X10385Y-35166D01*
X10357Y-35204D01*
X10328Y-35280D01*
X10300Y-35319D01*
X10271Y-35338D01*
X10214Y-35357D01*
X10157Y-35357D01*
X10100Y-35338D01*
X10071Y-35319D01*
X10042Y-35280D01*
X10042Y-35185D01*
X10071Y-35128D01*
X10042Y-35014D02*
X10042Y-34785D01*
X10642Y-34899D02*
X10042Y-34899D01*
X10328Y-34652D02*
X10328Y-34519D01*
X10642Y-34461D02*
X10642Y-34652D01*
X10042Y-34652D01*
X10042Y-34461D01*
X10642Y-34061D02*
X10357Y-34195D01*
X10642Y-34290D02*
X10042Y-34290D01*
X10042Y-34138D01*
X10071Y-34100D01*
X10100Y-34080D01*
X10157Y-34061D01*
X10242Y-34061D01*
X10300Y-34080D01*
X10328Y-34100D01*
X10357Y-34138D01*
X10357Y-34290D01*
X10700Y-33985D02*
X10700Y-33680D01*
X10242Y-33414D02*
X10642Y-33414D01*
X10014Y-33509D02*
X10442Y-33604D01*
X10442Y-33357D01*
X10042Y-33128D02*
X10042Y-33090D01*
X10071Y-33052D01*
X10100Y-33033D01*
X10157Y-33014D01*
X10271Y-32995D01*
X10414Y-32995D01*
X10528Y-33014D01*
X10585Y-33033D01*
X10614Y-33052D01*
X10642Y-33090D01*
X10642Y-33128D01*
X10614Y-33166D01*
X10585Y-33185D01*
X10528Y-33204D01*
X10414Y-33223D01*
X10271Y-33223D01*
X10157Y-33204D01*
X10100Y-33185D01*
X10071Y-33166D01*
X10042Y-33128D01*
X10700Y-32919D02*
X10700Y-32614D01*
X10042Y-32404D02*
X10471Y-32404D01*
X10557Y-32423D01*
X10614Y-32461D01*
X10642Y-32519D01*
X10642Y-32557D01*
X10042Y-32252D02*
X10042Y-32004D01*
X10271Y-32138D01*
X10271Y-32080D01*
X10300Y-32042D01*
X10328Y-32023D01*
X10385Y-32004D01*
X10528Y-32004D01*
X10585Y-32023D01*
X10614Y-32042D01*
X10642Y-32080D01*
X10642Y-32195D01*
X10614Y-32233D01*
X10585Y-32252D01*
G54D12*
G54D15*
X26994Y-40092D02*
X27481Y-40092D01*
X27578Y-40113D01*
X27643Y-40153D01*
X27675Y-40214D01*
X27675Y-40255D01*
X26994Y-39929D02*
X26994Y-39664D01*
X27254Y-39807D01*
X27254Y-39746D01*
X27286Y-39705D01*
X27318Y-39685D01*
X27383Y-39664D01*
X27545Y-39664D01*
X27610Y-39685D01*
X27643Y-39705D01*
X27675Y-39746D01*
X27675Y-39868D01*
X27643Y-39909D01*
X27610Y-39929D01*
G54D12*
G54D11*
X27042Y-37683D02*
X27042Y-37454D01*
X27642Y-37569D02*
X27042Y-37569D01*
X27642Y-37321D02*
X27042Y-37321D01*
X27700Y-37226D02*
X27700Y-36921D01*
X27328Y-36692D02*
X27357Y-36635D01*
X27385Y-36616D01*
X27442Y-36597D01*
X27528Y-36597D01*
X27585Y-36616D01*
X27614Y-36635D01*
X27642Y-36673D01*
X27642Y-36826D01*
X27042Y-36826D01*
X27042Y-36692D01*
X27071Y-36654D01*
X27100Y-36635D01*
X27157Y-36616D01*
X27214Y-36616D01*
X27271Y-36635D01*
X27300Y-36654D01*
X27328Y-36692D01*
X27328Y-36826D01*
X27042Y-36349D02*
X27042Y-36273D01*
X27071Y-36235D01*
X27128Y-36197D01*
X27242Y-36178D01*
X27442Y-36178D01*
X27557Y-36197D01*
X27614Y-36235D01*
X27642Y-36273D01*
X27642Y-36349D01*
X27614Y-36388D01*
X27557Y-36426D01*
X27442Y-36445D01*
X27242Y-36445D01*
X27128Y-36426D01*
X27071Y-36388D01*
X27042Y-36349D01*
X27042Y-35930D02*
X27042Y-35854D01*
X27071Y-35816D01*
X27128Y-35778D01*
X27242Y-35759D01*
X27442Y-35759D01*
X27557Y-35778D01*
X27614Y-35816D01*
X27642Y-35854D01*
X27642Y-35930D01*
X27614Y-35969D01*
X27557Y-36007D01*
X27442Y-36026D01*
X27242Y-36026D01*
X27128Y-36007D01*
X27071Y-35969D01*
X27042Y-35930D01*
X27614Y-35607D02*
X27642Y-35549D01*
X27642Y-35454D01*
X27614Y-35416D01*
X27585Y-35397D01*
X27528Y-35378D01*
X27471Y-35378D01*
X27414Y-35397D01*
X27385Y-35416D01*
X27357Y-35454D01*
X27328Y-35530D01*
X27300Y-35569D01*
X27271Y-35588D01*
X27214Y-35607D01*
X27157Y-35607D01*
X27100Y-35588D01*
X27071Y-35569D01*
X27042Y-35530D01*
X27042Y-35435D01*
X27071Y-35378D01*
X27042Y-35264D02*
X27042Y-35035D01*
X27642Y-35149D02*
X27042Y-35149D01*
X27328Y-34902D02*
X27328Y-34769D01*
X27642Y-34711D02*
X27642Y-34902D01*
X27042Y-34902D01*
X27042Y-34711D01*
X27642Y-34311D02*
X27357Y-34445D01*
X27642Y-34540D02*
X27042Y-34540D01*
X27042Y-34388D01*
X27071Y-34350D01*
X27100Y-34330D01*
X27157Y-34311D01*
X27242Y-34311D01*
X27300Y-34330D01*
X27328Y-34350D01*
X27357Y-34388D01*
X27357Y-34540D01*
X27700Y-34235D02*
X27700Y-33930D01*
X27242Y-33664D02*
X27642Y-33664D01*
X27014Y-33759D02*
X27442Y-33854D01*
X27442Y-33607D01*
X27042Y-33378D02*
X27042Y-33340D01*
X27071Y-33302D01*
X27100Y-33283D01*
X27157Y-33264D01*
X27271Y-33245D01*
X27414Y-33245D01*
X27528Y-33264D01*
X27585Y-33283D01*
X27614Y-33302D01*
X27642Y-33340D01*
X27642Y-33378D01*
X27614Y-33416D01*
X27585Y-33435D01*
X27528Y-33454D01*
X27414Y-33473D01*
X27271Y-33473D01*
X27157Y-33454D01*
X27100Y-33435D01*
X27071Y-33416D01*
X27042Y-33378D01*
X27700Y-33169D02*
X27700Y-32864D01*
X27042Y-32654D02*
X27471Y-32654D01*
X27557Y-32673D01*
X27614Y-32711D01*
X27642Y-32769D01*
X27642Y-32807D01*
X27100Y-32483D02*
X27071Y-32464D01*
X27042Y-32426D01*
X27042Y-32330D01*
X27071Y-32292D01*
X27100Y-32273D01*
X27157Y-32254D01*
X27214Y-32254D01*
X27300Y-32273D01*
X27642Y-32502D01*
X27642Y-32254D01*
G54D12*
G54D13*
X32072Y-41295D02*
X31810Y-41461D01*
X32072Y-41580D02*
X31522Y-41580D01*
X31522Y-41390D01*
X31548Y-41342D01*
X31575Y-41319D01*
X31627Y-41295D01*
X31705Y-41295D01*
X31758Y-41319D01*
X31784Y-41342D01*
X31810Y-41390D01*
X31810Y-41580D01*
X32072Y-36795D02*
X31810Y-36961D01*
X32072Y-37080D02*
X31522Y-37080D01*
X31522Y-36890D01*
X31548Y-36842D01*
X31575Y-36819D01*
X31627Y-36795D01*
X31705Y-36795D01*
X31758Y-36819D01*
X31784Y-36842D01*
X31810Y-36890D01*
X31810Y-37080D01*
X32072Y-32545D02*
X31810Y-32711D01*
X32072Y-32830D02*
X31522Y-32830D01*
X31522Y-32640D01*
X31548Y-32592D01*
X31575Y-32569D01*
X31627Y-32545D01*
X31705Y-32545D01*
X31758Y-32569D01*
X31784Y-32592D01*
X31810Y-32640D01*
X31810Y-32830D01*
X19354Y-29861D02*
X19354Y-29461D01*
X19507Y-29461D01*
X19545Y-29480D01*
X19564Y-29500D01*
X19583Y-29538D01*
X19583Y-29595D01*
X19564Y-29633D01*
X19545Y-29652D01*
X19507Y-29671D01*
X19354Y-29671D01*
X19926Y-29595D02*
X19926Y-29861D01*
X19830Y-29442D02*
X19735Y-29728D01*
X19983Y-29728D01*
X15833Y-35073D02*
X15814Y-35092D01*
X15757Y-35111D01*
X15719Y-35111D01*
X15661Y-35092D01*
X15623Y-35054D01*
X15604Y-35016D01*
X15585Y-34940D01*
X15585Y-34883D01*
X15604Y-34807D01*
X15623Y-34769D01*
X15661Y-34730D01*
X15719Y-34711D01*
X15757Y-34711D01*
X15814Y-34730D01*
X15833Y-34750D01*
X15985Y-34750D02*
X16004Y-34730D01*
X16042Y-34711D01*
X16138Y-34711D01*
X16176Y-34730D01*
X16195Y-34750D01*
X16214Y-34788D01*
X16214Y-34826D01*
X16195Y-34883D01*
X15966Y-35111D01*
X16214Y-35111D01*
X15633Y-33073D02*
X15614Y-33092D01*
X15557Y-33111D01*
X15519Y-33111D01*
X15461Y-33092D01*
X15423Y-33054D01*
X15404Y-33016D01*
X15385Y-32940D01*
X15385Y-32883D01*
X15404Y-32807D01*
X15423Y-32769D01*
X15461Y-32730D01*
X15519Y-32711D01*
X15557Y-32711D01*
X15614Y-32730D01*
X15633Y-32750D01*
X15804Y-33111D02*
X15804Y-32711D01*
X15957Y-32711D01*
X15995Y-32730D01*
X16014Y-32750D01*
X16033Y-32788D01*
X16033Y-32845D01*
X16014Y-32883D01*
X15995Y-32902D01*
X15957Y-32921D01*
X15804Y-32921D01*
X16414Y-33111D02*
X16185Y-33111D01*
X16300Y-33111D02*
X16300Y-32711D01*
X16261Y-32769D01*
X16223Y-32807D01*
X16185Y-32826D01*
X22833Y-35073D02*
X22814Y-35092D01*
X22757Y-35111D01*
X22719Y-35111D01*
X22661Y-35092D01*
X22623Y-35054D01*
X22604Y-35016D01*
X22585Y-34940D01*
X22585Y-34883D01*
X22604Y-34807D01*
X22623Y-34769D01*
X22661Y-34730D01*
X22719Y-34711D01*
X22757Y-34711D01*
X22814Y-34730D01*
X22833Y-34750D01*
X22966Y-34711D02*
X23214Y-34711D01*
X23080Y-34864D01*
X23138Y-34864D01*
X23176Y-34883D01*
X23195Y-34902D01*
X23214Y-34940D01*
X23214Y-35035D01*
X23195Y-35073D01*
X23176Y-35092D01*
X23138Y-35111D01*
X23023Y-35111D01*
X22985Y-35092D01*
X22966Y-35073D01*
X22633Y-33073D02*
X22614Y-33092D01*
X22557Y-33111D01*
X22519Y-33111D01*
X22461Y-33092D01*
X22423Y-33054D01*
X22404Y-33016D01*
X22385Y-32940D01*
X22385Y-32883D01*
X22404Y-32807D01*
X22423Y-32769D01*
X22461Y-32730D01*
X22519Y-32711D01*
X22557Y-32711D01*
X22614Y-32730D01*
X22633Y-32750D01*
X22804Y-33111D02*
X22804Y-32711D01*
X22957Y-32711D01*
X22995Y-32730D01*
X23014Y-32750D01*
X23033Y-32788D01*
X23033Y-32845D01*
X23014Y-32883D01*
X22995Y-32902D01*
X22957Y-32921D01*
X22804Y-32921D01*
X23414Y-33111D02*
X23185Y-33111D01*
X23300Y-33111D02*
X23300Y-32711D01*
X23261Y-32769D01*
X23223Y-32807D01*
X23185Y-32826D01*
G54D12*
X23102Y-37657D02*
X23507Y-37657D01*
X23554Y-37628D01*
X23578Y-37600D01*
X23602Y-37542D01*
X23602Y-37428D01*
X23578Y-37371D01*
X23554Y-37342D01*
X23507Y-37314D01*
X23102Y-37314D01*
X23102Y-37085D02*
X23102Y-36714D01*
X23292Y-36914D01*
X23292Y-36828D01*
X23316Y-36771D01*
X23340Y-36742D01*
X23388Y-36714D01*
X23507Y-36714D01*
X23554Y-36742D01*
X23578Y-36771D01*
X23602Y-36828D01*
X23602Y-37000D01*
X23578Y-37057D01*
X23554Y-37085D01*
X22602Y-40414D02*
X22102Y-40414D01*
X22102Y-40185D01*
X22126Y-40128D01*
X22150Y-40100D01*
X22197Y-40071D01*
X22269Y-40071D01*
X22316Y-40100D01*
X22340Y-40128D01*
X22364Y-40185D01*
X22364Y-40414D01*
X22102Y-39700D02*
X22102Y-39585D01*
X22126Y-39528D01*
X22173Y-39471D01*
X22269Y-39442D01*
X22435Y-39442D01*
X22530Y-39471D01*
X22578Y-39528D01*
X22602Y-39585D01*
X22602Y-39700D01*
X22578Y-39757D01*
X22530Y-39814D01*
X22435Y-39842D01*
X22269Y-39842D01*
X22173Y-39814D01*
X22126Y-39757D01*
X22102Y-39700D01*
X22602Y-38900D02*
X22602Y-39185D01*
X22102Y-39185D01*
X22102Y-38585D02*
X22102Y-38471D01*
X22126Y-38414D01*
X22173Y-38357D01*
X22269Y-38328D01*
X22435Y-38328D01*
X22530Y-38357D01*
X22578Y-38414D01*
X22602Y-38471D01*
X22602Y-38585D01*
X22578Y-38642D01*
X22530Y-38700D01*
X22435Y-38728D01*
X22269Y-38728D01*
X22173Y-38700D01*
X22126Y-38642D01*
X22102Y-38585D01*
X22602Y-37785D02*
X22602Y-38071D01*
X22102Y-38071D01*
X22102Y-37585D02*
X22507Y-37585D01*
X22554Y-37557D01*
X22578Y-37528D01*
X22602Y-37471D01*
X22602Y-37357D01*
X22578Y-37300D01*
X22554Y-37271D01*
X22507Y-37242D01*
X22102Y-37242D01*
X22650Y-37100D02*
X22650Y-36642D01*
X22459Y-36528D02*
X22459Y-36242D01*
X22602Y-36585D02*
X22102Y-36385D01*
X22602Y-36185D01*
X22269Y-35728D02*
X22602Y-35728D01*
X22078Y-35871D02*
X22435Y-36014D01*
X22435Y-35642D01*
X22602Y-35385D02*
X22602Y-35271D01*
X22578Y-35214D01*
X22554Y-35185D01*
X22483Y-35128D01*
X22388Y-35100D01*
X22197Y-35100D01*
X22150Y-35128D01*
X22126Y-35157D01*
X22102Y-35214D01*
X22102Y-35328D01*
X22126Y-35385D01*
X22150Y-35414D01*
X22197Y-35442D01*
X22316Y-35442D01*
X22364Y-35414D01*
X22388Y-35385D01*
X22411Y-35328D01*
X22411Y-35214D01*
X22388Y-35157D01*
X22364Y-35128D01*
X22316Y-35100D01*
X22316Y-34757D02*
X22292Y-34814D01*
X22269Y-34842D01*
X22221Y-34871D01*
X22197Y-34871D01*
X22150Y-34842D01*
X22126Y-34814D01*
X22102Y-34757D01*
X22102Y-34642D01*
X22126Y-34585D01*
X22150Y-34557D01*
X22197Y-34528D01*
X22221Y-34528D01*
X22269Y-34557D01*
X22292Y-34585D01*
X22316Y-34642D01*
X22316Y-34757D01*
X22340Y-34814D01*
X22364Y-34842D01*
X22411Y-34871D01*
X22507Y-34871D01*
X22554Y-34842D01*
X22578Y-34814D01*
X22602Y-34757D01*
X22602Y-34642D01*
X22578Y-34585D01*
X22554Y-34557D01*
X22507Y-34528D01*
X22411Y-34528D01*
X22364Y-34557D01*
X22340Y-34585D01*
X22316Y-34642D01*
X22316Y-34185D02*
X22292Y-34242D01*
X22269Y-34271D01*
X22221Y-34300D01*
X22197Y-34300D01*
X22150Y-34271D01*
X22126Y-34242D01*
X22102Y-34185D01*
X22102Y-34071D01*
X22126Y-34014D01*
X22150Y-33985D01*
X22197Y-33957D01*
X22221Y-33957D01*
X22269Y-33985D01*
X22292Y-34014D01*
X22316Y-34071D01*
X22316Y-34185D01*
X22340Y-34242D01*
X22364Y-34271D01*
X22411Y-34300D01*
X22507Y-34300D01*
X22554Y-34271D01*
X22578Y-34242D01*
X22602Y-34185D01*
X22602Y-34071D01*
X22578Y-34014D01*
X22554Y-33985D01*
X22507Y-33957D01*
X22411Y-33957D01*
X22364Y-33985D01*
X22340Y-34014D01*
X22316Y-34071D01*
X16102Y-37657D02*
X16507Y-37657D01*
X16554Y-37628D01*
X16578Y-37600D01*
X16602Y-37542D01*
X16602Y-37428D01*
X16578Y-37371D01*
X16554Y-37342D01*
X16507Y-37314D01*
X16102Y-37314D01*
X16150Y-37057D02*
X16126Y-37028D01*
X16102Y-36971D01*
X16102Y-36828D01*
X16126Y-36771D01*
X16150Y-36742D01*
X16197Y-36714D01*
X16245Y-36714D01*
X16316Y-36742D01*
X16602Y-37085D01*
X16602Y-36714D01*
X15602Y-40414D02*
X15102Y-40414D01*
X15102Y-40185D01*
X15126Y-40128D01*
X15150Y-40100D01*
X15197Y-40071D01*
X15269Y-40071D01*
X15316Y-40100D01*
X15340Y-40128D01*
X15364Y-40185D01*
X15364Y-40414D01*
X15102Y-39700D02*
X15102Y-39585D01*
X15126Y-39528D01*
X15173Y-39471D01*
X15269Y-39442D01*
X15435Y-39442D01*
X15530Y-39471D01*
X15578Y-39528D01*
X15602Y-39585D01*
X15602Y-39700D01*
X15578Y-39757D01*
X15530Y-39814D01*
X15435Y-39842D01*
X15269Y-39842D01*
X15173Y-39814D01*
X15126Y-39757D01*
X15102Y-39700D01*
X15602Y-38900D02*
X15602Y-39185D01*
X15102Y-39185D01*
X15102Y-38585D02*
X15102Y-38471D01*
X15126Y-38414D01*
X15173Y-38357D01*
X15269Y-38328D01*
X15435Y-38328D01*
X15530Y-38357D01*
X15578Y-38414D01*
X15602Y-38471D01*
X15602Y-38585D01*
X15578Y-38642D01*
X15530Y-38700D01*
X15435Y-38728D01*
X15269Y-38728D01*
X15173Y-38700D01*
X15126Y-38642D01*
X15102Y-38585D01*
X15602Y-37785D02*
X15602Y-38071D01*
X15102Y-38071D01*
X15102Y-37585D02*
X15507Y-37585D01*
X15554Y-37557D01*
X15578Y-37528D01*
X15602Y-37471D01*
X15602Y-37357D01*
X15578Y-37300D01*
X15554Y-37271D01*
X15507Y-37242D01*
X15102Y-37242D01*
X15650Y-37100D02*
X15650Y-36642D01*
X15459Y-36528D02*
X15459Y-36242D01*
X15602Y-36585D02*
X15102Y-36385D01*
X15602Y-36185D01*
X15269Y-35728D02*
X15602Y-35728D01*
X15078Y-35871D02*
X15435Y-36014D01*
X15435Y-35642D01*
X15602Y-35385D02*
X15602Y-35271D01*
X15578Y-35214D01*
X15554Y-35185D01*
X15483Y-35128D01*
X15388Y-35100D01*
X15197Y-35100D01*
X15150Y-35128D01*
X15126Y-35157D01*
X15102Y-35214D01*
X15102Y-35328D01*
X15126Y-35385D01*
X15150Y-35414D01*
X15197Y-35442D01*
X15316Y-35442D01*
X15364Y-35414D01*
X15388Y-35385D01*
X15411Y-35328D01*
X15411Y-35214D01*
X15388Y-35157D01*
X15364Y-35128D01*
X15316Y-35100D01*
X15316Y-34757D02*
X15292Y-34814D01*
X15269Y-34842D01*
X15221Y-34871D01*
X15197Y-34871D01*
X15150Y-34842D01*
X15126Y-34814D01*
X15102Y-34757D01*
X15102Y-34642D01*
X15126Y-34585D01*
X15150Y-34557D01*
X15197Y-34528D01*
X15221Y-34528D01*
X15269Y-34557D01*
X15292Y-34585D01*
X15316Y-34642D01*
X15316Y-34757D01*
X15340Y-34814D01*
X15364Y-34842D01*
X15411Y-34871D01*
X15507Y-34871D01*
X15554Y-34842D01*
X15578Y-34814D01*
X15602Y-34757D01*
X15602Y-34642D01*
X15578Y-34585D01*
X15554Y-34557D01*
X15507Y-34528D01*
X15411Y-34528D01*
X15364Y-34557D01*
X15340Y-34585D01*
X15316Y-34642D01*
X15316Y-34185D02*
X15292Y-34242D01*
X15269Y-34271D01*
X15221Y-34300D01*
X15197Y-34300D01*
X15150Y-34271D01*
X15126Y-34242D01*
X15102Y-34185D01*
X15102Y-34071D01*
X15126Y-34014D01*
X15150Y-33985D01*
X15197Y-33957D01*
X15221Y-33957D01*
X15269Y-33985D01*
X15292Y-34014D01*
X15316Y-34071D01*
X15316Y-34185D01*
X15340Y-34242D01*
X15364Y-34271D01*
X15411Y-34300D01*
X15507Y-34300D01*
X15554Y-34271D01*
X15578Y-34242D01*
X15602Y-34185D01*
X15602Y-34071D01*
X15578Y-34014D01*
X15554Y-33985D01*
X15507Y-33957D01*
X15411Y-33957D01*
X15364Y-33985D01*
X15340Y-34014D01*
X15316Y-34071D01*
G54D13*
X29700Y-41488D02*
X29671Y-41526D01*
X29614Y-41564D01*
X29528Y-41621D01*
X29500Y-41659D01*
X29500Y-41697D01*
X29642Y-41678D02*
X29614Y-41716D01*
X29557Y-41754D01*
X29442Y-41773D01*
X29242Y-41773D01*
X29128Y-41754D01*
X29071Y-41716D01*
X29042Y-41678D01*
X29042Y-41602D01*
X29071Y-41564D01*
X29128Y-41526D01*
X29242Y-41507D01*
X29442Y-41507D01*
X29557Y-41526D01*
X29614Y-41564D01*
X29642Y-41602D01*
X29642Y-41678D01*
X29642Y-41126D02*
X29642Y-41354D01*
X29642Y-41240D02*
X29042Y-41240D01*
X29128Y-41278D01*
X29185Y-41316D01*
X29214Y-41354D01*
X29500Y-39192D02*
X29500Y-38592D01*
X29633Y-39021D01*
X29766Y-38592D01*
X29766Y-39192D01*
X30033Y-38592D02*
X30109Y-38592D01*
X30147Y-38621D01*
X30185Y-38678D01*
X30204Y-38792D01*
X30204Y-38992D01*
X30185Y-39107D01*
X30147Y-39164D01*
X30109Y-39192D01*
X30033Y-39192D01*
X29995Y-39164D01*
X29957Y-39107D01*
X29938Y-38992D01*
X29938Y-38792D01*
X29957Y-38678D01*
X29995Y-38621D01*
X30033Y-38592D01*
X30357Y-39164D02*
X30414Y-39192D01*
X30509Y-39192D01*
X30547Y-39164D01*
X30566Y-39135D01*
X30585Y-39078D01*
X30585Y-39021D01*
X30566Y-38964D01*
X30547Y-38935D01*
X30509Y-38907D01*
X30433Y-38878D01*
X30395Y-38850D01*
X30376Y-38821D01*
X30357Y-38764D01*
X30357Y-38707D01*
X30376Y-38650D01*
X30395Y-38621D01*
X30433Y-38592D01*
X30528Y-38592D01*
X30585Y-38621D01*
X30890Y-38878D02*
X30757Y-38878D01*
X30757Y-39192D02*
X30757Y-38592D01*
X30947Y-38592D01*
X31100Y-38878D02*
X31233Y-38878D01*
X31290Y-39192D02*
X31100Y-39192D01*
X31100Y-38592D01*
X31290Y-38592D01*
X31404Y-38592D02*
X31633Y-38592D01*
X31519Y-39192D02*
X31519Y-38592D01*
X31671Y-39250D02*
X31976Y-39250D01*
X32071Y-39192D02*
X32071Y-38592D01*
X32300Y-39192D01*
X32300Y-38592D01*
X29700Y-36988D02*
X29671Y-37026D01*
X29614Y-37064D01*
X29528Y-37121D01*
X29500Y-37159D01*
X29500Y-37197D01*
X29642Y-37178D02*
X29614Y-37216D01*
X29557Y-37254D01*
X29442Y-37273D01*
X29242Y-37273D01*
X29128Y-37254D01*
X29071Y-37216D01*
X29042Y-37178D01*
X29042Y-37102D01*
X29071Y-37064D01*
X29128Y-37026D01*
X29242Y-37007D01*
X29442Y-37007D01*
X29557Y-37026D01*
X29614Y-37064D01*
X29642Y-37102D01*
X29642Y-37178D01*
X29100Y-36854D02*
X29071Y-36835D01*
X29042Y-36797D01*
X29042Y-36702D01*
X29071Y-36664D01*
X29100Y-36645D01*
X29157Y-36626D01*
X29214Y-36626D01*
X29300Y-36645D01*
X29642Y-36873D01*
X29642Y-36626D01*
X29500Y-34692D02*
X29500Y-34092D01*
X29633Y-34521D01*
X29766Y-34092D01*
X29766Y-34692D01*
X30033Y-34092D02*
X30109Y-34092D01*
X30147Y-34121D01*
X30185Y-34178D01*
X30204Y-34292D01*
X30204Y-34492D01*
X30185Y-34607D01*
X30147Y-34664D01*
X30109Y-34692D01*
X30033Y-34692D01*
X29995Y-34664D01*
X29957Y-34607D01*
X29938Y-34492D01*
X29938Y-34292D01*
X29957Y-34178D01*
X29995Y-34121D01*
X30033Y-34092D01*
X30357Y-34664D02*
X30414Y-34692D01*
X30509Y-34692D01*
X30547Y-34664D01*
X30566Y-34635D01*
X30585Y-34578D01*
X30585Y-34521D01*
X30566Y-34464D01*
X30547Y-34435D01*
X30509Y-34407D01*
X30433Y-34378D01*
X30395Y-34350D01*
X30376Y-34321D01*
X30357Y-34264D01*
X30357Y-34207D01*
X30376Y-34150D01*
X30395Y-34121D01*
X30433Y-34092D01*
X30528Y-34092D01*
X30585Y-34121D01*
X30890Y-34378D02*
X30757Y-34378D01*
X30757Y-34692D02*
X30757Y-34092D01*
X30947Y-34092D01*
X31100Y-34378D02*
X31233Y-34378D01*
X31290Y-34692D02*
X31100Y-34692D01*
X31100Y-34092D01*
X31290Y-34092D01*
X31404Y-34092D02*
X31633Y-34092D01*
X31519Y-34692D02*
X31519Y-34092D01*
X31671Y-34750D02*
X31976Y-34750D01*
X32071Y-34692D02*
X32071Y-34092D01*
X32300Y-34692D01*
X32300Y-34092D01*
X29700Y-32738D02*
X29671Y-32776D01*
X29614Y-32814D01*
X29528Y-32871D01*
X29500Y-32909D01*
X29500Y-32947D01*
X29642Y-32928D02*
X29614Y-32966D01*
X29557Y-33004D01*
X29442Y-33023D01*
X29242Y-33023D01*
X29128Y-33004D01*
X29071Y-32966D01*
X29042Y-32928D01*
X29042Y-32852D01*
X29071Y-32814D01*
X29128Y-32776D01*
X29242Y-32757D01*
X29442Y-32757D01*
X29557Y-32776D01*
X29614Y-32814D01*
X29642Y-32852D01*
X29642Y-32928D01*
X29042Y-32623D02*
X29042Y-32376D01*
X29271Y-32509D01*
X29271Y-32452D01*
X29300Y-32414D01*
X29328Y-32395D01*
X29385Y-32376D01*
X29528Y-32376D01*
X29585Y-32395D01*
X29614Y-32414D01*
X29642Y-32452D01*
X29642Y-32566D01*
X29614Y-32604D01*
X29585Y-32623D01*
X29500Y-30442D02*
X29500Y-29842D01*
X29633Y-30271D01*
X29766Y-29842D01*
X29766Y-30442D01*
X30033Y-29842D02*
X30109Y-29842D01*
X30147Y-29871D01*
X30185Y-29928D01*
X30204Y-30042D01*
X30204Y-30242D01*
X30185Y-30357D01*
X30147Y-30414D01*
X30109Y-30442D01*
X30033Y-30442D01*
X29995Y-30414D01*
X29957Y-30357D01*
X29938Y-30242D01*
X29938Y-30042D01*
X29957Y-29928D01*
X29995Y-29871D01*
X30033Y-29842D01*
X30357Y-30414D02*
X30414Y-30442D01*
X30509Y-30442D01*
X30547Y-30414D01*
X30566Y-30385D01*
X30585Y-30328D01*
X30585Y-30271D01*
X30566Y-30214D01*
X30547Y-30185D01*
X30509Y-30157D01*
X30433Y-30128D01*
X30395Y-30100D01*
X30376Y-30071D01*
X30357Y-30014D01*
X30357Y-29957D01*
X30376Y-29900D01*
X30395Y-29871D01*
X30433Y-29842D01*
X30528Y-29842D01*
X30585Y-29871D01*
X30890Y-30128D02*
X30757Y-30128D01*
X30757Y-30442D02*
X30757Y-29842D01*
X30947Y-29842D01*
X31100Y-30128D02*
X31233Y-30128D01*
X31290Y-30442D02*
X31100Y-30442D01*
X31100Y-29842D01*
X31290Y-29842D01*
X31404Y-29842D02*
X31633Y-29842D01*
X31519Y-30442D02*
X31519Y-29842D01*
X31671Y-30500D02*
X31976Y-30500D01*
X32071Y-30442D02*
X32071Y-29842D01*
X32300Y-30442D01*
X32300Y-29842D01*
M02*
