G04 (created by PCBNEW (2012-nov-02)-testing) date Mon 24 Dec 2012 01:36:53 PM MST*
%MOIN*%
G04 Gerber Fmt 3.4, Leading zero omitted, Abs format*
%FSLAX34Y34*%
G01*
G70*
G90*
G04 APERTURE LIST*
%ADD10C,0.006*%
%ADD11R,0.06X0.06*%
%ADD12C,0.06*%
%ADD13R,0.055X0.055*%
%ADD14C,0.055*%
%ADD15R,0.07X0.07*%
%ADD16C,0.07*%
G04 APERTURE END LIST*
G54D10*
G54D11*
X13500Y-9000D03*
G54D12*
X12500Y-9000D03*
X11500Y-9000D03*
X10500Y-9000D03*
X9500Y-9000D03*
X8500Y-9000D03*
G54D11*
X7500Y-9000D03*
G54D12*
X6500Y-9000D03*
X6500Y-14000D03*
X7500Y-14000D03*
X8500Y-14000D03*
X9500Y-14000D03*
X10500Y-14000D03*
X11500Y-14000D03*
X12500Y-14000D03*
X13500Y-14000D03*
G54D11*
X22000Y-9000D03*
G54D12*
X21000Y-9000D03*
X20000Y-9000D03*
X19000Y-9000D03*
X18000Y-9000D03*
X17000Y-9000D03*
G54D11*
X16000Y-9000D03*
G54D12*
X15000Y-9000D03*
X15000Y-14000D03*
X16000Y-14000D03*
X17000Y-14000D03*
X18000Y-14000D03*
X19000Y-14000D03*
X20000Y-14000D03*
X21000Y-14000D03*
X22000Y-14000D03*
G54D11*
X31000Y-9000D03*
G54D12*
X30000Y-9000D03*
X29000Y-9000D03*
X28000Y-9000D03*
X27000Y-9000D03*
X26000Y-9000D03*
G54D11*
X25000Y-9000D03*
G54D12*
X24000Y-9000D03*
X24000Y-14000D03*
X25000Y-14000D03*
X26000Y-14000D03*
X27000Y-14000D03*
X28000Y-14000D03*
X29000Y-14000D03*
X30000Y-14000D03*
X31000Y-14000D03*
G54D13*
X8500Y-6000D03*
G54D14*
X9500Y-6000D03*
X10500Y-6000D03*
X11500Y-6000D03*
G54D13*
X26000Y-6000D03*
G54D14*
X27000Y-6000D03*
X28000Y-6000D03*
X29000Y-6000D03*
G54D13*
X17000Y-6000D03*
G54D14*
X18000Y-6000D03*
X19000Y-6000D03*
X20000Y-6000D03*
G54D15*
X30500Y-12500D03*
G54D16*
X30500Y-10500D03*
G54D15*
X21000Y-12500D03*
G54D16*
X21000Y-10500D03*
G54D15*
X12500Y-12500D03*
G54D16*
X12500Y-10500D03*
G54D13*
X6500Y-25250D03*
G54D14*
X6500Y-26250D03*
X6500Y-27250D03*
G54D13*
X6500Y-21500D03*
G54D14*
X6500Y-22500D03*
X6500Y-23500D03*
G54D13*
X6500Y-17750D03*
G54D14*
X6500Y-18750D03*
X6500Y-19750D03*
G54D13*
X27250Y-26750D03*
G54D14*
X27250Y-25750D03*
X27250Y-24750D03*
X27250Y-23750D03*
X27250Y-22750D03*
X27250Y-21750D03*
X27250Y-20750D03*
X27250Y-19750D03*
X27250Y-18750D03*
X27250Y-17750D03*
G54D13*
X28250Y-26750D03*
G54D14*
X28250Y-25750D03*
X28250Y-24750D03*
X28250Y-23750D03*
X28250Y-22750D03*
X28250Y-21750D03*
X28250Y-20750D03*
X28250Y-19750D03*
X28250Y-18750D03*
X28250Y-17750D03*
G54D13*
X10250Y-26750D03*
G54D14*
X10250Y-25750D03*
X10250Y-24750D03*
X10250Y-23750D03*
X10250Y-22750D03*
X10250Y-21750D03*
X10250Y-20750D03*
X10250Y-19750D03*
X10250Y-18750D03*
X10250Y-17750D03*
G54D11*
X20250Y-16250D03*
G54D12*
X20250Y-17250D03*
X19250Y-16250D03*
X19250Y-17250D03*
X18250Y-16250D03*
X18250Y-17250D03*
G54D13*
X32750Y-13250D03*
G54D14*
X32750Y-12250D03*
X32750Y-11250D03*
X32750Y-10250D03*
G54D13*
X13500Y-24500D03*
G54D14*
X12500Y-24500D03*
G54D13*
X13500Y-26000D03*
G54D14*
X12500Y-26000D03*
G54D13*
X13500Y-27500D03*
G54D14*
X12500Y-27500D03*
X12250Y-23250D03*
X15250Y-23250D03*
X16250Y-23250D03*
X19250Y-23250D03*
X20750Y-23250D03*
X23750Y-23250D03*
G54D15*
X14750Y-20250D03*
G54D16*
X12750Y-20250D03*
G54D15*
X18750Y-20250D03*
G54D16*
X16750Y-20250D03*
G54D15*
X23250Y-20250D03*
G54D16*
X21250Y-20250D03*
G54D13*
X11250Y-26750D03*
G54D14*
X11250Y-25750D03*
X11250Y-24750D03*
X11250Y-23750D03*
X11250Y-22750D03*
X11250Y-21750D03*
X11250Y-20750D03*
X11250Y-19750D03*
X11250Y-18750D03*
X11250Y-17750D03*
G54D13*
X8750Y-26750D03*
G54D14*
X8750Y-25750D03*
X8750Y-24750D03*
G54D13*
X33150Y-31200D03*
G54D14*
X33150Y-32200D03*
X33150Y-33200D03*
X33150Y-34200D03*
G54D13*
X33150Y-35450D03*
G54D14*
X33150Y-36450D03*
X33150Y-37450D03*
X33150Y-38450D03*
G54D13*
X21650Y-42450D03*
G54D14*
X22650Y-42450D03*
X23650Y-42450D03*
X24650Y-42450D03*
G54D13*
X14150Y-42450D03*
G54D14*
X15150Y-42450D03*
X16150Y-42450D03*
X17150Y-42450D03*
G54D13*
X33150Y-39950D03*
G54D14*
X33150Y-40950D03*
X33150Y-41950D03*
X33150Y-42950D03*
G54D13*
X10400Y-41700D03*
G54D14*
X10400Y-40700D03*
X10400Y-39700D03*
X10400Y-38700D03*
X10400Y-37700D03*
X10400Y-36700D03*
X10400Y-35700D03*
X10400Y-34700D03*
X10400Y-33700D03*
X10400Y-32700D03*
G54D13*
X27400Y-41950D03*
G54D14*
X27400Y-40950D03*
X27400Y-39950D03*
X27400Y-38950D03*
X27400Y-37950D03*
X27400Y-36950D03*
X27400Y-35950D03*
X27400Y-34950D03*
X27400Y-33950D03*
X27400Y-32950D03*
G54D13*
X11400Y-41700D03*
G54D14*
X11400Y-40700D03*
X11400Y-39700D03*
X11400Y-38700D03*
X11400Y-37700D03*
X11400Y-36700D03*
X11400Y-35700D03*
X11400Y-34700D03*
X11400Y-33700D03*
X11400Y-32700D03*
G54D13*
X28400Y-41950D03*
G54D14*
X28400Y-40950D03*
X28400Y-39950D03*
X28400Y-38950D03*
X28400Y-37950D03*
X28400Y-36950D03*
X28400Y-35950D03*
X28400Y-34950D03*
X28400Y-33950D03*
X28400Y-32950D03*
X31900Y-39950D03*
X31900Y-42950D03*
X31900Y-35450D03*
X31900Y-38450D03*
X31900Y-31200D03*
X31900Y-34200D03*
G54D11*
X18650Y-31700D03*
G54D12*
X18650Y-30700D03*
X19650Y-31700D03*
X19650Y-30700D03*
X20650Y-31700D03*
X20650Y-30700D03*
G54D15*
X14900Y-33950D03*
G54D16*
X16900Y-33950D03*
G54D15*
X21900Y-33950D03*
G54D16*
X23900Y-33950D03*
G54D11*
X25400Y-40700D03*
G54D12*
X25400Y-39700D03*
X25400Y-38700D03*
X25400Y-37700D03*
X25400Y-36700D03*
X25400Y-35700D03*
G54D11*
X25400Y-34700D03*
G54D12*
X25400Y-33700D03*
X20400Y-33700D03*
X20400Y-34700D03*
X20400Y-35700D03*
X20400Y-36700D03*
X20400Y-37700D03*
X20400Y-38700D03*
X20400Y-39700D03*
X20400Y-40700D03*
G54D11*
X18400Y-40700D03*
G54D12*
X18400Y-39700D03*
X18400Y-38700D03*
X18400Y-37700D03*
X18400Y-36700D03*
X18400Y-35700D03*
G54D11*
X18400Y-34700D03*
G54D12*
X18400Y-33700D03*
X13400Y-33700D03*
X13400Y-34700D03*
X13400Y-35700D03*
X13400Y-36700D03*
X13400Y-37700D03*
X13400Y-38700D03*
X13400Y-39700D03*
X13400Y-40700D03*
G54D16*
X30650Y-40450D03*
X30650Y-41450D03*
G54D15*
X30650Y-42450D03*
G54D16*
X30650Y-35950D03*
X30650Y-36950D03*
G54D15*
X30650Y-37950D03*
G54D16*
X30650Y-31700D03*
X30650Y-32700D03*
G54D15*
X30650Y-33700D03*
M02*
