G04 (created by PCBNEW (2012-nov-02)-testing) date Mon 24 Dec 2012 12:47:26 PM MST*
%MOIN*%
G04 Gerber Fmt 3.4, Leading zero omitted, Abs format*
%FSLAX34Y34*%
G01*
G70*
G90*
G04 APERTURE LIST*
%ADD10C,0.006*%
%ADD11R,0.06X0.06*%
%ADD12C,0.06*%
%ADD13R,0.055X0.055*%
%ADD14C,0.055*%
%ADD15R,0.07X0.07*%
%ADD16C,0.07*%
%ADD17C,0.035*%
%ADD18C,0.012*%
%ADD19C,0.02*%
%ADD20C,0.01*%
G04 APERTURE END LIST*
G54D10*
G54D11*
X13500Y-9000D03*
G54D12*
X12500Y-9000D03*
X11500Y-9000D03*
X10500Y-9000D03*
X9500Y-9000D03*
X8500Y-9000D03*
G54D11*
X7500Y-9000D03*
G54D12*
X6500Y-9000D03*
X6500Y-14000D03*
X7500Y-14000D03*
X8500Y-14000D03*
X9500Y-14000D03*
X10500Y-14000D03*
X11500Y-14000D03*
X12500Y-14000D03*
X13500Y-14000D03*
G54D11*
X22000Y-9000D03*
G54D12*
X21000Y-9000D03*
X20000Y-9000D03*
X19000Y-9000D03*
X18000Y-9000D03*
X17000Y-9000D03*
G54D11*
X16000Y-9000D03*
G54D12*
X15000Y-9000D03*
X15000Y-14000D03*
X16000Y-14000D03*
X17000Y-14000D03*
X18000Y-14000D03*
X19000Y-14000D03*
X20000Y-14000D03*
X21000Y-14000D03*
X22000Y-14000D03*
G54D11*
X31000Y-9000D03*
G54D12*
X30000Y-9000D03*
X29000Y-9000D03*
X28000Y-9000D03*
X27000Y-9000D03*
X26000Y-9000D03*
G54D11*
X25000Y-9000D03*
G54D12*
X24000Y-9000D03*
X24000Y-14000D03*
X25000Y-14000D03*
X26000Y-14000D03*
X27000Y-14000D03*
X28000Y-14000D03*
X29000Y-14000D03*
X30000Y-14000D03*
X31000Y-14000D03*
G54D13*
X8500Y-6000D03*
G54D14*
X9500Y-6000D03*
X10500Y-6000D03*
X11500Y-6000D03*
G54D13*
X26000Y-6000D03*
G54D14*
X27000Y-6000D03*
X28000Y-6000D03*
X29000Y-6000D03*
G54D13*
X17000Y-6000D03*
G54D14*
X18000Y-6000D03*
X19000Y-6000D03*
X20000Y-6000D03*
G54D15*
X30500Y-12500D03*
G54D16*
X30500Y-10500D03*
G54D15*
X21000Y-12500D03*
G54D16*
X21000Y-10500D03*
G54D15*
X12500Y-12500D03*
G54D16*
X12500Y-10500D03*
G54D13*
X6500Y-25250D03*
G54D14*
X6500Y-26250D03*
X6500Y-27250D03*
G54D13*
X6500Y-21500D03*
G54D14*
X6500Y-22500D03*
X6500Y-23500D03*
G54D13*
X6500Y-17750D03*
G54D14*
X6500Y-18750D03*
X6500Y-19750D03*
G54D13*
X27250Y-26750D03*
G54D14*
X27250Y-25750D03*
X27250Y-24750D03*
X27250Y-23750D03*
X27250Y-22750D03*
X27250Y-21750D03*
X27250Y-20750D03*
X27250Y-19750D03*
X27250Y-18750D03*
X27250Y-17750D03*
G54D13*
X28250Y-26750D03*
G54D14*
X28250Y-25750D03*
X28250Y-24750D03*
X28250Y-23750D03*
X28250Y-22750D03*
X28250Y-21750D03*
X28250Y-20750D03*
X28250Y-19750D03*
X28250Y-18750D03*
X28250Y-17750D03*
G54D13*
X10250Y-26750D03*
G54D14*
X10250Y-25750D03*
X10250Y-24750D03*
X10250Y-23750D03*
X10250Y-22750D03*
X10250Y-21750D03*
X10250Y-20750D03*
X10250Y-19750D03*
X10250Y-18750D03*
X10250Y-17750D03*
G54D11*
X20250Y-16250D03*
G54D12*
X20250Y-17250D03*
X19250Y-16250D03*
X19250Y-17250D03*
X18250Y-16250D03*
X18250Y-17250D03*
G54D13*
X32750Y-13250D03*
G54D14*
X32750Y-12250D03*
X32750Y-11250D03*
X32750Y-10250D03*
G54D13*
X13500Y-24500D03*
G54D14*
X12500Y-24500D03*
G54D13*
X13500Y-26000D03*
G54D14*
X12500Y-26000D03*
G54D13*
X13500Y-27500D03*
G54D14*
X12500Y-27500D03*
X12250Y-23250D03*
X15250Y-23250D03*
X16250Y-23250D03*
X19250Y-23250D03*
X20750Y-23250D03*
X23750Y-23250D03*
G54D15*
X14750Y-20250D03*
G54D16*
X12750Y-20250D03*
G54D15*
X18750Y-20250D03*
G54D16*
X16750Y-20250D03*
G54D15*
X23250Y-20250D03*
G54D16*
X21250Y-20250D03*
G54D13*
X11250Y-26750D03*
G54D14*
X11250Y-25750D03*
X11250Y-24750D03*
X11250Y-23750D03*
X11250Y-22750D03*
X11250Y-21750D03*
X11250Y-20750D03*
X11250Y-19750D03*
X11250Y-18750D03*
X11250Y-17750D03*
G54D13*
X8750Y-26750D03*
G54D14*
X8750Y-25750D03*
X8750Y-24750D03*
G54D17*
X31500Y-17000D03*
X18250Y-13250D03*
X15500Y-13250D03*
X18500Y-11750D03*
X17000Y-11750D03*
X24750Y-11750D03*
X23000Y-11250D03*
X15750Y-21750D03*
X22000Y-17250D03*
X21000Y-19250D03*
X25500Y-16500D03*
X18750Y-15000D03*
X13750Y-15000D03*
X14750Y-25250D03*
X5250Y-9250D03*
G54D18*
X27250Y-19750D02*
X25250Y-19750D01*
X17500Y-18000D02*
X13500Y-14000D01*
X23500Y-18000D02*
X17500Y-18000D01*
X25250Y-19750D02*
X23500Y-18000D01*
X22000Y-14000D02*
X22000Y-14750D01*
X26000Y-18750D02*
X27250Y-18750D01*
X22000Y-14750D02*
X26000Y-18750D01*
X32000Y-15000D02*
X31000Y-14000D01*
X32000Y-16500D02*
X32000Y-15000D01*
X31500Y-17000D02*
X32000Y-16500D01*
X13500Y-24500D02*
X14500Y-24500D01*
X15250Y-23750D02*
X15250Y-23250D01*
X14500Y-24500D02*
X15250Y-23750D01*
X13500Y-26000D02*
X15000Y-26000D01*
X17500Y-25000D02*
X19250Y-23250D01*
X16000Y-25000D02*
X17500Y-25000D01*
X15000Y-26000D02*
X16000Y-25000D01*
X6500Y-26250D02*
X7250Y-26250D01*
X7750Y-22250D02*
X10250Y-19750D01*
X7750Y-25750D02*
X7750Y-22250D01*
X7250Y-26250D02*
X7750Y-25750D01*
X6500Y-22500D02*
X6750Y-22500D01*
X9250Y-19750D02*
X10250Y-18750D01*
X9250Y-20000D02*
X9250Y-19750D01*
X6750Y-22500D02*
X9250Y-20000D01*
X6500Y-18750D02*
X9250Y-18750D01*
X9250Y-18750D02*
X10250Y-17750D01*
X9500Y-14000D02*
X10250Y-13250D01*
X15500Y-13250D02*
X10250Y-13250D01*
X18000Y-14000D02*
X18000Y-13500D01*
X26250Y-13250D02*
X27000Y-14000D01*
X18250Y-13250D02*
X26250Y-13250D01*
X18000Y-13500D02*
X18250Y-13250D01*
X8500Y-14000D02*
X8500Y-13250D01*
X10000Y-11750D02*
X8500Y-13250D01*
X17000Y-11750D02*
X10000Y-11750D01*
X17000Y-13250D02*
X17000Y-14000D01*
X18500Y-11750D02*
X17000Y-13250D01*
X24750Y-11750D02*
X18500Y-11750D01*
X18500Y-11250D02*
X10000Y-11250D01*
X7500Y-13750D02*
X7500Y-14000D01*
X10000Y-11250D02*
X7500Y-13750D01*
X16000Y-14000D02*
X16000Y-13750D01*
X18500Y-11250D02*
X23000Y-11250D01*
X16000Y-13750D02*
X18500Y-11250D01*
X21000Y-14000D02*
X21000Y-14750D01*
X15750Y-21750D02*
X11250Y-21750D01*
X22000Y-15750D02*
X22000Y-17250D01*
X21000Y-14750D02*
X22000Y-15750D01*
X30000Y-14000D02*
X30000Y-16000D01*
X12000Y-20000D02*
X11250Y-20750D01*
X12000Y-19500D02*
X12000Y-20000D01*
X12250Y-19250D02*
X12000Y-19500D01*
X13000Y-19250D02*
X12250Y-19250D01*
X21000Y-19250D02*
X13000Y-19250D01*
X29500Y-16500D02*
X25500Y-16500D01*
X30000Y-16000D02*
X29500Y-16500D01*
X16000Y-15000D02*
X15000Y-14000D01*
X18750Y-15000D02*
X16000Y-15000D01*
X6500Y-14000D02*
X6500Y-14250D01*
X7250Y-15000D02*
X13750Y-15000D01*
X6500Y-14250D02*
X7250Y-15000D01*
X29000Y-14000D02*
X28000Y-14000D01*
X19000Y-14000D02*
X20000Y-14000D01*
X13500Y-27500D02*
X14500Y-27500D01*
X21000Y-26000D02*
X23750Y-23250D01*
X16000Y-26000D02*
X21000Y-26000D01*
X14500Y-27500D02*
X16000Y-26000D01*
X11500Y-14000D02*
X10500Y-14000D01*
G54D19*
X16250Y-23750D02*
X14750Y-25250D01*
X16250Y-23250D02*
X16250Y-23750D01*
X13750Y-7750D02*
X6250Y-7750D01*
X5250Y-8750D02*
X5250Y-9250D01*
X6250Y-7750D02*
X5250Y-8750D01*
X21750Y-7750D02*
X13750Y-7750D01*
X13750Y-7750D02*
X12500Y-9000D01*
X21000Y-9000D02*
X21000Y-8500D01*
X28750Y-7750D02*
X30000Y-9000D01*
X21750Y-7750D02*
X28750Y-7750D01*
X21000Y-8500D02*
X21750Y-7750D01*
G54D18*
X13000Y-22500D02*
X12250Y-23250D01*
X16750Y-22500D02*
X13000Y-22500D01*
X20000Y-22500D02*
X20750Y-23250D01*
X16750Y-22500D02*
X20000Y-22500D01*
X16250Y-23000D02*
X16750Y-22500D01*
X16250Y-23250D02*
X16250Y-23000D01*
G54D10*
G36*
X27085Y-19250D02*
X26953Y-19304D01*
X26817Y-19440D01*
X25378Y-19440D01*
X23719Y-17780D01*
X23618Y-17713D01*
X23500Y-17690D01*
X20800Y-17690D01*
X20800Y-16500D01*
X20800Y-15900D01*
X20762Y-15808D01*
X20691Y-15738D01*
X20599Y-15700D01*
X20500Y-15699D01*
X19900Y-15699D01*
X19808Y-15737D01*
X19738Y-15808D01*
X19700Y-15900D01*
X19700Y-15922D01*
X19561Y-15784D01*
X19359Y-15700D01*
X19141Y-15699D01*
X18938Y-15783D01*
X18784Y-15938D01*
X18750Y-16019D01*
X18716Y-15938D01*
X18561Y-15784D01*
X18359Y-15700D01*
X18141Y-15699D01*
X17938Y-15783D01*
X17784Y-15938D01*
X17700Y-16140D01*
X17699Y-16358D01*
X17783Y-16561D01*
X17938Y-16715D01*
X18140Y-16799D01*
X18358Y-16800D01*
X18561Y-16716D01*
X18715Y-16561D01*
X18749Y-16480D01*
X18783Y-16561D01*
X18938Y-16715D01*
X19140Y-16799D01*
X19358Y-16800D01*
X19561Y-16716D01*
X19699Y-16577D01*
X19699Y-16599D01*
X19737Y-16691D01*
X19808Y-16761D01*
X19900Y-16799D01*
X19999Y-16800D01*
X20599Y-16800D01*
X20691Y-16762D01*
X20761Y-16691D01*
X20799Y-16599D01*
X20800Y-16500D01*
X20800Y-17690D01*
X17628Y-17690D01*
X14049Y-14111D01*
X14049Y-14109D01*
X14050Y-13891D01*
X13966Y-13688D01*
X13837Y-13560D01*
X14662Y-13560D01*
X14534Y-13688D01*
X14450Y-13890D01*
X14449Y-14108D01*
X14533Y-14311D01*
X14688Y-14465D01*
X14890Y-14549D01*
X15108Y-14550D01*
X15110Y-14549D01*
X15780Y-15219D01*
X15881Y-15286D01*
X16000Y-15310D01*
X18458Y-15310D01*
X18508Y-15360D01*
X18665Y-15424D01*
X18834Y-15425D01*
X18990Y-15360D01*
X19110Y-15241D01*
X19174Y-15084D01*
X19175Y-14915D01*
X19110Y-14759D01*
X18991Y-14639D01*
X18834Y-14575D01*
X18665Y-14574D01*
X18509Y-14639D01*
X18458Y-14690D01*
X16128Y-14690D01*
X15988Y-14549D01*
X16108Y-14550D01*
X16311Y-14466D01*
X16465Y-14311D01*
X16499Y-14230D01*
X16533Y-14311D01*
X16688Y-14465D01*
X16890Y-14549D01*
X17108Y-14550D01*
X17311Y-14466D01*
X17465Y-14311D01*
X17499Y-14230D01*
X17533Y-14311D01*
X17688Y-14465D01*
X17890Y-14549D01*
X18108Y-14550D01*
X18311Y-14466D01*
X18465Y-14311D01*
X18499Y-14230D01*
X18533Y-14311D01*
X18688Y-14465D01*
X18890Y-14549D01*
X19108Y-14550D01*
X19311Y-14466D01*
X19465Y-14311D01*
X19466Y-14310D01*
X19532Y-14310D01*
X19533Y-14311D01*
X19688Y-14465D01*
X19890Y-14549D01*
X20108Y-14550D01*
X20311Y-14466D01*
X20465Y-14311D01*
X20499Y-14230D01*
X20533Y-14311D01*
X20688Y-14465D01*
X20690Y-14466D01*
X20690Y-14750D01*
X20713Y-14868D01*
X20780Y-14969D01*
X21690Y-15878D01*
X21690Y-16958D01*
X21639Y-17008D01*
X21575Y-17165D01*
X21574Y-17334D01*
X21639Y-17490D01*
X21758Y-17610D01*
X21915Y-17674D01*
X22084Y-17675D01*
X22240Y-17610D01*
X22360Y-17491D01*
X22424Y-17334D01*
X22425Y-17165D01*
X22360Y-17009D01*
X22310Y-16958D01*
X22310Y-15750D01*
X22286Y-15631D01*
X22219Y-15530D01*
X21310Y-14621D01*
X21310Y-14467D01*
X21311Y-14466D01*
X21465Y-14311D01*
X21499Y-14230D01*
X21533Y-14311D01*
X21688Y-14465D01*
X21690Y-14466D01*
X21690Y-14750D01*
X21713Y-14868D01*
X21780Y-14969D01*
X25780Y-18969D01*
X25780Y-18969D01*
X25881Y-19036D01*
X25881Y-19036D01*
X25976Y-19055D01*
X25999Y-19060D01*
X25999Y-19059D01*
X26000Y-19060D01*
X26817Y-19060D01*
X26952Y-19194D01*
X27085Y-19250D01*
X27085Y-19250D01*
G37*
G54D20*
X27085Y-19250D02*
X26953Y-19304D01*
X26817Y-19440D01*
X25378Y-19440D01*
X23719Y-17780D01*
X23618Y-17713D01*
X23500Y-17690D01*
X20800Y-17690D01*
X20800Y-16500D01*
X20800Y-15900D01*
X20762Y-15808D01*
X20691Y-15738D01*
X20599Y-15700D01*
X20500Y-15699D01*
X19900Y-15699D01*
X19808Y-15737D01*
X19738Y-15808D01*
X19700Y-15900D01*
X19700Y-15922D01*
X19561Y-15784D01*
X19359Y-15700D01*
X19141Y-15699D01*
X18938Y-15783D01*
X18784Y-15938D01*
X18750Y-16019D01*
X18716Y-15938D01*
X18561Y-15784D01*
X18359Y-15700D01*
X18141Y-15699D01*
X17938Y-15783D01*
X17784Y-15938D01*
X17700Y-16140D01*
X17699Y-16358D01*
X17783Y-16561D01*
X17938Y-16715D01*
X18140Y-16799D01*
X18358Y-16800D01*
X18561Y-16716D01*
X18715Y-16561D01*
X18749Y-16480D01*
X18783Y-16561D01*
X18938Y-16715D01*
X19140Y-16799D01*
X19358Y-16800D01*
X19561Y-16716D01*
X19699Y-16577D01*
X19699Y-16599D01*
X19737Y-16691D01*
X19808Y-16761D01*
X19900Y-16799D01*
X19999Y-16800D01*
X20599Y-16800D01*
X20691Y-16762D01*
X20761Y-16691D01*
X20799Y-16599D01*
X20800Y-16500D01*
X20800Y-17690D01*
X17628Y-17690D01*
X14049Y-14111D01*
X14049Y-14109D01*
X14050Y-13891D01*
X13966Y-13688D01*
X13837Y-13560D01*
X14662Y-13560D01*
X14534Y-13688D01*
X14450Y-13890D01*
X14449Y-14108D01*
X14533Y-14311D01*
X14688Y-14465D01*
X14890Y-14549D01*
X15108Y-14550D01*
X15110Y-14549D01*
X15780Y-15219D01*
X15881Y-15286D01*
X16000Y-15310D01*
X18458Y-15310D01*
X18508Y-15360D01*
X18665Y-15424D01*
X18834Y-15425D01*
X18990Y-15360D01*
X19110Y-15241D01*
X19174Y-15084D01*
X19175Y-14915D01*
X19110Y-14759D01*
X18991Y-14639D01*
X18834Y-14575D01*
X18665Y-14574D01*
X18509Y-14639D01*
X18458Y-14690D01*
X16128Y-14690D01*
X15988Y-14549D01*
X16108Y-14550D01*
X16311Y-14466D01*
X16465Y-14311D01*
X16499Y-14230D01*
X16533Y-14311D01*
X16688Y-14465D01*
X16890Y-14549D01*
X17108Y-14550D01*
X17311Y-14466D01*
X17465Y-14311D01*
X17499Y-14230D01*
X17533Y-14311D01*
X17688Y-14465D01*
X17890Y-14549D01*
X18108Y-14550D01*
X18311Y-14466D01*
X18465Y-14311D01*
X18499Y-14230D01*
X18533Y-14311D01*
X18688Y-14465D01*
X18890Y-14549D01*
X19108Y-14550D01*
X19311Y-14466D01*
X19465Y-14311D01*
X19466Y-14310D01*
X19532Y-14310D01*
X19533Y-14311D01*
X19688Y-14465D01*
X19890Y-14549D01*
X20108Y-14550D01*
X20311Y-14466D01*
X20465Y-14311D01*
X20499Y-14230D01*
X20533Y-14311D01*
X20688Y-14465D01*
X20690Y-14466D01*
X20690Y-14750D01*
X20713Y-14868D01*
X20780Y-14969D01*
X21690Y-15878D01*
X21690Y-16958D01*
X21639Y-17008D01*
X21575Y-17165D01*
X21574Y-17334D01*
X21639Y-17490D01*
X21758Y-17610D01*
X21915Y-17674D01*
X22084Y-17675D01*
X22240Y-17610D01*
X22360Y-17491D01*
X22424Y-17334D01*
X22425Y-17165D01*
X22360Y-17009D01*
X22310Y-16958D01*
X22310Y-15750D01*
X22286Y-15631D01*
X22219Y-15530D01*
X21310Y-14621D01*
X21310Y-14467D01*
X21311Y-14466D01*
X21465Y-14311D01*
X21499Y-14230D01*
X21533Y-14311D01*
X21688Y-14465D01*
X21690Y-14466D01*
X21690Y-14750D01*
X21713Y-14868D01*
X21780Y-14969D01*
X25780Y-18969D01*
X25780Y-18969D01*
X25881Y-19036D01*
X25881Y-19036D01*
X25976Y-19055D01*
X25999Y-19060D01*
X25999Y-19059D01*
X26000Y-19060D01*
X26817Y-19060D01*
X26952Y-19194D01*
X27085Y-19250D01*
G54D10*
G36*
X33950Y-17450D02*
X33500Y-17450D01*
X33275Y-17450D01*
X33275Y-12146D01*
X33195Y-11953D01*
X33047Y-11805D01*
X32854Y-11725D01*
X32646Y-11724D01*
X32453Y-11804D01*
X32305Y-11952D01*
X32225Y-12145D01*
X32224Y-12353D01*
X32304Y-12547D01*
X32452Y-12694D01*
X32524Y-12724D01*
X32425Y-12724D01*
X32333Y-12762D01*
X32263Y-12833D01*
X32225Y-12925D01*
X32224Y-13024D01*
X32224Y-13574D01*
X32262Y-13666D01*
X32333Y-13736D01*
X32425Y-13774D01*
X32524Y-13775D01*
X33074Y-13775D01*
X33166Y-13737D01*
X33236Y-13666D01*
X33274Y-13574D01*
X33275Y-13475D01*
X33275Y-12925D01*
X33237Y-12833D01*
X33166Y-12763D01*
X33074Y-12725D01*
X32975Y-12724D01*
X32975Y-12724D01*
X33047Y-12695D01*
X33194Y-12547D01*
X33274Y-12354D01*
X33275Y-12146D01*
X33275Y-17450D01*
X32310Y-17450D01*
X32310Y-16500D01*
X32310Y-15000D01*
X32286Y-14881D01*
X32219Y-14780D01*
X31549Y-14111D01*
X31549Y-14109D01*
X31550Y-13891D01*
X31466Y-13688D01*
X31311Y-13534D01*
X31109Y-13450D01*
X31100Y-13450D01*
X31100Y-12800D01*
X31100Y-12100D01*
X31062Y-12008D01*
X30991Y-11938D01*
X30899Y-11900D01*
X30800Y-11899D01*
X30100Y-11899D01*
X30008Y-11937D01*
X29938Y-12008D01*
X29900Y-12100D01*
X29899Y-12199D01*
X29899Y-12899D01*
X29937Y-12991D01*
X30008Y-13061D01*
X30100Y-13099D01*
X30199Y-13100D01*
X30899Y-13100D01*
X30991Y-13062D01*
X31061Y-12991D01*
X31099Y-12899D01*
X31100Y-12800D01*
X31100Y-13450D01*
X30891Y-13449D01*
X30688Y-13533D01*
X30534Y-13688D01*
X30500Y-13769D01*
X30466Y-13688D01*
X30311Y-13534D01*
X30109Y-13450D01*
X29891Y-13449D01*
X29688Y-13533D01*
X29534Y-13688D01*
X29500Y-13769D01*
X29466Y-13688D01*
X29311Y-13534D01*
X29109Y-13450D01*
X28891Y-13449D01*
X28688Y-13533D01*
X28534Y-13688D01*
X28533Y-13690D01*
X28467Y-13690D01*
X28466Y-13688D01*
X28311Y-13534D01*
X28109Y-13450D01*
X27891Y-13449D01*
X27688Y-13533D01*
X27534Y-13688D01*
X27500Y-13769D01*
X27466Y-13688D01*
X27311Y-13534D01*
X27109Y-13450D01*
X26891Y-13449D01*
X26889Y-13450D01*
X26469Y-13030D01*
X26368Y-12963D01*
X26250Y-12940D01*
X21583Y-12940D01*
X21599Y-12899D01*
X21600Y-12800D01*
X21600Y-12100D01*
X21583Y-12060D01*
X24458Y-12060D01*
X24508Y-12110D01*
X24665Y-12174D01*
X24834Y-12175D01*
X24990Y-12110D01*
X25110Y-11991D01*
X25174Y-11834D01*
X25175Y-11665D01*
X25110Y-11509D01*
X24991Y-11389D01*
X24834Y-11325D01*
X24665Y-11324D01*
X24550Y-11372D01*
X24550Y-8891D01*
X24466Y-8688D01*
X24311Y-8534D01*
X24109Y-8450D01*
X23891Y-8449D01*
X23688Y-8533D01*
X23534Y-8688D01*
X23450Y-8890D01*
X23449Y-9108D01*
X23533Y-9311D01*
X23688Y-9465D01*
X23890Y-9549D01*
X24108Y-9550D01*
X24311Y-9466D01*
X24465Y-9311D01*
X24549Y-9109D01*
X24550Y-8891D01*
X24550Y-11372D01*
X24509Y-11389D01*
X24458Y-11440D01*
X23381Y-11440D01*
X23424Y-11334D01*
X23425Y-11165D01*
X23360Y-11009D01*
X23241Y-10889D01*
X23084Y-10825D01*
X22915Y-10824D01*
X22759Y-10889D01*
X22708Y-10940D01*
X18500Y-10940D01*
X15550Y-10940D01*
X15550Y-8891D01*
X15466Y-8688D01*
X15311Y-8534D01*
X15109Y-8450D01*
X14891Y-8449D01*
X14688Y-8533D01*
X14534Y-8688D01*
X14450Y-8890D01*
X14449Y-9108D01*
X14533Y-9311D01*
X14688Y-9465D01*
X14890Y-9549D01*
X15108Y-9550D01*
X15311Y-9466D01*
X15465Y-9311D01*
X15549Y-9109D01*
X15550Y-8891D01*
X15550Y-10940D01*
X10000Y-10940D01*
X9881Y-10963D01*
X9780Y-11030D01*
X7340Y-13470D01*
X7188Y-13533D01*
X7050Y-13671D01*
X7050Y-8891D01*
X6966Y-8688D01*
X6811Y-8534D01*
X6609Y-8450D01*
X6391Y-8449D01*
X6188Y-8533D01*
X6034Y-8688D01*
X5950Y-8890D01*
X5949Y-9108D01*
X6033Y-9311D01*
X6188Y-9465D01*
X6390Y-9549D01*
X6608Y-9550D01*
X6811Y-9466D01*
X6965Y-9311D01*
X7049Y-9109D01*
X7050Y-8891D01*
X7050Y-13671D01*
X7034Y-13688D01*
X7000Y-13769D01*
X6966Y-13688D01*
X6811Y-13534D01*
X6609Y-13450D01*
X6391Y-13449D01*
X6188Y-13533D01*
X6034Y-13688D01*
X5950Y-13890D01*
X5949Y-14108D01*
X6033Y-14311D01*
X6188Y-14465D01*
X6341Y-14529D01*
X7030Y-15219D01*
X7030Y-15219D01*
X7131Y-15286D01*
X7131Y-15286D01*
X7226Y-15305D01*
X7249Y-15310D01*
X7249Y-15309D01*
X7250Y-15310D01*
X13458Y-15310D01*
X13508Y-15360D01*
X13665Y-15424D01*
X13834Y-15425D01*
X13990Y-15360D01*
X14110Y-15241D01*
X14166Y-15104D01*
X17280Y-18219D01*
X17280Y-18219D01*
X17381Y-18286D01*
X17381Y-18286D01*
X17476Y-18305D01*
X17499Y-18310D01*
X17499Y-18309D01*
X17500Y-18310D01*
X23371Y-18310D01*
X25030Y-19969D01*
X25131Y-20036D01*
X25250Y-20060D01*
X26817Y-20060D01*
X26952Y-20194D01*
X27085Y-20250D01*
X26953Y-20304D01*
X26805Y-20452D01*
X26725Y-20645D01*
X26724Y-20853D01*
X26804Y-21047D01*
X26952Y-21194D01*
X27085Y-21250D01*
X26953Y-21304D01*
X26805Y-21452D01*
X26725Y-21645D01*
X26724Y-21853D01*
X26804Y-22047D01*
X26952Y-22194D01*
X27085Y-22250D01*
X26953Y-22304D01*
X26805Y-22452D01*
X26725Y-22645D01*
X26724Y-22853D01*
X26804Y-23047D01*
X26952Y-23194D01*
X27085Y-23250D01*
X26953Y-23304D01*
X26805Y-23452D01*
X26725Y-23645D01*
X26724Y-23853D01*
X26804Y-24047D01*
X26952Y-24194D01*
X27085Y-24250D01*
X26953Y-24304D01*
X26805Y-24452D01*
X26725Y-24645D01*
X26724Y-24853D01*
X26804Y-25047D01*
X26952Y-25194D01*
X27145Y-25274D01*
X27353Y-25275D01*
X27547Y-25195D01*
X27694Y-25047D01*
X27750Y-24914D01*
X27804Y-25047D01*
X27952Y-25194D01*
X28085Y-25250D01*
X27953Y-25304D01*
X27805Y-25452D01*
X27725Y-25645D01*
X27724Y-25853D01*
X27804Y-26047D01*
X27952Y-26194D01*
X28145Y-26274D01*
X28353Y-26275D01*
X28547Y-26195D01*
X28694Y-26047D01*
X28774Y-25854D01*
X28775Y-25646D01*
X28695Y-25453D01*
X28547Y-25305D01*
X28414Y-25249D01*
X28547Y-25195D01*
X28694Y-25047D01*
X28774Y-24854D01*
X28775Y-24646D01*
X28695Y-24453D01*
X28547Y-24305D01*
X28414Y-24249D01*
X28547Y-24195D01*
X28694Y-24047D01*
X28774Y-23854D01*
X28775Y-23646D01*
X28695Y-23453D01*
X28547Y-23305D01*
X28414Y-23249D01*
X28547Y-23195D01*
X28694Y-23047D01*
X28774Y-22854D01*
X28775Y-22646D01*
X28695Y-22453D01*
X28547Y-22305D01*
X28414Y-22249D01*
X28547Y-22195D01*
X28694Y-22047D01*
X28774Y-21854D01*
X28775Y-21646D01*
X28695Y-21453D01*
X28547Y-21305D01*
X28414Y-21249D01*
X28547Y-21195D01*
X28694Y-21047D01*
X28774Y-20854D01*
X28775Y-20646D01*
X28695Y-20453D01*
X28547Y-20305D01*
X28414Y-20249D01*
X28547Y-20195D01*
X28694Y-20047D01*
X28774Y-19854D01*
X28775Y-19646D01*
X28695Y-19453D01*
X28547Y-19305D01*
X28414Y-19249D01*
X28547Y-19195D01*
X28694Y-19047D01*
X28774Y-18854D01*
X28775Y-18646D01*
X28695Y-18453D01*
X28547Y-18305D01*
X28414Y-18249D01*
X28547Y-18195D01*
X28694Y-18047D01*
X28774Y-17854D01*
X28775Y-17646D01*
X28695Y-17453D01*
X28547Y-17305D01*
X28354Y-17225D01*
X28146Y-17224D01*
X27953Y-17304D01*
X27805Y-17452D01*
X27749Y-17585D01*
X27695Y-17453D01*
X27547Y-17305D01*
X27354Y-17225D01*
X27146Y-17224D01*
X26953Y-17304D01*
X26805Y-17452D01*
X26725Y-17645D01*
X26724Y-17853D01*
X26804Y-18047D01*
X26952Y-18194D01*
X27085Y-18250D01*
X26953Y-18304D01*
X26817Y-18440D01*
X26128Y-18440D01*
X22310Y-14621D01*
X22310Y-14467D01*
X22311Y-14466D01*
X22465Y-14311D01*
X22549Y-14109D01*
X22550Y-13891D01*
X22466Y-13688D01*
X22337Y-13560D01*
X23662Y-13560D01*
X23534Y-13688D01*
X23450Y-13890D01*
X23449Y-14108D01*
X23533Y-14311D01*
X23688Y-14465D01*
X23890Y-14549D01*
X24108Y-14550D01*
X24311Y-14466D01*
X24465Y-14311D01*
X24499Y-14230D01*
X24533Y-14311D01*
X24688Y-14465D01*
X24890Y-14549D01*
X25108Y-14550D01*
X25311Y-14466D01*
X25465Y-14311D01*
X25499Y-14230D01*
X25533Y-14311D01*
X25688Y-14465D01*
X25890Y-14549D01*
X26108Y-14550D01*
X26311Y-14466D01*
X26465Y-14311D01*
X26499Y-14230D01*
X26533Y-14311D01*
X26688Y-14465D01*
X26890Y-14549D01*
X27108Y-14550D01*
X27311Y-14466D01*
X27465Y-14311D01*
X27499Y-14230D01*
X27533Y-14311D01*
X27688Y-14465D01*
X27890Y-14549D01*
X28108Y-14550D01*
X28311Y-14466D01*
X28465Y-14311D01*
X28466Y-14310D01*
X28532Y-14310D01*
X28533Y-14311D01*
X28688Y-14465D01*
X28890Y-14549D01*
X29108Y-14550D01*
X29311Y-14466D01*
X29465Y-14311D01*
X29499Y-14230D01*
X29533Y-14311D01*
X29688Y-14465D01*
X29690Y-14466D01*
X29690Y-15871D01*
X29371Y-16190D01*
X25791Y-16190D01*
X25741Y-16139D01*
X25584Y-16075D01*
X25415Y-16074D01*
X25259Y-16139D01*
X25139Y-16258D01*
X25075Y-16415D01*
X25074Y-16584D01*
X25139Y-16740D01*
X25258Y-16860D01*
X25415Y-16924D01*
X25584Y-16925D01*
X25740Y-16860D01*
X25791Y-16810D01*
X29500Y-16810D01*
X29618Y-16786D01*
X29719Y-16719D01*
X30219Y-16219D01*
X30286Y-16118D01*
X30310Y-16000D01*
X30310Y-14467D01*
X30311Y-14466D01*
X30465Y-14311D01*
X30499Y-14230D01*
X30533Y-14311D01*
X30688Y-14465D01*
X30890Y-14549D01*
X31108Y-14550D01*
X31110Y-14549D01*
X31690Y-15128D01*
X31690Y-16371D01*
X31486Y-16574D01*
X31415Y-16574D01*
X31259Y-16639D01*
X31139Y-16758D01*
X31075Y-16915D01*
X31074Y-17084D01*
X31139Y-17240D01*
X31258Y-17360D01*
X31415Y-17424D01*
X31584Y-17425D01*
X31740Y-17360D01*
X31860Y-17241D01*
X31924Y-17084D01*
X31924Y-17013D01*
X32219Y-16719D01*
X32286Y-16618D01*
X32310Y-16500D01*
X32310Y-17450D01*
X31950Y-17450D01*
X31950Y-18950D01*
X28950Y-18950D01*
X28950Y-28450D01*
X27775Y-28450D01*
X27775Y-26975D01*
X27775Y-26425D01*
X27737Y-26333D01*
X27666Y-26263D01*
X27574Y-26225D01*
X27475Y-26224D01*
X26925Y-26224D01*
X26833Y-26262D01*
X26763Y-26333D01*
X26725Y-26425D01*
X26724Y-26524D01*
X26724Y-27074D01*
X26762Y-27166D01*
X26833Y-27236D01*
X26925Y-27274D01*
X27024Y-27275D01*
X27574Y-27275D01*
X27666Y-27237D01*
X27736Y-27166D01*
X27774Y-27074D01*
X27775Y-26975D01*
X27775Y-28450D01*
X24275Y-28450D01*
X24275Y-23146D01*
X24195Y-22953D01*
X24047Y-22805D01*
X23854Y-22725D01*
X23850Y-22725D01*
X23850Y-20550D01*
X23850Y-19850D01*
X23812Y-19758D01*
X23741Y-19688D01*
X23649Y-19650D01*
X23550Y-19649D01*
X22850Y-19649D01*
X22758Y-19687D01*
X22688Y-19758D01*
X22650Y-19850D01*
X22649Y-19949D01*
X22649Y-20649D01*
X22687Y-20741D01*
X22758Y-20811D01*
X22850Y-20849D01*
X22949Y-20850D01*
X23649Y-20850D01*
X23741Y-20812D01*
X23811Y-20741D01*
X23849Y-20649D01*
X23850Y-20550D01*
X23850Y-22725D01*
X23646Y-22724D01*
X23453Y-22804D01*
X23305Y-22952D01*
X23225Y-23145D01*
X23224Y-23336D01*
X21425Y-25136D01*
X21425Y-19165D01*
X21360Y-19009D01*
X21241Y-18889D01*
X21084Y-18825D01*
X20915Y-18824D01*
X20759Y-18889D01*
X20708Y-18940D01*
X13000Y-18940D01*
X12250Y-18940D01*
X12131Y-18963D01*
X12091Y-18990D01*
X12030Y-19030D01*
X12030Y-19030D01*
X11780Y-19280D01*
X11713Y-19381D01*
X11698Y-19459D01*
X11695Y-19453D01*
X11547Y-19305D01*
X11414Y-19249D01*
X11547Y-19195D01*
X11694Y-19047D01*
X11774Y-18854D01*
X11775Y-18646D01*
X11695Y-18453D01*
X11547Y-18305D01*
X11414Y-18249D01*
X11547Y-18195D01*
X11694Y-18047D01*
X11774Y-17854D01*
X11775Y-17646D01*
X11695Y-17453D01*
X11547Y-17305D01*
X11354Y-17225D01*
X11146Y-17224D01*
X10953Y-17304D01*
X10805Y-17452D01*
X10749Y-17585D01*
X10695Y-17453D01*
X10547Y-17305D01*
X10354Y-17225D01*
X10146Y-17224D01*
X9953Y-17304D01*
X9805Y-17452D01*
X9725Y-17645D01*
X9724Y-17836D01*
X9121Y-18440D01*
X6932Y-18440D01*
X6797Y-18305D01*
X6725Y-18275D01*
X6824Y-18275D01*
X6916Y-18237D01*
X6986Y-18166D01*
X7024Y-18074D01*
X7025Y-17975D01*
X7025Y-17425D01*
X6987Y-17333D01*
X6916Y-17263D01*
X6824Y-17225D01*
X6725Y-17224D01*
X6175Y-17224D01*
X6083Y-17262D01*
X6013Y-17333D01*
X5975Y-17425D01*
X5974Y-17524D01*
X5974Y-18074D01*
X6012Y-18166D01*
X6083Y-18236D01*
X6175Y-18274D01*
X6274Y-18275D01*
X6274Y-18275D01*
X6203Y-18304D01*
X6055Y-18452D01*
X5975Y-18645D01*
X5974Y-18853D01*
X6054Y-19047D01*
X6202Y-19194D01*
X6395Y-19274D01*
X6603Y-19275D01*
X6797Y-19195D01*
X6932Y-19060D01*
X9250Y-19060D01*
X9368Y-19036D01*
X9469Y-18969D01*
X9725Y-18713D01*
X9724Y-18836D01*
X9030Y-19530D01*
X8963Y-19631D01*
X8940Y-19750D01*
X8940Y-19871D01*
X7024Y-21786D01*
X7025Y-21725D01*
X7025Y-21175D01*
X6987Y-21083D01*
X6916Y-21013D01*
X6824Y-20975D01*
X6725Y-20974D01*
X6175Y-20974D01*
X6083Y-21012D01*
X6013Y-21083D01*
X5975Y-21175D01*
X5974Y-21274D01*
X5974Y-21824D01*
X6012Y-21916D01*
X6083Y-21986D01*
X6175Y-22024D01*
X6274Y-22025D01*
X6274Y-22025D01*
X6203Y-22054D01*
X6055Y-22202D01*
X5975Y-22395D01*
X5974Y-22603D01*
X6054Y-22797D01*
X6202Y-22944D01*
X6395Y-23024D01*
X6603Y-23025D01*
X6797Y-22945D01*
X6944Y-22797D01*
X6983Y-22705D01*
X7440Y-22248D01*
X7440Y-22250D01*
X7440Y-25621D01*
X7121Y-25940D01*
X6932Y-25940D01*
X6797Y-25805D01*
X6725Y-25775D01*
X6824Y-25775D01*
X6916Y-25737D01*
X6986Y-25666D01*
X7024Y-25574D01*
X7025Y-25475D01*
X7025Y-24925D01*
X6987Y-24833D01*
X6916Y-24763D01*
X6824Y-24725D01*
X6725Y-24724D01*
X6175Y-24724D01*
X6083Y-24762D01*
X6013Y-24833D01*
X5975Y-24925D01*
X5974Y-25024D01*
X5974Y-25574D01*
X6012Y-25666D01*
X6083Y-25736D01*
X6175Y-25774D01*
X6274Y-25775D01*
X6274Y-25775D01*
X6203Y-25804D01*
X6055Y-25952D01*
X5975Y-26145D01*
X5974Y-26353D01*
X6054Y-26547D01*
X6202Y-26694D01*
X6395Y-26774D01*
X6603Y-26775D01*
X6797Y-26695D01*
X6932Y-26560D01*
X7250Y-26560D01*
X7368Y-26536D01*
X7469Y-26469D01*
X7969Y-25969D01*
X8036Y-25868D01*
X8060Y-25750D01*
X8060Y-22378D01*
X9725Y-20713D01*
X9724Y-20853D01*
X9804Y-21047D01*
X9952Y-21194D01*
X10085Y-21250D01*
X9953Y-21304D01*
X9805Y-21452D01*
X9725Y-21645D01*
X9724Y-21853D01*
X9804Y-22047D01*
X9952Y-22194D01*
X10085Y-22250D01*
X9953Y-22304D01*
X9805Y-22452D01*
X9725Y-22645D01*
X9724Y-22853D01*
X9804Y-23047D01*
X9952Y-23194D01*
X10085Y-23250D01*
X9953Y-23304D01*
X9805Y-23452D01*
X9725Y-23645D01*
X9724Y-23853D01*
X9804Y-24047D01*
X9952Y-24194D01*
X10085Y-24250D01*
X9953Y-24304D01*
X9805Y-24452D01*
X9725Y-24645D01*
X9724Y-24853D01*
X9804Y-25047D01*
X9952Y-25194D01*
X10085Y-25250D01*
X9953Y-25304D01*
X9805Y-25452D01*
X9725Y-25645D01*
X9724Y-25853D01*
X9804Y-26047D01*
X9952Y-26194D01*
X10024Y-26224D01*
X9925Y-26224D01*
X9833Y-26262D01*
X9763Y-26333D01*
X9725Y-26425D01*
X9724Y-26524D01*
X9724Y-27074D01*
X9762Y-27166D01*
X9833Y-27236D01*
X9925Y-27274D01*
X10024Y-27275D01*
X10574Y-27275D01*
X10666Y-27237D01*
X10736Y-27166D01*
X10749Y-27135D01*
X10762Y-27166D01*
X10833Y-27236D01*
X10925Y-27274D01*
X11024Y-27275D01*
X11574Y-27275D01*
X11666Y-27237D01*
X11736Y-27166D01*
X11774Y-27074D01*
X11775Y-26975D01*
X11775Y-26425D01*
X11737Y-26333D01*
X11666Y-26263D01*
X11574Y-26225D01*
X11475Y-26224D01*
X11475Y-26224D01*
X11547Y-26195D01*
X11694Y-26047D01*
X11774Y-25854D01*
X11775Y-25646D01*
X11695Y-25453D01*
X11547Y-25305D01*
X11414Y-25249D01*
X11547Y-25195D01*
X11694Y-25047D01*
X11774Y-24854D01*
X11775Y-24646D01*
X11695Y-24453D01*
X11547Y-24305D01*
X11414Y-24249D01*
X11547Y-24195D01*
X11694Y-24047D01*
X11774Y-23854D01*
X11775Y-23646D01*
X11695Y-23453D01*
X11547Y-23305D01*
X11414Y-23249D01*
X11547Y-23195D01*
X11694Y-23047D01*
X11774Y-22854D01*
X11775Y-22646D01*
X11695Y-22453D01*
X11547Y-22305D01*
X11414Y-22249D01*
X11547Y-22195D01*
X11682Y-22060D01*
X15458Y-22060D01*
X15508Y-22110D01*
X15665Y-22174D01*
X15834Y-22175D01*
X15990Y-22110D01*
X16110Y-21991D01*
X16174Y-21834D01*
X16175Y-21665D01*
X16110Y-21509D01*
X15991Y-21389D01*
X15834Y-21325D01*
X15665Y-21324D01*
X15509Y-21389D01*
X15458Y-21440D01*
X15350Y-21440D01*
X15350Y-20550D01*
X15350Y-19850D01*
X15312Y-19758D01*
X15241Y-19688D01*
X15149Y-19650D01*
X15050Y-19649D01*
X14350Y-19649D01*
X14258Y-19687D01*
X14188Y-19758D01*
X14150Y-19850D01*
X14149Y-19949D01*
X14149Y-20649D01*
X14187Y-20741D01*
X14258Y-20811D01*
X14350Y-20849D01*
X14449Y-20850D01*
X15149Y-20850D01*
X15241Y-20812D01*
X15311Y-20741D01*
X15349Y-20649D01*
X15350Y-20550D01*
X15350Y-21440D01*
X11682Y-21440D01*
X11547Y-21305D01*
X11414Y-21249D01*
X11547Y-21195D01*
X11694Y-21047D01*
X11774Y-20854D01*
X11775Y-20663D01*
X12219Y-20219D01*
X12219Y-20219D01*
X12219Y-20219D01*
X12286Y-20118D01*
X12286Y-20118D01*
X12305Y-20023D01*
X12310Y-20000D01*
X12309Y-20000D01*
X12310Y-20000D01*
X12310Y-19628D01*
X12378Y-19560D01*
X13000Y-19560D01*
X20708Y-19560D01*
X20758Y-19610D01*
X20915Y-19674D01*
X21084Y-19675D01*
X21240Y-19610D01*
X21360Y-19491D01*
X21424Y-19334D01*
X21425Y-19165D01*
X21425Y-25136D01*
X21275Y-25286D01*
X21275Y-23146D01*
X21195Y-22953D01*
X21047Y-22805D01*
X20854Y-22725D01*
X20663Y-22724D01*
X20219Y-22280D01*
X20118Y-22213D01*
X20000Y-22190D01*
X19350Y-22190D01*
X19350Y-20550D01*
X19350Y-19850D01*
X19312Y-19758D01*
X19241Y-19688D01*
X19149Y-19650D01*
X19050Y-19649D01*
X18350Y-19649D01*
X18258Y-19687D01*
X18188Y-19758D01*
X18150Y-19850D01*
X18149Y-19949D01*
X18149Y-20649D01*
X18187Y-20741D01*
X18258Y-20811D01*
X18350Y-20849D01*
X18449Y-20850D01*
X19149Y-20850D01*
X19241Y-20812D01*
X19311Y-20741D01*
X19349Y-20649D01*
X19350Y-20550D01*
X19350Y-22190D01*
X16750Y-22190D01*
X13000Y-22190D01*
X12999Y-22190D01*
X12976Y-22194D01*
X12881Y-22213D01*
X12780Y-22280D01*
X12780Y-22280D01*
X12336Y-22725D01*
X12146Y-22724D01*
X11953Y-22804D01*
X11805Y-22952D01*
X11725Y-23145D01*
X11724Y-23353D01*
X11804Y-23547D01*
X11952Y-23694D01*
X12145Y-23774D01*
X12353Y-23775D01*
X12547Y-23695D01*
X12694Y-23547D01*
X12774Y-23354D01*
X12775Y-23163D01*
X13128Y-22810D01*
X14947Y-22810D01*
X14805Y-22952D01*
X14725Y-23145D01*
X14724Y-23353D01*
X14804Y-23547D01*
X14909Y-23652D01*
X14371Y-24190D01*
X14025Y-24190D01*
X14025Y-24175D01*
X13987Y-24083D01*
X13916Y-24013D01*
X13824Y-23975D01*
X13725Y-23974D01*
X13175Y-23974D01*
X13083Y-24012D01*
X13013Y-24083D01*
X12975Y-24175D01*
X12974Y-24274D01*
X12974Y-24824D01*
X13012Y-24916D01*
X13083Y-24986D01*
X13175Y-25024D01*
X13274Y-25025D01*
X13824Y-25025D01*
X13916Y-24987D01*
X13986Y-24916D01*
X14024Y-24824D01*
X14024Y-24810D01*
X14500Y-24810D01*
X14618Y-24786D01*
X14719Y-24719D01*
X15469Y-23969D01*
X15469Y-23969D01*
X15469Y-23969D01*
X15536Y-23868D01*
X15536Y-23868D01*
X15555Y-23773D01*
X15560Y-23750D01*
X15559Y-23750D01*
X15560Y-23750D01*
X15560Y-23682D01*
X15694Y-23547D01*
X15750Y-23414D01*
X15804Y-23547D01*
X15881Y-23623D01*
X14680Y-24824D01*
X14665Y-24824D01*
X14509Y-24889D01*
X14389Y-25008D01*
X14325Y-25165D01*
X14324Y-25334D01*
X14389Y-25490D01*
X14508Y-25610D01*
X14665Y-25674D01*
X14834Y-25675D01*
X14923Y-25638D01*
X14871Y-25690D01*
X14025Y-25690D01*
X14025Y-25675D01*
X13987Y-25583D01*
X13916Y-25513D01*
X13824Y-25475D01*
X13725Y-25474D01*
X13175Y-25474D01*
X13083Y-25512D01*
X13013Y-25583D01*
X12975Y-25675D01*
X12974Y-25774D01*
X12974Y-26324D01*
X13012Y-26416D01*
X13083Y-26486D01*
X13175Y-26524D01*
X13274Y-26525D01*
X13824Y-26525D01*
X13916Y-26487D01*
X13986Y-26416D01*
X14024Y-26324D01*
X14024Y-26310D01*
X15000Y-26310D01*
X15118Y-26286D01*
X15219Y-26219D01*
X16128Y-25310D01*
X17500Y-25310D01*
X17618Y-25286D01*
X17719Y-25219D01*
X19163Y-23774D01*
X19353Y-23775D01*
X19547Y-23695D01*
X19694Y-23547D01*
X19774Y-23354D01*
X19775Y-23146D01*
X19695Y-22953D01*
X19552Y-22810D01*
X19871Y-22810D01*
X20225Y-23163D01*
X20224Y-23353D01*
X20304Y-23547D01*
X20452Y-23694D01*
X20645Y-23774D01*
X20853Y-23775D01*
X21047Y-23695D01*
X21194Y-23547D01*
X21274Y-23354D01*
X21275Y-23146D01*
X21275Y-25286D01*
X20871Y-25690D01*
X16000Y-25690D01*
X15881Y-25713D01*
X15780Y-25780D01*
X15780Y-25780D01*
X14371Y-27190D01*
X14025Y-27190D01*
X14025Y-27175D01*
X13987Y-27083D01*
X13916Y-27013D01*
X13824Y-26975D01*
X13725Y-26974D01*
X13175Y-26974D01*
X13083Y-27012D01*
X13013Y-27083D01*
X12975Y-27175D01*
X12974Y-27274D01*
X12974Y-27824D01*
X13012Y-27916D01*
X13083Y-27986D01*
X13175Y-28024D01*
X13274Y-28025D01*
X13824Y-28025D01*
X13916Y-27987D01*
X13986Y-27916D01*
X14024Y-27824D01*
X14024Y-27810D01*
X14500Y-27810D01*
X14618Y-27786D01*
X14719Y-27719D01*
X16128Y-26310D01*
X21000Y-26310D01*
X21118Y-26286D01*
X21219Y-26219D01*
X23663Y-23774D01*
X23853Y-23775D01*
X24047Y-23695D01*
X24194Y-23547D01*
X24274Y-23354D01*
X24275Y-23146D01*
X24275Y-28450D01*
X9275Y-28450D01*
X9275Y-26975D01*
X9275Y-26425D01*
X9237Y-26333D01*
X9166Y-26263D01*
X9074Y-26225D01*
X8975Y-26224D01*
X8425Y-26224D01*
X8333Y-26262D01*
X8263Y-26333D01*
X8225Y-26425D01*
X8224Y-26524D01*
X8224Y-27074D01*
X8262Y-27166D01*
X8333Y-27236D01*
X8425Y-27274D01*
X8524Y-27275D01*
X9074Y-27275D01*
X9166Y-27237D01*
X9236Y-27166D01*
X9274Y-27074D01*
X9275Y-26975D01*
X9275Y-28450D01*
X5050Y-28450D01*
X5050Y-9627D01*
X5165Y-9674D01*
X5334Y-9675D01*
X5490Y-9610D01*
X5610Y-9491D01*
X5674Y-9334D01*
X5675Y-9165D01*
X5610Y-9009D01*
X5600Y-8999D01*
X5600Y-8894D01*
X6394Y-8100D01*
X12905Y-8100D01*
X12554Y-8450D01*
X12391Y-8449D01*
X12188Y-8533D01*
X12034Y-8688D01*
X12000Y-8769D01*
X11966Y-8688D01*
X11811Y-8534D01*
X11609Y-8450D01*
X11391Y-8449D01*
X11188Y-8533D01*
X11034Y-8688D01*
X11000Y-8769D01*
X10966Y-8688D01*
X10811Y-8534D01*
X10609Y-8450D01*
X10391Y-8449D01*
X10188Y-8533D01*
X10034Y-8688D01*
X10000Y-8769D01*
X9966Y-8688D01*
X9811Y-8534D01*
X9609Y-8450D01*
X9391Y-8449D01*
X9188Y-8533D01*
X9034Y-8688D01*
X9000Y-8769D01*
X8966Y-8688D01*
X8811Y-8534D01*
X8609Y-8450D01*
X8391Y-8449D01*
X8188Y-8533D01*
X8034Y-8688D01*
X7950Y-8890D01*
X7949Y-9108D01*
X8033Y-9311D01*
X8188Y-9465D01*
X8390Y-9549D01*
X8608Y-9550D01*
X8811Y-9466D01*
X8965Y-9311D01*
X8999Y-9230D01*
X9033Y-9311D01*
X9188Y-9465D01*
X9390Y-9549D01*
X9608Y-9550D01*
X9811Y-9466D01*
X9965Y-9311D01*
X9999Y-9230D01*
X10033Y-9311D01*
X10188Y-9465D01*
X10390Y-9549D01*
X10608Y-9550D01*
X10811Y-9466D01*
X10965Y-9311D01*
X10999Y-9230D01*
X11033Y-9311D01*
X11188Y-9465D01*
X11390Y-9549D01*
X11608Y-9550D01*
X11811Y-9466D01*
X11965Y-9311D01*
X11999Y-9230D01*
X12033Y-9311D01*
X12188Y-9465D01*
X12390Y-9549D01*
X12608Y-9550D01*
X12811Y-9466D01*
X12965Y-9311D01*
X13049Y-9109D01*
X13050Y-8944D01*
X13894Y-8100D01*
X20905Y-8100D01*
X20752Y-8252D01*
X20676Y-8366D01*
X20650Y-8500D01*
X20650Y-8572D01*
X20534Y-8688D01*
X20500Y-8769D01*
X20466Y-8688D01*
X20311Y-8534D01*
X20109Y-8450D01*
X19891Y-8449D01*
X19688Y-8533D01*
X19534Y-8688D01*
X19500Y-8769D01*
X19466Y-8688D01*
X19311Y-8534D01*
X19109Y-8450D01*
X18891Y-8449D01*
X18688Y-8533D01*
X18534Y-8688D01*
X18500Y-8769D01*
X18466Y-8688D01*
X18311Y-8534D01*
X18109Y-8450D01*
X17891Y-8449D01*
X17688Y-8533D01*
X17534Y-8688D01*
X17500Y-8769D01*
X17466Y-8688D01*
X17311Y-8534D01*
X17109Y-8450D01*
X16891Y-8449D01*
X16688Y-8533D01*
X16534Y-8688D01*
X16450Y-8890D01*
X16449Y-9108D01*
X16533Y-9311D01*
X16688Y-9465D01*
X16890Y-9549D01*
X17108Y-9550D01*
X17311Y-9466D01*
X17465Y-9311D01*
X17499Y-9230D01*
X17533Y-9311D01*
X17688Y-9465D01*
X17890Y-9549D01*
X18108Y-9550D01*
X18311Y-9466D01*
X18465Y-9311D01*
X18499Y-9230D01*
X18533Y-9311D01*
X18688Y-9465D01*
X18890Y-9549D01*
X19108Y-9550D01*
X19311Y-9466D01*
X19465Y-9311D01*
X19499Y-9230D01*
X19533Y-9311D01*
X19688Y-9465D01*
X19890Y-9549D01*
X20108Y-9550D01*
X20311Y-9466D01*
X20465Y-9311D01*
X20499Y-9230D01*
X20533Y-9311D01*
X20688Y-9465D01*
X20890Y-9549D01*
X21108Y-9550D01*
X21311Y-9466D01*
X21465Y-9311D01*
X21549Y-9109D01*
X21550Y-8891D01*
X21466Y-8688D01*
X21386Y-8608D01*
X21894Y-8100D01*
X28605Y-8100D01*
X28954Y-8449D01*
X28891Y-8449D01*
X28688Y-8533D01*
X28534Y-8688D01*
X28500Y-8769D01*
X28466Y-8688D01*
X28311Y-8534D01*
X28109Y-8450D01*
X27891Y-8449D01*
X27688Y-8533D01*
X27534Y-8688D01*
X27500Y-8769D01*
X27466Y-8688D01*
X27311Y-8534D01*
X27109Y-8450D01*
X26891Y-8449D01*
X26688Y-8533D01*
X26534Y-8688D01*
X26500Y-8769D01*
X26466Y-8688D01*
X26311Y-8534D01*
X26109Y-8450D01*
X25891Y-8449D01*
X25688Y-8533D01*
X25534Y-8688D01*
X25450Y-8890D01*
X25449Y-9108D01*
X25533Y-9311D01*
X25688Y-9465D01*
X25890Y-9549D01*
X26108Y-9550D01*
X26311Y-9466D01*
X26465Y-9311D01*
X26499Y-9230D01*
X26533Y-9311D01*
X26688Y-9465D01*
X26890Y-9549D01*
X27108Y-9550D01*
X27311Y-9466D01*
X27465Y-9311D01*
X27499Y-9230D01*
X27533Y-9311D01*
X27688Y-9465D01*
X27890Y-9549D01*
X28108Y-9550D01*
X28311Y-9466D01*
X28465Y-9311D01*
X28499Y-9230D01*
X28533Y-9311D01*
X28688Y-9465D01*
X28890Y-9549D01*
X29108Y-9550D01*
X29311Y-9466D01*
X29465Y-9311D01*
X29499Y-9230D01*
X29533Y-9311D01*
X29688Y-9465D01*
X29890Y-9549D01*
X30108Y-9550D01*
X30311Y-9466D01*
X30465Y-9311D01*
X30549Y-9109D01*
X30550Y-8891D01*
X30466Y-8688D01*
X30311Y-8534D01*
X30109Y-8450D01*
X29944Y-8449D01*
X28997Y-7502D01*
X28883Y-7426D01*
X28750Y-7400D01*
X21750Y-7400D01*
X21749Y-7400D01*
X13750Y-7400D01*
X6250Y-7400D01*
X6116Y-7426D01*
X6002Y-7502D01*
X5050Y-8455D01*
X5050Y-5550D01*
X8046Y-5550D01*
X8013Y-5583D01*
X7975Y-5675D01*
X7974Y-5774D01*
X7974Y-6324D01*
X8012Y-6416D01*
X8083Y-6486D01*
X8175Y-6524D01*
X8274Y-6525D01*
X8824Y-6525D01*
X8916Y-6487D01*
X8986Y-6416D01*
X9024Y-6324D01*
X9025Y-6225D01*
X9025Y-6225D01*
X9054Y-6297D01*
X9202Y-6444D01*
X9395Y-6524D01*
X9603Y-6525D01*
X9797Y-6445D01*
X9944Y-6297D01*
X10000Y-6164D01*
X10054Y-6297D01*
X10202Y-6444D01*
X10395Y-6524D01*
X10603Y-6525D01*
X10797Y-6445D01*
X10944Y-6297D01*
X11000Y-6164D01*
X11054Y-6297D01*
X11202Y-6444D01*
X11395Y-6524D01*
X11603Y-6525D01*
X11797Y-6445D01*
X11944Y-6297D01*
X12024Y-6104D01*
X12025Y-5896D01*
X11945Y-5703D01*
X11797Y-5555D01*
X11785Y-5550D01*
X16546Y-5550D01*
X16513Y-5583D01*
X16475Y-5675D01*
X16474Y-5774D01*
X16474Y-6324D01*
X16512Y-6416D01*
X16583Y-6486D01*
X16675Y-6524D01*
X16774Y-6525D01*
X17324Y-6525D01*
X17416Y-6487D01*
X17486Y-6416D01*
X17524Y-6324D01*
X17525Y-6225D01*
X17525Y-6225D01*
X17554Y-6297D01*
X17702Y-6444D01*
X17895Y-6524D01*
X18103Y-6525D01*
X18297Y-6445D01*
X18444Y-6297D01*
X18500Y-6164D01*
X18554Y-6297D01*
X18702Y-6444D01*
X18895Y-6524D01*
X19103Y-6525D01*
X19297Y-6445D01*
X19444Y-6297D01*
X19500Y-6164D01*
X19554Y-6297D01*
X19702Y-6444D01*
X19895Y-6524D01*
X20103Y-6525D01*
X20297Y-6445D01*
X20444Y-6297D01*
X20524Y-6104D01*
X20525Y-5896D01*
X20445Y-5703D01*
X20297Y-5555D01*
X20285Y-5550D01*
X25546Y-5550D01*
X25513Y-5583D01*
X25475Y-5675D01*
X25474Y-5774D01*
X25474Y-6324D01*
X25512Y-6416D01*
X25583Y-6486D01*
X25675Y-6524D01*
X25774Y-6525D01*
X26324Y-6525D01*
X26416Y-6487D01*
X26486Y-6416D01*
X26524Y-6324D01*
X26525Y-6225D01*
X26525Y-6225D01*
X26554Y-6297D01*
X26702Y-6444D01*
X26895Y-6524D01*
X27103Y-6525D01*
X27297Y-6445D01*
X27444Y-6297D01*
X27500Y-6164D01*
X27554Y-6297D01*
X27702Y-6444D01*
X27895Y-6524D01*
X28103Y-6525D01*
X28297Y-6445D01*
X28444Y-6297D01*
X28500Y-6164D01*
X28554Y-6297D01*
X28702Y-6444D01*
X28895Y-6524D01*
X29103Y-6525D01*
X29297Y-6445D01*
X29444Y-6297D01*
X29524Y-6104D01*
X29525Y-5896D01*
X29445Y-5703D01*
X29297Y-5555D01*
X29285Y-5550D01*
X33950Y-5550D01*
X33950Y-17450D01*
X33950Y-17450D01*
G37*
G54D20*
X33950Y-17450D02*
X33500Y-17450D01*
X33275Y-17450D01*
X33275Y-12146D01*
X33195Y-11953D01*
X33047Y-11805D01*
X32854Y-11725D01*
X32646Y-11724D01*
X32453Y-11804D01*
X32305Y-11952D01*
X32225Y-12145D01*
X32224Y-12353D01*
X32304Y-12547D01*
X32452Y-12694D01*
X32524Y-12724D01*
X32425Y-12724D01*
X32333Y-12762D01*
X32263Y-12833D01*
X32225Y-12925D01*
X32224Y-13024D01*
X32224Y-13574D01*
X32262Y-13666D01*
X32333Y-13736D01*
X32425Y-13774D01*
X32524Y-13775D01*
X33074Y-13775D01*
X33166Y-13737D01*
X33236Y-13666D01*
X33274Y-13574D01*
X33275Y-13475D01*
X33275Y-12925D01*
X33237Y-12833D01*
X33166Y-12763D01*
X33074Y-12725D01*
X32975Y-12724D01*
X32975Y-12724D01*
X33047Y-12695D01*
X33194Y-12547D01*
X33274Y-12354D01*
X33275Y-12146D01*
X33275Y-17450D01*
X32310Y-17450D01*
X32310Y-16500D01*
X32310Y-15000D01*
X32286Y-14881D01*
X32219Y-14780D01*
X31549Y-14111D01*
X31549Y-14109D01*
X31550Y-13891D01*
X31466Y-13688D01*
X31311Y-13534D01*
X31109Y-13450D01*
X31100Y-13450D01*
X31100Y-12800D01*
X31100Y-12100D01*
X31062Y-12008D01*
X30991Y-11938D01*
X30899Y-11900D01*
X30800Y-11899D01*
X30100Y-11899D01*
X30008Y-11937D01*
X29938Y-12008D01*
X29900Y-12100D01*
X29899Y-12199D01*
X29899Y-12899D01*
X29937Y-12991D01*
X30008Y-13061D01*
X30100Y-13099D01*
X30199Y-13100D01*
X30899Y-13100D01*
X30991Y-13062D01*
X31061Y-12991D01*
X31099Y-12899D01*
X31100Y-12800D01*
X31100Y-13450D01*
X30891Y-13449D01*
X30688Y-13533D01*
X30534Y-13688D01*
X30500Y-13769D01*
X30466Y-13688D01*
X30311Y-13534D01*
X30109Y-13450D01*
X29891Y-13449D01*
X29688Y-13533D01*
X29534Y-13688D01*
X29500Y-13769D01*
X29466Y-13688D01*
X29311Y-13534D01*
X29109Y-13450D01*
X28891Y-13449D01*
X28688Y-13533D01*
X28534Y-13688D01*
X28533Y-13690D01*
X28467Y-13690D01*
X28466Y-13688D01*
X28311Y-13534D01*
X28109Y-13450D01*
X27891Y-13449D01*
X27688Y-13533D01*
X27534Y-13688D01*
X27500Y-13769D01*
X27466Y-13688D01*
X27311Y-13534D01*
X27109Y-13450D01*
X26891Y-13449D01*
X26889Y-13450D01*
X26469Y-13030D01*
X26368Y-12963D01*
X26250Y-12940D01*
X21583Y-12940D01*
X21599Y-12899D01*
X21600Y-12800D01*
X21600Y-12100D01*
X21583Y-12060D01*
X24458Y-12060D01*
X24508Y-12110D01*
X24665Y-12174D01*
X24834Y-12175D01*
X24990Y-12110D01*
X25110Y-11991D01*
X25174Y-11834D01*
X25175Y-11665D01*
X25110Y-11509D01*
X24991Y-11389D01*
X24834Y-11325D01*
X24665Y-11324D01*
X24550Y-11372D01*
X24550Y-8891D01*
X24466Y-8688D01*
X24311Y-8534D01*
X24109Y-8450D01*
X23891Y-8449D01*
X23688Y-8533D01*
X23534Y-8688D01*
X23450Y-8890D01*
X23449Y-9108D01*
X23533Y-9311D01*
X23688Y-9465D01*
X23890Y-9549D01*
X24108Y-9550D01*
X24311Y-9466D01*
X24465Y-9311D01*
X24549Y-9109D01*
X24550Y-8891D01*
X24550Y-11372D01*
X24509Y-11389D01*
X24458Y-11440D01*
X23381Y-11440D01*
X23424Y-11334D01*
X23425Y-11165D01*
X23360Y-11009D01*
X23241Y-10889D01*
X23084Y-10825D01*
X22915Y-10824D01*
X22759Y-10889D01*
X22708Y-10940D01*
X18500Y-10940D01*
X15550Y-10940D01*
X15550Y-8891D01*
X15466Y-8688D01*
X15311Y-8534D01*
X15109Y-8450D01*
X14891Y-8449D01*
X14688Y-8533D01*
X14534Y-8688D01*
X14450Y-8890D01*
X14449Y-9108D01*
X14533Y-9311D01*
X14688Y-9465D01*
X14890Y-9549D01*
X15108Y-9550D01*
X15311Y-9466D01*
X15465Y-9311D01*
X15549Y-9109D01*
X15550Y-8891D01*
X15550Y-10940D01*
X10000Y-10940D01*
X9881Y-10963D01*
X9780Y-11030D01*
X7340Y-13470D01*
X7188Y-13533D01*
X7050Y-13671D01*
X7050Y-8891D01*
X6966Y-8688D01*
X6811Y-8534D01*
X6609Y-8450D01*
X6391Y-8449D01*
X6188Y-8533D01*
X6034Y-8688D01*
X5950Y-8890D01*
X5949Y-9108D01*
X6033Y-9311D01*
X6188Y-9465D01*
X6390Y-9549D01*
X6608Y-9550D01*
X6811Y-9466D01*
X6965Y-9311D01*
X7049Y-9109D01*
X7050Y-8891D01*
X7050Y-13671D01*
X7034Y-13688D01*
X7000Y-13769D01*
X6966Y-13688D01*
X6811Y-13534D01*
X6609Y-13450D01*
X6391Y-13449D01*
X6188Y-13533D01*
X6034Y-13688D01*
X5950Y-13890D01*
X5949Y-14108D01*
X6033Y-14311D01*
X6188Y-14465D01*
X6341Y-14529D01*
X7030Y-15219D01*
X7030Y-15219D01*
X7131Y-15286D01*
X7131Y-15286D01*
X7226Y-15305D01*
X7249Y-15310D01*
X7249Y-15309D01*
X7250Y-15310D01*
X13458Y-15310D01*
X13508Y-15360D01*
X13665Y-15424D01*
X13834Y-15425D01*
X13990Y-15360D01*
X14110Y-15241D01*
X14166Y-15104D01*
X17280Y-18219D01*
X17280Y-18219D01*
X17381Y-18286D01*
X17381Y-18286D01*
X17476Y-18305D01*
X17499Y-18310D01*
X17499Y-18309D01*
X17500Y-18310D01*
X23371Y-18310D01*
X25030Y-19969D01*
X25131Y-20036D01*
X25250Y-20060D01*
X26817Y-20060D01*
X26952Y-20194D01*
X27085Y-20250D01*
X26953Y-20304D01*
X26805Y-20452D01*
X26725Y-20645D01*
X26724Y-20853D01*
X26804Y-21047D01*
X26952Y-21194D01*
X27085Y-21250D01*
X26953Y-21304D01*
X26805Y-21452D01*
X26725Y-21645D01*
X26724Y-21853D01*
X26804Y-22047D01*
X26952Y-22194D01*
X27085Y-22250D01*
X26953Y-22304D01*
X26805Y-22452D01*
X26725Y-22645D01*
X26724Y-22853D01*
X26804Y-23047D01*
X26952Y-23194D01*
X27085Y-23250D01*
X26953Y-23304D01*
X26805Y-23452D01*
X26725Y-23645D01*
X26724Y-23853D01*
X26804Y-24047D01*
X26952Y-24194D01*
X27085Y-24250D01*
X26953Y-24304D01*
X26805Y-24452D01*
X26725Y-24645D01*
X26724Y-24853D01*
X26804Y-25047D01*
X26952Y-25194D01*
X27145Y-25274D01*
X27353Y-25275D01*
X27547Y-25195D01*
X27694Y-25047D01*
X27750Y-24914D01*
X27804Y-25047D01*
X27952Y-25194D01*
X28085Y-25250D01*
X27953Y-25304D01*
X27805Y-25452D01*
X27725Y-25645D01*
X27724Y-25853D01*
X27804Y-26047D01*
X27952Y-26194D01*
X28145Y-26274D01*
X28353Y-26275D01*
X28547Y-26195D01*
X28694Y-26047D01*
X28774Y-25854D01*
X28775Y-25646D01*
X28695Y-25453D01*
X28547Y-25305D01*
X28414Y-25249D01*
X28547Y-25195D01*
X28694Y-25047D01*
X28774Y-24854D01*
X28775Y-24646D01*
X28695Y-24453D01*
X28547Y-24305D01*
X28414Y-24249D01*
X28547Y-24195D01*
X28694Y-24047D01*
X28774Y-23854D01*
X28775Y-23646D01*
X28695Y-23453D01*
X28547Y-23305D01*
X28414Y-23249D01*
X28547Y-23195D01*
X28694Y-23047D01*
X28774Y-22854D01*
X28775Y-22646D01*
X28695Y-22453D01*
X28547Y-22305D01*
X28414Y-22249D01*
X28547Y-22195D01*
X28694Y-22047D01*
X28774Y-21854D01*
X28775Y-21646D01*
X28695Y-21453D01*
X28547Y-21305D01*
X28414Y-21249D01*
X28547Y-21195D01*
X28694Y-21047D01*
X28774Y-20854D01*
X28775Y-20646D01*
X28695Y-20453D01*
X28547Y-20305D01*
X28414Y-20249D01*
X28547Y-20195D01*
X28694Y-20047D01*
X28774Y-19854D01*
X28775Y-19646D01*
X28695Y-19453D01*
X28547Y-19305D01*
X28414Y-19249D01*
X28547Y-19195D01*
X28694Y-19047D01*
X28774Y-18854D01*
X28775Y-18646D01*
X28695Y-18453D01*
X28547Y-18305D01*
X28414Y-18249D01*
X28547Y-18195D01*
X28694Y-18047D01*
X28774Y-17854D01*
X28775Y-17646D01*
X28695Y-17453D01*
X28547Y-17305D01*
X28354Y-17225D01*
X28146Y-17224D01*
X27953Y-17304D01*
X27805Y-17452D01*
X27749Y-17585D01*
X27695Y-17453D01*
X27547Y-17305D01*
X27354Y-17225D01*
X27146Y-17224D01*
X26953Y-17304D01*
X26805Y-17452D01*
X26725Y-17645D01*
X26724Y-17853D01*
X26804Y-18047D01*
X26952Y-18194D01*
X27085Y-18250D01*
X26953Y-18304D01*
X26817Y-18440D01*
X26128Y-18440D01*
X22310Y-14621D01*
X22310Y-14467D01*
X22311Y-14466D01*
X22465Y-14311D01*
X22549Y-14109D01*
X22550Y-13891D01*
X22466Y-13688D01*
X22337Y-13560D01*
X23662Y-13560D01*
X23534Y-13688D01*
X23450Y-13890D01*
X23449Y-14108D01*
X23533Y-14311D01*
X23688Y-14465D01*
X23890Y-14549D01*
X24108Y-14550D01*
X24311Y-14466D01*
X24465Y-14311D01*
X24499Y-14230D01*
X24533Y-14311D01*
X24688Y-14465D01*
X24890Y-14549D01*
X25108Y-14550D01*
X25311Y-14466D01*
X25465Y-14311D01*
X25499Y-14230D01*
X25533Y-14311D01*
X25688Y-14465D01*
X25890Y-14549D01*
X26108Y-14550D01*
X26311Y-14466D01*
X26465Y-14311D01*
X26499Y-14230D01*
X26533Y-14311D01*
X26688Y-14465D01*
X26890Y-14549D01*
X27108Y-14550D01*
X27311Y-14466D01*
X27465Y-14311D01*
X27499Y-14230D01*
X27533Y-14311D01*
X27688Y-14465D01*
X27890Y-14549D01*
X28108Y-14550D01*
X28311Y-14466D01*
X28465Y-14311D01*
X28466Y-14310D01*
X28532Y-14310D01*
X28533Y-14311D01*
X28688Y-14465D01*
X28890Y-14549D01*
X29108Y-14550D01*
X29311Y-14466D01*
X29465Y-14311D01*
X29499Y-14230D01*
X29533Y-14311D01*
X29688Y-14465D01*
X29690Y-14466D01*
X29690Y-15871D01*
X29371Y-16190D01*
X25791Y-16190D01*
X25741Y-16139D01*
X25584Y-16075D01*
X25415Y-16074D01*
X25259Y-16139D01*
X25139Y-16258D01*
X25075Y-16415D01*
X25074Y-16584D01*
X25139Y-16740D01*
X25258Y-16860D01*
X25415Y-16924D01*
X25584Y-16925D01*
X25740Y-16860D01*
X25791Y-16810D01*
X29500Y-16810D01*
X29618Y-16786D01*
X29719Y-16719D01*
X30219Y-16219D01*
X30286Y-16118D01*
X30310Y-16000D01*
X30310Y-14467D01*
X30311Y-14466D01*
X30465Y-14311D01*
X30499Y-14230D01*
X30533Y-14311D01*
X30688Y-14465D01*
X30890Y-14549D01*
X31108Y-14550D01*
X31110Y-14549D01*
X31690Y-15128D01*
X31690Y-16371D01*
X31486Y-16574D01*
X31415Y-16574D01*
X31259Y-16639D01*
X31139Y-16758D01*
X31075Y-16915D01*
X31074Y-17084D01*
X31139Y-17240D01*
X31258Y-17360D01*
X31415Y-17424D01*
X31584Y-17425D01*
X31740Y-17360D01*
X31860Y-17241D01*
X31924Y-17084D01*
X31924Y-17013D01*
X32219Y-16719D01*
X32286Y-16618D01*
X32310Y-16500D01*
X32310Y-17450D01*
X31950Y-17450D01*
X31950Y-18950D01*
X28950Y-18950D01*
X28950Y-28450D01*
X27775Y-28450D01*
X27775Y-26975D01*
X27775Y-26425D01*
X27737Y-26333D01*
X27666Y-26263D01*
X27574Y-26225D01*
X27475Y-26224D01*
X26925Y-26224D01*
X26833Y-26262D01*
X26763Y-26333D01*
X26725Y-26425D01*
X26724Y-26524D01*
X26724Y-27074D01*
X26762Y-27166D01*
X26833Y-27236D01*
X26925Y-27274D01*
X27024Y-27275D01*
X27574Y-27275D01*
X27666Y-27237D01*
X27736Y-27166D01*
X27774Y-27074D01*
X27775Y-26975D01*
X27775Y-28450D01*
X24275Y-28450D01*
X24275Y-23146D01*
X24195Y-22953D01*
X24047Y-22805D01*
X23854Y-22725D01*
X23850Y-22725D01*
X23850Y-20550D01*
X23850Y-19850D01*
X23812Y-19758D01*
X23741Y-19688D01*
X23649Y-19650D01*
X23550Y-19649D01*
X22850Y-19649D01*
X22758Y-19687D01*
X22688Y-19758D01*
X22650Y-19850D01*
X22649Y-19949D01*
X22649Y-20649D01*
X22687Y-20741D01*
X22758Y-20811D01*
X22850Y-20849D01*
X22949Y-20850D01*
X23649Y-20850D01*
X23741Y-20812D01*
X23811Y-20741D01*
X23849Y-20649D01*
X23850Y-20550D01*
X23850Y-22725D01*
X23646Y-22724D01*
X23453Y-22804D01*
X23305Y-22952D01*
X23225Y-23145D01*
X23224Y-23336D01*
X21425Y-25136D01*
X21425Y-19165D01*
X21360Y-19009D01*
X21241Y-18889D01*
X21084Y-18825D01*
X20915Y-18824D01*
X20759Y-18889D01*
X20708Y-18940D01*
X13000Y-18940D01*
X12250Y-18940D01*
X12131Y-18963D01*
X12091Y-18990D01*
X12030Y-19030D01*
X12030Y-19030D01*
X11780Y-19280D01*
X11713Y-19381D01*
X11698Y-19459D01*
X11695Y-19453D01*
X11547Y-19305D01*
X11414Y-19249D01*
X11547Y-19195D01*
X11694Y-19047D01*
X11774Y-18854D01*
X11775Y-18646D01*
X11695Y-18453D01*
X11547Y-18305D01*
X11414Y-18249D01*
X11547Y-18195D01*
X11694Y-18047D01*
X11774Y-17854D01*
X11775Y-17646D01*
X11695Y-17453D01*
X11547Y-17305D01*
X11354Y-17225D01*
X11146Y-17224D01*
X10953Y-17304D01*
X10805Y-17452D01*
X10749Y-17585D01*
X10695Y-17453D01*
X10547Y-17305D01*
X10354Y-17225D01*
X10146Y-17224D01*
X9953Y-17304D01*
X9805Y-17452D01*
X9725Y-17645D01*
X9724Y-17836D01*
X9121Y-18440D01*
X6932Y-18440D01*
X6797Y-18305D01*
X6725Y-18275D01*
X6824Y-18275D01*
X6916Y-18237D01*
X6986Y-18166D01*
X7024Y-18074D01*
X7025Y-17975D01*
X7025Y-17425D01*
X6987Y-17333D01*
X6916Y-17263D01*
X6824Y-17225D01*
X6725Y-17224D01*
X6175Y-17224D01*
X6083Y-17262D01*
X6013Y-17333D01*
X5975Y-17425D01*
X5974Y-17524D01*
X5974Y-18074D01*
X6012Y-18166D01*
X6083Y-18236D01*
X6175Y-18274D01*
X6274Y-18275D01*
X6274Y-18275D01*
X6203Y-18304D01*
X6055Y-18452D01*
X5975Y-18645D01*
X5974Y-18853D01*
X6054Y-19047D01*
X6202Y-19194D01*
X6395Y-19274D01*
X6603Y-19275D01*
X6797Y-19195D01*
X6932Y-19060D01*
X9250Y-19060D01*
X9368Y-19036D01*
X9469Y-18969D01*
X9725Y-18713D01*
X9724Y-18836D01*
X9030Y-19530D01*
X8963Y-19631D01*
X8940Y-19750D01*
X8940Y-19871D01*
X7024Y-21786D01*
X7025Y-21725D01*
X7025Y-21175D01*
X6987Y-21083D01*
X6916Y-21013D01*
X6824Y-20975D01*
X6725Y-20974D01*
X6175Y-20974D01*
X6083Y-21012D01*
X6013Y-21083D01*
X5975Y-21175D01*
X5974Y-21274D01*
X5974Y-21824D01*
X6012Y-21916D01*
X6083Y-21986D01*
X6175Y-22024D01*
X6274Y-22025D01*
X6274Y-22025D01*
X6203Y-22054D01*
X6055Y-22202D01*
X5975Y-22395D01*
X5974Y-22603D01*
X6054Y-22797D01*
X6202Y-22944D01*
X6395Y-23024D01*
X6603Y-23025D01*
X6797Y-22945D01*
X6944Y-22797D01*
X6983Y-22705D01*
X7440Y-22248D01*
X7440Y-22250D01*
X7440Y-25621D01*
X7121Y-25940D01*
X6932Y-25940D01*
X6797Y-25805D01*
X6725Y-25775D01*
X6824Y-25775D01*
X6916Y-25737D01*
X6986Y-25666D01*
X7024Y-25574D01*
X7025Y-25475D01*
X7025Y-24925D01*
X6987Y-24833D01*
X6916Y-24763D01*
X6824Y-24725D01*
X6725Y-24724D01*
X6175Y-24724D01*
X6083Y-24762D01*
X6013Y-24833D01*
X5975Y-24925D01*
X5974Y-25024D01*
X5974Y-25574D01*
X6012Y-25666D01*
X6083Y-25736D01*
X6175Y-25774D01*
X6274Y-25775D01*
X6274Y-25775D01*
X6203Y-25804D01*
X6055Y-25952D01*
X5975Y-26145D01*
X5974Y-26353D01*
X6054Y-26547D01*
X6202Y-26694D01*
X6395Y-26774D01*
X6603Y-26775D01*
X6797Y-26695D01*
X6932Y-26560D01*
X7250Y-26560D01*
X7368Y-26536D01*
X7469Y-26469D01*
X7969Y-25969D01*
X8036Y-25868D01*
X8060Y-25750D01*
X8060Y-22378D01*
X9725Y-20713D01*
X9724Y-20853D01*
X9804Y-21047D01*
X9952Y-21194D01*
X10085Y-21250D01*
X9953Y-21304D01*
X9805Y-21452D01*
X9725Y-21645D01*
X9724Y-21853D01*
X9804Y-22047D01*
X9952Y-22194D01*
X10085Y-22250D01*
X9953Y-22304D01*
X9805Y-22452D01*
X9725Y-22645D01*
X9724Y-22853D01*
X9804Y-23047D01*
X9952Y-23194D01*
X10085Y-23250D01*
X9953Y-23304D01*
X9805Y-23452D01*
X9725Y-23645D01*
X9724Y-23853D01*
X9804Y-24047D01*
X9952Y-24194D01*
X10085Y-24250D01*
X9953Y-24304D01*
X9805Y-24452D01*
X9725Y-24645D01*
X9724Y-24853D01*
X9804Y-25047D01*
X9952Y-25194D01*
X10085Y-25250D01*
X9953Y-25304D01*
X9805Y-25452D01*
X9725Y-25645D01*
X9724Y-25853D01*
X9804Y-26047D01*
X9952Y-26194D01*
X10024Y-26224D01*
X9925Y-26224D01*
X9833Y-26262D01*
X9763Y-26333D01*
X9725Y-26425D01*
X9724Y-26524D01*
X9724Y-27074D01*
X9762Y-27166D01*
X9833Y-27236D01*
X9925Y-27274D01*
X10024Y-27275D01*
X10574Y-27275D01*
X10666Y-27237D01*
X10736Y-27166D01*
X10749Y-27135D01*
X10762Y-27166D01*
X10833Y-27236D01*
X10925Y-27274D01*
X11024Y-27275D01*
X11574Y-27275D01*
X11666Y-27237D01*
X11736Y-27166D01*
X11774Y-27074D01*
X11775Y-26975D01*
X11775Y-26425D01*
X11737Y-26333D01*
X11666Y-26263D01*
X11574Y-26225D01*
X11475Y-26224D01*
X11475Y-26224D01*
X11547Y-26195D01*
X11694Y-26047D01*
X11774Y-25854D01*
X11775Y-25646D01*
X11695Y-25453D01*
X11547Y-25305D01*
X11414Y-25249D01*
X11547Y-25195D01*
X11694Y-25047D01*
X11774Y-24854D01*
X11775Y-24646D01*
X11695Y-24453D01*
X11547Y-24305D01*
X11414Y-24249D01*
X11547Y-24195D01*
X11694Y-24047D01*
X11774Y-23854D01*
X11775Y-23646D01*
X11695Y-23453D01*
X11547Y-23305D01*
X11414Y-23249D01*
X11547Y-23195D01*
X11694Y-23047D01*
X11774Y-22854D01*
X11775Y-22646D01*
X11695Y-22453D01*
X11547Y-22305D01*
X11414Y-22249D01*
X11547Y-22195D01*
X11682Y-22060D01*
X15458Y-22060D01*
X15508Y-22110D01*
X15665Y-22174D01*
X15834Y-22175D01*
X15990Y-22110D01*
X16110Y-21991D01*
X16174Y-21834D01*
X16175Y-21665D01*
X16110Y-21509D01*
X15991Y-21389D01*
X15834Y-21325D01*
X15665Y-21324D01*
X15509Y-21389D01*
X15458Y-21440D01*
X15350Y-21440D01*
X15350Y-20550D01*
X15350Y-19850D01*
X15312Y-19758D01*
X15241Y-19688D01*
X15149Y-19650D01*
X15050Y-19649D01*
X14350Y-19649D01*
X14258Y-19687D01*
X14188Y-19758D01*
X14150Y-19850D01*
X14149Y-19949D01*
X14149Y-20649D01*
X14187Y-20741D01*
X14258Y-20811D01*
X14350Y-20849D01*
X14449Y-20850D01*
X15149Y-20850D01*
X15241Y-20812D01*
X15311Y-20741D01*
X15349Y-20649D01*
X15350Y-20550D01*
X15350Y-21440D01*
X11682Y-21440D01*
X11547Y-21305D01*
X11414Y-21249D01*
X11547Y-21195D01*
X11694Y-21047D01*
X11774Y-20854D01*
X11775Y-20663D01*
X12219Y-20219D01*
X12219Y-20219D01*
X12219Y-20219D01*
X12286Y-20118D01*
X12286Y-20118D01*
X12305Y-20023D01*
X12310Y-20000D01*
X12309Y-20000D01*
X12310Y-20000D01*
X12310Y-19628D01*
X12378Y-19560D01*
X13000Y-19560D01*
X20708Y-19560D01*
X20758Y-19610D01*
X20915Y-19674D01*
X21084Y-19675D01*
X21240Y-19610D01*
X21360Y-19491D01*
X21424Y-19334D01*
X21425Y-19165D01*
X21425Y-25136D01*
X21275Y-25286D01*
X21275Y-23146D01*
X21195Y-22953D01*
X21047Y-22805D01*
X20854Y-22725D01*
X20663Y-22724D01*
X20219Y-22280D01*
X20118Y-22213D01*
X20000Y-22190D01*
X19350Y-22190D01*
X19350Y-20550D01*
X19350Y-19850D01*
X19312Y-19758D01*
X19241Y-19688D01*
X19149Y-19650D01*
X19050Y-19649D01*
X18350Y-19649D01*
X18258Y-19687D01*
X18188Y-19758D01*
X18150Y-19850D01*
X18149Y-19949D01*
X18149Y-20649D01*
X18187Y-20741D01*
X18258Y-20811D01*
X18350Y-20849D01*
X18449Y-20850D01*
X19149Y-20850D01*
X19241Y-20812D01*
X19311Y-20741D01*
X19349Y-20649D01*
X19350Y-20550D01*
X19350Y-22190D01*
X16750Y-22190D01*
X13000Y-22190D01*
X12999Y-22190D01*
X12976Y-22194D01*
X12881Y-22213D01*
X12780Y-22280D01*
X12780Y-22280D01*
X12336Y-22725D01*
X12146Y-22724D01*
X11953Y-22804D01*
X11805Y-22952D01*
X11725Y-23145D01*
X11724Y-23353D01*
X11804Y-23547D01*
X11952Y-23694D01*
X12145Y-23774D01*
X12353Y-23775D01*
X12547Y-23695D01*
X12694Y-23547D01*
X12774Y-23354D01*
X12775Y-23163D01*
X13128Y-22810D01*
X14947Y-22810D01*
X14805Y-22952D01*
X14725Y-23145D01*
X14724Y-23353D01*
X14804Y-23547D01*
X14909Y-23652D01*
X14371Y-24190D01*
X14025Y-24190D01*
X14025Y-24175D01*
X13987Y-24083D01*
X13916Y-24013D01*
X13824Y-23975D01*
X13725Y-23974D01*
X13175Y-23974D01*
X13083Y-24012D01*
X13013Y-24083D01*
X12975Y-24175D01*
X12974Y-24274D01*
X12974Y-24824D01*
X13012Y-24916D01*
X13083Y-24986D01*
X13175Y-25024D01*
X13274Y-25025D01*
X13824Y-25025D01*
X13916Y-24987D01*
X13986Y-24916D01*
X14024Y-24824D01*
X14024Y-24810D01*
X14500Y-24810D01*
X14618Y-24786D01*
X14719Y-24719D01*
X15469Y-23969D01*
X15469Y-23969D01*
X15469Y-23969D01*
X15536Y-23868D01*
X15536Y-23868D01*
X15555Y-23773D01*
X15560Y-23750D01*
X15559Y-23750D01*
X15560Y-23750D01*
X15560Y-23682D01*
X15694Y-23547D01*
X15750Y-23414D01*
X15804Y-23547D01*
X15881Y-23623D01*
X14680Y-24824D01*
X14665Y-24824D01*
X14509Y-24889D01*
X14389Y-25008D01*
X14325Y-25165D01*
X14324Y-25334D01*
X14389Y-25490D01*
X14508Y-25610D01*
X14665Y-25674D01*
X14834Y-25675D01*
X14923Y-25638D01*
X14871Y-25690D01*
X14025Y-25690D01*
X14025Y-25675D01*
X13987Y-25583D01*
X13916Y-25513D01*
X13824Y-25475D01*
X13725Y-25474D01*
X13175Y-25474D01*
X13083Y-25512D01*
X13013Y-25583D01*
X12975Y-25675D01*
X12974Y-25774D01*
X12974Y-26324D01*
X13012Y-26416D01*
X13083Y-26486D01*
X13175Y-26524D01*
X13274Y-26525D01*
X13824Y-26525D01*
X13916Y-26487D01*
X13986Y-26416D01*
X14024Y-26324D01*
X14024Y-26310D01*
X15000Y-26310D01*
X15118Y-26286D01*
X15219Y-26219D01*
X16128Y-25310D01*
X17500Y-25310D01*
X17618Y-25286D01*
X17719Y-25219D01*
X19163Y-23774D01*
X19353Y-23775D01*
X19547Y-23695D01*
X19694Y-23547D01*
X19774Y-23354D01*
X19775Y-23146D01*
X19695Y-22953D01*
X19552Y-22810D01*
X19871Y-22810D01*
X20225Y-23163D01*
X20224Y-23353D01*
X20304Y-23547D01*
X20452Y-23694D01*
X20645Y-23774D01*
X20853Y-23775D01*
X21047Y-23695D01*
X21194Y-23547D01*
X21274Y-23354D01*
X21275Y-23146D01*
X21275Y-25286D01*
X20871Y-25690D01*
X16000Y-25690D01*
X15881Y-25713D01*
X15780Y-25780D01*
X15780Y-25780D01*
X14371Y-27190D01*
X14025Y-27190D01*
X14025Y-27175D01*
X13987Y-27083D01*
X13916Y-27013D01*
X13824Y-26975D01*
X13725Y-26974D01*
X13175Y-26974D01*
X13083Y-27012D01*
X13013Y-27083D01*
X12975Y-27175D01*
X12974Y-27274D01*
X12974Y-27824D01*
X13012Y-27916D01*
X13083Y-27986D01*
X13175Y-28024D01*
X13274Y-28025D01*
X13824Y-28025D01*
X13916Y-27987D01*
X13986Y-27916D01*
X14024Y-27824D01*
X14024Y-27810D01*
X14500Y-27810D01*
X14618Y-27786D01*
X14719Y-27719D01*
X16128Y-26310D01*
X21000Y-26310D01*
X21118Y-26286D01*
X21219Y-26219D01*
X23663Y-23774D01*
X23853Y-23775D01*
X24047Y-23695D01*
X24194Y-23547D01*
X24274Y-23354D01*
X24275Y-23146D01*
X24275Y-28450D01*
X9275Y-28450D01*
X9275Y-26975D01*
X9275Y-26425D01*
X9237Y-26333D01*
X9166Y-26263D01*
X9074Y-26225D01*
X8975Y-26224D01*
X8425Y-26224D01*
X8333Y-26262D01*
X8263Y-26333D01*
X8225Y-26425D01*
X8224Y-26524D01*
X8224Y-27074D01*
X8262Y-27166D01*
X8333Y-27236D01*
X8425Y-27274D01*
X8524Y-27275D01*
X9074Y-27275D01*
X9166Y-27237D01*
X9236Y-27166D01*
X9274Y-27074D01*
X9275Y-26975D01*
X9275Y-28450D01*
X5050Y-28450D01*
X5050Y-9627D01*
X5165Y-9674D01*
X5334Y-9675D01*
X5490Y-9610D01*
X5610Y-9491D01*
X5674Y-9334D01*
X5675Y-9165D01*
X5610Y-9009D01*
X5600Y-8999D01*
X5600Y-8894D01*
X6394Y-8100D01*
X12905Y-8100D01*
X12554Y-8450D01*
X12391Y-8449D01*
X12188Y-8533D01*
X12034Y-8688D01*
X12000Y-8769D01*
X11966Y-8688D01*
X11811Y-8534D01*
X11609Y-8450D01*
X11391Y-8449D01*
X11188Y-8533D01*
X11034Y-8688D01*
X11000Y-8769D01*
X10966Y-8688D01*
X10811Y-8534D01*
X10609Y-8450D01*
X10391Y-8449D01*
X10188Y-8533D01*
X10034Y-8688D01*
X10000Y-8769D01*
X9966Y-8688D01*
X9811Y-8534D01*
X9609Y-8450D01*
X9391Y-8449D01*
X9188Y-8533D01*
X9034Y-8688D01*
X9000Y-8769D01*
X8966Y-8688D01*
X8811Y-8534D01*
X8609Y-8450D01*
X8391Y-8449D01*
X8188Y-8533D01*
X8034Y-8688D01*
X7950Y-8890D01*
X7949Y-9108D01*
X8033Y-9311D01*
X8188Y-9465D01*
X8390Y-9549D01*
X8608Y-9550D01*
X8811Y-9466D01*
X8965Y-9311D01*
X8999Y-9230D01*
X9033Y-9311D01*
X9188Y-9465D01*
X9390Y-9549D01*
X9608Y-9550D01*
X9811Y-9466D01*
X9965Y-9311D01*
X9999Y-9230D01*
X10033Y-9311D01*
X10188Y-9465D01*
X10390Y-9549D01*
X10608Y-9550D01*
X10811Y-9466D01*
X10965Y-9311D01*
X10999Y-9230D01*
X11033Y-9311D01*
X11188Y-9465D01*
X11390Y-9549D01*
X11608Y-9550D01*
X11811Y-9466D01*
X11965Y-9311D01*
X11999Y-9230D01*
X12033Y-9311D01*
X12188Y-9465D01*
X12390Y-9549D01*
X12608Y-9550D01*
X12811Y-9466D01*
X12965Y-9311D01*
X13049Y-9109D01*
X13050Y-8944D01*
X13894Y-8100D01*
X20905Y-8100D01*
X20752Y-8252D01*
X20676Y-8366D01*
X20650Y-8500D01*
X20650Y-8572D01*
X20534Y-8688D01*
X20500Y-8769D01*
X20466Y-8688D01*
X20311Y-8534D01*
X20109Y-8450D01*
X19891Y-8449D01*
X19688Y-8533D01*
X19534Y-8688D01*
X19500Y-8769D01*
X19466Y-8688D01*
X19311Y-8534D01*
X19109Y-8450D01*
X18891Y-8449D01*
X18688Y-8533D01*
X18534Y-8688D01*
X18500Y-8769D01*
X18466Y-8688D01*
X18311Y-8534D01*
X18109Y-8450D01*
X17891Y-8449D01*
X17688Y-8533D01*
X17534Y-8688D01*
X17500Y-8769D01*
X17466Y-8688D01*
X17311Y-8534D01*
X17109Y-8450D01*
X16891Y-8449D01*
X16688Y-8533D01*
X16534Y-8688D01*
X16450Y-8890D01*
X16449Y-9108D01*
X16533Y-9311D01*
X16688Y-9465D01*
X16890Y-9549D01*
X17108Y-9550D01*
X17311Y-9466D01*
X17465Y-9311D01*
X17499Y-9230D01*
X17533Y-9311D01*
X17688Y-9465D01*
X17890Y-9549D01*
X18108Y-9550D01*
X18311Y-9466D01*
X18465Y-9311D01*
X18499Y-9230D01*
X18533Y-9311D01*
X18688Y-9465D01*
X18890Y-9549D01*
X19108Y-9550D01*
X19311Y-9466D01*
X19465Y-9311D01*
X19499Y-9230D01*
X19533Y-9311D01*
X19688Y-9465D01*
X19890Y-9549D01*
X20108Y-9550D01*
X20311Y-9466D01*
X20465Y-9311D01*
X20499Y-9230D01*
X20533Y-9311D01*
X20688Y-9465D01*
X20890Y-9549D01*
X21108Y-9550D01*
X21311Y-9466D01*
X21465Y-9311D01*
X21549Y-9109D01*
X21550Y-8891D01*
X21466Y-8688D01*
X21386Y-8608D01*
X21894Y-8100D01*
X28605Y-8100D01*
X28954Y-8449D01*
X28891Y-8449D01*
X28688Y-8533D01*
X28534Y-8688D01*
X28500Y-8769D01*
X28466Y-8688D01*
X28311Y-8534D01*
X28109Y-8450D01*
X27891Y-8449D01*
X27688Y-8533D01*
X27534Y-8688D01*
X27500Y-8769D01*
X27466Y-8688D01*
X27311Y-8534D01*
X27109Y-8450D01*
X26891Y-8449D01*
X26688Y-8533D01*
X26534Y-8688D01*
X26500Y-8769D01*
X26466Y-8688D01*
X26311Y-8534D01*
X26109Y-8450D01*
X25891Y-8449D01*
X25688Y-8533D01*
X25534Y-8688D01*
X25450Y-8890D01*
X25449Y-9108D01*
X25533Y-9311D01*
X25688Y-9465D01*
X25890Y-9549D01*
X26108Y-9550D01*
X26311Y-9466D01*
X26465Y-9311D01*
X26499Y-9230D01*
X26533Y-9311D01*
X26688Y-9465D01*
X26890Y-9549D01*
X27108Y-9550D01*
X27311Y-9466D01*
X27465Y-9311D01*
X27499Y-9230D01*
X27533Y-9311D01*
X27688Y-9465D01*
X27890Y-9549D01*
X28108Y-9550D01*
X28311Y-9466D01*
X28465Y-9311D01*
X28499Y-9230D01*
X28533Y-9311D01*
X28688Y-9465D01*
X28890Y-9549D01*
X29108Y-9550D01*
X29311Y-9466D01*
X29465Y-9311D01*
X29499Y-9230D01*
X29533Y-9311D01*
X29688Y-9465D01*
X29890Y-9549D01*
X30108Y-9550D01*
X30311Y-9466D01*
X30465Y-9311D01*
X30549Y-9109D01*
X30550Y-8891D01*
X30466Y-8688D01*
X30311Y-8534D01*
X30109Y-8450D01*
X29944Y-8449D01*
X28997Y-7502D01*
X28883Y-7426D01*
X28750Y-7400D01*
X21750Y-7400D01*
X21749Y-7400D01*
X13750Y-7400D01*
X6250Y-7400D01*
X6116Y-7426D01*
X6002Y-7502D01*
X5050Y-8455D01*
X5050Y-5550D01*
X8046Y-5550D01*
X8013Y-5583D01*
X7975Y-5675D01*
X7974Y-5774D01*
X7974Y-6324D01*
X8012Y-6416D01*
X8083Y-6486D01*
X8175Y-6524D01*
X8274Y-6525D01*
X8824Y-6525D01*
X8916Y-6487D01*
X8986Y-6416D01*
X9024Y-6324D01*
X9025Y-6225D01*
X9025Y-6225D01*
X9054Y-6297D01*
X9202Y-6444D01*
X9395Y-6524D01*
X9603Y-6525D01*
X9797Y-6445D01*
X9944Y-6297D01*
X10000Y-6164D01*
X10054Y-6297D01*
X10202Y-6444D01*
X10395Y-6524D01*
X10603Y-6525D01*
X10797Y-6445D01*
X10944Y-6297D01*
X11000Y-6164D01*
X11054Y-6297D01*
X11202Y-6444D01*
X11395Y-6524D01*
X11603Y-6525D01*
X11797Y-6445D01*
X11944Y-6297D01*
X12024Y-6104D01*
X12025Y-5896D01*
X11945Y-5703D01*
X11797Y-5555D01*
X11785Y-5550D01*
X16546Y-5550D01*
X16513Y-5583D01*
X16475Y-5675D01*
X16474Y-5774D01*
X16474Y-6324D01*
X16512Y-6416D01*
X16583Y-6486D01*
X16675Y-6524D01*
X16774Y-6525D01*
X17324Y-6525D01*
X17416Y-6487D01*
X17486Y-6416D01*
X17524Y-6324D01*
X17525Y-6225D01*
X17525Y-6225D01*
X17554Y-6297D01*
X17702Y-6444D01*
X17895Y-6524D01*
X18103Y-6525D01*
X18297Y-6445D01*
X18444Y-6297D01*
X18500Y-6164D01*
X18554Y-6297D01*
X18702Y-6444D01*
X18895Y-6524D01*
X19103Y-6525D01*
X19297Y-6445D01*
X19444Y-6297D01*
X19500Y-6164D01*
X19554Y-6297D01*
X19702Y-6444D01*
X19895Y-6524D01*
X20103Y-6525D01*
X20297Y-6445D01*
X20444Y-6297D01*
X20524Y-6104D01*
X20525Y-5896D01*
X20445Y-5703D01*
X20297Y-5555D01*
X20285Y-5550D01*
X25546Y-5550D01*
X25513Y-5583D01*
X25475Y-5675D01*
X25474Y-5774D01*
X25474Y-6324D01*
X25512Y-6416D01*
X25583Y-6486D01*
X25675Y-6524D01*
X25774Y-6525D01*
X26324Y-6525D01*
X26416Y-6487D01*
X26486Y-6416D01*
X26524Y-6324D01*
X26525Y-6225D01*
X26525Y-6225D01*
X26554Y-6297D01*
X26702Y-6444D01*
X26895Y-6524D01*
X27103Y-6525D01*
X27297Y-6445D01*
X27444Y-6297D01*
X27500Y-6164D01*
X27554Y-6297D01*
X27702Y-6444D01*
X27895Y-6524D01*
X28103Y-6525D01*
X28297Y-6445D01*
X28444Y-6297D01*
X28500Y-6164D01*
X28554Y-6297D01*
X28702Y-6444D01*
X28895Y-6524D01*
X29103Y-6525D01*
X29297Y-6445D01*
X29444Y-6297D01*
X29524Y-6104D01*
X29525Y-5896D01*
X29445Y-5703D01*
X29297Y-5555D01*
X29285Y-5550D01*
X33950Y-5550D01*
X33950Y-17450D01*
M02*
